<svg width="46" height="38" viewBox="0 0 46 38" fill="none" xmlns="http://www.w3.org/2000/svg">
<g id="Clip path group">
<mask id="mask0_2_248299" style="mask-type:luminance" maskUnits="userSpaceOnUse" x="0" y="0" width="46" height="38">
<g id="393261e62c">
<path id="Vector" d="M0.553711 0.452271H45.9709V37.2116H0.553711V0.452271Z" fill="white"/>
</g>
</mask>
<g mask="url(#mask0_2_248299)">
<g id="Group">
<path id="Vector_2" d="M44.4667 16.1524C44.4667 20.4958 35.6976 23.0448 26.4836 23.5285V21.3809C26.4836 20.9505 26.1353 20.607 25.7097 20.607H20.8633C20.4376 20.607 20.0894 20.9505 20.0894 21.3809V23.5285C10.8754 23.0448 2.10631 20.4958 2.10631 16.1524V9.60826C2.10631 8.28298 3.18491 7.20439 4.51018 7.20439H42.0628C43.3881 7.20439 44.4667 8.28298 44.4667 9.60826V16.1524ZM21.6371 26.8368V22.1548H24.9358V26.8368H21.6371ZM44.4667 33.2552C44.4667 34.5853 43.3881 35.6639 42.0628 35.6639H4.51018C3.18491 35.6639 2.10631 34.5853 2.10631 33.2552V19.7558C3.33968 21.0617 5.29857 22.179 7.94428 23.0641C11.2526 24.1669 15.48 24.8634 20.0894 25.0859V27.6107C20.0894 28.0363 20.4376 28.3846 20.8633 28.3846H25.7097C26.1353 28.3846 26.4836 28.0363 26.4836 27.6107V25.0859C34.174 24.7231 41.4001 23.0254 44.4667 19.78V33.2552ZM16.3748 3.49943C16.3748 2.67234 17.0471 2.00487 17.8741 2.00487H28.6988C29.5259 2.00487 30.1982 2.67234 30.1982 3.49943V5.65662H16.3748V3.49943ZM42.0628 5.65662H31.746V3.49943C31.746 1.82107 30.382 0.452271 28.6988 0.452271H17.8741C16.1958 0.452271 14.827 1.82107 14.827 3.49943V5.65662H4.51018C2.3288 5.65662 0.553711 7.43172 0.553711 9.60826V33.2552C0.553711 35.4366 2.3288 37.2116 4.51018 37.2116H42.0628C44.2442 37.2116 46.0192 35.4366 46.0192 33.2552V9.60826C46.0192 7.43172 44.2442 5.65662 42.0628 5.65662Z" fill="#C18948"/>
</g>
</g>
</g>
</svg>
