<svg width="25" height="28" viewBox="0 0 25 28" fill="none" xmlns="http://www.w3.org/2000/svg">
<g id="Clip path group">
<mask id="mask0_2_248191" style="mask-type:luminance" maskUnits="userSpaceOnUse" x="0" y="0" width="25" height="28">
<g id="aec5af1240">
<path id="Vector" d="M0.682129 0.123291H24.7982V27.0253H0.682129V0.123291Z" fill="white"/>
</g>
</mask>
<g mask="url(#mask0_2_248191)">
<g id="Group">
<path id="Vector_2" d="M4.80772 13.3567C4.74968 13.3809 4.6481 13.3954 4.5949 13.3664C4.56104 13.347 4.43045 13.2406 4.41594 13.3422C4.39176 13.3374 4.37241 13.3374 4.36274 13.3615C4.39176 13.3615 4.42078 13.3615 4.4498 13.3615C4.4498 13.3712 4.4498 13.3761 4.4498 13.3809C4.40627 13.3761 4.41594 13.4099 4.37241 13.4099C4.33855 13.4099 4.32404 13.3712 4.28535 13.3809C4.28051 13.4148 4.27567 13.4438 4.24182 13.4631C4.26116 13.4728 4.29018 13.4776 4.30953 13.4728C4.29986 13.4825 4.29986 13.4873 4.29018 13.4921C4.28535 13.5212 4.26116 13.5453 4.24665 13.5647C4.22731 13.5937 4.2128 13.6324 4.22247 13.6711C4.22731 13.6808 4.24665 13.6904 4.24665 13.7098C4.25149 13.7291 4.24665 13.7533 4.24665 13.7775C4.25149 13.8017 4.27084 13.8694 4.23214 13.8791C4.22731 13.9468 4.24182 14.0145 4.19345 14.058C4.14025 14.1064 4.10155 14.1499 4.07253 14.2177C4.06769 14.2177 4.06286 14.2177 4.05802 14.2177C4.05802 14.2322 4.05802 14.2515 4.05802 14.2709C4.01933 14.266 3.99514 14.2999 3.96612 14.3192C3.9371 14.3434 3.90808 14.3531 3.86939 14.3628C3.83553 14.3676 3.80167 14.3628 3.77749 14.3966C3.7388 14.4305 3.69527 14.4208 3.64206 14.416C3.61788 14.416 3.52114 14.4305 3.55016 14.474C3.55984 14.445 3.59369 14.445 3.61788 14.445C3.62271 14.4837 3.55984 14.4788 3.52598 14.4788C3.48245 14.4837 3.46794 14.503 3.44375 14.5369C3.42441 14.5369 3.40022 14.5369 3.38088 14.5369C3.34218 14.5417 3.33735 14.5611 3.30833 14.5756C3.26963 14.5998 3.2261 14.5901 3.17773 14.5949C3.16806 14.6191 3.12453 14.6191 3.10035 14.6481C3.07133 14.6239 3.02779 14.6046 2.99394 14.6191C2.96975 14.6094 2.96008 14.5901 2.93106 14.5949C2.92622 14.5949 2.92139 14.5949 2.91655 14.5949C2.91655 14.5949 2.91171 14.5949 2.91171 14.5998C2.90688 14.5998 2.90688 14.5998 2.90204 14.6046C2.89237 14.6094 2.88753 14.6143 2.87302 14.6143C2.81981 14.6191 2.80047 14.5659 2.75694 14.5562C2.72308 14.5514 2.71341 14.5562 2.68922 14.5369C2.66988 14.5224 2.65537 14.4982 2.63602 14.4837C2.59249 14.4498 2.54896 14.4401 2.51026 14.4063C2.49092 14.3869 2.47157 14.3676 2.45222 14.3434C2.42804 14.3192 2.41353 14.3144 2.37967 14.2902C2.34098 14.2612 2.31196 14.2273 2.27326 14.1935C2.21039 14.1403 2.0943 14.0532 2.08947 13.9613C2.09914 13.9565 2.09914 13.9516 2.10398 13.9468C2.06045 13.9516 2.0411 13.9178 2.01692 13.8791C1.9879 13.8356 1.96371 13.8114 1.92502 13.7775C1.88632 13.7437 1.86214 13.705 1.81377 13.6759C1.77024 13.6469 1.75573 13.6227 1.72671 13.5792C1.66383 13.497 1.59128 13.4293 1.53324 13.3422C1.50906 13.3083 1.49455 13.2696 1.47036 13.231C1.44618 13.1923 1.33977 13.0713 1.422 13.0423C1.42683 13.0278 1.43651 13.0278 1.44618 13.0133C1.45102 12.9988 1.44134 12.9843 1.45102 12.9746C1.46553 12.9553 1.50422 12.9649 1.5284 12.9649C1.5284 12.9988 1.49455 12.9794 1.48004 12.994C1.45102 13.0181 1.46553 13.0472 1.49938 13.052C1.52357 13.052 1.53808 13.0326 1.55259 13.0278C1.58161 13.023 1.60579 13.0472 1.62514 13.0278C1.60579 13.0665 1.5284 13.1487 1.6203 13.1439C1.62514 13.1778 1.58645 13.1681 1.58161 13.1971C1.60579 13.1874 1.61547 13.1681 1.63481 13.1632C1.659 13.1487 1.68802 13.1536 1.7122 13.1439C1.73155 13.1342 1.76057 13.1149 1.77992 13.1197C1.80894 13.1245 1.79926 13.1681 1.84279 13.1584C1.84763 13.1487 1.84763 13.1294 1.84279 13.1197C1.83796 13.1197 1.83312 13.1197 1.82828 13.1149C1.87665 13.1149 1.92018 13.1004 1.96855 13.1052C1.96855 13.1197 1.97338 13.1294 1.97822 13.1391C1.98306 13.1391 1.99273 13.1391 1.99757 13.1342C1.9879 13.1004 2.01208 13.1197 2.03143 13.1052C2.03626 13.1004 2.04594 13.1052 2.05561 13.1004C2.06045 13.0955 2.05561 13.0859 2.06045 13.0762C2.08463 13.0568 2.16685 13.023 2.15718 13.0907C2.16202 13.0907 2.17653 13.0907 2.18136 13.0907C2.18136 13.0859 2.1862 13.081 2.1862 13.081C2.19588 13.081 2.20555 13.0713 2.22006 13.0713C2.22006 13.0375 2.28294 13.0133 2.29261 12.9746C2.27326 12.9746 2.25392 12.9746 2.23941 12.9746C2.25875 12.9601 2.2781 12.9456 2.30228 12.9407C2.31196 12.9407 2.33614 12.9311 2.34581 12.9359C2.36516 12.9456 2.36516 12.9698 2.38451 12.9746C2.41353 12.9843 2.39418 12.9601 2.41353 12.9601C2.44255 12.9553 2.47641 12.9649 2.50543 12.9649C2.5151 12.9407 2.51026 12.9166 2.51994 12.8972C2.52961 12.8779 2.55863 12.8634 2.57314 12.8489C2.61183 12.8198 2.64569 12.7618 2.68922 12.7473C2.68922 12.6844 2.70373 12.6409 2.72792 12.5877C2.74726 12.5586 2.75694 12.5635 2.78112 12.5393C2.80047 12.5199 2.8053 12.5054 2.81981 12.4813C2.78112 12.5151 2.72308 12.5054 2.72308 12.4474C2.67471 12.4377 2.60216 12.4716 2.607 12.5296C2.55863 12.5683 2.57798 12.5248 2.54412 12.5103C2.5151 12.4958 2.48608 12.5199 2.48608 12.5441C2.50059 12.5441 2.51994 12.549 2.53445 12.549C2.55379 12.549 2.51994 12.5925 2.5151 12.5925C2.49575 12.6022 2.45706 12.5877 2.43288 12.5925C2.39418 12.607 2.39418 12.6409 2.36032 12.6554C2.30228 12.6747 2.23457 12.6457 2.18136 12.6796C2.18136 12.6844 2.18136 12.6892 2.18136 12.6941C2.14751 12.6941 2.133 12.7086 2.10881 12.7134C2.07496 12.7183 2.0411 12.7086 2.00724 12.7037C1.97822 12.7037 1.87181 12.6747 1.87665 12.7086C1.86214 12.7183 1.84279 12.7183 1.82345 12.7134C1.81861 12.636 1.73638 12.6699 1.68802 12.6554C1.65416 12.6457 1.63481 12.6118 1.61063 12.5925C1.58645 12.5732 1.56226 12.5538 1.53808 12.5345C1.48971 12.4909 1.44134 12.4667 1.3833 12.4377C1.33493 12.4135 1.28173 12.341 1.22853 12.3362C1.21402 12.2975 1.19951 12.2829 1.17532 12.2539C1.21402 12.2588 1.19467 12.191 1.24304 12.1862C1.24304 12.1814 1.24304 12.1765 1.24304 12.1717C1.20918 12.162 1.18016 12.2152 1.15114 12.2249C1.13179 12.2007 1.16081 12.2056 1.17049 12.1862C1.185 12.1669 1.185 12.1524 1.18016 12.1282C1.15114 12.133 1.15114 12.1765 1.11728 12.1765C1.10761 12.1378 1.18016 12.104 1.14147 12.0846C1.11244 12.075 1.07375 12.0605 1.04473 12.0605C1.06891 12.0266 1.08826 12.0459 1.07859 12.0121C1.06891 11.9831 1.04473 11.9734 1.01571 11.9831C1.01087 11.9492 1.00604 11.8863 1.02055 11.8525C1.02538 11.8476 1.02538 11.838 1.03022 11.838C1.03506 11.8235 1.03989 11.8283 1.06891 11.8283C1.10277 11.8235 1.10277 11.8235 1.12695 11.8041C1.1463 11.7944 1.16081 11.7703 1.18016 11.7606C1.19951 11.7509 1.22853 11.7606 1.24304 11.7412C1.25755 11.7267 1.25755 11.688 1.27206 11.6638C1.2382 11.659 1.22853 11.6929 1.20918 11.7074C1.19467 11.717 1.16081 11.7412 1.1463 11.7461C1.09793 11.7606 1.03022 11.7267 0.996363 11.7703C0.967342 11.8186 0.991526 11.8815 0.914138 11.8815C0.880281 11.8767 0.812567 11.8767 0.783546 11.8621C0.749689 11.838 0.778709 11.8283 0.788383 11.7896C0.788383 11.7848 0.783546 11.7799 0.783546 11.7751C0.798056 11.7703 0.802893 11.7703 0.802893 11.7703C0.812567 11.7364 0.827077 11.7074 0.831914 11.6784C0.860934 11.6687 0.841587 11.6397 0.846424 11.6155C0.856097 11.5961 0.875444 11.5913 0.880281 11.5719C0.899628 11.5719 0.923812 11.5768 0.938322 11.5671C0.957669 11.5526 0.943159 11.5332 0.977016 11.5284C0.991526 11.5284 1.00604 11.5478 1.02055 11.5526C1.03989 11.5574 1.06408 11.5526 1.08342 11.5526C1.17049 11.5526 1.26238 11.5574 1.34945 11.5526C1.36879 11.5139 1.36396 11.4655 1.37847 11.4268C1.38814 11.3881 1.39781 11.3543 1.39781 11.3059C1.39781 11.2721 1.40265 11.1705 1.43651 11.2382C1.45102 11.2672 1.43651 11.3446 1.48004 11.3446C1.48971 11.3204 1.51389 11.2527 1.54291 11.2576C1.55742 11.2962 1.55742 11.3398 1.61547 11.3156C1.62998 11.3059 1.64449 11.2866 1.659 11.2866C1.67351 11.2914 1.69285 11.3204 1.70253 11.3253C1.74606 11.3398 1.77992 11.3253 1.81861 11.3156C1.84279 11.3059 1.83796 11.3059 1.86698 11.3156C1.88632 11.3253 1.896 11.3398 1.92018 11.3349C1.92985 11.2962 1.94436 11.3011 1.97338 11.3059C1.99757 11.3108 2.01692 11.3204 2.04594 11.3204C2.07012 11.3204 2.11365 11.3108 2.133 11.3204C2.14751 11.3253 2.17653 11.3688 2.1862 11.3833C2.22973 11.4462 2.25875 11.4607 2.33614 11.4607C2.37 11.4607 2.48608 11.4752 2.49092 11.4414C2.51994 11.4123 2.55379 11.393 2.58281 11.3688C2.61184 11.3446 2.607 11.3446 2.64569 11.3398C2.67471 11.3398 2.69406 11.3398 2.71824 11.3301C2.74726 11.3204 2.75694 11.2962 2.78112 11.2866C2.80047 11.2817 2.83433 11.2769 2.85367 11.2769C2.90204 11.2769 2.95041 11.2769 2.99877 11.2769C3.00845 11.3446 2.96008 11.422 3.03263 11.451C3.08584 11.4704 3.16806 11.4607 3.2261 11.4607C3.23094 11.4172 3.24545 11.3833 3.29382 11.3785C3.29382 11.3736 3.29382 11.3736 3.29382 11.3688C3.32284 11.3688 3.34702 11.364 3.36637 11.3785C3.39055 11.3591 3.42441 11.3253 3.45343 11.3253C3.45826 11.3204 3.4631 11.3156 3.46794 11.3108C3.46794 11.3059 3.46794 11.2962 3.46794 11.2962C3.42924 11.2914 3.39055 11.2962 3.35186 11.2914C3.34218 11.2479 3.3712 11.2043 3.36637 11.156C3.35669 11.1511 3.35669 11.1463 3.34702 11.1463C3.35186 11.0979 3.40506 11.0883 3.44859 11.0931C3.45826 11.0302 3.36637 10.9287 3.33251 10.8803C3.28898 10.8174 3.25996 10.8029 3.24545 10.7255C3.23094 10.6723 3.18741 10.6336 3.16322 10.5804C3.1342 10.5272 3.10518 10.4692 3.09067 10.4111C3.07133 10.3531 3.06165 10.2999 3.06165 10.237C3.06165 10.1403 3.06649 10.1209 2.96492 10.1209C2.90204 10.1209 2.844 10.1161 2.78596 10.0967C2.76177 10.0919 2.73759 10.0822 2.71824 10.0677C2.69406 10.0435 2.72308 10.0193 2.66504 10.0097C2.66504 9.98065 2.67471 9.93712 2.6602 9.91293C2.65053 9.89358 2.62151 9.89359 2.607 9.86456C2.58765 9.82103 2.59732 9.71462 2.62151 9.68077C2.64086 9.65175 2.66988 9.64207 2.68922 9.61305C2.70857 9.58403 2.70373 9.55501 2.70373 9.51632C2.70373 9.4486 2.72308 9.37121 2.66504 9.33252C2.61667 9.29866 2.53928 9.28415 2.48124 9.28899C2.46673 9.29383 2.47157 9.31801 2.45222 9.31317C2.42804 9.30834 2.42804 9.29383 2.41353 9.27931C2.38934 9.2648 2.37483 9.24546 2.35549 9.23095C2.25392 9.15356 2.133 9.14872 2.17169 8.98911C2.1862 8.94558 2.21522 8.92139 2.22006 8.87786C2.23941 8.76662 2.2249 8.73276 2.32163 8.66988C2.38451 8.62635 2.45706 8.59733 2.5151 8.5538C2.56347 8.51511 2.61667 8.43772 2.6602 8.38935C2.69406 8.34098 2.72792 8.29745 2.77145 8.24908C2.78596 8.2249 2.79079 8.19588 2.81014 8.1717C2.88753 8.08947 3.03747 8.00241 3.14388 8.09431C3.19224 8.13784 3.16322 8.16686 3.17773 8.22974C3.19224 8.2781 3.27931 8.37 3.32767 8.37968C3.41473 8.39902 3.49696 8.32163 3.57435 8.29261C3.64206 8.26359 3.70978 8.25392 3.792 8.25392C3.92743 8.25392 4.06769 8.29745 4.1741 8.20072C4.24182 8.13784 4.23698 8.05078 4.28535 7.97822C4.30953 7.94437 4.35306 7.92986 4.39176 7.90567C4.43045 7.88633 4.45947 7.87665 4.47398 7.83796C4.48849 7.79443 4.44496 7.70737 4.50784 7.69769C4.5417 7.62514 4.59006 7.53324 4.67229 7.50422C4.72065 7.48971 4.75935 7.49455 4.79804 7.46069C4.8851 7.39781 4.98184 7.37847 5.06406 7.32042C5.17531 7.24304 5.18982 7.11728 5.28655 7.03506C5.32041 7.00603 5.34459 6.95767 5.36394 6.9093C5.38329 6.86093 5.39296 6.81256 5.41231 6.7642C5.44133 6.6723 5.47035 6.59007 5.47519 6.49817C5.52839 6.46915 5.56225 6.44981 5.62996 6.44981C5.67349 6.44981 5.71702 6.46432 5.76055 6.45948C5.80892 6.45464 5.81376 6.41595 5.84278 6.37725C5.85729 6.34823 5.88631 6.33856 5.91533 6.31921C5.95402 6.3047 5.94435 6.29987 5.95402 6.26117C5.95886 6.21764 5.96853 6.17411 5.9637 6.12574C5.93468 6.11607 5.90082 6.08705 5.92984 6.05319C5.93951 6.04835 5.98788 6.03868 5.98788 6.03384C5.99272 6.0145 5.97821 5.99999 5.95886 6.00482C5.94919 5.95646 6.0169 5.96613 6.04592 5.96129V5.95646C6.07494 5.95162 6.08462 5.90809 6.1088 5.90325C6.11364 5.8839 6.1088 5.86939 6.11364 5.85005C6.15233 5.85005 6.15717 5.84037 6.18135 5.81135C6.2007 5.78717 6.22972 5.78717 6.24423 5.75815C6.2539 5.72429 6.23456 5.70494 6.27809 5.6856C6.31194 5.67109 6.33129 5.67109 6.35547 5.6469C6.37966 5.61788 6.399 5.5937 6.42803 5.56951C6.4377 5.55984 6.4377 5.55017 6.44737 5.53566C6.46188 5.51631 6.46188 5.52115 6.47639 5.51147C6.50058 5.5018 6.50058 5.50664 6.51509 5.49213C6.5296 5.47762 6.51992 5.46794 6.53927 5.46311C6.55378 5.45827 6.57313 5.46794 6.58764 5.45827C6.59247 5.4486 6.58764 5.42441 6.58764 5.41474C6.57313 5.40506 6.54411 5.40506 6.52476 5.41474C6.5296 5.41957 6.52476 5.42925 6.52476 5.43892C6.51025 5.43892 6.49574 5.43892 6.48607 5.43892C6.48607 5.43408 6.48123 5.42925 6.48123 5.42441C6.4377 5.41957 6.47639 5.25996 6.48607 5.23578C6.49574 5.22127 6.51509 5.19708 6.5296 5.18741C6.53927 5.17774 6.56829 5.1729 6.56829 5.15839C6.57313 5.11002 6.56345 5.10518 6.51509 5.10518C6.52476 5.09551 6.53443 5.09067 6.54411 5.08584C6.54894 5.04231 6.53443 5.00845 6.51509 4.96976C6.50541 4.95524 6.46188 4.89237 6.48123 4.87302C6.50541 4.85367 6.51992 4.89237 6.53443 4.84884C6.54411 4.81982 6.53927 4.81498 6.55862 4.79079C6.57796 4.77145 6.59247 4.7521 6.61666 4.74243C6.66986 4.72308 6.7279 4.7521 6.72307 4.67955C6.75692 4.67955 6.75209 4.64085 6.77143 4.62634C6.79562 4.61183 6.83915 4.62151 6.86333 4.62151C6.92621 4.62151 6.98425 4.61667 7.04229 4.61667C7.05196 4.59249 7.07131 4.58281 7.08582 4.5683C7.11001 4.54896 7.11968 4.54412 7.11968 4.5151C7.11968 4.47157 7.14386 4.40869 7.13903 4.36516C7.13419 4.33614 7.07615 4.29261 7.04713 4.28293C7.02778 4.2781 6.99876 4.28293 6.97941 4.28293C6.98425 4.25391 6.95039 4.24424 6.95039 4.21522C6.93588 4.21522 6.91654 4.21522 6.90203 4.21522C6.90203 4.22006 6.90203 4.22006 6.90203 4.22489C6.88268 4.22489 6.87301 4.23457 6.87301 4.25391C6.8585 4.25391 6.84398 4.25391 6.82947 4.25391C6.82947 4.24908 6.82947 4.24424 6.82947 4.24424C6.82464 4.24424 6.81496 4.24424 6.81013 4.2394C6.80045 4.22489 6.79078 4.21038 6.79078 4.19104C6.74241 4.1862 6.66019 4.17653 6.62633 4.21522C6.61182 4.20071 6.61666 4.18136 6.61666 4.15718C6.56829 4.1475 6.62149 4.11365 6.62633 4.10397C6.64568 4.07495 6.636 4.05561 6.63117 4.02659C6.63117 4.02659 6.62633 4.02175 6.62149 4.02175C6.61666 3.98305 6.65052 3.9492 6.64568 3.90083C6.62149 3.90083 6.60215 3.90567 6.5828 3.91534C6.5828 3.93469 6.5828 3.9492 6.5828 3.96854C6.56345 3.96854 6.54894 3.96854 6.53443 3.96371C6.49574 3.95403 6.46188 3.93952 6.41835 3.94436C6.41835 3.9492 6.41351 3.95403 6.40868 3.96371C6.32645 3.98305 6.36031 3.88148 6.31194 3.8573C6.2926 3.84763 6.26358 3.8573 6.23939 3.84763C6.22005 3.83311 6.21521 3.80409 6.18619 3.79926C6.16684 3.72187 6.00239 3.72671 5.94435 3.72187C5.95886 3.65415 5.90082 3.64448 5.84278 3.63964C5.84762 3.61062 5.85729 3.58644 5.85245 3.55258C5.85245 3.55258 5.84762 3.54775 5.84278 3.54775C5.84278 3.53324 5.84762 3.50421 5.84278 3.48487C5.83794 3.46552 5.8186 3.47036 5.8186 3.44134C5.8186 3.43166 5.84762 3.41232 5.85245 3.39297C5.85729 3.37846 5.85245 3.35427 5.85245 3.33493C5.85245 3.30591 5.84762 3.28172 5.84278 3.25754C5.83794 3.24303 5.82343 3.21885 5.82343 3.20434C5.82343 3.17048 5.84762 3.13178 5.84762 3.09309C5.84762 3.08342 5.84762 3.06891 5.84762 3.05923C5.84762 3.04956 5.83311 3.04956 5.82827 3.03989C5.82827 3.02054 5.84278 3.01086 5.84278 2.99152C5.84762 2.95766 5.83311 2.91897 5.8186 2.88511C5.79441 2.80772 5.79925 2.73033 5.79441 2.64811C5.78957 2.64327 5.78474 2.64327 5.7799 2.64327C5.76055 2.59974 5.76539 2.55621 5.76055 2.50784C5.73637 2.49817 5.76539 2.42562 5.76539 2.3966C5.77023 2.38208 5.76539 2.34339 5.7799 2.33372C5.79925 2.30953 5.89115 2.32888 5.92017 2.32888C5.95886 2.32888 5.94435 2.33855 5.9637 2.29502C5.97821 2.27084 5.98304 2.25633 5.98788 2.22731C5.98788 2.20796 5.97821 2.16443 5.98788 2.14992C6.00239 2.13541 6.04592 2.14025 6.06043 2.13541C6.07011 2.13057 6.07494 2.11606 6.08945 2.11123C6.10396 2.10639 6.11364 2.11123 6.12815 2.10639C6.14749 2.10639 6.17168 2.10639 6.19586 2.10639C6.20554 2.09672 6.21037 2.07253 6.22005 2.06286C6.23456 2.05318 6.25874 2.05318 6.26358 2.04351C6.27325 2.029 6.26358 2.00482 6.26841 1.99031C6.27325 1.97096 6.28292 1.96129 6.28776 1.94678C6.30227 1.92259 6.32645 1.8839 6.31194 1.85004C6.29743 1.81618 6.25874 1.83069 6.22005 1.82586C6.20554 1.792 6.16684 1.78716 6.13782 1.76781C6.11847 1.75814 6.12331 1.73879 6.09913 1.72912C6.08462 1.72428 6.06527 1.73396 6.05076 1.72428C6.00239 1.70494 6.01207 1.56951 6.07494 1.56467C6.07494 1.55016 6.07978 1.53565 6.09429 1.53081C6.09429 1.52114 6.09429 1.50179 6.09429 1.49212C6.03625 1.45343 5.97337 1.48245 5.91049 1.46794C5.89115 1.4631 5.8718 1.4631 5.85729 1.45343C5.84278 1.43891 5.83311 1.41957 5.81376 1.40989C5.78958 1.39538 5.75088 1.41473 5.74121 1.38571C5.69768 1.39538 5.71219 1.35669 5.688 1.33734C5.66382 1.32283 5.64447 1.34702 5.62996 1.30832C5.62029 1.28414 5.62996 1.25995 5.62029 1.24061C5.61062 1.21642 5.5816 1.19708 5.5816 1.16806C5.56225 1.16806 5.5429 1.17289 5.52839 1.16806C5.51872 1.16806 5.50904 1.17289 5.49937 1.16806C5.48486 1.16322 5.4897 1.14871 5.48002 1.14387C5.44133 1.1342 5.41715 1.16806 5.37845 1.16322C5.37845 1.15838 5.37845 1.15355 5.37845 1.15355C5.33008 1.13904 5.33008 1.1874 5.29139 1.1874C5.29623 1.1342 5.21884 1.15355 5.22851 1.11001C5.22368 1.11001 5.18498 1.11485 5.18015 1.10518C5.1608 1.09067 5.18498 1.08583 5.18498 1.06648C5.19466 1.03746 5.19949 1.01328 5.18982 0.979422C5.18015 0.960075 5.16564 0.960075 5.17047 0.940728C5.17047 0.935891 5.19949 0.911707 5.20433 0.89236C5.20433 0.873013 5.19949 0.848829 5.20917 0.834319C5.24302 0.785951 5.26721 0.834319 5.3059 0.824645C5.31074 0.819809 5.31557 0.819809 5.32041 0.814972C5.32525 0.723073 5.46068 0.737583 5.45584 0.645685C5.48486 0.640848 5.51388 0.645685 5.5429 0.640848C5.54774 0.611828 5.55741 0.57797 5.56225 0.54895C5.60578 0.544113 5.62029 0.529603 5.62029 0.486072C5.6348 0.476398 5.65415 0.442541 5.67349 0.432867C5.69284 0.423194 5.73153 0.432867 5.75572 0.432867C5.80892 0.432867 5.86213 0.418357 5.91049 0.42803C5.96853 0.437704 6.00239 0.471561 6.06527 0.461888C6.09429 0.457051 6.11364 0.447377 6.14749 0.442541C6.17168 0.442541 6.19586 0.442541 6.21521 0.432867C6.22004 0.418357 6.22004 0.39901 6.21521 0.384499C6.2007 0.379663 6.19102 0.374826 6.17168 0.369989C6.15717 0.287764 6.10396 0.326458 6.05076 0.297438C6.09429 0.278091 6.2007 0.302274 6.24423 0.311948C6.31194 0.331295 6.35064 0.350642 6.42319 0.345805C6.42802 0.331295 6.42803 0.316785 6.43286 0.297438C6.48607 0.292601 6.51509 0.282927 6.56829 0.26358C6.61182 0.24907 6.64084 0.224886 6.69888 0.23456C6.71823 0.239396 6.73274 0.258743 6.75692 0.24907C6.78111 0.23456 6.77627 0.205539 6.80529 0.195866C6.82464 0.191029 6.86333 0.181355 6.88268 0.191029C6.90203 0.200702 6.90203 0.220049 6.92621 0.224886C6.95039 0.297438 6.98909 0.26358 7.04229 0.244233C7.06164 0.23456 7.08582 0.239396 7.11484 0.239396C7.12452 0.239396 7.13903 0.23456 7.1487 0.239396C7.16321 0.239396 7.16321 0.24907 7.16805 0.253907C7.20674 0.273254 7.25027 0.268417 7.29864 0.268417C7.35668 0.273254 7.3857 0.268417 7.3857 0.331295C7.3857 0.365152 7.37119 0.42803 7.3857 0.461888C7.39054 0.481235 7.40988 0.500582 7.4389 0.490908C7.46309 0.481235 7.45341 0.461888 7.4776 0.452214C7.56466 0.418357 7.63721 0.486072 7.68558 0.54895C7.70493 0.57797 7.7146 0.616664 7.72911 0.655358C7.74362 0.684379 7.7678 0.732747 7.78715 0.756931C7.8065 0.771441 7.83552 0.776278 7.85486 0.795625C7.87421 0.814972 7.88388 0.843992 7.90807 0.858503C7.96127 0.887523 8.03382 0.839156 8.06768 0.897197C8.0967 0.945565 8.10154 0.998769 8.17893 1.00844C8.22246 1.01812 8.24664 1.00361 8.2805 1.03746C8.30468 1.06165 8.32403 1.10034 8.32886 1.1342C8.33854 1.19708 8.32403 1.24544 8.3724 1.29865C8.41593 1.34218 8.43527 1.34218 8.49815 1.34218C8.53684 1.34218 8.59972 1.32767 8.62874 1.35185C8.64325 1.36153 8.64325 1.38571 8.65776 1.40022C8.67227 1.40506 8.69646 1.41473 8.7158 1.41473C8.76417 1.4244 8.79319 1.40989 8.83189 1.44859C8.83672 1.45343 8.83672 1.46794 8.84156 1.47761C8.85123 1.48245 8.86574 1.47761 8.87058 1.48728C8.88509 1.50179 8.88993 1.5163 8.88509 1.54049C8.86574 1.54532 8.74966 1.59853 8.75934 1.62755C8.76417 1.63722 8.76901 1.64206 8.77868 1.64206C8.79803 1.65173 8.85123 1.62755 8.87058 1.62755C8.8996 1.62755 8.92862 1.62755 8.95764 1.62755C8.98666 1.62755 9.02536 1.63239 9.05438 1.62271C9.09307 1.61304 9.08823 1.59853 9.12693 1.61788C9.14627 1.62271 9.16079 1.63239 9.1753 1.63239C9.18013 1.63239 9.18981 1.62755 9.20432 1.61304C9.2285 1.58402 9.21399 1.55983 9.26236 1.55016C9.30589 1.54049 9.36393 1.555 9.4123 1.55016C9.40746 1.54049 9.41713 1.53081 9.41713 1.5163C9.43648 1.51147 9.45099 1.51147 9.47034 1.50179C9.48485 1.49696 9.48968 1.47277 9.50903 1.46794C9.52354 1.45826 9.54772 1.46794 9.56223 1.46794C9.58642 1.45826 9.59609 1.44859 9.61544 1.43891C9.65413 1.41473 9.68315 1.40506 9.72668 1.39538C9.76538 1.38571 9.7944 1.35185 9.82826 1.34218C9.89597 1.32283 9.98787 1.34702 10.0507 1.35669C10.0798 1.35669 10.1378 1.3712 10.162 1.35669C10.1958 1.34218 10.191 1.30832 10.2055 1.2793C10.2345 1.28414 10.2539 1.24544 10.2974 1.25512C10.3264 1.26479 10.3409 1.28897 10.3409 1.32283C10.3893 1.318 10.4715 1.36636 10.5199 1.38087C10.5925 1.40506 10.6312 1.42924 10.7085 1.40989C10.7859 1.39538 10.8101 1.40989 10.8536 1.47277C10.8682 1.49696 10.8875 1.53565 10.9165 1.55016C10.931 1.55983 10.9504 1.55016 10.9649 1.55983C10.9746 1.56467 10.9842 1.56951 10.9987 1.57434C11.0036 1.6082 11.0229 1.61788 11.0374 1.64206C11.0616 1.69526 11.0229 1.69043 11.0084 1.72428C10.9842 1.78233 11.0229 1.85971 10.9891 1.91775C10.9214 1.93227 10.9455 2.04351 10.9407 2.10155C10.9165 2.11606 10.9214 2.14025 10.9117 2.16927C10.902 2.18861 10.8923 2.20312 10.8778 2.22247C10.844 2.266 10.8536 2.3047 10.8488 2.3579C10.8004 2.36274 10.7521 2.35306 10.7134 2.37725C10.6795 2.3966 10.6263 2.43045 10.6215 2.46915C10.6166 2.48849 10.6312 2.52235 10.6166 2.53686C10.6021 2.55137 10.5538 2.5417 10.5393 2.5417C10.4909 2.5417 10.4619 2.55621 10.4183 2.56104C10.4377 2.58039 10.457 2.61909 10.4619 2.63843C10.4667 2.66745 10.4522 2.68196 10.4474 2.70615C10.4425 2.7255 10.457 2.74001 10.457 2.75452C10.457 2.79805 10.4328 2.8319 10.3942 2.85609C10.3748 2.8706 10.3603 2.86092 10.3555 2.88995C10.3555 2.89478 10.3651 2.92864 10.37 2.93831C10.3313 2.93348 10.3023 2.93831 10.2636 2.94315C10.22 2.94799 10.2007 2.92864 10.162 2.91897C10.1475 2.91413 10.1281 2.9238 10.1088 2.91897C10.0894 2.91897 10.0798 2.89962 10.0556 2.90446C10.0314 2.90929 9.99754 2.94315 9.98303 2.95282C9.98303 2.95766 9.98787 2.9625 9.98787 2.9625C10.0266 3.04472 10.0362 3.14146 10.0798 3.22368C10.0894 3.24303 10.1039 3.24787 10.0894 3.28172C10.0894 3.28172 9.97336 3.28656 9.97336 3.2914C9.99754 3.33493 9.97819 3.39297 9.98303 3.44134C9.9927 3.48003 10.0217 3.52356 10.0604 3.55742C10.0894 3.57677 10.1233 3.59611 10.1523 3.59611C10.2152 3.60579 10.3893 3.58644 10.3168 3.70252C10.2926 3.73638 10.2636 3.77024 10.2781 3.82344C10.2877 3.86697 10.3313 3.89599 10.3506 3.92985C10.3651 3.9492 10.37 3.96854 10.3796 3.98305C10.3893 3.99756 10.4087 4.01208 10.4232 4.02659C10.4474 4.06044 10.428 4.0943 10.457 4.12816C10.4328 4.13783 10.4087 4.15234 10.3845 4.16202C10.3555 4.17653 10.3506 4.18136 10.3361 4.21038C10.3216 4.23457 10.3264 4.25875 10.2974 4.26359C10.2732 4.26842 10.2442 4.24424 10.2442 4.22006C10.2055 4.24424 10.1717 4.28293 10.1717 4.32647C10.1717 4.32647 10.1136 4.33614 10.1088 4.33614C10.0943 4.34581 10.0943 4.36032 10.0846 4.37C10.0798 4.37483 10.0846 4.38451 10.0798 4.38934C10.0701 4.39902 10.0604 4.38934 10.0556 4.39418C10.0314 4.41353 10.0072 4.41353 10.0072 4.46189C10.0121 4.48608 9.94434 4.4232 9.94434 4.41836C9.92015 4.39418 9.90081 4.36516 9.86211 4.36516C9.86211 4.34581 9.86211 4.32647 9.86211 4.30712C9.84277 4.30228 9.82825 4.29744 9.81374 4.29744C9.80891 4.23457 9.83309 4.1862 9.82826 4.12332C9.82342 4.12332 9.81374 4.12332 9.80891 4.12332C9.79923 4.14267 9.77989 4.15234 9.77505 4.17653C9.72185 4.19104 9.62995 4.19104 9.6106 4.25875C9.59125 4.25875 9.5574 4.26842 9.56223 4.29261C9.56707 4.30228 9.60093 4.30712 9.60577 4.31679C9.63479 4.33614 9.6493 4.36516 9.65413 4.40385C9.65413 4.4232 9.65413 4.45222 9.6493 4.46673C9.63962 4.48608 9.60576 4.49092 9.61544 4.51994C9.62511 4.55379 9.66381 4.54896 9.67832 4.57314C9.69283 4.58765 9.68315 4.607 9.68315 4.62634C9.68315 4.6602 9.67348 4.68922 9.7025 4.70857C9.71701 4.72308 9.72668 4.70857 9.74603 4.72792C9.75087 4.74243 9.75087 4.76661 9.75087 4.78112C9.76538 4.86818 9.83793 4.93106 9.84277 5.01812C9.8476 5.05198 9.85244 5.11002 9.83793 5.13904C9.82342 5.16323 9.80407 5.16806 9.79923 5.19708C9.79923 5.20676 9.81858 5.31317 9.82826 5.30349C9.83793 5.29866 9.85244 5.29382 9.86211 5.28898C9.86211 5.318 9.85728 5.36637 9.87662 5.39539C9.89113 5.41957 9.92983 5.41474 9.94917 5.38572C9.96852 5.3567 9.9395 5.33251 9.97336 5.30833C9.98787 5.29866 10.0072 5.31317 10.0169 5.29866C10.0266 5.28415 10.0169 5.25512 10.0217 5.24061C10.0459 5.24545 10.1426 5.34702 10.1039 5.3567C10.1233 5.35186 10.1475 5.36637 10.1668 5.36153C10.1862 5.41957 10.1475 5.48729 10.22 5.49696C10.2442 5.51631 10.2297 5.54049 10.2442 5.56951C10.2636 5.60337 10.3023 5.59854 10.3264 5.61788C10.3651 5.65658 10.3893 5.74364 10.4667 5.72429C10.4667 5.72429 10.4667 5.71945 10.4667 5.71462C10.4957 5.70978 10.5151 5.6856 10.5489 5.67592C10.5876 5.66625 10.607 5.69527 10.6408 5.70494C10.6408 5.73396 10.7134 5.80652 10.7376 5.81619C10.7617 5.82586 10.7859 5.81619 10.8101 5.82103C10.8246 5.82586 10.844 5.83554 10.8536 5.84521C10.8633 5.85972 10.8585 5.86456 10.8682 5.87423C10.8827 5.89841 10.8972 5.9226 10.9262 5.9226C10.9165 5.96613 10.9262 6.03384 10.9504 6.07254C10.9697 6.10156 11.0278 6.09189 11.0568 6.09672C11.0955 6.09672 11.139 6.10156 11.1729 6.11607C11.2019 6.12574 11.2164 6.14993 11.2503 6.16444C11.2648 6.17411 11.2841 6.16927 11.3035 6.17411C11.3422 6.18378 11.3422 6.22248 11.3663 6.26117C11.3954 6.31438 11.4099 6.29987 11.4631 6.30954C11.5018 6.31438 11.5114 6.33372 11.5308 6.36274C11.5308 6.36274 11.5888 6.44013 11.5405 6.4353C11.4921 6.42562 11.4824 6.43046 11.4631 6.46915C11.4389 6.50785 11.3905 6.54654 11.3808 6.58524C11.3567 6.59007 11.3083 6.58524 11.289 6.59975C11.2696 6.61426 11.2696 6.65295 11.2599 6.67713C11.2454 6.71099 11.2357 6.73034 11.2019 6.74485C11.1777 6.75936 11.139 6.75936 11.1293 6.78838C11.1148 6.83675 11.1632 6.92381 11.1293 6.96734C11.1052 6.99152 11.081 6.97218 11.0568 7.00603C11.0471 7.02538 11.0568 7.06408 11.0326 7.07375C11.0181 7.12212 11.0423 7.17532 11.0568 7.21885C11.081 7.22369 11.0858 7.24304 11.0761 7.26238C11.0616 7.26238 11.0423 7.26238 11.0278 7.26238C11.0229 7.27206 11.0181 7.28173 11.0181 7.2914C10.9891 7.31559 10.9794 7.37363 10.9601 7.41232C10.931 7.46553 10.902 7.5139 10.8633 7.55743C10.8391 7.58161 10.8053 7.6203 10.8198 7.659C10.8343 7.68802 10.8875 7.68802 10.9068 7.71704C10.9214 7.73639 10.9262 7.75573 10.9407 7.77024C10.9746 7.80894 10.9987 7.78475 11.0374 7.79926C11.0665 7.81377 11.0761 7.86698 11.1148 7.86214C11.1148 7.82345 11.1003 7.76541 11.1535 7.77024C11.1874 7.77024 11.2019 7.80894 11.2309 7.83312C11.289 7.88633 11.3276 7.92986 11.4147 7.92986C11.4099 7.93953 11.4147 7.95404 11.4147 7.96855C11.4341 7.96855 11.4631 7.96371 11.4824 7.96855C11.4969 7.97339 11.526 7.99757 11.5453 8.00725C11.5646 8.01692 11.584 8.02659 11.5985 8.03627C11.6227 8.05078 11.6372 8.04594 11.6614 8.05561C11.7001 8.06529 11.7243 8.10398 11.7388 8.14751C11.7484 8.17169 11.7339 8.25876 11.7726 8.25392C11.7726 8.24908 11.7726 8.24425 11.7726 8.24425C11.8258 8.2249 11.8452 8.26359 11.8839 8.29261C11.9226 8.32163 11.9564 8.34098 12 8.36033C12 8.37 12.0048 8.38451 12.0048 8.39419C12.0435 8.4087 12.0725 8.42321 12.1112 8.43288C12.1499 8.44739 12.2031 8.46674 12.2176 8.50543C12.2466 8.51511 12.266 8.47641 12.2902 8.46674C12.324 8.44739 12.324 8.45706 12.3627 8.47157C12.4207 8.49576 12.474 8.52962 12.5272 8.54896C12.5562 8.56347 12.5804 8.56347 12.6094 8.58766C12.6336 8.61668 12.6384 8.6457 12.6771 8.65054C12.7448 8.66021 12.8125 8.61184 12.8802 8.62635C12.8899 8.66021 12.9141 8.68439 12.9189 8.71825C12.9238 8.74727 12.9189 8.78113 12.9189 8.81499C12.9625 8.81499 13.0785 8.7908 13.0834 8.84401C13.1366 8.84884 13.2043 8.82466 13.2527 8.84401C13.2817 8.85368 13.2962 8.87786 13.3107 8.89721C13.3252 8.92139 13.3349 8.9746 13.3736 8.96492C13.3833 8.94074 13.422 8.93107 13.4413 8.91656C13.4558 8.89721 13.4655 8.87303 13.4752 8.85368C13.5429 8.84884 13.6154 8.83917 13.6783 8.86819C13.7218 8.88754 13.7557 8.93107 13.8041 8.91656C13.8234 8.91172 13.8379 8.89721 13.8524 8.88754C13.9008 8.86819 13.9346 8.86819 13.9927 8.85852C14.0362 8.84884 14.0217 8.84401 14.0362 8.80531C14.0701 8.79564 14.0749 8.81982 14.1039 8.8295C14.1233 8.83433 14.1523 8.82466 14.1668 8.83917C14.1813 8.85368 14.1813 8.8827 14.1958 8.89721C14.2587 8.96976 14.3941 8.93107 14.4812 8.95041C14.4812 8.98427 14.5005 9.01329 14.5054 9.04231C14.5102 9.07617 14.5102 9.10036 14.4957 9.12454C14.4764 9.17774 14.4522 9.24062 14.5296 9.25513C14.5924 9.2648 14.6553 9.24546 14.7085 9.26964C14.7617 9.28899 14.8053 9.31317 14.8198 9.36638C14.844 9.37121 14.8923 9.36154 14.9165 9.37121C14.9504 9.38572 14.931 9.42442 14.9552 9.45344C14.9745 9.48246 15.0181 9.47279 15.0471 9.47279C15.0955 9.47279 15.0906 9.45828 15.1293 9.43893C15.1342 9.41958 15.2019 9.37605 15.2261 9.36154C15.2599 9.34703 15.3034 9.35187 15.3373 9.3567C15.3421 9.42442 15.3373 9.49213 15.3421 9.55985C15.3663 9.55985 15.3905 9.56468 15.4099 9.57919C15.4292 9.58887 15.4389 9.61789 15.4582 9.61789C15.4679 9.61789 15.5018 9.58887 15.5066 9.58403C15.5211 9.5792 15.5356 9.56468 15.5501 9.55501C15.5743 9.53566 15.5695 9.53083 15.6033 9.52599C15.6323 9.52599 15.6517 9.5405 15.6759 9.55501C15.7146 9.57919 15.7533 9.58403 15.7968 9.56952C15.8065 9.53566 15.8742 9.57919 15.9032 9.58887C15.9226 9.59371 15.9371 9.59371 15.9564 9.59854C15.9806 9.60338 15.9854 9.61305 15.9999 9.62273C16.0241 9.63724 16.0628 9.64207 16.0918 9.66626C16.116 9.68077 16.1354 9.7243 16.1644 9.7243C16.1644 9.71462 16.1741 9.70979 16.1741 9.70011C16.2466 9.70495 16.2756 9.6856 16.3192 9.63724C16.3288 9.62756 16.3288 9.61789 16.3433 9.61305C16.353 9.60338 16.3675 9.61305 16.3772 9.60822C16.4014 9.59371 16.3966 9.55985 16.4207 9.55501C16.4449 9.59371 16.4546 9.66142 16.4546 9.70979C16.4836 9.70979 16.5175 9.70495 16.5417 9.71462C16.5417 9.71946 16.5417 9.72913 16.5417 9.73397C16.5852 9.72913 16.6094 9.7775 16.6336 9.76783C16.6722 9.75332 16.6481 9.69528 16.6964 9.6856C16.7448 9.67593 16.7883 9.71946 16.8415 9.70495C16.8609 9.70011 16.8706 9.6856 16.8947 9.6856C16.9044 9.68077 17.0398 9.64691 17.0398 9.65175C17.0398 9.64207 17.0495 9.6324 17.0495 9.62273C17.0882 9.63724 17.1462 9.72914 17.1704 9.71946C17.1849 9.69528 17.1946 9.66142 17.2043 9.6324C17.2091 9.60338 17.2043 9.56952 17.2285 9.54534C17.2236 9.55017 17.2285 9.56468 17.2285 9.56952C17.2962 9.57436 17.3059 9.55985 17.3059 9.49697C17.3059 9.47762 17.301 9.45344 17.3107 9.43409C17.3204 9.41958 17.3494 9.40023 17.3542 9.3954C17.3639 9.36638 17.33 9.32285 17.3155 9.3035C17.2962 9.27448 17.2768 9.26481 17.2672 9.22611C17.2623 9.20193 17.2672 9.16807 17.2672 9.14389C17.2285 9.14872 17.2527 9.11487 17.2381 9.09552C17.2188 9.07617 17.1946 9.09552 17.1753 9.08101C17.1511 9.05682 17.1753 8.96009 17.1656 8.92623C17.1608 8.92623 17.1414 8.92139 17.1366 8.91656C17.1946 8.89237 17.1704 8.86819 17.1608 8.81499C17.1559 8.78596 17.1753 8.77145 17.1801 8.74727C17.1849 8.71341 17.1656 8.68439 17.1656 8.65054C17.1656 8.61184 17.2043 8.607 17.2188 8.57798C17.2236 8.56347 17.2236 8.54413 17.2333 8.52962C17.243 8.51511 17.243 8.51511 17.2478 8.49576C17.2575 8.47641 17.2672 8.45706 17.272 8.44255C17.2817 8.41837 17.2962 8.36517 17.2913 8.34582C17.2817 8.32164 17.2478 8.30229 17.2478 8.26359C17.2672 8.26359 17.2865 8.26359 17.3059 8.26359C17.301 8.23457 17.3639 8.26359 17.3832 8.25876C17.4219 8.24908 17.3929 8.20072 17.4558 8.21039C17.4655 8.21523 17.451 8.26359 17.48 8.23941C17.48 8.23941 17.4897 8.21523 17.4945 8.21039C17.5042 8.19588 17.5138 8.18621 17.5187 8.16686C17.5429 8.16686 17.5574 8.19588 17.5767 8.19104C17.5767 8.17653 17.5767 8.15719 17.5767 8.14267C17.5912 8.14267 17.6009 8.13784 17.6154 8.13784C17.6154 8.12816 17.6154 8.11849 17.6154 8.10882C17.6251 8.10882 17.6541 8.10398 17.6638 8.11365C17.6783 8.12816 17.6493 8.14267 17.6831 8.15235C17.6976 8.15719 17.7073 8.14267 17.7218 8.14267C17.7315 8.14267 17.7654 8.15719 17.775 8.16202C17.8137 8.17653 17.8137 8.20555 17.8186 8.23941C17.8186 8.2781 17.7944 8.31196 17.8524 8.30713C17.8524 8.33615 17.8524 8.35066 17.8379 8.37484C17.8331 8.38935 17.804 8.43288 17.8476 8.43288C17.8476 8.4619 17.8379 8.49576 17.8282 8.51994C17.8137 8.54413 17.7895 8.56831 17.7895 8.60217C17.7847 8.60217 17.775 8.607 17.7702 8.60217C17.7702 8.61184 17.7702 8.62635 17.775 8.63603H17.7799C17.7847 8.67956 17.7944 8.74243 17.8331 8.77145C17.8524 8.78596 17.8718 8.78113 17.8766 8.81499C17.8766 8.83917 17.8621 8.86819 17.8572 8.89237C17.7944 8.89237 17.8186 8.9359 17.8137 8.9746C17.804 9.03264 17.7992 9.00362 17.8379 9.05199C17.8572 9.07133 17.8476 9.10035 17.8621 9.1197C17.8766 9.13905 17.9008 9.15356 17.9153 9.16807C17.9443 9.19225 17.9491 9.18742 17.9927 9.19225C18.0459 9.19709 18.0265 9.20676 18.0459 9.24062C18.0652 9.26964 18.0846 9.27448 18.1233 9.27931C18.191 9.27931 18.2103 9.2116 18.2877 9.23578C18.3119 9.24062 18.3312 9.27448 18.3603 9.28899C18.3796 9.29383 18.4135 9.29383 18.4377 9.29866C18.4231 9.31801 18.399 9.33736 18.4086 9.36154C18.4425 9.34703 18.486 9.33252 18.5296 9.33736C18.5779 9.33736 18.6311 9.33736 18.6795 9.33252C18.723 9.32285 18.7569 9.29383 18.8004 9.28415C18.8343 9.27448 18.8633 9.27448 18.8971 9.25997C18.9358 9.24546 18.9697 9.24062 19.0084 9.23095C19.0568 9.2116 19.0568 9.18742 19.0568 9.13905C19.1003 9.13421 19.1535 9.12938 19.1922 9.13421C19.226 9.13421 19.2551 9.15356 19.2793 9.17291C19.3083 9.19225 19.347 9.21644 19.3808 9.22611C19.4195 9.24546 19.4679 9.23095 19.5114 9.23578C19.5501 9.23578 19.5888 9.24062 19.6323 9.24546C19.671 9.25029 19.6759 9.23578 19.7146 9.22127C19.7436 9.2116 19.7678 9.22611 19.7968 9.23095C19.8403 9.23578 19.8984 9.23578 19.9419 9.21644C19.937 9.18742 19.9516 9.17774 19.9757 9.16807C19.9854 9.16323 20.0048 9.15356 20.0144 9.15356C20.0289 9.15356 20.0435 9.1584 20.058 9.1584C20.0628 9.17774 20.0628 9.19225 20.0628 9.2116C20.1015 9.22127 20.1208 9.18742 20.1595 9.17774C20.1934 9.17291 20.2466 9.19709 20.2708 9.16807C20.2901 9.15356 20.2901 9.1197 20.3288 9.13421C20.3578 9.14389 20.3482 9.16323 20.353 9.19225C20.3869 9.17291 20.3772 9.15356 20.3772 9.12454C20.3772 9.11003 20.3675 9.11003 20.3869 9.09552C20.3965 9.09068 20.4256 9.10035 20.4352 9.10035C20.4352 9.10519 20.4352 9.11003 20.4352 9.11487C20.4788 9.1197 20.532 9.11486 20.5416 9.07617C20.561 9.02297 20.5223 8.98911 20.5223 8.94074C20.4933 8.93107 20.4401 8.90205 20.4304 8.87786C20.4256 8.86335 20.4304 8.81499 20.4401 8.80048C20.4497 8.78597 20.4691 8.7908 20.4788 8.77629C20.4836 8.76662 20.4739 8.74727 20.4788 8.7376C20.4884 8.72309 20.5078 8.72309 20.5126 8.71341C20.5223 8.6989 20.4981 8.67956 20.4884 8.66505C20.4739 8.6457 20.4546 8.62635 20.4401 8.607C20.4159 8.57798 20.4159 8.5538 20.3772 8.57315C20.3482 8.59249 20.3385 8.607 20.2998 8.607C20.2563 8.61184 20.2369 8.60217 20.2176 8.64086C20.1982 8.607 20.2079 8.59733 20.1692 8.57798C20.145 8.56831 20.116 8.56347 20.1015 8.54413C20.0918 8.52962 20.0918 8.5006 20.087 8.48125C20.0821 8.4619 20.058 8.44255 20.0531 8.42321C20.1015 8.41837 20.0918 8.35549 20.0918 8.32164C20.1354 8.32164 20.1789 8.32164 20.2176 8.32164C20.2611 8.32164 20.3046 8.33131 20.3433 8.34098C20.3578 8.34582 20.3724 8.35066 20.3869 8.34098C20.4062 8.33131 20.4062 8.31196 20.4207 8.29745C20.4304 8.2781 20.4449 8.2781 20.4643 8.26843C20.4981 8.24908 20.5223 8.25392 20.561 8.24908C20.561 8.23941 20.561 8.2249 20.561 8.21039C20.5561 8.21039 20.5561 8.21039 20.5513 8.21039C20.5707 8.20555 20.5852 8.20555 20.5997 8.21039C20.619 8.26843 20.6287 8.23941 20.6626 8.22006C20.7013 8.19588 20.7496 8.2249 20.7786 8.20072C20.769 8.133 20.9818 8.11365 20.9237 8.03143C20.9141 8.01208 20.885 8.00725 20.8705 7.99757C20.8609 7.96855 20.8899 7.96371 20.9044 7.94437C20.9189 7.92502 20.9141 7.91051 20.9237 7.896C20.9383 7.86698 20.9963 7.86214 21.0205 7.84279C21.0302 7.83796 21.0447 7.82828 21.0592 7.81861C21.0785 7.8041 21.0785 7.78959 21.093 7.77508C21.1075 7.76057 21.1317 7.76057 21.1414 7.74606C21.1607 7.73639 21.1607 7.72188 21.1704 7.70737C21.1801 7.69286 21.1946 7.69286 21.2043 7.67835C21.2139 7.66867 21.2188 7.64932 21.2285 7.63481C21.2478 7.59612 21.2478 7.57194 21.2478 7.53324C21.2478 7.49938 21.2381 7.45585 21.272 7.44134C21.3058 7.43167 21.3397 7.44618 21.3784 7.43167C21.4123 7.41232 21.4558 7.39781 21.4896 7.3833C21.509 7.37363 21.5187 7.36879 21.538 7.36396C21.567 7.35912 21.596 7.36879 21.6202 7.35912C21.6444 7.35428 21.6589 7.3301 21.6734 7.31075C21.6879 7.29624 21.6976 7.2914 21.717 7.27689C21.7412 7.26238 21.7944 7.24304 21.7847 7.20434C21.804 7.19951 21.8814 7.17048 21.8863 7.1463C21.8959 7.12695 21.8524 7.10277 21.8669 7.08826C21.8717 7.07859 21.9249 7.08342 21.9395 7.08342C21.954 7.08342 21.9733 7.01087 21.9782 7.0012C21.9878 6.96734 22.012 6.94799 22.041 6.92381C22.0749 6.89479 22.0846 6.85609 22.1281 6.83675C22.1619 6.82224 22.2055 6.82707 22.2393 6.81256C22.2829 6.79322 22.2829 6.76903 22.2829 6.72066C22.3506 6.72066 22.4086 6.76903 22.4618 6.80773C22.5102 6.84158 22.5344 6.84642 22.5876 6.83675C22.6214 6.83675 22.6505 6.82224 22.6892 6.82707C22.7278 6.82707 22.7569 6.83675 22.7907 6.85609C22.8294 6.87544 22.8633 6.90446 22.9068 6.89963C22.9358 6.89479 22.9697 6.89479 22.989 6.87544C23.0084 6.85609 23.0084 6.8174 22.9939 6.79322C23.0084 6.78838 23.0229 6.79322 23.0422 6.78838C23.0422 6.78354 23.0422 6.76903 23.0422 6.7642C23.0374 6.74969 23.0181 6.74001 23.0181 6.73518C23.0181 6.71099 23.0567 6.69648 23.0713 6.68197C23.11 6.64811 23.1535 6.62393 23.197 6.59975C23.2405 6.57556 23.2841 6.55138 23.3228 6.52719C23.3324 6.51752 23.347 6.51752 23.3566 6.50301C23.3663 6.49334 23.3615 6.48366 23.3711 6.47399C23.3905 6.45948 23.4002 6.46915 23.4002 6.4353C23.434 6.44497 23.4292 6.47883 23.4437 6.49817C23.4582 6.51268 23.4824 6.51752 23.4969 6.53203C23.5114 6.54654 23.5066 6.5417 23.5162 6.55621C23.5307 6.59491 23.5501 6.61909 23.5888 6.60942C23.613 6.60458 23.6323 6.59491 23.6565 6.60458C23.6565 6.62393 23.671 6.64328 23.6662 6.65779C23.6565 6.68197 23.6323 6.66262 23.613 6.6723C23.5985 6.67713 23.5501 6.75452 23.5501 6.76903C23.5404 6.76903 23.5307 6.77387 23.5211 6.77387C23.5162 6.78838 23.5017 6.79805 23.4969 6.8174C23.5211 6.82224 23.5453 6.82707 23.5646 6.82707C23.584 6.86577 23.5501 6.89479 23.5646 6.92381C23.5694 6.94316 23.584 6.95283 23.5985 6.94316C23.6226 6.93348 23.6178 6.9093 23.6178 6.88995C23.6178 6.80773 23.7049 6.77387 23.7823 6.77387C23.7919 6.79805 23.7871 6.82224 23.7968 6.84642C23.8064 6.87544 23.8306 6.9093 23.85 6.93348C23.8645 6.94799 23.9322 6.97701 23.9274 6.99636C23.9274 7.01571 23.9129 7.00603 23.9032 7.01571C23.8983 7.02054 23.9032 7.03505 23.8983 7.04473C23.879 7.07375 23.8161 7.07375 23.8161 7.12695C23.8113 7.16081 23.8306 7.15114 23.8064 7.18016C23.7919 7.19467 23.7823 7.21402 23.7532 7.21402C23.7436 7.23336 23.7339 7.30591 23.7629 7.30591C23.7677 7.34461 23.6952 7.34461 23.7097 7.39781C23.7291 7.40265 23.7484 7.39781 23.7677 7.40265C23.7871 7.40265 23.8016 7.41232 23.8161 7.41232C23.8258 7.38814 23.8113 7.36879 23.8306 7.34945C23.85 7.33493 23.8838 7.31559 23.9032 7.30591C23.9322 7.2914 23.9709 7.27206 24.0047 7.27689C24.0289 7.28173 24.0725 7.31559 24.0966 7.3301C24.1402 7.35428 24.1547 7.34461 24.1982 7.3301C24.2079 7.3301 24.2176 7.32042 24.2321 7.32526C24.2514 7.3301 24.2611 7.35428 24.2853 7.35912C24.3143 7.35912 24.324 7.3301 24.353 7.32526C24.3723 7.32042 24.4304 7.31075 24.4497 7.32042C24.4594 7.32526 24.4691 7.34944 24.4787 7.35428C24.4933 7.36879 24.5029 7.37363 24.5223 7.37847C24.5271 7.40749 24.5416 7.41232 24.5658 7.42683C24.5948 7.44618 24.5997 7.45102 24.5997 7.48487C24.5997 7.49938 24.5948 7.53324 24.5997 7.54775C24.6142 7.57677 24.6529 7.57194 24.6529 7.61063C24.648 7.61063 24.648 7.61063 24.6722 7.59612C24.6577 7.62514 24.6674 7.67835 24.6674 7.7122C24.6384 7.7122 24.6093 7.70737 24.5852 7.70737C24.5513 7.7122 24.5368 7.72671 24.5126 7.74122C24.5223 7.80894 24.4255 7.85247 24.4014 7.90084C24.3772 7.90084 24.3578 7.93953 24.3482 7.95888C24.2853 7.95888 24.3385 8.12333 24.353 8.15235C24.353 8.15719 24.382 8.15718 24.3869 8.16686C24.3965 8.1717 24.3965 8.18621 24.4014 8.19588C24.411 8.21039 24.4304 8.21523 24.4304 8.22974C24.4304 8.22974 24.4642 8.25392 24.4691 8.25876C24.4836 8.2781 24.4933 8.28778 24.5029 8.30229C24.5271 8.32647 24.5706 8.37 24.5755 8.40386C24.5513 8.4087 24.5513 8.43772 24.532 8.44255C24.5126 8.45223 24.4836 8.42321 24.4642 8.41837C24.4255 8.39419 24.3869 8.37968 24.3433 8.37484C24.3385 8.35066 24.3482 8.3168 24.3288 8.29261C24.3191 8.28294 24.3046 8.28294 24.2901 8.27327C24.2804 8.26843 24.2756 8.25392 24.2659 8.24908C24.2466 8.23941 24.2079 8.23941 24.1885 8.24908C24.1644 8.26359 24.1789 8.2781 24.1499 8.27327C24.1305 8.26843 24.116 8.25392 24.1112 8.23941C24.0918 8.26359 24.1015 8.29261 24.0725 8.30713C24.0434 8.3168 24.0096 8.32164 23.9806 8.33131C23.9661 8.33615 23.9564 8.35066 23.937 8.35549C23.9225 8.36033 23.9032 8.35549 23.8935 8.36033C23.8693 8.36517 23.8355 8.37484 23.8161 8.38451C23.7968 8.39419 23.7726 8.39902 23.7581 8.4087C23.7049 8.43772 23.6517 8.52478 23.6323 8.57798C23.613 8.61668 23.613 8.63602 23.5598 8.64086C23.4921 8.6457 23.4824 8.72792 23.434 8.76662C23.4243 8.77629 23.4147 8.77629 23.4002 8.78596C23.3808 8.79564 23.3808 8.7908 23.3566 8.79564C23.3276 8.80531 23.3034 8.8295 23.2889 8.85368C23.2696 8.90205 23.2212 8.92623 23.2164 8.97944C23.2018 8.98911 23.1777 8.98427 23.1583 8.98427C23.1245 8.98911 23.1051 9.01329 23.0858 9.03264C23.0616 9.05199 23.0471 9.07617 23.0277 9.10035C23.0229 9.11486 23.0181 9.12938 23.0132 9.14389C23.0084 9.14872 22.9987 9.14872 22.9939 9.1584C22.9745 9.19225 22.989 9.23095 23.0035 9.25997C23.0132 9.27932 23.0084 9.29383 23.0132 9.31317C23.0181 9.31317 23.0374 9.30834 23.0471 9.31317C23.0664 9.32285 23.0616 9.34703 23.0616 9.36638C23.0664 9.40023 23.0761 9.43409 23.0664 9.46795C23.0616 9.4873 23.0519 9.50181 23.0471 9.52115C23.0471 9.5405 23.0471 9.55501 23.0471 9.56952C23.0471 9.58403 23.0422 9.60822 23.0326 9.61789C23.0229 9.62756 23.0035 9.62756 22.9939 9.64207C22.9697 9.67593 22.9455 9.70495 22.9358 9.74365C22.931 9.77267 22.9068 9.79201 22.902 9.82103C22.902 9.85005 22.9068 9.88391 22.9068 9.91293C22.9068 9.94195 22.9213 9.97581 22.9116 9.99999C22.9068 10.0048 22.9068 10.0097 22.9068 10.0097C22.8729 10.0242 22.873 10.0725 22.8439 10.0822C22.8343 10.0871 22.8149 10.0919 22.8052 10.0967C22.7617 10.1064 22.7375 10.1064 22.723 10.1499C22.7037 10.1983 22.7133 10.2515 22.7085 10.2999C22.7085 10.3144 22.6988 10.3337 22.7085 10.3482C22.723 10.3676 22.7569 10.3724 22.7762 10.3724C22.8004 10.3724 22.8439 10.3724 22.8584 10.3918C22.8778 10.4111 22.8681 10.4401 22.8633 10.4643C22.8536 10.4933 22.8633 10.532 22.8536 10.5659C22.8391 10.6239 22.7859 10.6675 22.7569 10.7207C22.7424 10.7497 22.7278 10.7835 22.7085 10.8126C22.6892 10.8416 22.6746 10.8609 22.6698 10.8948C22.6698 10.9383 22.6408 10.9528 22.6214 10.9819C22.6069 11.0109 22.6069 11.0496 22.5924 11.0834C22.5295 11.2092 22.5054 11.3108 22.5005 11.4607C22.4908 11.4655 22.486 11.4655 22.4763 11.4655C22.4812 11.5139 22.4715 11.5526 22.4376 11.5816C22.4038 11.5768 22.3893 11.5478 22.3893 11.5042C22.3216 11.5091 22.2877 11.4752 22.2297 11.4655C22.1765 11.5768 22.1087 11.4414 22.0604 11.4268C22.0555 11.451 22.041 11.4607 22.041 11.48C21.9927 11.48 21.9491 11.4849 21.9104 11.4946C21.8814 11.4994 21.8379 11.5042 21.8185 11.4752C21.8137 11.4559 21.8234 11.4365 21.8089 11.422C21.7992 11.4172 21.7605 11.4123 21.7508 11.4172C21.717 11.4268 21.7266 11.4607 21.746 11.4752C21.7653 11.4946 21.7653 11.4946 21.7702 11.5236C21.7702 11.5381 21.775 11.5574 21.7798 11.5719C21.7895 11.6058 21.8185 11.6348 21.8379 11.6638C21.8621 11.7074 21.8524 11.7509 21.8717 11.7944C21.8959 11.8428 21.9153 11.9008 21.9153 11.954C21.9153 12.0266 21.9104 12.0943 21.9056 12.162C21.9056 12.2007 21.9008 12.2394 21.8911 12.2733C21.8863 12.2926 21.8766 12.3023 21.8669 12.3168C21.8476 12.341 21.8476 12.3652 21.8427 12.3942C21.8331 12.4281 21.8137 12.4232 21.7798 12.4232C21.7557 12.4232 21.7363 12.4377 21.7121 12.4281C21.6879 12.4232 21.6783 12.4087 21.6541 12.4232C21.6493 12.4474 21.6589 12.4861 21.6686 12.5054C21.6831 12.5345 21.6928 12.5345 21.7218 12.5248C21.717 12.5683 21.7315 12.6167 21.717 12.6602C21.7073 12.6941 21.7266 12.7279 21.7315 12.7666C21.7315 12.8005 21.7266 12.8392 21.7557 12.8634C21.7702 12.8779 21.7798 12.8875 21.7895 12.9021C21.7992 12.9166 21.8185 12.9311 21.8137 12.9504C21.7798 12.9649 21.804 13.0472 21.7944 13.0762C21.7944 13.0859 21.7895 13.0907 21.7847 13.1004C21.7847 13.1004 21.7798 13.1197 21.775 13.1245C21.746 13.1391 21.7218 13.0859 21.6879 13.1197C21.6686 13.1391 21.6783 13.1632 21.6734 13.1923C21.6686 13.2261 21.6444 13.2116 21.6251 13.2358C21.6057 13.26 21.6057 13.2938 21.596 13.3229C21.5767 13.3229 21.5477 13.3325 21.5283 13.3277C21.4993 13.3277 21.4993 13.2987 21.4896 13.2745C21.48 13.2455 21.4655 13.2261 21.4413 13.2068C21.4316 13.1971 21.4171 13.1923 21.4074 13.1826C21.3977 13.1729 21.3977 13.1584 21.3784 13.1584C21.3494 13.1584 21.3542 13.2019 21.3542 13.2261C21.359 13.2551 21.3736 13.2793 21.3349 13.289C21.301 13.2938 21.301 13.2842 21.301 13.2551C21.2962 13.2261 21.272 13.2116 21.2672 13.1778C21.2575 13.1052 21.2478 13.023 21.2478 12.9456C21.2478 12.9117 21.2236 12.8875 21.2188 12.8585C21.2139 12.8392 21.2091 12.8247 21.1994 12.8053C21.1898 12.7908 21.1753 12.7715 21.1704 12.7521C21.1656 12.7328 21.1656 12.7183 21.1559 12.6989C21.1414 12.6602 21.1269 12.6215 21.1027 12.578C21.093 12.5635 21.0785 12.5538 21.0688 12.5345C21.0495 12.5103 21.0495 12.4764 21.0398 12.4474C21.0302 12.4184 21.0156 12.399 21.0156 12.3603C21.0156 12.3313 21.0156 12.3071 21.0156 12.2781C21.0205 12.2249 21.0302 12.1669 21.0205 12.1185C21.0156 12.0846 20.9866 12.075 20.9673 12.0508C20.9576 12.0314 20.9576 12.0073 20.9624 11.9831C20.9673 11.9589 20.9721 11.9347 20.9576 11.9105C20.9383 11.8815 20.9383 11.8621 20.9286 11.8331C20.9286 11.8235 20.9286 11.8138 20.9237 11.8041C20.8802 11.7993 20.8318 11.8186 20.827 11.867C20.8222 11.8573 20.8173 11.8428 20.8077 11.8331C20.7883 11.8235 20.7932 11.8283 20.7786 11.8428C20.7641 11.8573 20.7448 11.8863 20.7351 11.9105C20.7158 11.9154 20.6626 11.8912 20.6529 11.9008C20.648 11.9057 20.648 11.9299 20.648 11.9347C20.6432 11.954 20.6432 11.9734 20.6335 11.9927C20.6239 12.0218 20.6287 12.0556 20.6287 12.0895C20.6335 12.1233 20.6335 12.1282 20.5948 12.133C20.5562 12.133 20.5416 12.1378 20.5416 12.1765C20.5416 12.1959 20.5368 12.2152 20.5416 12.2346C20.5465 12.2636 20.5658 12.2829 20.5755 12.312C20.5852 12.3362 20.59 12.3894 20.5803 12.4135C20.5707 12.4426 20.5416 12.4667 20.5271 12.4909C20.5126 12.5151 20.4884 12.5296 20.4739 12.5538C20.4497 12.5828 20.4401 12.5925 20.4159 12.5538C20.4014 12.5296 20.3869 12.5103 20.3627 12.4909C20.3385 12.4716 20.3191 12.4522 20.3095 12.4232C20.2901 12.37 20.3192 12.2975 20.2611 12.2684C20.2418 12.2539 20.2176 12.2394 20.2176 12.2733C20.2127 12.3168 20.2176 12.3507 20.2321 12.3894C20.2418 12.4184 20.2418 12.4522 20.2418 12.4813C20.2466 12.5296 20.2224 12.5296 20.1789 12.5248C20.1692 12.4958 20.145 12.4667 20.1402 12.4329C20.1354 12.4087 20.145 12.3845 20.1402 12.3603C20.1402 12.3362 20.116 12.312 20.1063 12.2878C20.0918 12.2539 20.0918 12.2201 20.0918 12.1814C20.0918 12.1669 20.0967 12.1524 20.0918 12.1427C20.0918 12.133 20.0821 12.1185 20.0725 12.104C20.058 12.075 20.0386 12.0459 20.0144 12.0218C19.9999 12.0024 19.9757 11.9637 19.9806 11.9395C19.9806 11.925 19.9903 11.9202 19.9903 11.9008C19.9903 11.8863 19.9903 11.8718 19.9951 11.8573C19.9999 11.8331 20.0144 11.8138 20.0289 11.7896C20.0386 11.7606 20.0531 11.7316 20.058 11.6929C20.058 11.6735 20.058 11.6493 20.0676 11.6251C20.0725 11.6058 20.0967 11.5913 20.1063 11.5719C20.1208 11.5526 20.1208 11.5429 20.1499 11.5381C20.2031 11.5284 20.2514 11.5478 20.295 11.5139C20.3095 11.5042 20.3288 11.4994 20.3385 11.4897C20.3433 11.4849 20.3385 11.48 20.3433 11.4752C20.3482 11.4655 20.3627 11.4607 20.3675 11.4559C20.382 11.4462 20.4014 11.4414 20.411 11.4365C20.4352 11.4172 20.4256 11.393 20.4546 11.393C20.4691 11.3978 20.4836 11.3978 20.4981 11.4075C20.5175 11.4172 20.5271 11.4365 20.5416 11.451C20.5852 11.4123 20.5803 11.3495 20.6287 11.3108C20.6384 11.3059 20.7158 11.2527 20.7158 11.2721C20.7158 11.2285 20.769 11.1995 20.7932 11.1705C20.8173 11.1415 20.8173 11.1366 20.8173 11.0931C20.8173 11.0689 20.8173 11.0447 20.827 11.0206C20.8512 10.9915 20.8947 10.977 20.8705 10.9238C20.8464 10.8803 20.8173 10.8754 20.8367 10.8222C20.8899 10.8174 20.9963 10.9141 21.035 10.8609C21.0495 10.8464 21.0447 10.8029 21.0302 10.7884C21.0156 10.769 20.9866 10.7787 20.9624 10.769C20.9576 10.7449 20.9624 10.6965 20.9383 10.6771C20.9092 10.6626 20.8464 10.6771 20.8125 10.6723C20.769 10.5852 20.648 10.5901 20.5658 10.6094C20.5175 10.6143 20.4691 10.6288 20.4256 10.6481C20.4062 10.653 20.3869 10.6675 20.3627 10.6626C20.353 10.6626 20.295 10.6336 20.295 10.6239C20.2853 10.6675 20.2079 10.6433 20.1692 10.6433C20.1402 10.6433 20.0386 10.6433 20.0338 10.6191C19.9903 10.6094 19.9564 10.6433 19.9129 10.6433C19.879 10.6384 19.85 10.6143 19.8113 10.6143C19.7823 10.6143 19.7533 10.6288 19.7194 10.6288C19.6372 10.6288 19.5598 10.6239 19.4776 10.6336C19.4098 10.6481 19.3276 10.6481 19.2551 10.6481C19.2067 10.6481 19.1825 10.6336 19.139 10.6191C19.1148 10.6143 19.0568 10.6094 19.0326 10.5998C18.9794 10.5804 18.9552 10.5417 18.8971 10.5514C18.8585 10.5562 18.8004 10.5804 18.7714 10.5369C18.723 10.4547 18.752 10.3192 18.7472 10.2273C18.7424 10.2031 18.7375 10.1838 18.7327 10.1596C18.7375 10.1451 18.7424 10.1354 18.7424 10.1161C18.7375 10.1257 18.7375 10.1354 18.7327 10.1499C18.7327 10.1354 18.7279 10.1209 18.7279 10.1064C18.7327 10.0629 18.7472 10.029 18.7424 9.98065C18.6795 9.95646 18.7279 9.7243 18.6166 9.78718C18.5973 9.79685 18.5924 9.81136 18.5828 9.82103C18.5586 9.84038 18.5441 9.83554 18.5344 9.85973C18.5296 9.86456 18.5344 9.88391 18.5344 9.88875C18.5296 9.90326 18.5102 9.91777 18.5054 9.92744C18.5005 9.93712 18.5005 9.96614 18.4957 9.97581C18.4764 9.99032 18.3941 9.98065 18.3699 9.97581C18.3167 9.96614 18.2635 9.92744 18.2152 9.89842C18.1813 9.88391 18.1668 9.8694 18.1475 9.83554C18.1378 9.80652 18.1378 9.79685 18.1329 9.75816C18.1329 9.74364 18.1281 9.69528 18.1184 9.68077C18.0991 9.65658 18.0507 9.66626 18.0556 9.62273C18.0217 9.61789 17.9927 9.61789 17.9637 9.6324C17.954 9.67593 17.9927 9.69044 18.012 9.71946C18.0314 9.74365 18.0459 9.77267 18.0652 9.79685C18.0507 9.79685 18.0314 9.80169 18.012 9.79685C17.983 9.79685 17.983 9.78718 17.9685 9.7775C17.9443 9.76783 17.9443 9.74848 17.9201 9.7775C17.9153 9.78718 17.9201 9.81136 17.9153 9.82103C17.9056 9.80652 17.9008 9.78718 17.8959 9.77267C17.8476 9.76783 17.8863 9.84038 17.8524 9.85489C17.8524 9.87907 17.8476 9.89842 17.8427 9.92261C17.8331 9.89842 17.8427 9.85973 17.8379 9.83071C17.8186 9.83554 17.7992 9.84038 17.775 9.83554C17.775 9.80652 17.804 9.78718 17.8089 9.76299C17.8137 9.73881 17.8089 9.70495 17.8089 9.68077C17.775 9.68077 17.7508 9.68077 17.7218 9.67593C17.7267 9.66142 17.7315 9.64691 17.7363 9.6324C17.7121 9.6324 17.6831 9.6324 17.6589 9.6324C17.6638 9.61789 17.6589 9.60338 17.6589 9.58887C17.6299 9.59371 17.5622 9.55501 17.567 9.52599C17.5525 9.52599 17.5429 9.51632 17.5283 9.52115C17.5283 9.50664 17.5235 9.48246 17.5235 9.48246C17.5235 9.50664 17.509 9.51632 17.5042 9.53566C17.4993 9.56952 17.5138 9.57919 17.5283 9.60338C17.5525 9.65175 17.5622 9.65175 17.6154 9.65658C17.6202 9.67593 17.6348 9.70011 17.6299 9.7243C17.6009 9.71946 17.5767 9.72913 17.5574 9.75332C17.5283 9.78234 17.5429 9.8162 17.509 9.84038C17.48 9.8694 17.4365 9.86456 17.4074 9.90326C17.3881 9.92744 17.3736 9.94195 17.3832 9.97097C17.3881 9.99999 17.4074 10.0048 17.4026 10.0339C17.3349 10.0484 17.3542 10.1741 17.3591 10.2273C17.3881 10.2322 17.4123 10.2225 17.4413 10.2322C17.4655 10.237 17.4897 10.2418 17.509 10.2515C17.538 10.2612 17.5574 10.2757 17.5767 10.295C17.5864 10.3047 17.6106 10.3192 17.6154 10.3386C17.6202 10.3482 17.6106 10.3676 17.6154 10.3821C17.6348 10.4353 17.6928 10.4546 17.7363 10.474C17.775 10.4933 17.7847 10.4982 17.8234 10.4837C17.8621 10.4692 17.8669 10.4546 17.8959 10.4305C17.9008 10.4498 17.9201 10.474 17.9298 10.4982C17.9395 10.5224 17.9443 10.5465 17.9588 10.5659C17.9733 10.5852 18.012 10.6191 18.0314 10.6094C18.0556 10.5998 18.0362 10.5514 18.0797 10.5611C18.0846 10.5852 18.0604 10.7013 18.041 10.7158C18.0169 10.7352 17.9443 10.6868 17.9346 10.7303C17.8863 10.7352 17.8379 10.7255 17.7944 10.7352C17.7605 10.74 17.6976 10.7352 17.6686 10.7497C17.6589 10.8077 17.688 10.8368 17.6831 10.89C17.6202 10.8948 17.6299 10.9093 17.6299 10.9673C17.6057 10.9673 17.5816 10.9673 17.5622 10.9673C17.5525 10.9964 17.567 11.0109 17.5912 11.0254C17.5767 11.0254 17.5525 11.0302 17.538 11.0206C17.5235 11.006 17.5429 10.9867 17.5283 10.9722C17.509 10.9577 17.4413 10.9673 17.4219 10.9673C17.4171 11.0206 17.4316 11.0689 17.4026 11.1125C17.3929 11.127 17.3832 11.1318 17.3736 11.1463C17.3687 11.1608 17.3736 11.1705 17.3687 11.185C17.3591 11.2043 17.33 11.1995 17.3446 11.2334C17.3494 11.2527 17.3881 11.2672 17.4026 11.2817C17.4171 11.3011 17.4171 11.3204 17.4268 11.3398C17.451 11.3736 17.509 11.3833 17.5235 11.4123C17.5574 11.4123 17.5961 11.4317 17.5912 11.4704C17.6251 11.4752 17.6686 11.4704 17.7025 11.4849C17.7315 11.4946 17.7508 11.5091 17.7847 11.5139C17.8234 11.5187 17.8572 11.5091 17.8911 11.5236C17.9008 11.5332 17.9105 11.5429 17.9201 11.5574C17.9201 11.5574 17.9153 11.5574 17.9153 11.5526C17.8959 11.5429 17.8766 11.5381 17.8524 11.5381C17.8234 11.5381 17.7992 11.5381 17.775 11.5381C17.7944 11.5429 17.8089 11.5429 17.8282 11.5429C17.8524 11.5478 17.8669 11.5623 17.8863 11.5623C17.9008 11.5671 17.9201 11.5671 17.9346 11.5768C17.954 11.6251 17.9685 11.688 17.9637 11.7267C17.9588 11.7751 17.9298 11.8089 17.9153 11.8525C17.9056 11.8767 17.9153 11.8863 17.8911 11.9008C17.8718 11.9154 17.8427 11.896 17.8234 11.9105C17.8089 11.9202 17.8089 11.9589 17.8089 11.9782C17.804 12.0314 17.8089 12.0846 17.8137 12.1378C17.8234 12.1378 17.8524 12.133 17.8621 12.1378C17.8766 12.1427 17.8718 12.1572 17.8814 12.1669C17.9008 12.1814 17.9201 12.2007 17.9491 12.2104C17.9782 12.2249 18.0169 12.2201 18.0072 12.2636C18.0024 12.2781 17.9878 12.2781 17.983 12.2926C17.9782 12.3071 17.9782 12.3168 17.9782 12.3313C17.9685 12.37 17.9491 12.4377 17.9685 12.4716C17.9927 12.5296 18.0265 12.4522 18.0797 12.4474C18.0991 12.4474 18.1813 12.4716 18.1958 12.4813C18.162 12.4716 18.1523 12.5006 18.1426 12.5296C18.0894 12.5538 18.1136 12.6457 18.0991 12.6892C18.1184 12.6941 18.1281 12.7086 18.1378 12.7231C18.1426 12.7376 18.162 12.7376 18.1716 12.7618C18.1765 12.786 18.1716 12.815 18.1716 12.8392C18.1378 12.8537 18.1668 12.8827 18.1716 12.9117C18.1765 12.9456 18.1765 12.9698 18.191 13.0036C18.2152 13.0665 18.2394 13.1052 18.2394 13.1729C18.2394 13.2503 18.2539 13.2793 18.2926 13.3422C18.3167 13.3712 18.3264 13.4002 18.3312 13.4293C18.3167 13.4196 18.3071 13.4099 18.2926 13.3954C18.278 13.3761 18.2345 13.3374 18.2103 13.3277C18.1958 13.3229 18.1668 13.318 18.1523 13.3229C18.1233 13.3374 18.1426 13.3374 18.1281 13.3615C18.1088 13.4002 18.0894 13.4051 18.0507 13.4244C18.0556 13.4873 17.9733 13.4728 17.9346 13.4728C17.9298 13.5115 17.9153 13.5212 17.9105 13.555C17.9056 13.5744 17.9153 13.6276 17.9201 13.6421C17.8572 13.6469 17.8572 13.6469 17.8524 13.7098C17.8427 13.7098 17.8234 13.7098 17.8137 13.7098C17.8137 13.6711 17.7992 13.6469 17.7557 13.6663C17.7267 13.6808 17.7267 13.7001 17.7121 13.7243C17.7025 13.7388 17.6686 13.7823 17.6493 13.763C17.6396 13.7582 17.6493 13.7243 17.6493 13.7146C17.6396 13.6904 17.6348 13.6904 17.6251 13.6711C17.6057 13.6421 17.5816 13.6276 17.5912 13.5937C17.6009 13.5647 17.6251 13.555 17.6299 13.5212C17.6348 13.468 17.6299 13.3615 17.5477 13.3857C17.5574 13.4148 17.5864 13.4244 17.5912 13.4534C17.5961 13.4825 17.5912 13.5212 17.5912 13.5502C17.5767 13.555 17.5574 13.555 17.5429 13.5647C17.509 13.5792 17.5332 13.5792 17.5138 13.6082C17.4945 13.6372 17.4897 13.6131 17.4655 13.6276C17.451 13.6372 17.4461 13.6614 17.4316 13.6711C17.4219 13.6808 17.4074 13.6856 17.3978 13.6953C17.3881 13.7098 17.3784 13.7291 17.3687 13.7485C17.3542 13.7727 17.3252 13.7727 17.3107 13.792C17.2962 13.8162 17.3059 13.8259 17.301 13.8452C17.2817 13.9081 17.2381 13.9033 17.1801 13.9178C17.1366 13.9323 17.1172 13.9661 17.0785 13.9903C17.064 14 17.0205 14.0726 17.0205 14.0726C16.9915 14.0774 16.9576 14.0532 16.9238 14.0484C16.9044 14.0484 16.8802 14.0484 16.856 14.0532C16.8125 14.0677 16.7545 14.0919 16.7206 14.1112C16.6819 14.1354 16.6529 14.179 16.619 14.208C16.5852 14.237 16.5513 14.2757 16.5417 14.3144C16.503 14.3241 16.5126 14.4498 16.5175 14.4837C16.532 14.532 16.5562 14.5852 16.5803 14.6336C16.6142 14.682 16.6819 14.7594 16.5852 14.7642C16.503 14.7739 16.4788 14.7787 16.4788 14.8658C16.4981 14.8513 16.5078 14.8416 16.5271 14.8368C16.5562 14.8271 16.5658 14.8319 16.59 14.8174C16.5949 14.8126 16.6094 14.8029 16.6142 14.7981C16.619 14.7932 16.6384 14.7981 16.6432 14.7932C16.6577 14.7884 16.6432 14.7739 16.6626 14.769C16.6722 14.769 16.6868 14.769 16.6964 14.769C16.6674 14.8368 16.6142 14.9093 16.5513 14.948C16.4885 14.9819 16.3917 15.0206 16.4111 15.1028C16.4256 15.1028 16.4401 15.0979 16.4546 15.0979C16.4594 15.1318 16.4643 15.1802 16.4401 15.2044C16.4256 15.2237 16.3772 15.2382 16.353 15.2479C16.3095 15.2769 16.1982 15.3011 16.1886 15.3543C16.145 15.364 16.1354 15.4172 16.1257 15.4559C16.1015 15.5333 16.0193 15.5574 15.9564 15.5865C15.8742 15.63 15.7823 15.6203 15.7001 15.659C15.6275 15.688 15.5501 15.7267 15.4776 15.7606C15.4389 15.7799 15.4002 15.7848 15.3567 15.7944C15.3325 15.8041 15.3083 15.8138 15.2938 15.8235C15.2744 15.8331 15.2793 15.8573 15.2502 15.8525C15.2502 15.8331 15.2502 15.8138 15.2502 15.7944C15.2502 15.8041 15.3615 15.7461 15.3712 15.7364C15.4002 15.7122 15.4437 15.6687 15.4147 15.63C15.3615 15.5623 15.2938 15.6203 15.2502 15.6542C15.2115 15.6832 15.1632 15.6929 15.1293 15.7316C15.1148 15.7412 15.0858 15.7751 15.081 15.7896C15.0664 15.8186 15.081 15.8815 15.0568 15.9105M4.80772 13.3567C4.81255 13.3519 4.81739 13.3519 4.82223 13.3519C4.81739 13.3519 4.81255 13.3567 4.80772 13.3567ZM4.80772 13.3567C4.78837 13.3712 4.75451 13.4196 4.73033 13.4293C4.69647 13.4486 4.70131 13.4341 4.66745 13.4244C4.6481 13.4196 4.62392 13.4196 4.59974 13.4099C4.55621 13.3809 4.54653 13.3132 4.49816 13.3809C4.47882 13.4099 4.48365 13.4728 4.45463 13.4873C4.47398 13.5018 4.49333 13.5115 4.48849 13.5308C4.45463 13.5357 4.45463 13.6276 4.45947 13.6566C4.47882 13.6566 4.49816 13.6566 4.51751 13.6566C4.53202 13.6227 4.66745 13.6131 4.69647 13.6324C4.65294 13.6469 4.62392 13.6759 4.57555 13.6759C4.54653 13.6808 4.48849 13.6614 4.46914 13.7001C4.45463 13.7291 4.46914 13.763 4.47398 13.792C4.47398 13.821 4.4498 13.8549 4.45463 13.8791C4.47398 13.8839 4.62392 13.8936 4.62392 13.9129C4.62392 13.9178 4.62392 13.9226 4.62392 13.9274C4.57555 13.9274 4.52235 13.9178 4.47398 13.9323C4.47882 13.9371 4.48365 13.942 4.49333 13.9468C4.49333 13.9613 4.503 13.971 4.49816 13.9855C4.53686 13.9855 4.57555 13.9807 4.60457 13.9565C4.62876 13.9371 4.63843 13.9129 4.67712 13.9274C4.67229 13.9274 4.66261 13.9323 4.65778 13.9323C4.65294 13.9661 4.60941 13.9855 4.59006 14.0145C4.57555 14.0339 4.57555 14.0435 4.55621 14.058C4.54169 14.0726 4.50784 14.0677 4.52235 14.1016C4.52235 14.1016 4.52719 14.1016 4.53202 14.1016C4.53202 14.1403 4.52718 14.1596 4.51751 14.1886C4.50784 14.208 4.49333 14.2031 4.49816 14.2322C4.503 14.2515 4.503 14.2612 4.52235 14.2709C4.503 14.2854 4.49333 14.3096 4.503 14.3337C4.52719 14.3337 4.58523 14.3241 4.58523 14.3482C4.56588 14.3531 4.53686 14.3724 4.53202 14.3966C4.56588 14.3966 4.60457 14.3869 4.64327 14.3918C4.64327 14.3966 4.64327 14.4063 4.64327 14.4111C4.61908 14.4111 4.5949 14.416 4.57555 14.4305C4.60457 14.445 4.5949 14.4788 4.5949 14.5079C4.62876 14.5079 4.66261 14.4982 4.69647 14.503C4.69163 14.5175 4.69163 14.5369 4.69163 14.5514C4.65778 14.5562 4.62876 14.5659 4.5949 14.5756C4.60457 14.5901 4.61908 14.6288 4.63359 14.6433C4.65294 14.6578 4.67229 14.653 4.70131 14.653C4.71098 14.6965 4.66261 14.6868 4.63843 14.7013C4.63359 14.7739 4.63843 14.8368 4.61425 14.8996C4.61425 14.9142 4.60457 14.9238 4.59974 14.9383C4.5949 14.9577 4.59974 14.9722 4.58523 14.9915C4.57555 15.006 4.55137 15.006 4.54653 15.0206C4.53202 15.0399 4.54169 15.0689 4.52718 15.0883C4.50784 15.1125 4.45947 15.0979 4.4498 15.1221C4.44496 15.1463 4.47882 15.1657 4.47398 15.1947C4.46431 15.2382 4.43529 15.2092 4.42078 15.2479C4.38692 15.3059 4.47882 15.3398 4.46914 15.393C4.45463 15.3785 4.43529 15.3688 4.43529 15.3495C4.42078 15.3446 4.40627 15.3446 4.39176 15.3495C4.37241 15.3736 4.38208 15.3882 4.39659 15.4123C4.39659 15.4123 4.43529 15.4559 4.43045 15.4607C4.41594 15.4607 4.40627 15.4704 4.39176 15.4655C4.39176 15.5091 4.37241 15.5429 4.37725 15.5865C4.44496 15.5816 4.3579 15.7509 4.38692 15.7557C4.40143 15.7557 4.42078 15.7557 4.43529 15.7557C4.43529 15.7364 4.42561 15.6929 4.45463 15.688C4.46431 15.688 4.49816 15.7316 4.51267 15.7412C4.48849 15.7703 4.42078 15.7606 4.4111 15.8041C4.40143 15.8283 4.42561 15.8331 4.43045 15.8525C4.43529 15.8767 4.43045 15.9008 4.43045 15.925C4.46914 15.9299 4.50784 15.925 4.54653 15.9299C4.51267 15.9492 4.43529 15.925 4.42078 15.9637C4.4111 15.9831 4.43045 16.0798 4.44496 16.0846C4.44496 16.104 4.44496 16.1185 4.44496 16.1379C4.41594 16.1475 4.44496 16.1717 4.44012 16.1959C4.41594 16.2056 4.4111 16.283 4.4498 16.2781C4.46914 16.2443 4.48849 16.2201 4.49333 16.1814C4.51751 16.1814 4.5417 16.1814 4.56588 16.1814C4.57555 16.1524 4.55621 16.075 4.5949 16.0798C4.59006 16.104 4.60941 16.1233 4.61425 16.1427C4.61908 16.162 4.61425 16.1862 4.60457 16.2056C4.5949 16.2056 4.56588 16.2007 4.55137 16.2056C4.52718 16.2152 4.54169 16.2201 4.52718 16.2346C4.51267 16.2539 4.45947 16.2975 4.51267 16.312C4.51267 16.3216 4.51751 16.3362 4.51267 16.3458C4.53686 16.3458 4.55137 16.3362 4.57072 16.3458C4.58039 16.3507 4.5949 16.3652 4.60457 16.3749C4.58523 16.3894 4.53686 16.3845 4.50784 16.3797C4.50784 16.3749 4.50784 16.37 4.50784 16.3652C4.43045 16.3555 4.43045 16.4571 4.45463 16.5054C4.45947 16.5151 4.47398 16.52 4.48365 16.5296C4.48849 16.5441 4.48849 16.5586 4.49333 16.5732C4.503 16.6022 4.52235 16.6264 4.5417 16.6457C4.53202 16.6457 4.51751 16.6457 4.51267 16.6457C4.50784 16.6409 4.50784 16.636 4.50784 16.6312C4.503 16.6264 4.49816 16.6312 4.48849 16.6312C4.47882 16.6699 4.48365 16.7231 4.48365 16.7666C4.49816 16.7715 4.50784 16.7763 4.52235 16.7811C4.52235 16.8053 4.52718 16.8343 4.51267 16.8489C4.52718 16.8489 4.54169 16.8489 4.55621 16.8489C4.56104 16.8295 4.58039 16.8198 4.59974 16.8247C4.58523 16.8489 4.59974 16.873 4.5949 16.8924C4.59006 16.8537 4.52718 16.8634 4.48849 16.8634C4.47882 16.9214 4.51751 16.9117 4.54653 16.9359C4.55621 16.9649 4.52718 16.994 4.51751 17.0181C4.52718 17.0181 4.53202 17.023 4.5417 17.023C4.54653 17.052 4.55621 17.1294 4.60457 17.1149C4.52718 17.1391 4.58039 17.2213 4.60941 17.26C4.65778 17.3229 4.62392 17.3857 4.63359 17.4583C4.65294 17.4583 4.67229 17.4583 4.6868 17.468C4.67229 17.4825 4.6481 17.4873 4.63359 17.497C4.65778 17.555 4.70131 17.6663 4.6481 17.7243C4.66261 17.7243 4.68196 17.7243 4.70131 17.7243C4.70614 17.7533 4.68196 17.7437 4.67229 17.763C4.66745 17.7775 4.67229 17.8017 4.67229 17.821C4.70131 17.8259 4.73033 17.8356 4.71582 17.8694C4.69163 17.8646 4.68196 17.8888 4.69163 17.9129C4.73516 17.9081 4.70131 17.9903 4.70131 18.0242C4.71582 18.0242 4.72549 18.029 4.74 18.029C4.74484 18.058 4.72065 18.058 4.69647 18.058C4.73033 18.1016 4.72549 18.2128 4.73033 18.266C4.73033 18.2951 4.72065 18.3289 4.72065 18.3628C4.72549 18.4063 4.74484 18.4353 4.74968 18.474C4.75451 18.5079 4.74484 18.5466 4.75935 18.5804C4.77386 18.6191 4.78353 18.6433 4.78837 18.6868C4.78837 18.7062 4.78353 18.74 4.78837 18.7545C4.79321 18.7739 4.81739 18.7836 4.82223 18.7981C4.82706 18.8271 4.79321 18.8416 4.7787 18.861C4.78353 18.89 4.80772 18.8948 4.82706 18.9142C4.84641 18.9287 4.86092 18.948 4.87543 18.9674C4.90929 19.0109 4.91412 19.0689 4.93831 19.1173C4.96249 19.1608 4.98184 19.2092 5.00119 19.2576C5.0157 19.2914 5.0157 19.3301 5.04955 19.3591C5.06406 19.3688 5.13661 19.393 5.15596 19.393C5.13178 19.393 5.04955 19.393 5.09308 19.4414C5.11727 19.4655 5.17531 19.4269 5.19466 19.4607C5.17047 19.4607 5.13178 19.4559 5.11243 19.4704C5.15112 19.5381 5.19949 19.601 5.19466 19.6929C5.18982 19.6929 5.18982 19.6929 5.18498 19.6929C5.18015 19.7219 5.214 19.7364 5.22368 19.7558C5.24302 19.7848 5.2527 19.809 5.27204 19.8331C5.29139 19.8622 5.28655 19.8863 5.29623 19.9154C5.31074 19.9396 5.34943 19.9444 5.35427 19.9686C5.32525 19.9686 5.24302 19.9492 5.25753 20.0024C5.29623 20.0073 5.28655 20.0314 5.30106 20.0411C5.32041 20.0508 5.34943 20.0363 5.36878 20.0411C5.38813 20.0508 5.38813 20.075 5.40747 20.0847C5.42682 20.0943 5.44617 20.075 5.46551 20.0992C5.47519 20.1088 5.46551 20.1475 5.47035 20.162C5.48002 20.1814 5.49453 20.1814 5.49937 20.2104C5.50904 20.2539 5.50904 20.2926 5.56709 20.283C5.57676 20.3023 5.54774 20.312 5.5429 20.3313C5.53806 20.3458 5.55741 20.37 5.56225 20.3845C5.56708 20.4039 5.57192 20.4136 5.5816 20.4329C5.59127 20.4522 5.61545 20.4426 5.60094 20.4764C5.60094 20.4764 5.59611 20.4813 5.59127 20.4813C5.59127 20.4861 5.59127 20.4909 5.59127 20.5006C5.64931 20.5006 5.61062 20.6119 5.59127 20.636C5.6348 20.6602 5.69768 20.7279 5.71702 20.7715C5.7267 20.786 5.7267 20.8102 5.73637 20.8295C5.74121 20.844 5.74604 20.844 5.75088 20.8634C5.75572 20.8924 5.75088 20.9311 5.75088 20.9601C5.77506 20.9601 5.8186 20.9601 5.80892 20.994C5.73637 21.0181 5.78957 21.052 5.79925 21.1004C5.80892 21.1536 5.80892 21.1923 5.80409 21.2406C5.79441 21.2406 5.74604 21.26 5.74121 21.2697C5.74121 21.289 5.77023 21.2938 5.78474 21.2987C5.80892 21.318 5.80892 21.3132 5.8186 21.3422C5.82343 21.3712 5.83311 21.3906 5.84278 21.4148C5.85729 21.4389 5.86213 21.4486 5.86213 21.4825C5.86213 21.5115 5.86213 21.5357 5.86213 21.5599C5.86213 21.5841 5.85729 21.6082 5.86696 21.6276C5.88147 21.6566 5.89115 21.6469 5.92017 21.6663C5.8718 21.6953 5.925 21.7582 5.93951 21.8017C5.9637 21.8597 5.9637 21.9226 6.00239 21.9807C6.03625 22.0339 6.07494 22.0822 6.08462 22.1451C6.08945 22.208 6.1088 22.2564 6.13298 22.3144C6.15233 22.3628 6.15717 22.416 6.18619 22.4595C6.2007 22.4837 6.20553 22.503 6.21037 22.5272C6.21037 22.5466 6.20553 22.5756 6.21521 22.5901C6.22488 22.6143 6.22488 22.5949 6.23456 22.5949C6.24907 22.5949 6.2539 22.5998 6.26358 22.6046C6.27325 22.6046 6.29743 22.5998 6.30227 22.6046C6.31194 22.6143 6.30227 22.624 6.2926 22.624C6.2926 22.6288 6.36998 22.6723 6.37966 22.682C6.36515 22.682 6.35064 22.682 6.33613 22.682C6.33613 22.7013 6.35547 22.711 6.36031 22.7255C6.37482 22.7497 6.36515 22.7546 6.38933 22.7691C6.40868 22.7836 6.42802 22.7884 6.44737 22.8029C6.46188 22.8126 6.47156 22.8174 6.48607 22.8223C6.49574 22.8416 6.50541 22.8561 6.52476 22.8706C6.53443 22.8851 6.55862 22.9045 6.56829 22.919C6.57313 22.9432 6.56345 22.9625 6.57796 22.9819C6.58764 22.9964 6.59247 23.0206 6.61182 23.0157C6.61182 23.0206 6.61182 23.0254 6.61182 23.0302C6.60215 23.0302 6.59247 23.0302 6.5828 23.0302C6.58764 23.0496 6.60215 23.0544 6.60215 23.0738C6.60698 23.0835 6.60215 23.098 6.60698 23.1076C6.61182 23.1221 6.61666 23.127 6.63117 23.1318C6.65052 23.1367 6.64568 23.127 6.66019 23.1415C6.66503 23.1512 6.67954 23.1657 6.68437 23.1753C6.68921 23.185 6.68921 23.2044 6.69888 23.2092C6.70856 23.2189 6.7666 23.1995 6.76176 23.2237C6.74725 23.2286 6.7279 23.2237 6.71339 23.2286C6.71339 23.2431 6.7279 23.2431 6.73274 23.2527C6.73758 23.2624 6.73758 23.2769 6.73758 23.2866C6.73758 23.3156 6.75209 23.3398 6.75692 23.3688C6.75692 23.364 6.76176 23.364 6.76176 23.3591C6.77627 23.3591 6.79562 23.3591 6.81013 23.3591C6.81013 23.3785 6.77627 23.3785 6.77627 23.3978C6.77143 23.4124 6.79562 23.4365 6.80045 23.4559C6.80529 23.4752 6.80045 23.4946 6.81013 23.5139C6.81496 23.5333 6.81496 23.5526 6.8198 23.572C6.82464 23.5913 6.83431 23.6107 6.84399 23.63C6.84882 23.6494 6.84882 23.6735 6.84882 23.6929C6.85366 23.7171 6.87301 23.7364 6.87301 23.7558C6.87784 23.7751 6.87301 23.7993 6.87784 23.8138C6.88268 23.7993 6.87784 23.7848 6.88752 23.7751C6.88752 23.7751 6.89235 23.7751 6.89235 23.7703C6.89235 23.7606 6.89719 23.7558 6.89719 23.7461C6.90203 23.7509 6.90203 23.7509 6.90203 23.7558C6.91654 23.7606 6.92137 23.7558 6.92621 23.7703C6.93105 23.7799 6.93105 23.7945 6.91654 23.7945C6.91654 23.809 6.92137 23.8186 6.92621 23.8283C6.91654 23.8235 6.90203 23.8235 6.88752 23.8235C6.88752 23.838 6.89719 23.8525 6.89719 23.867C6.9117 23.867 6.93588 23.9009 6.94072 23.9105C6.94556 23.925 6.94072 23.9347 6.94556 23.9492C6.95039 23.9589 6.96007 23.9928 6.97941 23.9879C6.97941 23.9637 7.0036 23.9734 7.01327 23.9831C7.02294 23.9976 7.02778 24.0169 7.03745 24.0315C7.0036 24.0363 6.99876 24.0315 6.99876 23.9976C6.99392 23.9976 6.98909 23.9976 6.98425 23.9976C6.98909 24.0218 7.00843 24.0411 7.01811 24.0653C7.02294 24.0798 7.01811 24.0895 7.02778 24.0992C7.03262 24.1137 7.03745 24.1185 7.04229 24.133C7.04713 24.1427 7.04713 24.1572 7.04713 24.1717C7.04713 24.1766 7.04713 24.1862 7.04713 24.1911C7.05196 24.2007 7.06164 24.2007 7.06164 24.2056C7.07131 24.2249 7.07615 24.2588 7.07615 24.283C7.08582 24.2733 7.10517 24.2781 7.11968 24.2733C7.11968 24.2588 7.11484 24.2443 7.11484 24.2298C7.12935 24.2443 7.1487 24.3265 7.16805 24.3217C7.1487 24.3265 7.14386 24.3072 7.12452 24.3072C7.12452 24.3023 7.12452 24.3023 7.12452 24.2975C7.0955 24.2878 7.11484 24.3265 7.11001 24.3362C7.10517 24.341 7.10517 24.3458 7.0955 24.3458C7.10517 24.3555 7.10517 24.37 7.11001 24.3797C7.11001 24.4087 7.11484 24.4232 7.13419 24.4474C7.15354 24.4619 7.16321 24.4861 7.17772 24.5006C7.19223 24.52 7.20674 24.5296 7.22125 24.549C7.23576 24.5683 7.25511 24.578 7.25994 24.6022C7.25994 24.6215 7.25511 24.6457 7.25511 24.6699C7.25511 24.6941 7.27929 24.6989 7.27929 24.728C7.28413 24.7763 7.28413 24.8198 7.28413 24.8682C7.29864 24.8731 7.30831 24.8731 7.32282 24.8731C7.32282 24.8634 7.32766 24.8585 7.32766 24.8537C7.35184 24.8731 7.37119 24.8827 7.36635 24.9166C7.33733 24.9166 7.31799 24.9021 7.28897 24.9021C7.25994 24.8972 7.2406 24.9021 7.23576 24.8682C7.23576 24.844 7.23576 24.8247 7.24543 24.8053C7.25027 24.786 7.26478 24.7666 7.25994 24.7473C7.25511 24.7231 7.22609 24.7425 7.21641 24.7134C7.21158 24.6893 7.21641 24.6651 7.20674 24.6457C7.19707 24.6215 7.19223 24.6022 7.19223 24.578C7.18739 24.5587 7.17288 24.5442 7.16321 24.5248C7.15837 24.5151 7.15354 24.5055 7.1487 24.4958C7.13903 24.4861 7.12935 24.4861 7.12935 24.4716C7.12935 24.549 7.17288 24.6022 7.18256 24.6747C7.18739 24.7183 7.19223 24.757 7.19223 24.8005C7.19223 24.8344 7.19707 24.8682 7.2019 24.9021C7.20674 24.9359 7.22125 24.9601 7.23576 24.9891C7.24543 25.023 7.2406 25.052 7.24543 25.0859C7.25027 25.1149 7.26962 25.1439 7.28413 25.1681C7.29864 25.1971 7.30831 25.231 7.32282 25.26C7.33733 25.2842 7.33733 25.3229 7.34701 25.3471C7.35184 25.3374 7.35184 25.3229 7.35184 25.3132C7.37119 25.3132 7.39054 25.3277 7.39054 25.3471C7.37603 25.3567 7.35668 25.3519 7.35668 25.3664C7.38086 25.3761 7.37119 25.4099 7.38086 25.4244C7.39054 25.4099 7.40505 25.4244 7.41472 25.4148C7.42439 25.4051 7.41472 25.3906 7.42923 25.3809C7.44858 25.3712 7.48243 25.4051 7.48727 25.4196C7.47276 25.4341 7.44374 25.4341 7.42439 25.4486C7.43407 25.4583 7.44374 25.468 7.44858 25.468C7.44374 25.468 7.41956 25.4728 7.41472 25.468C7.40988 25.4922 7.43407 25.5163 7.45341 25.5212C7.46309 25.5212 7.51146 25.5163 7.51146 25.5212C7.51629 25.5309 7.51629 25.5454 7.51629 25.555C7.50178 25.5502 7.49211 25.5454 7.4776 25.5454C7.47276 25.5889 7.55982 25.6663 7.58401 25.7001C7.6227 25.7533 7.6759 25.8017 7.72427 25.8598C7.74846 25.8839 7.75813 25.9081 7.77264 25.942C7.78715 25.9855 7.8065 25.9807 7.84035 25.9952C7.86454 26.0049 7.88872 26.029 7.90323 26.0484C7.92258 26.0774 7.92742 26.1064 7.95644 26.1258C7.98546 26.15 8.03382 26.1693 8.07252 26.1838C8.13056 26.2032 8.1886 26.2273 8.24664 26.237C8.27082 26.2419 8.29501 26.2419 8.31919 26.2419C8.32886 26.2419 8.33854 26.2467 8.34821 26.2419C8.35305 26.2419 8.36272 26.2225 8.36272 26.2225C8.36756 26.2225 8.36756 26.2225 8.36756 26.2225C8.3724 26.208 8.38207 26.1838 8.40142 26.1741C8.41593 26.1693 8.44495 26.1741 8.45946 26.1741C8.48848 26.1741 8.51266 26.1596 8.53684 26.15C8.55136 26.1451 8.56587 26.1355 8.57554 26.1209C8.59005 26.1016 8.59489 26.0726 8.61423 26.0629C8.62874 26.0532 8.65293 26.0484 8.66744 26.0436C8.67711 26.0387 8.69162 26.0436 8.70129 26.0387C8.71097 26.0339 8.72548 26.0242 8.73515 26.0194C8.76417 26.0097 8.78352 26 8.8077 25.9758C8.82705 25.9517 8.84156 25.9275 8.85607 25.8984C8.86091 25.8839 8.86091 25.8646 8.87058 25.8549C8.88509 25.8404 8.88993 25.8404 8.89476 25.8211C8.89476 25.8066 8.8996 25.7775 8.88993 25.7679C8.88509 25.7582 8.85123 25.7533 8.8464 25.7679C8.82705 25.7679 8.8077 25.7679 8.78836 25.7679C8.78836 25.734 8.86574 25.7485 8.88993 25.7485C8.89476 25.7243 8.88993 25.705 8.90927 25.6856C8.91895 25.6711 8.93346 25.6566 8.93829 25.6373C8.94797 25.5986 8.93829 25.5454 8.93829 25.5018C8.93829 25.4825 8.94313 25.439 8.95764 25.4244C8.96732 25.4148 8.98182 25.4196 8.98666 25.4148C9.00117 25.4051 9.00601 25.4003 9.01568 25.3906C9.03503 25.3712 9.06405 25.3809 9.0834 25.3664C9.09791 25.3519 9.11242 25.3229 9.13176 25.3084C9.14627 25.2939 9.18497 25.2939 9.20432 25.289C9.26236 25.2793 9.32523 25.2745 9.37844 25.2503C9.39778 25.2455 9.4123 25.2406 9.43164 25.2406C9.43164 25.2358 9.43164 25.231 9.43164 25.2261C9.44615 25.2165 9.47517 25.2068 9.48968 25.2068C9.49936 25.1923 9.49936 25.1874 9.51387 25.1826C9.52838 25.1778 9.53805 25.1778 9.55256 25.1778C9.59609 25.1681 9.63962 25.1487 9.69283 25.1584C9.72668 25.1584 9.7557 25.1681 9.78956 25.1681C9.81858 25.1681 9.85244 25.1681 9.88146 25.1729C9.92499 25.1826 9.97336 25.1729 10.0072 25.1923C10.0217 25.202 10.0411 25.2165 10.0556 25.2261C10.0556 25.231 10.0604 25.231 10.0604 25.231C10.0653 25.2213 10.0653 25.2116 10.0701 25.2068C10.0653 25.202 10.0556 25.1971 10.0459 25.1971C10.0121 25.1778 10.0217 25.1487 10.0217 25.1149C9.99754 25.1101 9.99754 25.1294 9.98787 25.1391C9.97336 25.1536 9.94917 25.1536 9.92983 25.1536C9.90564 25.1584 9.88146 25.1439 9.85728 25.1439C9.83793 25.1439 9.81858 25.1391 9.79923 25.1391C9.7944 25.1149 9.77021 25.1149 9.75087 25.1004C9.72668 25.0859 9.7025 25.0762 9.67832 25.0665C9.58642 25.0278 9.63962 24.8876 9.66864 24.8247C9.68315 24.786 9.73152 24.7618 9.74603 24.7231C9.76054 24.6893 9.77021 24.6651 9.80407 24.6457C9.80891 24.5877 9.86695 24.5587 9.89597 24.52C9.90081 24.5103 9.91048 24.4958 9.92015 24.4861C9.92983 24.4764 9.94434 24.4764 9.95401 24.4716C9.98787 24.4474 9.94917 24.4377 9.92983 24.4377C9.92983 24.4184 9.92983 24.3265 9.95885 24.3313C9.96368 24.3168 9.95885 24.3023 9.96852 24.283C9.97819 24.2685 10.0072 24.2298 10.0266 24.2201C10.0459 24.2104 10.0701 24.2104 10.0991 24.2104C10.1523 24.2104 10.2104 24.2346 10.2636 24.2346C10.3023 24.2346 10.3361 24.2249 10.3748 24.2346C10.3893 24.2346 10.399 24.2443 10.4183 24.2443C10.4328 24.2491 10.4522 24.2443 10.4667 24.2443C10.4522 24.2249 10.4232 24.2153 10.399 24.2104C10.37 24.2056 10.3313 24.1911 10.2974 24.1862C10.2829 24.1862 10.2684 24.1862 10.2539 24.1862C10.2394 24.1911 10.2249 24.1911 10.2104 24.1911C10.2007 24.1911 10.191 24.1911 10.1813 24.1911C10.1765 24.1911 10.1717 24.1959 10.162 24.2007C10.1572 24.1814 10.191 24.1717 10.2055 24.1717C10.2249 24.1717 10.2442 24.1717 10.2587 24.1717C10.2732 24.1766 10.2877 24.1814 10.3071 24.1766C10.3264 24.1766 10.341 24.1669 10.3603 24.1621C10.3796 24.1621 10.399 24.1766 10.4135 24.1862C10.4328 24.1959 10.4377 24.1959 10.4522 24.1959C10.4909 24.2007 10.4764 24.2298 10.4909 24.2539C10.5102 24.2249 10.5102 24.1959 10.5102 24.1621C10.5102 24.104 10.5054 24.0508 10.5054 23.9928C10.4957 23.8864 10.4861 23.7799 10.4812 23.6735C10.4764 23.5816 10.4764 23.4897 10.4764 23.3978C10.4764 23.3495 10.4715 23.2963 10.4619 23.2527C10.4619 23.2431 10.4522 23.2382 10.4522 23.2286C10.4474 23.2189 10.4522 23.1995 10.4522 23.185C10.4474 23.1657 10.4425 23.1705 10.4328 23.156C10.4038 23.1173 10.4232 23.0302 10.428 22.9867C10.4377 22.9529 10.4377 22.9238 10.4377 22.89C10.4377 22.8561 10.4425 22.8174 10.4474 22.7884C10.4522 22.7545 10.4715 22.7304 10.4812 22.7013C10.4861 22.682 10.4909 22.6578 10.4909 22.6385C10.4909 22.6288 10.5006 22.5998 10.5006 22.5949C10.4909 22.5756 10.4522 22.5949 10.4522 22.5756C10.4474 22.5611 10.4812 22.5321 10.4957 22.5369C10.5054 22.5417 10.5199 22.5708 10.5102 22.5708C10.5296 22.5708 10.5344 22.5659 10.5393 22.5514C10.5441 22.5466 10.5393 22.5417 10.5393 22.5369C10.5393 22.5272 10.5489 22.5224 10.5489 22.5175C10.5538 22.503 10.5489 22.4934 10.5586 22.4837C10.5634 22.474 10.5779 22.4643 10.5828 22.4547C10.6118 22.4305 10.6457 22.4063 10.6747 22.3773C10.6844 22.3579 10.6844 22.3483 10.694 22.3338C10.6989 22.3192 10.7134 22.3096 10.7231 22.2951C10.7327 22.2805 10.7376 22.2612 10.7279 22.2419C10.7231 22.2225 10.7085 22.2273 10.694 22.2177C10.6844 22.2128 10.6747 22.2032 10.665 22.2032C10.6747 22.2032 10.6892 22.1983 10.6989 22.2032C10.7085 22.2032 10.7182 22.2128 10.7231 22.2128C10.7714 22.2177 10.815 22.0822 10.8246 22.0484C10.8343 22.0097 10.8536 21.9855 10.8585 21.942C10.8585 21.9033 10.8536 21.8646 10.8585 21.8307C10.8585 21.7582 10.9214 21.7098 10.9214 21.6373C10.9262 21.5744 10.9262 21.5067 10.9068 21.4486C10.8972 21.4003 10.8488 21.3809 10.8391 21.3325C10.8343 21.2987 10.8295 21.289 10.7908 21.2938C10.7811 21.2648 10.7472 21.2406 10.7472 21.2116C10.8053 21.2165 10.7327 21.1197 10.7327 21.1052C10.7231 21.0665 10.7279 21.0036 10.7327 20.9649C10.7376 20.9649 10.7472 20.9649 10.7521 20.9649C10.7569 21.0423 10.815 21.1004 10.8246 21.1778C10.8295 21.2019 10.8391 21.2116 10.8488 21.2358C10.8536 21.2503 10.8488 21.2697 10.8536 21.289C10.8585 21.2987 10.8778 21.3325 10.8972 21.3132C10.9165 21.2987 10.8875 21.2842 10.8827 21.2793C10.873 21.2503 10.8875 21.2068 10.8827 21.1778C10.873 21.1149 10.8536 21.0568 10.844 20.994C10.8391 20.9456 10.8488 20.9069 10.8343 20.8585C10.8246 20.815 10.8101 20.7715 10.8101 20.7231C10.8053 20.6796 10.7859 20.6506 10.7811 20.607C10.7569 20.6022 10.7376 20.607 10.7327 20.6264C10.7182 20.5877 10.7569 20.5925 10.7859 20.5877C10.7859 20.5587 10.7859 20.549 10.8053 20.5248C10.815 20.5055 10.8343 20.5006 10.8391 20.4716C10.8536 20.4281 10.844 20.3749 10.844 20.3265C10.844 20.3071 10.8488 20.283 10.844 20.2636C10.8391 20.2104 10.8053 20.162 10.7908 20.1137C10.7763 20.0508 10.7569 19.9831 10.7472 19.9202C10.7376 19.8573 10.7424 19.7848 10.7666 19.7267C10.7763 19.7074 10.7908 19.6929 10.7956 19.6735C10.815 19.6058 10.8246 19.5139 10.8875 19.4655C10.9359 19.4269 10.931 19.364 10.9649 19.3108C10.9842 19.2818 11.0084 19.2334 11.0471 19.2237C11.0713 19.2189 11.0955 19.2285 11.1197 19.2189C11.1438 19.214 11.1584 19.1947 11.1777 19.185C11.1777 19.1802 11.1777 19.1753 11.1777 19.1705C11.2309 19.1415 11.2986 19.1463 11.3567 19.1512C11.3567 19.1802 11.3712 19.2044 11.376 19.2382C11.376 19.2624 11.3615 19.3156 11.4002 19.3059C11.4002 19.2818 11.4002 19.2527 11.4292 19.2479C11.4341 19.2721 11.4244 19.2866 11.4244 19.3108C11.4727 19.3156 11.4631 19.2334 11.4679 19.2044C11.4824 19.2285 11.4727 19.2721 11.5114 19.2624C11.5163 19.2672 11.5163 19.2721 11.5163 19.2769C11.5211 19.2818 11.526 19.2769 11.5356 19.2769C11.5356 19.2672 11.5356 19.2527 11.5356 19.2431C11.5405 19.2576 11.555 19.2624 11.5743 19.2576C11.5405 19.2479 11.5501 19.1947 11.5743 19.1705C11.6178 19.1318 11.6662 19.1221 11.6856 19.0641C11.6952 19.0399 11.6904 19.0157 11.7049 18.9915C11.7194 18.9722 11.7436 18.9577 11.7581 18.9383C11.7823 18.9093 11.7775 18.9093 11.7823 18.8706C11.7823 18.8077 11.8065 18.8029 11.8645 18.7932C11.9032 18.7884 11.9467 18.7787 11.9806 18.7691C11.9854 18.7352 11.9274 18.7352 11.9032 18.74C11.8645 18.7545 11.8645 18.7787 11.8162 18.7739C11.8258 18.7304 11.9322 18.7352 11.9709 18.7352C12.0048 18.7352 12.0338 18.7352 12.0677 18.7449C12.1015 18.7497 12.1257 18.7739 12.1596 18.7787C12.1596 18.7884 12.1644 18.7932 12.1644 18.7981C12.1644 18.7787 12.1644 18.7545 12.1644 18.7304C12.1934 18.7352 12.1837 18.7787 12.1837 18.8077C12.2321 18.8126 12.295 18.7884 12.3385 18.7691C12.3917 18.7449 12.4159 18.711 12.4594 18.6868C12.5078 18.6675 12.561 18.6626 12.6045 18.6336C12.6239 18.6191 12.6336 18.6143 12.6432 18.5949C12.6529 18.5707 12.6432 18.5369 12.6674 18.5175C12.6674 18.5417 12.6626 18.5659 12.6674 18.5853C12.6723 18.5901 12.6771 18.5901 12.6868 18.5853C12.7013 18.5853 12.6819 18.4885 12.6868 18.474C12.6916 18.4498 12.7013 18.4063 12.711 18.3773C12.7255 18.3434 12.7496 18.3289 12.74 18.2902C12.74 18.2709 12.7013 18.2322 12.6819 18.2273C12.6771 18.237 12.6819 18.2564 12.6819 18.266C12.6868 18.266 12.6916 18.266 12.6964 18.266C12.6964 18.3047 12.7061 18.3483 12.6868 18.3821C12.6045 18.4063 12.6723 18.1935 12.6916 18.1693C12.7158 18.1354 12.7642 18.1258 12.798 18.1016C12.8415 18.0726 12.8754 18.0339 12.9189 18.0097C12.9576 17.9855 12.9866 17.971 13.006 17.9371C13.0447 17.8839 13.0785 17.8743 13.1366 17.8452C13.1898 17.821 13.243 17.792 13.2962 17.7775C13.3349 17.7678 13.3688 17.7582 13.4026 17.7388C13.4316 17.7243 13.4365 17.6905 13.4606 17.6663C13.48 17.6469 13.509 17.6421 13.5235 17.6179C13.538 17.5986 13.538 17.5599 13.5525 17.5357C13.5816 17.4825 13.6299 17.4486 13.6735 17.4051C13.7363 17.3374 13.8234 17.3084 13.9008 17.2551C13.9201 17.2406 13.9346 17.2261 13.954 17.2116C13.9733 17.1971 13.9927 17.1874 14.0169 17.1778C14.0556 17.1584 14.1039 17.1439 14.1378 17.1149C14.162 17.0955 14.1717 17.052 14.2103 17.0423C14.2539 17.0327 14.2297 16.9649 14.2394 16.9456C14.2539 16.9214 14.2829 16.9166 14.3022 16.9021C14.3361 16.8827 14.3796 16.8343 14.4135 16.8295C14.4183 16.815 14.428 16.8005 14.4473 16.7957C14.4667 16.7618 14.4812 16.7279 14.5054 16.6941C14.5199 16.6796 14.5441 16.6651 14.5586 16.6457C14.5683 16.6264 14.5731 16.607 14.5828 16.5877C14.6021 16.5587 14.636 16.5296 14.6602 16.5103C14.6892 16.4813 14.723 16.4571 14.7472 16.4281C14.7617 16.4039 14.7569 16.3797 14.7666 16.3555C14.7908 16.312 14.8391 16.2926 14.8585 16.2539C14.8778 16.2249 14.8778 16.2007 14.8972 16.1717C14.9213 16.1427 14.9407 16.0992 14.9697 16.0701C14.9939 16.0411 15.0423 16.0363 15.0713 16.0073C15.1051 15.9782 15.1003 15.9541 15.1438 15.9299C15.1825 15.9105 15.197 15.8863 15.2406 15.8718C15.2454 15.867 15.2454 15.8622 15.2406 15.8525C15.2261 15.8525 15.2067 15.8525 15.1922 15.8476C15.1825 15.8718 15.1535 15.8622 15.1342 15.867C15.139 15.838 15.1777 15.8331 15.1922 15.809C15.1777 15.8041 15.1632 15.7993 15.1535 15.7944C15.139 15.8235 15.1148 15.867 15.0955 15.8912C15.0858 15.896 15.0713 15.9009 15.0568 15.9105M15.0568 15.9105C15.0519 15.9154 15.0423 15.9202 15.0278 15.9202C15.0374 15.9154 15.0471 15.9105 15.0568 15.9105Z" stroke="black" stroke-width="0.114511"/>
</g>
</g>
</g>
</svg>
