<svg width="47" height="47" viewBox="0 0 47 47" fill="none" xmlns="http://www.w3.org/2000/svg">
<g id="Clip path group">
<mask id="mask0_2_247928" style="mask-type:luminance" maskUnits="userSpaceOnUse" x="0" y="0" width="47" height="47">
<g id="dd0b276873">
<path id="Vector" d="M0.205566 0.531982H46.5804V46.9068H0.205566V0.531982Z" fill="white"/>
</g>
</mask>
<g mask="url(#mask0_2_247928)">
<g id="Group">
<path id="Vector_2" d="M23.4607 1.36874C35.8428 1.36874 45.8839 11.405 45.8839 23.7871C45.8839 36.1741 35.8428 46.2103 23.4607 46.2103C11.0786 46.2103 1.04228 36.1741 1.04228 23.7871C1.04228 11.405 11.0786 1.36874 23.4607 1.36874ZM23.4607 0.531982C10.6142 0.531982 0.200684 10.9455 0.200684 23.7871C0.200684 36.6336 10.6142 47.0471 23.4607 47.0471C36.3071 47.0471 46.7206 36.6336 46.7206 23.7871C46.7206 10.9455 36.3071 0.531982 23.4607 0.531982ZM34.6094 13.4413V23.168L31.8669 21.3978L26.6868 24.619L25.8113 25.1608L25.3035 25.4752V10.5586L19.4123 14.2103V20.6287L18.029 19.6904V13.4413L26.6868 8.07733L34.6094 13.4413ZM4.10395 23.7871C4.10395 13.0979 12.7714 4.43041 23.4607 4.43041C34.1547 4.43041 42.8222 13.0979 42.8222 23.7871C42.8222 28.7303 40.9697 33.2382 37.9226 36.6577V26.3458L31.8911 22.2635L25.3035 26.3458V43.0568C24.694 43.1148 24.0846 43.1487 23.4607 43.1487C22.8416 43.1487 22.2273 43.1148 21.6227 43.0568V23.0616L15.5913 18.9794L9.00359 23.0616V36.6577C5.95643 33.2382 4.10395 28.7303 4.10395 23.7871ZM10.0532 23.6469L14.5368 20.8706V40.9673C12.8923 40.1112 11.3833 39.0229 10.0532 37.746V23.6469ZM26.353 26.931L30.8367 24.1547V41.688C29.4195 42.2732 27.9202 42.6989 26.353 42.931V26.931ZM2.16441 23.7871C2.16441 35.555 11.6977 45.0882 23.4607 45.0882C35.2237 45.0882 44.7617 35.555 44.7617 23.7871C44.7617 12.0241 35.2237 2.49087 23.4607 2.49087C11.6977 2.49087 2.16441 12.0241 2.16441 23.7871Z" fill="#C18948"/>
</g>
</g>
</g>
</svg>
