<svg width="6" height="6" viewBox="0 0 6 6" fill="none" xmlns="http://www.w3.org/2000/svg">
<path d="M3.0606 5.52677C1.66817 5.52677 0.535341 4.39394 0.535341 3.00151C0.535341 1.60908 1.66817 0.476834 3.0606 0.476834C4.45245 0.476834 5.58528 1.60908 5.58528 3.00151C5.58528 4.39394 4.45245 5.52677 3.0606 5.52677ZM3.0606 0.30127C1.57146 0.30127 0.360352 1.51238 0.360352 3.00151C0.360352 4.49065 1.57146 5.70176 3.0606 5.70176C4.54973 5.70176 5.76084 4.49065 5.76084 3.00151C5.76084 1.51238 4.54973 0.30127 3.0606 0.30127Z" fill="#C18948"/>
<path d="M4.11209 3.168C4.08907 3.15073 4.10634 3.12023 4.08504 3.09893C4.05108 3.15073 4.04302 3.23132 4.00388 3.26183C3.97106 3.23593 3.96013 3.20081 3.94286 3.16973C3.92559 3.13692 3.91178 3.10238 3.90544 3.06209C3.87839 3.08166 3.8663 3.06957 3.85536 3.04655C3.84385 3.02179 3.83694 2.99532 3.82428 2.97114C3.81507 2.95272 3.79032 2.94811 3.77535 2.96193C3.72988 3.00337 3.69995 3.07072 3.70398 3.13519C3.70916 3.2152 3.75175 3.27564 3.80586 3.33378C3.81219 3.34126 3.82428 3.33896 3.82773 3.33033C3.83234 3.31939 3.83579 3.31076 3.83982 3.30212C3.84731 3.35566 3.84903 3.40343 3.87896 3.44775C3.93365 3.52662 4.00042 3.59799 4.02114 3.697C4.06316 3.66476 4.10461 3.58763 4.11267 3.53064C4.11958 3.48172 4.11727 3.43221 4.12015 3.38271C4.12188 3.35623 4.1213 3.32803 4.13972 3.30385C4.14433 3.32169 4.14721 3.33321 4.15066 3.34702C4.15411 3.36141 4.15642 3.3781 4.17138 3.38329C4.18923 3.38904 4.19671 3.3712 4.20362 3.35968C4.23528 3.3073 4.26521 3.25377 4.28305 3.19506C4.31471 3.09375 4.27384 2.98553 4.1852 2.93603C4.18347 2.93488 4.18059 2.93372 4.17829 2.93315C4.16044 2.92854 4.14433 2.94524 4.15008 2.96251C4.15066 2.96308 4.15066 2.96366 4.15123 2.96423C4.17368 3.01431 4.16908 3.0713 4.14893 3.12368C4.14202 3.14152 4.13397 3.16052 4.11209 3.168Z" fill="#C18948"/>
<path d="M4.9306 3.538C4.88858 3.46547 4.81951 3.44475 4.73489 3.48044C4.69344 3.49828 4.16445 3.7648 3.95607 3.86841C3.92096 3.88625 3.88642 3.9064 3.85304 3.92712C3.80123 3.95936 3.74942 3.97778 3.6861 3.97778C3.49442 3.97835 2.96485 3.9795 2.89232 3.9795C2.86066 3.9795 2.82497 3.9772 2.8244 3.93921C2.82325 3.89834 2.85721 3.89719 2.88829 3.89719C2.90153 3.89719 3.44204 3.89949 3.69877 3.89719C3.80353 3.89661 3.87261 3.83157 3.86973 3.73947C3.86685 3.6514 3.79778 3.59499 3.69589 3.59384C3.57731 3.59269 3.45816 3.59153 3.33958 3.59499C3.2849 3.59672 3.24288 3.58117 3.20028 3.54548C3.0581 3.42633 2.89808 3.33653 2.7133 3.30545C2.4986 3.26919 2.28216 3.29106 2.06055 3.28761V4.17234C2.19236 4.24602 2.71388 4.5344 3.01378 4.62017C3.08688 4.64147 3.1692 4.65528 3.23251 4.63802C3.3626 4.60233 3.49154 4.55513 3.6153 4.49584C3.98025 4.32085 4.80857 3.7884 4.88052 3.73602C4.95247 3.68363 4.97032 3.6065 4.9306 3.538Z" fill="#C18948"/>
<path d="M1.75786 4.14291L1.62546 4.21947L1.4925 4.14291V3.9898L1.62546 3.91324L1.75786 3.9898V4.14291ZM1.89601 3.17529H1.35435C1.3319 3.17529 1.31348 3.19371 1.31348 3.21616V4.29948C1.31348 4.32193 1.3319 4.34035 1.35435 4.34035H1.89601C1.91846 4.34035 1.93688 4.32193 1.93688 4.29948V3.21616C1.93688 3.19371 1.91846 3.17529 1.89601 3.17529Z" fill="#C18948"/>
<path d="M3.99895 1.67546C4.09047 1.67546 4.16473 1.74972 4.16473 1.84124C4.16473 1.93219 4.09047 2.00644 3.99895 2.00644C3.90742 2.00644 3.83374 1.93219 3.83374 1.84124C3.83374 1.74972 3.90742 1.67546 3.99895 1.67546ZM3.45383 3.01321C3.46074 3.01378 3.46765 3.01148 3.4734 3.00803C3.47398 3.00745 3.47513 3.00687 3.47571 3.00687C3.47628 3.0063 3.48779 2.99709 3.49355 2.99248C3.54766 2.94643 3.60177 2.90154 3.65588 2.85549C3.67142 2.84167 3.68753 2.83649 3.70826 2.83649C3.80554 2.83707 4.19293 2.83707 4.28964 2.83649C4.31093 2.83649 4.32705 2.84167 4.34259 2.85549C4.39613 2.90154 4.45081 2.94643 4.50492 2.99248C4.51067 2.99709 4.52391 3.00687 4.52507 3.00745C4.52622 3.00803 4.52679 3.0086 4.52794 3.00918C4.53197 3.0109 4.53658 3.01206 4.54176 3.01206C4.5596 3.01206 4.57169 3.00515 4.57802 2.99018C4.57917 2.9873 4.57975 2.98385 4.58033 2.9804C4.58148 2.97464 4.58148 2.96888 4.5809 2.96313C4.5809 2.95967 4.58033 2.95564 4.57975 2.95161C4.57745 2.93204 4.56593 2.87966 4.56478 2.87391C4.52622 2.70467 4.45023 2.55328 4.33396 2.42032C4.31957 2.40362 4.31266 2.38693 4.31266 2.36448C4.31324 2.23612 4.31209 1.84181 4.31209 1.828C4.31669 1.77677 4.30633 1.72899 4.28158 1.68409C4.20329 1.54192 4.12558 1.39916 4.0473 1.25641C4.03694 1.23856 4.03003 1.21611 4.00585 1.21381C3.99837 1.21324 3.99952 1.21324 3.99261 1.21381C3.96844 1.21669 3.96096 1.23856 3.95117 1.25641C3.87289 1.39916 3.79518 1.54192 3.71689 1.68409C3.69214 1.72899 3.6812 1.77677 3.68638 1.828C3.68638 1.84181 3.68523 2.33455 3.68523 2.36448C3.68581 2.38693 3.6789 2.40362 3.66393 2.42032C3.54823 2.55328 3.47225 2.70467 3.43369 2.87391C3.43253 2.87966 3.4216 2.93204 3.41872 2.95161C3.41757 2.95737 3.41699 2.96313 3.41699 2.96888C3.41699 2.97694 3.41814 2.98443 3.42045 2.99018C3.4262 3.00457 3.43771 3.01263 3.45383 3.01321Z" fill="#C18948"/>
</svg>
