<svg width="33" height="31" viewBox="0 0 33 31" fill="none" xmlns="http://www.w3.org/2000/svg">
<path d="M26.7482 18.2191C26.6474 17.9924 26.5416 17.7708 26.4257 17.5541C27.9522 17.4887 29.5542 16.874 30.3351 14.34C30.4005 14.1234 30.325 13.8917 30.1436 13.7607C29.9572 13.6348 29.7154 13.6348 29.534 13.7657C29.4484 13.8262 29.3426 13.8766 29.2167 13.9118C30.189 12.7733 30.6575 11.272 30.5567 9.56926C30.5416 9.32241 30.3602 9.1209 30.1134 9.0806C29.8716 9.04533 29.6348 9.18639 29.5492 9.41813C29.5189 9.49873 29.4182 9.59949 29.2771 9.70528C29.4585 9.33249 29.6096 8.91435 29.7003 8.46095C29.9169 7.43828 29.8917 5.91687 28.5718 4.49621C28.4358 4.35515 28.2343 4.29974 28.0429 4.35515C27.8514 4.41057 27.7104 4.57178 27.6801 4.76825C27.2368 7.44835 25.9572 7.96725 24.3401 8.62216C22.8942 9.2015 21.2721 9.86145 20.3099 12.2191C19.9623 12.0932 19.6146 11.9824 19.257 11.8917C21.1361 10.8942 22.4157 8.91435 22.4157 6.64231C22.4157 3.36775 19.7507 0.697723 16.4711 0.697723C13.1965 0.697723 10.5315 3.36775 10.5315 6.64231C10.5315 8.91435 11.8111 10.8942 13.6902 11.8917C13.3325 11.9824 12.9849 12.0932 12.6373 12.2191C11.6751 9.86145 10.0479 9.2015 8.60709 8.62216C6.98996 7.96725 5.71037 7.44835 5.26704 4.76825C5.23681 4.57178 5.09576 4.41057 4.90432 4.35515C4.71289 4.2947 4.50634 4.35515 4.37032 4.49621C3.05545 5.91687 3.03026 7.43828 3.24185 8.46095C3.33757 8.91435 3.4887 9.33249 3.67006 9.70528C3.52901 9.59949 3.42825 9.49873 3.39802 9.41813C3.31238 9.18639 3.0756 9.04533 2.83379 9.08563C2.58694 9.1209 2.40054 9.32241 2.39047 9.56926C2.28971 11.272 2.75822 12.7733 3.73052 13.9118C3.60457 13.8766 3.49374 13.8262 3.41314 13.7657C3.23178 13.6348 2.98492 13.6348 2.80356 13.7607C2.6222 13.8917 2.54664 14.1234 2.61213 14.34C3.39298 16.874 4.995 17.4887 6.52145 17.5541C6.40558 17.7708 6.29979 17.9924 6.19903 18.2191C2.91943 18.4962 0.340088 21.2569 0.340088 24.607C0.340088 28.1385 3.21666 31.0151 6.74815 31.0151C10.2847 31.0151 13.1612 28.1385 13.1612 24.607C13.1612 23.7405 12.99 22.9144 12.6776 22.1587H20.2696C19.9572 22.9144 19.7859 23.7405 19.7859 24.607C19.7859 28.1385 22.6625 31.0151 26.194 31.0151C29.7305 31.0151 32.6071 28.1385 32.6071 24.607C32.6071 21.2569 30.0278 18.4962 26.7482 18.2191ZM24.728 9.58437C26.199 8.98992 27.7104 8.38034 28.4358 6.09319C29.4081 8.04785 27.9874 10.0025 27.4736 10.4861C27.3225 10.6222 27.267 10.8287 27.3275 11.0252C27.393 11.2166 27.5592 11.3526 27.7557 11.3829C28.1789 11.4383 28.8791 11.1965 29.4786 10.8287C29.2922 12.1889 28.6272 13.2871 27.5189 14.0529C27.3527 14.1688 27.267 14.3703 27.3023 14.5718C27.3325 14.7733 27.4837 14.9345 27.6801 14.9849C27.9774 15.0655 28.4459 15.0957 28.9245 15.0353C28.2242 16.2897 27.1512 16.5718 25.801 16.5113C25.0101 15.3325 23.9975 14.3098 22.8086 13.4987C22.3149 13.1612 21.801 12.869 21.267 12.6171C22.0681 10.6625 23.3628 10.1385 24.728 9.58437ZM17.6499 19.5642L16.4711 20.864L15.2973 19.5642L16.1134 15.6045L16.4711 15.1814L16.8338 15.6045L17.6499 19.5642ZM13.7809 12.9446L15.7255 14.4509L15.2368 15.0353H15.2318L14.5164 15.8866L13.0051 13.1914C13.257 13.1007 13.5189 13.0151 13.7809 12.9446ZM16.4711 12.5869C16.4761 12.5869 16.4761 12.5869 16.4761 12.5869C16.9295 12.5869 17.3779 12.6171 17.8162 12.6776L16.4711 13.7154L15.131 12.6776C15.5693 12.6171 16.0177 12.5869 16.4711 12.5869ZM17.7154 15.0353C17.7104 15.0353 17.7104 15.0353 17.7104 15.0353L17.2217 14.4509L19.1663 12.9446C19.4283 13.0151 19.6902 13.1007 19.9421 13.1914L18.4308 15.8866L17.7154 15.0353ZM11.5693 6.64231C11.5693 3.94206 13.7708 1.74054 16.4711 1.74054C19.1764 1.74054 21.3779 3.94206 21.3779 6.64231C21.3779 9.3476 19.1764 11.5441 16.4761 11.5441C16.4761 11.5441 16.4761 11.5441 16.4711 11.5441C13.7708 11.5441 11.5693 9.3476 11.5693 6.64231ZM4.02271 15.0353C4.49626 15.0957 4.96981 15.0655 5.26704 14.9849C5.46351 14.9345 5.60961 14.7733 5.64487 14.5718C5.68014 14.3703 5.5945 14.1688 5.42825 14.0529C4.31994 13.2871 3.65495 12.1889 3.46855 10.8287C4.06805 11.1965 4.7683 11.4383 5.19147 11.3829C5.38795 11.3526 5.5542 11.2166 5.61465 11.0252C5.68014 10.8287 5.62472 10.6222 5.47359 10.4861C4.95974 10.0025 3.53908 8.04785 4.51137 6.09319C5.23681 8.38034 6.74815 8.98992 8.21918 9.58437C9.58442 10.1385 10.8791 10.6625 11.6751 12.6171C11.1461 12.869 10.6323 13.1612 10.1386 13.4987C8.94966 14.3098 7.93707 15.3325 7.1411 16.5113C5.79601 16.5718 4.72296 16.2897 4.02271 15.0353ZM6.74815 29.9773C3.79097 29.9773 1.37787 27.5693 1.37787 24.607C1.37787 21.6448 3.79097 19.2317 6.74815 19.2317C9.71037 19.2317 12.1235 21.6448 12.1235 24.607C12.1235 27.5693 9.71037 29.9773 6.74815 29.9773ZM7.34765 18.2191C7.49878 17.9118 7.67006 17.6096 7.85646 17.3224C7.86654 17.3023 7.88165 17.2821 7.89173 17.262C8.91943 15.6599 10.3602 14.4005 12.0378 13.5944L13.9774 17.0504C14.058 17.2015 14.2091 17.2972 14.3804 17.3123C14.3955 17.3174 14.4157 17.3174 14.4308 17.3174C14.5315 17.3174 14.6323 17.2871 14.7179 17.2317L14.2242 19.6096C14.194 19.7758 14.2393 19.9421 14.3502 20.068L15.3023 21.1159H12.1285C11.0857 19.5138 9.34765 18.4055 7.34765 18.2191ZM17.6449 21.1159L18.597 20.068C18.7078 19.9421 18.7532 19.7758 18.723 19.6096L18.2293 17.2317C18.3149 17.2871 18.4106 17.3174 18.5164 17.3174C18.5315 17.3174 18.5466 17.3174 18.5668 17.3123C18.733 17.2972 18.8842 17.2015 18.9698 17.0504L20.9094 13.5944C22.5869 14.4005 24.0277 15.6599 25.0555 17.262C25.0655 17.2821 25.0756 17.3023 25.0907 17.3224C25.2771 17.6096 25.4434 17.9118 25.5995 18.2191C23.5995 18.4055 21.8615 19.5138 20.8187 21.1159H17.6449ZM26.194 29.9773C23.2318 29.9773 20.8237 27.5693 20.8237 24.607C20.8237 21.6448 23.2318 19.2317 26.194 19.2317C29.1562 19.2317 31.5693 21.6448 31.5693 24.607C31.5693 27.5693 29.1562 29.9773 26.194 29.9773ZM28.592 25.9219C28.6524 26.4156 28.5215 26.869 28.2091 27.2317C27.8716 27.6196 27.3325 27.8866 26.7179 27.9824V28.335C26.7179 28.6222 26.4811 28.8539 26.194 28.8539C25.9068 28.8539 25.6751 28.6222 25.6751 28.335V27.9723C24.7381 27.801 24.0177 27.1864 23.801 26.3149C23.7305 26.0378 23.9018 25.7557 24.1789 25.6851C24.461 25.6146 24.7431 25.7859 24.8086 26.063C24.9849 26.7632 25.7003 26.995 26.2595 26.9798C26.7482 26.9698 27.2016 26.7985 27.4182 26.5516C27.5391 26.4106 27.5844 26.2494 27.5592 26.0479C27.5189 25.7103 27.3174 25.2922 26.1184 25.0957C24.4157 24.8186 24.0177 23.937 23.9824 23.2468C23.9371 22.2897 24.6021 21.4887 25.6348 21.2519C25.6499 21.2519 25.66 21.2468 25.6751 21.2468V20.8791C25.6751 20.5869 25.9068 20.3552 26.194 20.3552C26.4811 20.3552 26.7179 20.5869 26.7179 20.8791V21.2418C27.4031 21.3778 28.0681 21.801 28.4106 22.6121C28.5215 22.8791 28.3955 23.1814 28.1335 23.2972C27.8665 23.4081 27.5643 23.2821 27.4484 23.0151C27.1562 22.3199 26.4408 22.1385 25.8665 22.2695C25.4383 22.3652 24.995 22.6574 25.0202 23.1965C25.0303 23.3778 25.0555 23.8665 26.2847 24.068C27.6953 24.2997 28.4711 24.9244 28.592 25.9219ZM9.14613 25.9219C9.20659 26.4156 9.0756 26.869 8.76326 27.2317C8.42573 27.6196 7.88669 27.8866 7.27208 27.9824V28.335C7.27208 28.6222 7.04034 28.8539 6.74815 28.8539C6.46099 28.8539 6.22926 28.6222 6.22926 28.335V27.9723C5.29223 27.801 4.57183 27.1864 4.3552 26.3149C4.28467 26.0378 4.45596 25.7557 4.73304 25.6851C5.01515 25.6146 5.29727 25.7859 5.3678 26.063C5.53908 26.7632 6.25445 26.995 6.81364 26.9798C7.30231 26.9698 7.75571 26.7985 7.97233 26.5516C8.09324 26.4106 8.13858 26.2494 8.11339 26.0479C8.07309 25.7103 7.87157 25.2922 6.67258 25.0957C4.96981 24.8186 4.57183 23.937 4.53656 23.2468C4.49122 22.2897 5.15621 21.4887 6.18896 21.2519C6.20407 21.2519 6.21414 21.2468 6.22926 21.2468V20.8791C6.22926 20.5869 6.46099 20.3552 6.74815 20.3552C7.04034 20.3552 7.27208 20.5869 7.27208 20.8791V21.2418C7.96226 21.3778 8.6222 21.801 8.96477 22.6121C9.0756 22.8791 8.94966 23.1814 8.6877 23.2972C8.42069 23.4081 8.11843 23.2821 8.0076 23.0151C7.71037 22.3199 6.995 22.1385 6.42069 22.2695C5.99248 22.3652 5.54916 22.6574 5.57938 23.1965C5.58442 23.3778 5.60961 23.8665 6.83883 24.068C8.24941 24.2997 9.02523 24.9244 9.14613 25.9219Z" fill="#C28848"/>
</svg>
