<svg width="5" height="6" viewBox="0 0 5 6" fill="none" xmlns="http://www.w3.org/2000/svg">
<mask id="mask0_392_284" style="mask-type:luminance" maskUnits="userSpaceOnUse" x="1" y="2" width="4" height="4">
<path d="M1.29785 2.14185H4.93981V5.67847H1.29785V2.14185Z" fill="white"/>
</mask>
<g mask="url(#mask0_392_284)">
<path d="M4.75829 5.03848L3.30427 3.58445C3.45911 3.22699 3.39119 2.79643 3.09935 2.50459C2.8668 2.27203 2.5456 2.18166 2.24397 2.23289L2.81441 2.80333L2.62388 3.41119L2.01603 3.60172L1.44558 3.03128C1.39435 3.33291 1.48415 3.6541 1.71728 3.88665C2.00912 4.17907 2.43968 4.24642 2.79715 4.09215L4.25059 5.5456C4.39104 5.68605 4.61842 5.68605 4.75829 5.5456C4.89817 5.40572 4.89817 5.17835 4.75829 5.03848Z" fill="#C18948"/>
</g>
<mask id="mask1_392_284" style="mask-type:luminance" maskUnits="userSpaceOnUse" x="0" y="0" width="5" height="6">
<path d="M0.0791016 0.866699H4.83432V5.53097H0.0791016V0.866699Z" fill="white"/>
</mask>
<g mask="url(#mask1_392_284)">
<path d="M2.4098 4.48803C1.69718 4.48803 1.11925 3.9101 1.11925 3.19748C1.11925 2.48429 1.69718 1.90636 2.4098 1.90636C3.12299 1.90636 3.70092 2.48429 3.70092 3.19748C3.70092 3.29937 3.68768 3.3978 3.6658 3.49278L4.08083 3.9078C4.13148 3.78865 4.17005 3.66316 4.1948 3.53307L4.74107 3.42946V2.96551L4.1948 2.86189C4.1476 2.60977 4.04917 2.37607 3.90929 2.1723L4.22186 1.71295L3.89433 1.38542L3.43498 1.69799C3.23121 1.55811 2.99751 1.45968 2.74538 1.41248L2.64177 0.866211H2.17782L2.07421 1.41248C1.82209 1.45968 1.58838 1.55811 1.38461 1.69799L0.925842 1.38542L0.597737 1.71295L0.9103 2.1723C0.770424 2.37607 0.672568 2.60977 0.625367 2.86189L0.0791016 2.96551V3.42946L0.625367 3.53307C0.672568 3.78462 0.770424 4.01889 0.9103 4.22267L0.597737 4.68144L0.925842 5.00954L1.38461 4.69698C1.58838 4.83685 1.82209 4.93471 2.07421 4.98191L2.17782 5.52818H2.64177L2.74538 4.98191C2.87605 4.95774 3.00154 4.91917 3.12069 4.86851L2.70509 4.45291C2.61011 4.47536 2.51168 4.48803 2.4098 4.48803Z" fill="#C18948"/>
</g>
</svg>
