<svg width="31" height="25" viewBox="0 0 31 25" fill="none" xmlns="http://www.w3.org/2000/svg">
<path d="M6.09744 15.5516C6.0717 15.5516 6.03307 15.5602 6.00304 15.586L3.39819 17.9934V24.409C3.39819 24.6235 3.57414 24.7952 3.78871 24.7952H6.69394C6.90851 24.7952 7.08016 24.6235 7.08016 24.409V16.3455L6.18327 15.586C6.15323 15.5559 6.1189 15.5516 6.09744 15.5516Z" fill="#C18948"/>
<mask id="mask0_126_50" style="mask-type:luminance" maskUnits="userSpaceOnUse" x="7" y="14" width="6" height="11">
<path d="M7.24341 14.2855H12.7363V24.5504H7.24341V14.2855Z" fill="white"/>
</mask>
<g mask="url(#mask0_126_50)">
<path d="M8.62469 17.268C8.47879 17.268 8.33288 17.2423 8.19556 17.1908V24.4088C8.19556 24.6234 8.36721 24.795 8.58178 24.795H11.487C11.7016 24.795 11.8775 24.6234 11.8775 24.4088V14.6804L9.48296 16.929C9.25123 17.1479 8.94654 17.268 8.62469 17.268Z" fill="#C18948"/>
</g>
<mask id="mask1_126_50" style="mask-type:luminance" maskUnits="userSpaceOnUse" x="12" y="10" width="6" height="15">
<path d="M12.7361 10.9899H17.1304V24.5505H12.7361V10.9899Z" fill="white"/>
</mask>
<g mask="url(#mask1_126_50)">
<path d="M15.6368 11.2001C15.611 11.2001 15.5724 11.2087 15.5424 11.2388L12.989 13.6376V24.4089C12.989 24.6234 13.1607 24.7951 13.3752 24.7951H16.2848C16.4993 24.7951 16.671 24.6234 16.671 24.4089V12.1099L15.7312 11.2388C15.6968 11.2087 15.6625 11.2001 15.6368 11.2001Z" fill="#C18948"/>
</g>
<mask id="mask2_126_50" style="mask-type:luminance" maskUnits="userSpaceOnUse" x="17" y="9" width="5" height="16">
<path d="M17.1304 9.89136H21.5247V24.5506H17.1304V9.89136Z" fill="white"/>
</mask>
<g mask="url(#mask2_126_50)">
<path d="M17.946 12.8352C17.8902 12.8352 17.8387 12.8309 17.783 12.8223V24.4089C17.783 24.6235 17.9589 24.7951 18.1735 24.7951H21.0787C21.2933 24.7951 21.4692 24.6235 21.4692 24.4089V10.1788L18.7657 12.5305C18.5382 12.7279 18.2464 12.8352 17.946 12.8352Z" fill="#C18948"/>
</g>
<mask id="mask3_126_50" style="mask-type:luminance" maskUnits="userSpaceOnUse" x="21" y="5" width="7" height="20">
<path d="M21.5244 5.49695H27.0173V24.5505H21.5244V5.49695Z" fill="white"/>
</mask>
<g mask="url(#mask3_126_50)">
<path d="M22.5803 24.4089C22.5803 24.6235 22.752 24.7951 22.9665 24.7951H25.8761C26.0906 24.7951 26.2623 24.6235 26.2623 24.4089V6.00336L22.5803 9.20899V24.4089Z" fill="#C18948"/>
</g>
<mask id="mask4_126_50" style="mask-type:luminance" maskUnits="userSpaceOnUse" x="0" y="0" width="31" height="20">
<path d="M0.187988 0.669067H30.3132V19.7784H0.187988V0.669067Z" fill="white"/>
</mask>
<g mask="url(#mask4_126_50)">
<path d="M29.455 0.724859L26.082 1.11108C25.5284 1.17116 25.2709 1.82773 25.6314 2.25258L26.0305 2.71604C26.2794 3.00356 26.2451 3.44128 25.9575 3.69017L18.4305 10.243C18.1602 10.4748 17.7611 10.4662 17.4993 10.2259L16.1046 8.9299C15.8343 8.681 15.4223 8.681 15.1562 8.93419L9.05825 14.6588C8.79647 14.9034 8.39738 14.912 8.13132 14.6846L6.5049 13.3028C6.23884 13.0753 5.83974 13.0839 5.58226 13.3242L0.50132 18.0275C0.218093 18.285 0.200927 18.727 0.462698 19.006C0.720179 19.2892 1.16219 19.3064 1.44541 19.0446L5.62089 15.1781C5.88266 14.9421 6.27746 14.9335 6.54352 15.1609L8.17423 16.547C8.44459 16.7745 8.84368 16.7659 9.10116 16.5213L15.1605 10.8353C15.4266 10.5821 15.8429 10.5821 16.1089 10.831L17.4693 12.0926C17.731 12.3372 18.1301 12.3415 18.4005 12.1098L26.8544 4.75443C27.1462 4.50124 27.5882 4.53128 27.8414 4.82738L28.1118 5.14065C28.4723 5.56549 29.1632 5.411 29.3091 4.87458L30.206 1.596C30.3347 1.12395 29.9442 0.66478 29.455 0.724859Z" fill="#C18948"/>
</g>
</svg>
