<svg width="5" height="5" viewBox="0 0 5 5" fill="none" xmlns="http://www.w3.org/2000/svg">
<mask id="mask0_79_312327" style="mask-type:luminance" maskUnits="userSpaceOnUse" x="0" y="0" width="5" height="5">
<path d="M0.687988 0.368164H4.62582V4.89716H0.687988V0.368164Z" fill="white"/>
</mask>
<g mask="url(#mask0_79_312327)">
<path d="M4.33467 2.99243C4.27193 2.99243 4.20976 3.01315 4.15968 3.05114L3.43094 3.59741C3.38374 3.49897 3.28416 3.4299 3.16788 3.4299H2.88295C2.83114 3.4299 2.78049 3.42414 2.73041 3.41321V3.248L2.97332 3.06553H3.38662C3.77401 3.06553 4.12284 2.85025 4.2961 2.50372L4.39972 2.29592C4.41123 2.27347 4.4095 2.247 4.39626 2.22512C4.38302 2.20382 4.36 2.19058 4.33467 2.19058H3.8972C3.50923 2.19058 3.16098 2.40587 2.98771 2.75239L2.89274 2.94292L2.73041 3.06496V2.83931C2.87317 2.81053 2.98541 2.69771 3.01477 2.55495H3.02225C3.06255 2.55495 3.09478 2.52272 3.09478 2.48243V2.20267C3.13507 2.06683 3.2076 1.93846 3.30546 1.83025C3.45167 1.66907 3.53225 1.4607 3.53225 1.24253C3.53225 0.760163 3.14025 0.368164 2.65731 0.368164C2.17494 0.368164 1.78294 0.760163 1.78294 1.24253C1.78294 1.4607 1.86295 1.66907 2.00973 1.83025C2.10759 1.93846 2.18012 2.06683 2.22041 2.20267V2.48243C2.22041 2.52272 2.25264 2.55495 2.29294 2.55495H2.30042C2.32978 2.69771 2.44202 2.81053 2.58478 2.83931V3.06553L2.4236 2.94465L2.32748 2.75239C2.15421 2.40587 1.80596 2.19058 1.41799 2.19058H0.980519C0.955191 2.19058 0.932166 2.20382 0.918352 2.22512C0.905112 2.247 0.903961 2.27347 0.915473 2.2965L1.01909 2.50372C1.19235 2.85025 1.54118 3.06553 1.92857 3.06553H2.34302L2.58478 3.24743V3.36773C2.43742 3.31305 2.28315 3.28427 2.12543 3.28427C1.84165 3.28427 1.56017 3.37809 1.33338 3.54848L1.20789 3.6423L1.18832 3.61065C1.1676 3.57668 1.12327 3.56575 1.08874 3.58647L0.724367 3.80521C0.707674 3.81499 0.695586 3.83111 0.690981 3.8501C0.686376 3.8691 0.689829 3.88925 0.699615 3.90594L1.2833 4.85399C1.29711 4.87586 1.32071 4.88853 1.34546 4.88853C1.35813 4.88853 1.37079 4.88507 1.38288 4.87817L1.74725 4.65943C1.76394 4.64907 1.77603 4.63295 1.78063 4.61396C1.78524 4.59496 1.78236 4.57481 1.772 4.5587L1.74495 4.51495L1.75473 4.50977C1.8687 4.45278 2.00225 4.43609 2.12658 4.46429L2.6268 4.57539C2.69012 4.5892 2.75574 4.59669 2.82078 4.59669C3.01304 4.59669 3.20415 4.53337 3.35841 4.41767L4.4803 3.57611C4.57183 3.50761 4.62594 3.39824 4.62594 3.28427C4.62594 3.12367 4.49527 2.99243 4.33467 2.99243ZM3.38662 2.9199H3.16731C3.48217 2.6931 3.82524 2.51408 4.19134 2.38687L4.16544 2.43868C4.01693 2.73512 3.71875 2.9199 3.38662 2.9199ZM3.8972 2.33622H3.91504C3.64853 2.44674 3.39525 2.58489 3.15695 2.74836C3.31524 2.49279 3.59154 2.33622 3.8972 2.33622ZM2.15767 2.74836C1.91993 2.58489 1.66666 2.44674 1.40015 2.33622H1.41799C1.72307 2.33622 1.99995 2.49279 2.15767 2.74836ZM1.14975 2.4381L1.12385 2.38687C1.48994 2.51408 1.83359 2.69253 2.14788 2.9199H1.92857C1.59643 2.9199 1.29826 2.73512 1.14975 2.4381ZM2.36604 2.40932V2.26369H2.94915V2.40932H2.36604ZM1.92857 1.24253C1.92857 0.84075 2.25552 0.513797 2.65731 0.513797C3.05967 0.513797 3.38662 0.84075 3.38662 1.24253C3.38662 1.42443 3.31927 1.59827 3.19782 1.73239C3.09536 1.84521 3.01707 1.97703 2.96872 2.11748H2.34647C2.29812 1.97703 2.21983 1.84521 2.11737 1.73239C1.99592 1.59827 1.92857 1.42443 1.92857 1.24253ZM2.45239 2.55495H2.8628C2.83287 2.63957 2.75228 2.70116 2.65731 2.70116C2.56233 2.70116 2.48232 2.63957 2.45239 2.55495ZM1.36964 4.71584L0.862516 3.89212L1.10198 3.74822L1.6091 4.57193L1.36964 4.71584ZM4.39281 3.45926L3.27092 4.30082C3.09766 4.43033 2.86856 4.47984 2.65846 4.43321L2.15767 4.32211C2.00167 4.287 1.83302 4.30772 1.68969 4.37968L1.66839 4.39004L1.28502 3.76721L1.42087 3.66533C1.62291 3.51337 1.87331 3.4299 2.12543 3.4299C2.27567 3.4299 2.42245 3.45868 2.56175 3.51394C2.66479 3.55539 2.77243 3.57611 2.88295 3.57611H3.16788C3.24847 3.57611 3.31352 3.64115 3.31352 3.72174C3.31352 3.80233 3.24847 3.86737 3.16788 3.86737H2.22041V4.01358H3.16788C3.31524 4.01358 3.43612 3.90306 3.4557 3.76146L4.24718 3.16742C4.27193 3.149 4.30301 3.13863 4.33467 3.13863C4.41468 3.13863 4.4803 3.20368 4.4803 3.28427C4.4803 3.35277 4.44749 3.41839 4.39281 3.45926Z" fill="#C18948"/>
</g>
</svg>
