<svg width="15" height="18" viewBox="0 0 15 18" fill="none" xmlns="http://www.w3.org/2000/svg">
<mask id="mask0_505_5672" style="mask-type:luminance" maskUnits="userSpaceOnUse" x="0" y="0" width="15" height="18">
<path d="M0.90625 0.134644H14.7632V17.3605H0.90625V0.134644Z" fill="white"/>
</mask>
<g mask="url(#mask0_505_5672)">
<path d="M1.62145 11.8121V12.5807C1.62145 12.7349 1.82061 12.8948 2.14319 13.0295C2.81921 13.3184 3.84586 13.3689 4.6509 13.209L3.88513 12.2777C3.07447 12.2973 2.19929 12.1599 1.62145 11.8121ZM6.67054 11.4362L7.79536 15.5175L8.92019 11.4362H6.67054ZM7.19789 15.439L6.0927 11.4362H3.91318L7.19789 15.439ZM9.49242 11.4362L8.39004 15.439L11.6719 11.4362H9.49242ZM10.7715 9.37729L9.79256 10.8836H11.7477L10.7715 9.37729ZM11.0128 8.73774L12.4798 10.993C12.5639 11.1108 12.5527 11.2455 12.4574 11.3548L12.1853 11.6886C13.4924 11.8738 14.4882 13.0014 14.4882 14.345C14.4882 15.8261 13.2877 17.0267 11.8038 17.0267C10.6509 17.0267 9.6467 16.2973 9.27082 15.237L8.00855 16.777C7.89915 16.9116 7.69158 16.9173 7.57938 16.7798L6.33674 15.2651V15.7223C6.33674 16.1178 6.00855 16.4544 5.47839 16.6788C4.48541 17.0968 2.92019 17.0968 1.9244 16.6788C1.39424 16.4544 1.06605 16.1178 1.06605 15.7223V11.007C1.06605 10.6115 1.39424 10.2749 1.9244 10.0477C2.45736 9.82329 3.15862 9.71389 3.90196 9.73633L4.55273 8.72091C4.60602 8.63675 4.69579 8.59187 4.78555 8.59187H10.7659C10.8753 8.58907 10.9679 8.64798 11.0128 8.73774ZM9.28204 10.6536L10.261 9.14447H8.30588L9.28204 10.6536ZM5.79536 10.8808L4.8164 9.37448L3.84025 10.8808H5.79536ZM5.32692 9.14447L6.30588 10.6536L7.28204 9.14447H5.32692ZM3.11093 10.9902L3.55694 10.2889C3.00154 10.3058 2.50504 10.4067 2.146 10.5554C1.45315 10.8471 1.45315 11.1613 2.146 11.453C2.4798 11.5905 2.9286 11.6886 3.4279 11.7139L3.12496 11.3464C3.03239 11.2511 3.02398 11.0968 3.11093 10.9902ZM5.04361 13.683C4.00013 13.9635 2.47419 13.9018 1.62145 13.3801V14.1515C1.62145 14.3058 1.82061 14.4656 2.14319 14.6003C2.93421 14.9341 4.2049 14.9509 5.05764 14.676C5.30168 14.5975 5.49522 14.4993 5.62426 14.3955L5.04361 13.683ZM10.2414 14.0589L9.70841 14.7041C9.88232 15.7167 10.7631 16.4685 11.8066 16.4685C12.9791 16.4685 13.9328 15.5175 13.9328 14.3422C13.9328 13.1697 12.9791 12.216 11.8066 12.216C11.7841 12.216 11.7701 12.216 11.7533 12.216L10.2414 14.0589ZM7.79536 9.37729L6.81921 10.8836H8.77433L7.79536 9.37729ZM5.43912 5.23984C5.4251 5.39131 5.29046 5.50351 5.13618 5.48949C4.98471 5.47546 4.8725 5.34082 4.88653 5.18654C5.01837 3.83451 5.70841 2.60309 6.7603 1.74755C4.58358 2.08416 2.71823 3.46985 1.75609 5.43339C2.48541 5.1613 3.3157 5.16691 4.0366 5.44461C4.36759 5.57084 4.66493 5.75597 4.91177 5.97476H5.76451C6.01135 5.75597 6.30588 5.57645 6.63968 5.44461C7.37741 5.1613 8.21612 5.1613 8.95385 5.44461C9.28204 5.57084 9.58218 5.75597 9.82903 5.97476H10.6818C10.9286 5.75597 11.2231 5.57645 11.5569 5.44461C12.2778 5.1641 13.1081 5.1613 13.8374 5.43339C12.8753 3.46985 11.01 2.08416 8.83323 1.74755C9.88232 2.60309 10.5752 3.8289 10.707 5.18654C10.721 5.34082 10.6088 5.47546 10.4574 5.48949C10.3031 5.50351 10.1684 5.39131 10.1544 5.23984C10.0114 3.74755 9.10252 2.44882 7.79817 1.70548C6.48541 2.44882 5.58499 3.74475 5.43912 5.23984ZM7.51486 0.420766C7.51486 0.266488 7.63828 0.143066 7.79256 0.143066C7.94403 0.143066 8.07026 0.266488 8.07026 0.420766V1.11642C11.0576 1.22862 13.6635 3.1641 14.6509 5.95793C14.7407 6.21039 14.4461 6.44601 14.2105 6.26088C14.0114 6.11502 13.7757 5.9944 13.5233 5.91305C12.6621 5.63535 11.6243 5.81488 10.9791 6.45162C10.9286 6.50211 10.8557 6.53016 10.7855 6.53016H9.71402C9.62987 6.53016 9.55694 6.49089 9.50364 6.43479C9.29326 6.23283 9.04081 6.07294 8.74908 5.96074C8.5387 5.87939 8.31149 5.82329 8.07026 5.80085V7.80085C8.07026 7.95232 7.94964 8.07575 7.79256 8.07575C7.63828 8.07575 7.51486 7.95232 7.51486 7.80085V5.80366C6.96788 5.85976 6.44614 6.08136 6.06745 6.45443C6.01416 6.50772 5.94403 6.53297 5.87391 6.53297H4.79957C4.71823 6.53297 4.64249 6.4965 4.592 6.4404C4.38442 6.23844 4.12636 6.07575 3.83464 5.96354C3.0352 5.65499 2.04782 5.75597 1.36058 6.2721C1.23716 6.36467 1.06605 6.33942 0.973485 6.216C0.917384 6.14026 0.906164 6.04208 0.934215 5.95793C1.92159 3.16691 4.52468 1.22862 7.51767 1.11642V0.420766H7.51486ZM2.80799 8.47406C2.69579 8.36747 2.68737 8.19356 2.78835 8.08136C2.89494 7.96915 3.06886 7.96074 3.18106 8.06172L3.70841 8.54699C3.82061 8.65359 3.82903 8.8275 3.72243 8.9397C3.61865 9.0519 3.44473 9.06032 3.33253 8.95373L2.80799 8.47406ZM12.4041 8.06452C12.5163 7.96074 12.693 7.96915 12.7968 8.08416C12.9006 8.19636 12.8949 8.37308 12.7827 8.47687L12.2554 8.96214C12.1432 9.06593 11.9665 9.06032 11.8627 8.94812C11.7617 8.83591 11.7645 8.6592 11.8823 8.55541L12.4041 8.06452ZM5.11374 7.13886C5.07447 6.993 5.15581 6.83591 5.30168 6.79384C5.44754 6.75176 5.60462 6.83591 5.6467 6.98178L5.85427 7.70267C5.89635 7.84854 5.81219 8.00281 5.66914 8.04769C5.52327 8.08697 5.36619 8.00562 5.32412 7.85695L5.11374 7.13886ZM9.94403 6.98458C9.98611 6.83872 10.1404 6.75176 10.2891 6.79664C10.4349 6.83872 10.5191 6.993 10.4798 7.14166L10.2694 7.86256C10.2301 8.00842 10.0759 8.09538 9.9272 8.0533C9.78134 8.00842 9.69438 7.85976 9.73926 7.71109L9.94403 6.98458ZM10.8557 14.9621C10.8416 14.8107 10.9538 14.676 11.1081 14.6592C11.2596 14.6452 11.3942 14.7574 11.4111 14.9116C11.4335 15.1361 11.8627 15.2707 12.1095 15.0687C12.1684 15.0182 12.2077 14.9593 12.2077 14.892C12.2077 14.7013 11.9833 14.6564 11.7589 14.6115C11.3101 14.5217 10.8557 14.4348 10.8557 13.784C10.8557 13.3913 11.1558 13.094 11.5261 12.993V12.8668C11.5261 12.7125 11.6495 12.5891 11.8094 12.5891C11.9665 12.5891 12.0899 12.7153 12.0871 12.8696L12.0843 12.9902C12.4546 13.0856 12.7603 13.3885 12.7603 13.7812C12.7603 13.9355 12.6369 14.0589 12.4826 14.0589C12.3311 14.0589 12.2077 13.9355 12.2077 13.7812C12.2077 13.5456 11.7617 13.3997 11.5064 13.6045C11.4475 13.655 11.4111 13.7139 11.4111 13.7812C11.4111 13.972 11.6355 14.0168 11.8599 14.0617C12.3087 14.1515 12.7603 14.2384 12.7603 14.8892C12.7603 15.2819 12.4574 15.5821 12.0843 15.6802L12.0787 15.8037C12.0787 15.9579 11.9553 16.0814 11.8038 16.0814C11.6495 16.0814 11.5261 15.9579 11.5261 15.8037V15.6886C11.1783 15.5933 10.8893 15.3268 10.8557 14.9621ZM1.62145 14.9565V15.7251C1.62145 15.8794 1.82061 16.0393 2.14319 16.1739C2.99032 16.533 4.41248 16.533 5.26521 16.1739C5.58499 16.0393 5.78414 15.8794 5.78414 15.7251V14.9565C4.74347 15.5877 2.63688 15.5708 1.62145 14.9565Z" fill="#C18948"/>
</g>
</svg>
