<svg width="38" height="52" viewBox="0 0 38 52" fill="none" xmlns="http://www.w3.org/2000/svg">
<g id="Clip path group">
<mask id="mask0_2_289583" style="mask-type:luminance" maskUnits="userSpaceOnUse" x="0" y="0" width="38" height="52">
<g id="bfe6b217a7">
<path id="Vector" d="M0.703125 0.848999H37.6823V51.823H0.703125V0.848999Z" fill="white"/>
</g>
</mask>
<g mask="url(#mask0_2_289583)">
<g id="Group">
<path id="Vector_2" fill-rule="evenodd" clip-rule="evenodd" d="M8.97396 35.0625L3.8125 46.5625C3.71354 46.7813 3.73958 47.0365 3.88542 47.2292C4.03125 47.4219 4.27083 47.5208 4.51042 47.4844L9.90625 46.6927L12.8958 51.25C13.0313 51.4531 13.2604 51.5677 13.5 51.5469C13.7396 51.526 13.9531 51.3802 14.0521 51.1615L19.4219 39.2031L24.7917 51.1615C24.8906 51.3802 25.099 51.526 25.3438 51.5469C25.5833 51.5677 25.8125 51.4531 25.9427 51.25L28.9375 46.6927L34.3333 47.4844C34.5729 47.5208 34.8125 47.4219 34.9531 47.2292C35.099 47.0365 35.1302 46.7813 35.0312 46.5625L29.8646 35.0625C34.849 31.7031 38.125 26.0052 38.125 19.5469C38.125 9.22396 29.7448 0.84375 19.4219 0.84375C9.09896 0.84375 0.71875 9.22396 0.71875 19.5469C0.71875 26.0052 3.99479 31.7031 8.97396 35.0625ZM28.7396 35.7708C26.2656 37.1927 23.4427 38.0677 20.4271 38.224L25.5 49.5208L28.0677 45.6146C28.2083 45.401 28.4583 45.2865 28.7135 45.3281L33.3333 46.0052L28.7396 35.7708ZM10.1042 35.7708L5.50521 46.0052L10.1302 45.3281C10.3854 45.2865 10.6354 45.401 10.776 45.6146L13.3385 49.5208L18.4115 38.224C15.401 38.0677 12.5729 37.1927 10.1042 35.7708ZM19.4219 2.16146C29.0156 2.16146 36.8073 9.95313 36.8073 19.5469C36.8073 29.1458 29.0156 36.9323 19.4219 36.9323C9.82813 36.9323 2.03646 29.1458 2.03646 19.5469C2.03646 9.95313 9.82813 2.16146 19.4219 2.16146ZM19.4219 3.98958C10.8333 3.98958 3.86458 10.9635 3.86458 19.5469C3.86458 28.1354 10.8333 35.1042 19.4219 35.1042C28.0052 35.1042 34.9792 28.1354 34.9792 19.5469C34.9792 10.9635 28.0052 3.98958 19.4219 3.98958ZM19.4219 5.3125C27.2813 5.3125 33.6615 11.6927 33.6615 19.5469C33.6615 27.4063 27.2813 33.7865 19.4219 33.7865C11.5625 33.7865 5.18229 27.4063 5.18229 19.5469C5.18229 11.6927 11.5625 5.3125 19.4219 5.3125ZM20.0208 8.71354C19.9115 8.47917 19.6771 8.33333 19.4219 8.33333C19.1615 8.33333 18.9271 8.47917 18.8229 8.71354L16.0156 14.849L9.32292 15.6198C9.0625 15.6458 8.84896 15.8229 8.77083 16.0677C8.6875 16.3177 8.76042 16.5833 8.94792 16.7604L13.9167 21.3177L12.5781 27.9271C12.526 28.1823 12.6302 28.4427 12.8385 28.5938C13.0469 28.7448 13.3229 28.7604 13.5469 28.6354L19.4219 25.3229L25.2917 28.6354C25.5156 28.7604 25.7969 28.7448 26.0052 28.5938C26.2135 28.4427 26.3125 28.1823 26.2656 27.9271L24.9271 21.3177L29.8906 16.7604C30.0833 16.5833 30.151 16.3177 30.0729 16.0677C29.9948 15.8229 29.776 15.6458 29.5208 15.6198L22.8229 14.849L20.0208 8.71354ZM19.4219 10.5781L21.7812 15.7344C21.875 15.9427 22.0729 16.0885 22.3021 16.1146L27.9375 16.7656L23.7604 20.599C23.5885 20.7552 23.5156 20.9896 23.5625 21.2188L24.6823 26.776L19.7448 23.9896C19.5417 23.875 19.2969 23.875 19.099 23.9896L14.1562 26.776L15.2812 21.2188C15.3281 20.9896 15.25 20.7552 15.0833 20.599L10.9062 16.7656L16.5365 16.1146C16.7656 16.0885 16.9688 15.9427 17.0625 15.7344L19.4219 10.5781Z" fill="#E8C69F"/>
</g>
</g>
</g>
</svg>
