<svg width="14" height="16" viewBox="0 0 14 16" fill="none" xmlns="http://www.w3.org/2000/svg">
<mask id="mask0_505_7188" style="mask-type:luminance" maskUnits="userSpaceOnUse" x="-1" y="0" width="15" height="16">
<path d="M-0.00878906 0.201965H13.9856V15.6297H-0.00878906V0.201965Z" fill="white"/>
</mask>
<g mask="url(#mask0_505_7188)">
<path d="M5.4498 1.35204C4.37827 0.280514 2.64194 0.280514 1.56761 1.35204C0.493276 2.42077 0.493276 4.1599 1.56761 5.23423C2.63633 6.30576 4.37546 6.30576 5.4498 5.23423C6.52413 4.1599 6.52413 2.42077 5.4498 1.35204ZM2.68963 3.91025C2.6728 3.73353 2.94489 3.70548 2.95891 3.88781C2.99258 4.24405 3.57603 4.42357 3.90983 4.14868C4.0052 4.07575 4.0613 3.96915 4.0613 3.85695C4.0613 3.15849 2.68121 3.72231 2.68121 2.72932C2.68121 2.35625 3.0066 2.08977 3.36565 2.03928V1.79244C3.36565 1.71389 3.42736 1.65499 3.5087 1.65499C3.58725 1.65499 3.64615 1.7167 3.64615 1.79524L3.64054 2.03928C4.0052 2.08977 4.33058 2.35625 4.33058 2.73213C4.33058 2.91165 4.05849 2.91165 4.05849 2.73213C4.05849 2.35345 3.4526 2.15148 3.10478 2.4376C3.01221 2.51333 2.9505 2.61993 2.9505 2.73213C2.9505 3.43058 4.33058 2.86396 4.33058 3.85976C4.33058 4.23283 4.008 4.4965 3.64335 4.5498L3.64054 4.79664C3.64054 4.97336 3.36565 4.97336 3.36565 4.79664V4.5498C3.02904 4.4937 2.72049 4.25527 2.68963 3.91025ZM12.2296 1.30155C11.1272 0.201973 9.34601 0.201973 8.24643 1.30155C7.14685 2.40113 7.14685 4.18514 8.24643 5.28192C9.34601 6.37869 11.1272 6.37869 12.2296 5.28192C13.3264 4.17953 13.3264 2.39833 12.2296 1.30155ZM9.09636 1.91305C8.63633 1.96635 8.46803 2.5526 8.82988 2.84152C9.19173 3.12764 9.7275 2.83311 9.6714 2.37308C9.64054 2.08416 9.38248 1.87939 9.09636 1.91305ZM8.53255 1.9383C8.97294 1.3857 9.86775 1.64096 9.94349 2.33942C10.0276 3.04068 9.21417 3.4923 8.66438 3.0519C8.31656 2.77981 8.26046 2.28332 8.53255 1.9383ZM10.698 3.65499C11.1384 3.10239 12.0276 3.36326 12.109 4.06172C12.1595 4.4965 11.8453 4.88921 11.4105 4.9397C10.7093 5.01824 10.2548 4.21039 10.698 3.65499ZM10.914 3.82049C10.9084 3.82329 10.9056 3.8261 10.9028 3.8289C10.7289 4.03648 10.771 4.38711 10.9842 4.5526C11.3825 4.85555 11.8846 4.52736 11.8341 4.08977C11.7864 3.63535 11.2058 3.46144 10.914 3.82049ZM9.17771 4.84152C9.13002 4.90043 9.04587 4.90884 8.98696 4.86677C8.92806 4.81908 8.91964 4.73213 8.96733 4.67322L11.2983 1.73914C11.346 1.68304 11.4302 1.67182 11.4891 1.7167C11.548 1.76439 11.5564 1.84854 11.5115 1.90744L9.17771 4.84152ZM3.1721 7.17252L1.93507 6.74054C1.78079 6.68444 1.6153 6.76859 1.56481 6.91726L0.0500787 11.2342C-0.00321743 11.3857 0.0781294 11.5512 0.226797 11.6073L1.46382 12.0393C1.6153 12.0954 1.7864 12.0112 1.83689 11.8626L3.34882 7.54559C3.40211 7.39412 3.32357 7.22862 3.1721 7.17252ZM3.54797 7.80646L2.15667 11.77L2.83269 12.2609C4.23521 13.641 4.45962 13.9383 5.82006 15.2987C6.42034 15.899 7.19454 15.2286 6.9533 14.8696L5.84812 13.8121C5.71908 13.6858 5.90983 13.4923 6.03605 13.6157L7.2843 14.8079C7.28991 14.8135 7.29552 14.8219 7.30113 14.8275L7.54797 15.0491C7.83409 15.3072 8.32497 15.0351 8.47645 14.7153C8.54096 14.575 8.53816 14.4292 8.41754 14.3058L7.16929 13.1108C7.04026 12.9874 7.2282 12.791 7.35723 12.9145L8.60548 14.1094C9.02063 14.5105 9.80604 13.6999 9.41053 13.3072C9.41053 13.3044 9.40492 13.3044 9.40492 13.3016L8.15667 12.1038C8.02483 11.9832 8.21277 11.784 8.3418 11.9074L9.59286 13.1024C9.59847 13.108 9.60127 13.108 9.60408 13.1108C10.0052 13.5119 10.7485 12.7069 10.44 12.3983L8.70646 10.676C8.16228 10.1318 7.6742 9.96354 7.08514 10.3619C6.28009 10.9088 5.54517 10.8527 5.06551 10.5919C4.78781 10.4404 4.54377 10.1879 4.48767 9.89342C4.43998 9.65499 4.52133 9.42778 4.76537 9.28472L6.26607 8.39272L3.54797 7.80646ZM11.6209 11.6606L10.2717 7.80646C9.44699 7.95793 6.97574 8.28612 6.69804 8.46565L6.6728 8.48528L6.62511 8.51894L4.91123 9.53718C4.66999 9.68023 4.74854 9.9411 4.8972 10.1234C4.97294 10.216 5.07392 10.303 5.20015 10.3703C5.60688 10.5919 6.24082 10.6283 6.94208 10.1543C7.64335 9.67743 8.26887 9.86256 8.90842 10.4993L10.6139 12.1936L11.6209 11.6606ZM11.8818 6.74054L10.6447 7.17252C10.4933 7.22862 10.4119 7.39412 10.4652 7.54559L11.9154 11.6746C11.9715 11.8205 11.98 11.9551 12.1286 12.0253C12.1987 12.0561 12.2773 12.0645 12.3502 12.0393L13.5872 11.6073C13.7415 11.5512 13.8201 11.3857 13.7668 11.2342L12.252 6.91726C12.2016 6.76859 12.0332 6.69005 11.8818 6.74054Z" fill="#C18948"/>
</g>
</svg>
