<svg width="28" height="28" viewBox="0 0 28 28" fill="none" xmlns="http://www.w3.org/2000/svg">
<mask id="mask0_505_4809" style="mask-type:luminance" maskUnits="userSpaceOnUse" x="0" y="0" width="28" height="28">
<path d="M0.206055 0.709717H27.1205V27.627H0.206055V0.709717Z" fill="white"/>
</mask>
<g mask="url(#mask0_505_4809)">
<path d="M13.7038 1.19499C20.8904 1.19499 26.7164 7.02108 26.7164 14.2076C26.7164 21.3941 20.8904 27.223 13.7038 27.223C6.51729 27.223 0.691204 21.3941 0.691204 14.2076C0.691204 7.02108 6.51729 1.19499 13.7038 1.19499ZM13.7038 0.709717C6.24801 0.709717 0.203125 6.7546 0.203125 14.2076C0.203125 21.6634 6.24801 27.7083 13.7038 27.7083C21.1596 27.7083 27.2017 21.6634 27.2017 14.2076C27.2017 6.7546 21.1596 0.709717 13.7038 0.709717ZM20.1723 8.202V13.8486L18.5818 12.8219L15.572 14.6901L15.0671 15.0042L14.7697 15.1866V6.53019L11.3504 8.65081V12.3731L10.5481 11.8317V8.202L15.572 5.0912L20.1723 8.202ZM2.4668 14.2076C2.4668 8.00284 7.49906 2.97339 13.7038 2.97339C19.9086 2.97339 24.938 8.00284 24.938 14.2076C24.938 17.0772 23.8637 19.6915 22.0937 21.6775V15.6943L18.593 13.324L14.7697 15.6943V25.3913C14.4191 25.425 14.0629 25.4446 13.7038 25.4446C13.342 25.4446 12.9857 25.425 12.6351 25.3913V13.7869L9.1344 11.4166L5.31112 13.7869V21.6775C3.54394 19.6915 2.4668 17.0772 2.4668 14.2076ZM5.92262 14.1263L8.5229 12.5134V24.1796C7.56638 23.6803 6.6912 23.0491 5.92262 22.3086V14.1263ZM15.3812 16.0337L17.9843 14.4208V24.5975C17.1596 24.9369 16.2901 25.1838 15.3812 25.3184V16.0337ZM1.34197 14.2076C1.34197 21.0351 6.87634 26.5695 13.7038 26.5695C20.5285 26.5695 26.0657 21.0351 26.0657 14.2076C26.0657 7.38293 20.5285 1.84857 13.7038 1.84857C6.87634 1.84857 1.34197 7.38293 1.34197 14.2076Z" fill="#1B243D"/>
</g>
</svg>
