<svg width="17" height="17" viewBox="0 0 17 17" fill="none" xmlns="http://www.w3.org/2000/svg">
<mask id="mask0_505_5664" style="mask-type:luminance" maskUnits="userSpaceOnUse" x="0" y="0" width="17" height="17">
<path d="M0.492188 0.427734H16.1023V16.0378H0.492188V0.427734Z" fill="white"/>
</mask>
<g mask="url(#mask0_505_5664)">
<path d="M8.40243 0.427734C4.03496 0.427734 0.492188 3.97051 0.492188 8.33797C0.492188 12.7082 4.03496 16.2482 8.40243 16.2482C12.7727 16.2482 16.3127 12.7082 16.3127 8.33797C16.3127 3.97051 12.7727 0.427734 8.40243 0.427734ZM11.4852 6.78678C11.5301 6.84008 11.5946 6.86252 11.6843 6.85691C11.9031 6.84288 12.0714 6.77556 12.1696 6.65775C12.2089 6.61006 12.2369 6.55396 12.2481 6.49225C12.293 6.60165 12.3435 6.66336 12.4277 6.66336C12.4585 6.66336 12.5315 6.66336 12.6745 6.50628C12.739 6.66897 12.854 6.84569 13.0448 6.85691C13.1934 6.86532 13.373 6.86252 13.4908 6.85971V7.19912C13.1626 7.22998 12.8007 7.23839 12.7222 7.19912C12.4838 7.08131 12.2257 7.23839 12.2257 7.23839C12.1079 7.2973 11.8246 7.39828 11.6984 7.3506C11.6759 7.33938 11.6619 7.32816 11.6535 7.30571C11.631 7.244 11.6086 7.18229 11.5918 7.12339C11.5244 6.92142 11.4431 6.67458 11.2159 6.67458C11.1878 6.67458 11.157 6.67738 11.1233 6.6858C11.0616 6.70263 10.941 6.71385 10.812 6.72787C10.7166 6.73629 10.6268 6.74751 10.5427 6.75873C10.5848 6.73348 10.6268 6.69982 10.6717 6.66055C10.9578 6.40529 11.258 6.23419 11.3982 6.24541C11.4263 6.24541 11.4375 6.25663 11.4459 6.26504C11.4852 6.31273 11.474 6.39127 11.4543 6.50067C11.4347 6.59604 11.4122 6.70543 11.4852 6.78678ZM11.5301 4.54555C11.617 4.55396 11.7012 4.53994 11.7713 4.48945C11.8667 4.42493 11.9172 4.30992 11.9284 4.14162C11.9508 3.80501 11.9985 3.60866 12.0322 3.51048C12.0602 3.61147 12.0883 3.76294 12.1023 3.91161C12.1079 3.97612 12.1612 4.02942 12.2229 4.02381C12.2229 4.02381 12.2341 4.02381 12.2369 4.02942C12.2453 4.04064 12.2538 4.06869 12.2453 4.11918C12.2201 4.34358 12.0294 4.75593 11.8358 4.75593C11.746 4.75593 11.6675 4.67738 11.589 4.60165C11.5693 4.58201 11.5497 4.56518 11.5301 4.54555ZM7.93398 0.938253C7.98167 0.935448 8.02935 0.932643 8.07704 0.929838C7.96764 0.994354 7.86666 1.05887 7.7769 1.12619C7.84142 1.05326 7.89191 0.994354 7.93398 0.938253ZM15.7909 7.72647C15.7993 7.80501 15.805 7.88355 15.8106 7.9621C15.7965 7.95368 15.7797 7.94527 15.7629 7.93966C15.6956 7.91722 15.6086 7.89197 15.516 7.86392C15.3898 7.83026 15.157 7.76294 15.042 7.70403C15.1878 7.68159 15.4936 7.69001 15.7909 7.72647ZM14.523 9.04485C15.185 8.95228 15.5665 8.81483 15.6535 8.64092C15.6731 8.60165 15.718 8.54555 15.7629 8.49506C15.7825 8.47262 15.7993 8.45017 15.8162 8.42773C15.7685 12.4754 12.4613 15.7545 8.40243 15.7545C4.42206 15.7545 1.16259 12.6016 0.994291 8.66055C1.09808 8.68299 1.21028 8.67458 1.3309 8.66336C1.50761 8.64933 1.70958 8.6325 1.95081 8.70263C2.41084 8.84008 2.42487 8.90459 2.45853 9.06448C2.48097 9.16546 2.51182 9.30291 2.62122 9.47963C2.7222 9.63952 2.86806 9.73769 3.04478 9.76855C3.08686 9.77416 3.12893 9.77977 3.1682 9.77977C3.49079 9.77977 3.80776 9.58902 3.90313 9.51048C3.98447 9.44597 3.98167 9.37584 3.97045 9.33938C3.93679 9.22437 3.81337 9.20754 3.62262 9.18229C3.5553 9.17388 3.47676 9.16266 3.41224 9.14863C3.46834 9.09534 3.53286 9.0224 3.53286 8.92423C3.53286 8.78959 3.43468 8.72507 3.35614 8.67458C3.29163 8.6325 3.21869 8.58762 3.15698 8.48945C3.11491 8.41932 3.12332 8.40249 3.15418 8.33517C3.18784 8.26504 3.24114 8.15845 3.20467 7.99576C3.18223 7.90319 3.12613 7.86672 3.09247 7.8527C2.98868 7.81062 2.8877 7.87514 2.76989 7.95368C2.68574 8.00698 2.55951 8.08832 2.5006 8.07149C2.46694 8.06027 2.43889 8.00698 2.42487 7.97332C2.3884 7.88075 2.41084 7.83026 2.43048 7.7994C2.54829 7.62549 3.01112 7.55256 3.23272 7.55256C3.2776 7.55256 3.37858 7.63671 3.45151 7.69562C3.60018 7.82184 3.78532 7.97612 3.98728 7.90039C4.14436 7.84148 4.25937 7.59744 4.46694 7.13741C4.62402 6.78678 4.80074 6.39127 4.98027 6.21175C5.21028 5.98173 5.4459 5.99856 5.67311 6.01539C5.78532 6.021 5.8891 6.02942 5.98728 6.00698C6.07143 5.99015 6.17241 5.95649 6.2201 5.86392C6.2762 5.75452 6.22571 5.63952 6.15278 5.4656C6.14156 5.43755 6.12753 5.40389 6.11351 5.36743C6.1668 5.37584 6.22571 5.37304 6.29303 5.3534C6.30425 5.3506 6.30986 5.3506 6.30986 5.34779C6.32669 5.36462 6.35474 5.43194 6.37157 5.47402C6.43048 5.6283 6.52585 5.88355 6.85965 5.86111C6.98588 5.8527 7.07844 5.80782 7.13454 5.73208C7.23272 5.58622 7.17381 5.38706 7.09808 5.13461C7.04759 4.97191 6.99429 4.78678 6.97466 4.59884C6.95222 4.37163 6.88209 4.22577 6.75867 4.15284C6.59878 4.05466 6.41926 4.1304 6.30986 4.17528C6.29022 4.13601 6.26778 4.0743 6.25095 4.02661C6.18644 3.8555 6.11351 3.65915 5.97606 3.55536C5.92557 3.5189 5.86666 3.50487 5.81056 3.51609C5.67592 3.54414 5.59177 3.69842 5.49359 3.87514C5.4431 3.96771 5.33931 4.15845 5.28882 4.16967C5.04759 4.08832 4.90453 4.31273 4.82879 4.43615C4.79233 4.38846 4.76708 4.32675 4.75025 4.12479C4.73623 3.98454 5.22992 3.66196 5.4964 3.48804C5.78812 3.2973 6.04057 3.1318 6.12753 2.98594C6.16119 2.92703 6.22851 2.81764 6.15278 2.72787C6.07985 2.64372 5.97886 2.68299 5.86105 2.72787C5.7769 2.76154 5.65067 2.81203 5.56091 2.80361C5.57494 2.75312 5.62543 2.67458 5.64226 2.64372C5.67592 2.59043 5.73482 2.49786 5.65067 2.42493C5.56933 2.352 5.48237 2.42212 5.44029 2.45298C5.24114 2.61006 4.73342 2.798 4.56792 2.798C4.53707 2.798 4.51743 2.798 4.50621 2.7952C4.5006 2.76714 4.49499 2.70824 4.49219 2.65214C4.48938 2.61567 4.48658 2.5736 4.48097 2.52591C4.47255 2.41932 4.42487 2.32956 4.34352 2.26504C4.31266 2.2398 4.2762 2.22016 4.23973 2.20614C4.48097 2.04064 4.73342 1.89197 4.9971 1.75452C5.08966 1.84709 5.32529 1.98173 5.99569 2.12479C6.17522 2.16125 6.29864 2.21736 6.39962 2.26504C6.48938 2.30712 6.57073 2.33797 6.64366 2.33797C6.75586 2.33797 6.85684 2.26785 6.96063 2.05747C7.02795 1.92844 7.20467 1.72928 7.39261 1.53012C7.37858 1.56939 7.37578 1.60866 7.38419 1.64513C7.41785 1.80221 7.48798 1.94246 7.54689 2.05186C7.56652 2.09674 7.59457 2.15003 7.6086 2.1865C7.59457 2.19772 7.57494 2.20894 7.56091 2.22016C7.45712 2.28187 7.31687 2.37163 7.29163 2.52872C7.2748 2.6325 7.31407 2.7419 7.40663 2.8541C7.56933 3.04485 7.52445 3.1851 7.46834 3.35901C7.44029 3.45158 7.40944 3.54695 7.40944 3.65354C7.40944 3.70684 7.40102 3.79099 7.39261 3.87794C7.35614 4.30431 7.33931 4.61287 7.51323 4.72787C7.54408 4.74751 7.58616 4.76434 7.63945 4.76434C7.68433 4.76434 7.73763 4.75312 7.79934 4.71946C8.0013 4.61287 8.06021 4.49786 8.13034 4.36883C8.21449 4.20614 8.3323 3.98454 8.80074 3.58061C9.63384 2.85971 10.2678 1.50487 10.2958 1.16827C11.4655 1.47682 12.5258 2.06588 13.3926 2.85691C13.2916 3.03924 13.1542 3.20473 13.0448 3.1851C13.0027 3.17949 13.0027 3.17668 12.9971 3.07009C12.9887 2.9102 12.9775 2.64653 12.5399 2.56238C11.92 2.43895 11.0364 2.71946 10.8288 3.26644C10.6857 3.64513 10.6717 4.01259 10.7923 4.22858C10.854 4.34078 10.9494 4.41371 11.07 4.43615C11.1205 4.44737 11.1738 4.4614 11.2299 4.47823C11.1963 4.50067 11.1654 4.53152 11.1373 4.5764C10.8877 4.97472 10.5904 5.28608 10.5006 5.28888C10.3435 5.28888 10.2201 5.42633 10.1668 5.65635C10.1472 5.74891 10.1331 5.85831 10.1612 5.93685C10.1612 5.93685 10.1584 5.93966 10.1584 5.94246C10.063 5.89197 9.91154 5.83587 9.79093 5.88355C9.71519 5.91161 9.65909 5.97612 9.63945 6.06308C9.58335 6.28187 9.63384 6.5764 9.74885 6.72507C9.82459 6.82044 9.90874 6.84008 9.96484 6.84008C9.9985 6.84008 10.0322 6.84288 10.0658 6.84849C10.0798 6.84849 10.0911 6.8513 10.1051 6.8513C10.0013 6.89057 9.92837 6.94106 9.8891 7.01118L9.83581 7.10656C9.74043 7.27766 9.63945 7.45438 9.53286 7.53853L9.51042 7.55817C9.36175 7.67598 9.14015 7.8527 9.04478 8.25943C8.9438 8.69702 9.16259 9.63671 9.72921 9.77416C10.0967 9.86392 10.5483 9.82465 10.8793 9.7966C10.9915 9.78818 11.0869 9.77977 11.1542 9.77977C11.286 9.77977 11.3505 9.84709 11.387 10.2258C11.4038 10.4249 11.488 10.5512 11.5609 10.6606C11.6226 10.7531 11.6703 10.8261 11.6815 10.9411C11.6956 11.0617 11.6843 11.143 11.6731 11.2496C11.6563 11.3843 11.6366 11.5526 11.6535 11.8527C11.6591 11.9761 11.6563 12.1108 11.6535 12.251C11.6423 12.7167 11.631 13.244 12.0237 13.4123C12.0827 13.4376 12.1331 13.4628 12.1752 13.4852C12.2902 13.5441 12.38 13.5806 12.4697 13.5806C12.6661 13.5806 12.854 13.4067 13.2383 12.899C13.9256 11.993 14.0686 11.5554 14.1808 11.0757C14.2958 10.5792 14.6521 10.136 14.9354 9.93124C15.2131 9.72647 15.4122 9.4095 15.3618 9.24961C15.3393 9.1851 15.2832 9.14302 15.2159 9.14302C15.2047 9.14302 15.1766 9.14583 15.1402 9.15144C14.9438 9.17388 14.3435 9.244 14.1724 8.87093C14.1584 8.84569 14.1472 8.81764 14.1331 8.78959C14.2566 8.95789 14.3828 9.06448 14.523 9.04485Z" fill="#C18948"/>
</g>
</svg>
