<svg width="17" height="19" viewBox="0 0 17 19" fill="none" xmlns="http://www.w3.org/2000/svg">
<mask id="mask0_505_5743" style="mask-type:luminance" maskUnits="userSpaceOnUse" x="0" y="0" width="17" height="19">
<path d="M0 0H16.6171V18.6704H0V0Z" fill="white"/>
</mask>
<g mask="url(#mask0_505_5743)">
<path d="M16.3733 5.18373C16.3733 5.15849 16.3452 5.15849 16.3368 5.14166C16.3312 5.13044 16.3368 5.108 16.3368 5.09678C16.3368 5.07153 16.334 5.06873 16.3144 5.0547C16.2976 5.04629 16.2863 5.04348 16.2835 5.02385C16.2723 5.02104 16.2639 5.01543 16.2555 5.00701C16.2499 5.00141 16.2415 4.98738 16.233 4.98177C16.219 4.97616 16.1797 4.98177 16.1685 4.98457C16.1489 4.99018 16.1405 5.00982 16.1208 5.00982C16.1068 5.00701 16.1012 4.99018 16.0844 4.98738C16.076 4.98457 16.0703 4.98738 16.0619 4.99018C16.0311 4.9986 16.0227 5.00421 15.9918 4.98738C15.975 4.97896 15.9469 4.95372 15.9301 4.95372C15.9077 4.94811 15.8824 4.96494 15.8628 4.97335C15.8487 4.98177 15.8235 4.99299 15.8123 5.00421C15.8011 5.01823 15.8095 5.02945 15.8039 5.04629C15.7926 5.04629 15.7814 5.04068 15.7702 5.03787C15.7562 5.03787 15.7422 5.03787 15.7281 5.03507C15.7197 5.0014 15.7702 4.9986 15.7646 4.97055C15.745 4.97055 15.7534 4.92286 15.759 4.91164C15.7786 4.90884 15.7842 4.89481 15.7954 4.88359C15.8123 4.86396 15.8011 4.87237 15.8011 4.84993C15.8011 4.81347 15.8431 4.81066 15.8572 4.79103C15.86 4.78542 15.8572 4.777 15.8628 4.77139C15.8656 4.76578 15.8768 4.7742 15.8796 4.76017C15.8824 4.74615 15.8347 4.7237 15.8263 4.71248C15.8095 4.69846 15.7954 4.67602 15.787 4.65638C15.7814 4.63955 15.7842 4.62272 15.7786 4.60589C15.7253 4.60309 15.6664 4.62833 15.6664 4.68443C15.6664 4.69846 15.6692 4.71529 15.6552 4.7237C15.644 4.72932 15.6328 4.7209 15.63 4.70968C15.6215 4.68724 15.644 4.6676 15.63 4.64236C15.6159 4.64236 15.6019 4.63675 15.5851 4.63675C15.5851 4.62272 15.5963 4.61431 15.6019 4.60309C15.6075 4.60309 15.6131 4.60028 15.6187 4.60309C15.6215 4.59187 15.6524 4.53857 15.6636 4.53296C15.6748 4.52735 15.6917 4.54138 15.6973 4.52455C15.7029 4.51333 15.6917 4.4993 15.6917 4.48808C15.6748 4.47967 15.6636 4.48808 15.6468 4.49089C15.6187 4.4965 15.6075 4.47967 15.5963 4.45442C15.5879 4.4432 15.5907 4.446 15.5823 4.43759C15.5739 4.42637 15.557 4.42356 15.5486 4.41234C15.5374 4.40112 15.543 4.37588 15.5177 4.37027C15.5177 4.39551 15.5093 4.38429 15.4981 4.39551C15.4897 4.40393 15.4953 4.40954 15.4897 4.41795C15.4813 4.42637 15.4729 4.42637 15.4645 4.43198C15.4364 4.45162 15.4084 4.46844 15.3803 4.48247C15.3494 4.4993 15.3186 4.51613 15.2933 4.53857C15.2821 4.54979 15.2569 4.56101 15.2569 4.57504C15.2569 4.58065 15.2681 4.58626 15.2709 4.59748C15.2737 4.60309 15.2709 4.6087 15.2709 4.61431C15.2625 4.61711 15.2513 4.61431 15.24 4.61711C15.2513 4.63394 15.2513 4.65919 15.2344 4.67602C15.2232 4.68724 15.198 4.69004 15.1811 4.69004C15.1531 4.69285 15.1278 4.67602 15.1026 4.65919C15.0802 4.64797 15.0605 4.64236 15.0325 4.64236C15.0072 4.63955 14.9876 4.64797 14.9623 4.64797C14.9259 4.65358 14.9091 4.65077 14.8782 4.62833C14.8417 4.60309 14.8025 4.56662 14.7548 4.56943C14.752 4.60028 14.7548 4.61711 14.7239 4.63114C14.7015 4.63955 14.6734 4.63675 14.6482 4.64797C14.6201 4.66199 14.6117 4.68724 14.5865 4.70687C14.5696 4.7237 14.5528 4.73773 14.5444 4.76017C14.5416 4.76859 14.5304 4.81908 14.5192 4.81908C14.5107 4.81908 14.4743 4.81347 14.4687 4.82188C14.4602 4.8331 14.4883 4.84993 14.4827 4.86396C14.4799 4.87798 14.4294 4.90042 14.4154 4.90323C14.421 4.92847 14.3845 4.9453 14.3677 4.95372C14.3537 4.96213 14.348 4.96494 14.3368 4.97616C14.3284 4.99018 14.3172 5.00421 14.3032 5.00982C14.2835 5.01824 14.2639 5.00982 14.2471 5.01262C14.233 5.01543 14.2246 5.02104 14.2134 5.02665C14.1882 5.03787 14.1601 5.04909 14.1377 5.06031C14.1096 5.06873 14.0872 5.06031 14.0619 5.06873C14.0395 5.07434 14.0479 5.10519 14.0479 5.13044C14.0479 5.15849 14.0479 5.17532 14.0339 5.20056C14.0283 5.21178 14.0227 5.223 14.017 5.23142C14.0114 5.23983 14.003 5.24264 13.9946 5.25105C13.9862 5.26227 13.9862 5.26788 13.975 5.2791C13.9666 5.28471 13.9497 5.28752 13.9413 5.29593C13.9329 5.30715 13.9329 5.31837 13.9189 5.32679C13.9105 5.33521 13.8992 5.33801 13.8908 5.34362C13.874 5.35484 13.8347 5.36045 13.8263 5.38009C13.8179 5.39131 13.8235 5.39972 13.8151 5.41375C13.8039 5.42777 13.7814 5.43058 13.7898 5.45021C13.8011 5.45863 13.8207 5.46143 13.8263 5.47265C13.8656 5.53156 13.7197 5.54558 13.7253 5.59327C13.7057 5.6073 13.672 5.59046 13.6496 5.60449C13.6243 5.61852 13.6187 5.63815 13.6047 5.59888C13.5935 5.59608 13.5851 5.59607 13.5739 5.59607C13.5739 5.59607 13.5767 5.59888 13.5795 5.59888C13.5795 5.6073 13.5795 5.61852 13.5795 5.62693C13.5514 5.62974 13.5346 5.62693 13.5121 5.63815C13.5009 5.64657 13.4897 5.64657 13.4813 5.65779C13.4729 5.66901 13.4701 5.68023 13.4616 5.68864C13.4504 5.69706 13.4392 5.69425 13.428 5.68864C13.4027 5.68303 13.3747 5.67742 13.3438 5.67742C13.3158 5.67742 13.2877 5.67462 13.2569 5.67742C13.2569 5.69986 13.2625 5.74194 13.2316 5.74755C13.2344 5.76157 13.2485 5.77279 13.2541 5.78682C13.2597 5.80084 13.2569 5.82048 13.2653 5.82889C13.2737 5.84292 13.2962 5.84853 13.3102 5.85414C13.3354 5.86536 13.3298 5.87377 13.3438 5.89622C13.3579 5.86816 13.3691 5.87658 13.3999 5.87377C13.428 5.87097 13.4336 5.86255 13.4532 5.85133C13.4785 5.83731 13.4785 5.85414 13.4953 5.87377C13.5037 5.8878 13.5177 5.90183 13.529 5.91585C13.5346 5.92146 13.5514 5.93549 13.5458 5.94671C13.543 5.95512 13.529 5.95512 13.5234 5.96354C13.5177 5.96915 13.5262 5.98317 13.5206 5.99159C13.5149 6 13.5009 5.9972 13.4953 6.00842C13.4897 6.01683 13.4869 6.05049 13.4897 6.06171C13.4953 6.07854 13.5346 6.09818 13.5514 6.10379C13.5514 6.13745 13.5795 6.15989 13.5654 6.19916C13.557 6.22721 13.5234 6.22721 13.4925 6.22721C13.4925 6.2216 13.4925 6.2188 13.4925 6.21599C13.4841 6.21319 13.4673 6.20758 13.4588 6.21319C13.4448 6.2216 13.4532 6.2216 13.4532 6.23282C13.4532 6.25246 13.4588 6.26648 13.4364 6.2777C13.4336 6.25807 13.4392 6.24404 13.4196 6.23843C13.3915 6.22721 13.3915 6.24965 13.3803 6.26087C13.3635 6.28051 13.327 6.26648 13.3046 6.26929C13.2793 6.2749 13.2653 6.29734 13.2372 6.29173C13.2372 6.28051 13.2372 6.26929 13.2344 6.25526C13.2232 6.25526 13.2148 6.24965 13.2036 6.25246C13.2008 6.25246 13.1839 6.25807 13.1783 6.26087C13.1615 6.26648 13.1503 6.2749 13.1531 6.29734C13.1278 6.30856 13.0858 6.30856 13.0549 6.30575C13.0353 6.30295 13.0184 6.29173 12.9988 6.30014C12.9736 6.30856 12.9708 6.31978 12.9427 6.31697C12.9147 6.31417 12.8894 6.30856 12.8614 6.30856C12.8333 6.30575 12.7969 6.31417 12.7716 6.30295C12.7492 6.29453 12.7239 6.2777 12.7043 6.26368C12.6847 6.25246 12.6678 6.23843 12.6454 6.23843C12.6173 6.23563 12.5809 6.23843 12.5528 6.24124C12.55 6.2749 12.55 6.29453 12.5163 6.30295C12.4911 6.31136 12.4687 6.31697 12.4434 6.32539C12.4182 6.33661 12.3985 6.33661 12.3761 6.34222C12.3452 6.35063 12.3228 6.36746 12.2919 6.37588C12.2611 6.38149 12.2246 6.38149 12.191 6.37868C12.1601 6.37588 12.1321 6.3871 12.1068 6.39832C12.1012 6.37868 12.118 6.36466 12.1292 6.35344C12.1124 6.35063 12.0872 6.35063 12.0731 6.34502C12.0563 6.33661 12.0423 6.31417 12.0255 6.30856C11.975 6.29453 11.9581 6.33941 11.9133 6.33661C11.888 6.33661 11.874 6.3338 11.86 6.31136C11.8459 6.28892 11.86 6.28331 11.8235 6.2777C11.7954 6.2749 11.7926 6.28051 11.773 6.26087C11.7618 6.25246 11.745 6.24124 11.7365 6.22721C11.7253 6.21319 11.7309 6.19355 11.7197 6.17953C11.6917 6.14867 11.6973 6.16831 11.7001 6.12623C11.7029 6.10098 11.6889 6.07013 11.7309 6.07013C11.7365 6.0533 11.745 6.03647 11.745 6.01964C11.7422 5.99439 11.7309 5.9972 11.7141 5.98598C11.6861 5.96915 11.6804 5.92427 11.6776 5.89341H11.6748C11.672 5.88499 11.6692 5.87658 11.6692 5.87097C11.6748 5.87097 11.6804 5.86816 11.6861 5.87097C11.6832 5.84572 11.7029 5.82889 11.7113 5.81487C11.7197 5.79804 11.7253 5.77279 11.7253 5.75316C11.6945 5.75316 11.7141 5.7223 11.7197 5.71389C11.7281 5.69706 11.7309 5.68584 11.7281 5.6634C11.6889 5.66901 11.7057 5.64657 11.7029 5.61852C11.7029 5.59607 11.7001 5.57363 11.6748 5.56241C11.6692 5.55961 11.6468 5.554 11.6384 5.554C11.63 5.554 11.6215 5.56241 11.6103 5.55961C11.5907 5.554 11.6103 5.54278 11.5991 5.53156C11.5935 5.52595 11.5738 5.52875 11.5654 5.52875C11.5682 5.53436 11.5654 5.54278 11.5654 5.54839C11.557 5.54839 11.5486 5.55119 11.5402 5.55119C11.5402 5.56241 11.5402 5.57363 11.5402 5.58485C11.5262 5.58766 11.5178 5.56802 11.5009 5.56802C11.4981 5.57924 11.4897 5.58766 11.4841 5.59888C11.4813 5.60168 11.4757 5.61852 11.4757 5.61852C11.4532 5.63535 11.4645 5.60168 11.456 5.59888C11.414 5.59046 11.4336 5.62413 11.4084 5.63254C11.3943 5.63535 11.3523 5.61571 11.3551 5.63535C11.341 5.63535 11.327 5.63535 11.313 5.63535C11.313 5.6634 11.3382 5.67462 11.3438 5.69425C11.3466 5.70547 11.3382 5.74474 11.3326 5.75877C11.3298 5.76999 11.3214 5.78401 11.3158 5.79523C11.313 5.80926 11.313 5.80926 11.3046 5.82048C11.299 5.82889 11.299 5.84292 11.2933 5.85133C11.2849 5.87377 11.2569 5.87658 11.2569 5.90463C11.2569 5.92707 11.2737 5.94671 11.2681 5.96915C11.2653 5.98598 11.2513 5.9972 11.2569 6.01683C11.2625 6.0533 11.2765 6.07013 11.2401 6.08696C11.2429 6.08976 11.2569 6.09537 11.2569 6.09537C11.2653 6.11781 11.2485 6.18514 11.2653 6.19916C11.2765 6.21038 11.2962 6.19635 11.3074 6.21038C11.3186 6.22441 11.3018 6.24965 11.3298 6.24404C11.3298 6.26368 11.327 6.28331 11.3298 6.30295C11.3354 6.32819 11.3466 6.3338 11.3607 6.35624C11.3691 6.37027 11.3943 6.40112 11.3887 6.41795C11.3859 6.42356 11.3635 6.43479 11.3579 6.4432C11.3523 6.45723 11.3523 6.47406 11.3523 6.48808C11.3523 6.53296 11.3494 6.54418 11.3018 6.54138C11.3018 6.53577 11.299 6.52735 11.3018 6.52174C11.2849 6.53857 11.2877 6.56101 11.2849 6.58345C11.2793 6.60028 11.2737 6.62833 11.2625 6.64516C11.2457 6.65077 11.2064 6.58345 11.1783 6.57504C11.1811 6.58345 11.1755 6.58906 11.1755 6.59467C11.1755 6.59467 11.0802 6.61711 11.0717 6.61711C11.0577 6.61992 11.0493 6.62833 11.0381 6.63394C11.0016 6.64516 10.9708 6.6115 10.9371 6.61992C10.9034 6.62833 10.9203 6.6676 10.895 6.67602C10.8782 6.68163 10.8642 6.65077 10.8333 6.65358C10.8333 6.64797 10.8333 6.64236 10.8333 6.63955C10.8165 6.63114 10.794 6.63675 10.7744 6.63394C10.7744 6.60309 10.766 6.5554 10.752 6.52735C10.7323 6.53016 10.7379 6.5554 10.7211 6.56382C10.7155 6.56943 10.7043 6.56382 10.6959 6.56662C10.6875 6.57223 10.6875 6.58065 10.6818 6.58626C10.651 6.61711 10.6314 6.63394 10.5837 6.62833C10.5809 6.63675 10.5753 6.63955 10.5724 6.64516C10.5556 6.64516 10.5416 6.61431 10.5248 6.60589C10.5051 6.58906 10.4799 6.58345 10.4631 6.57504C10.4518 6.56943 10.449 6.56382 10.4322 6.56101C10.4182 6.5554 10.4098 6.5554 10.3957 6.5526C10.3789 6.54699 10.3312 6.51613 10.3256 6.54138C10.2947 6.54979 10.2695 6.54418 10.2443 6.53016C10.2246 6.51894 10.2106 6.50772 10.191 6.51052C10.1685 6.51333 10.1741 6.51613 10.1573 6.53016C10.1461 6.53577 10.1377 6.54418 10.1264 6.54979C10.1236 6.5526 10.0984 6.57223 10.0928 6.57223C10.0816 6.57223 10.0731 6.54979 10.0619 6.54418C10.0479 6.53577 10.0283 6.53016 10.0142 6.53296C10.0086 6.48528 10.0142 6.43759 10.0114 6.39271C9.98619 6.3899 9.95534 6.3871 9.9329 6.39832C9.91607 6.40393 9.87119 6.43478 9.86558 6.44881C9.84314 6.46003 9.84314 6.47406 9.81228 6.47406C9.78984 6.47406 9.76459 6.47686 9.74776 6.45722C9.73374 6.44039 9.74776 6.41234 9.72252 6.40112C9.70569 6.39551 9.67203 6.40393 9.6552 6.40112C9.64678 6.36185 9.61593 6.34783 9.57946 6.331C9.543 6.31417 9.50092 6.331 9.45884 6.32258C9.40274 6.31136 9.42238 6.26929 9.4364 6.23282C9.44482 6.21319 9.44482 6.19636 9.44201 6.17672C9.4364 6.15428 9.42518 6.13464 9.42518 6.1122C9.36628 6.09818 9.27371 6.12342 9.22883 6.07293C9.22322 6.06171 9.22041 6.04208 9.212 6.03647C9.20078 6.02525 9.18114 6.03086 9.16712 6.02805C9.14748 6.01964 9.14748 6.00281 9.11943 6.00842C9.11102 6.03647 9.11943 6.04208 9.09138 6.04769C9.05211 6.0533 9.02967 6.0533 8.99601 6.06732C8.98479 6.07293 8.97638 6.08415 8.96516 6.08696C8.92869 6.09537 8.90625 6.06732 8.8782 6.0533C8.83332 6.03366 8.78563 6.03927 8.73795 6.04208C8.73234 6.05891 8.72392 6.07574 8.7127 6.08696C8.70148 6.09818 8.67343 6.10379 8.66782 6.12062C8.64257 6.12903 8.63416 6.09257 8.62574 6.07574C8.61733 6.05891 8.60611 6.04488 8.58647 6.03647C8.55281 6.02525 8.50513 6.04208 8.47147 6.03927C8.46586 6.00281 8.38731 6.01683 8.35926 6.01683C8.35646 5.99439 8.36207 5.97195 8.35926 5.94951C8.35646 5.92707 8.33963 5.91024 8.33121 5.8878C8.28633 5.87658 8.23865 5.91024 8.19377 5.90463C8.16572 5.89902 8.16291 5.87939 8.14608 5.85975C8.12645 5.84292 8.11242 5.84292 8.08998 5.8345C8.05351 5.82048 8.01705 5.79804 7.98058 5.78121C7.95253 5.76718 7.95253 5.76157 7.92729 5.7756C7.91326 5.78401 7.90204 5.80926 7.8796 5.80365C7.86838 5.7784 7.83192 5.76157 7.80667 5.75316C7.78142 5.74474 7.75898 5.73633 7.73374 5.72511C7.73374 5.7195 7.73093 5.70828 7.73093 5.70267C7.70288 5.68864 7.67764 5.67742 7.65239 5.65779C7.62434 5.63535 7.61312 5.6073 7.57666 5.62132C7.57666 5.62413 7.57666 5.62412 7.57666 5.62693C7.54861 5.63254 7.55702 5.57363 7.55141 5.554C7.543 5.52595 7.52616 5.4979 7.50092 5.48948C7.48409 5.48387 7.47287 5.48668 7.45604 5.47826C7.44482 5.47265 7.4336 5.46424 7.41957 5.45863C7.40835 5.45302 7.38591 5.43338 7.3775 5.43058C7.36347 5.42777 7.34384 5.43058 7.32981 5.43058C7.33262 5.42216 7.32981 5.41094 7.32981 5.40533C7.27091 5.40253 7.24285 5.37167 7.20358 5.33801C7.18395 5.32118 7.17834 5.29313 7.15029 5.29313C7.11663 5.29032 7.12785 5.32959 7.12504 5.35765C7.0998 5.36045 7.09419 5.32398 7.07175 5.31557C7.0465 5.30435 7.02967 5.32118 7.00723 5.29593C6.99601 5.28471 6.99321 5.26788 6.98479 5.25666C6.97076 5.23703 6.9343 5.23983 6.92588 5.21739C6.91466 5.19215 6.9371 5.1641 6.95394 5.14727C6.98199 5.11641 7.00162 5.08275 7.01845 5.04629C7.03528 5.02104 7.04089 4.97896 7.06053 4.96213C7.06053 4.95372 7.06333 4.95091 7.06614 4.9453C7.07736 4.9425 7.08858 4.9453 7.0998 4.9425C7.10541 4.92847 7.1026 4.91445 7.08858 4.91164C7.07736 4.88359 7.05772 4.84432 7.06894 4.81347C7.08577 4.80505 7.07736 4.77981 7.08858 4.76298C7.1026 4.74054 7.11943 4.75737 7.13346 4.73773C7.16151 4.70968 7.12504 4.64797 7.13626 4.61431C7.14468 4.59187 7.16712 4.59187 7.18395 4.58626C7.2092 4.57504 7.2148 4.56101 7.22602 4.53857C7.23164 4.52174 7.23164 4.49369 7.24566 4.48247C7.25969 4.47406 7.29054 4.47686 7.30737 4.47406C7.31298 4.446 7.34664 4.41795 7.36347 4.39271C7.37469 4.36466 7.38311 4.36185 7.41677 4.36746C7.45043 4.37307 7.41116 4.31978 7.41116 4.31978C7.39713 4.30014 7.38872 4.28612 7.36347 4.28051C7.32701 4.2749 7.31859 4.28612 7.29615 4.24685C7.28213 4.22441 7.28213 4.19636 7.25408 4.18794C7.24285 4.18514 7.22883 4.18794 7.21761 4.18233C7.19517 4.17111 7.18675 4.15428 7.16712 4.14867C7.14187 4.14025 7.11382 4.13464 7.08858 4.13464C7.06614 4.13184 7.02687 4.13745 7.01284 4.11781C6.99601 4.09257 6.9904 4.04488 6.99882 4.01683C6.97638 4.01403 6.96796 3.9972 6.95674 3.98317C6.95113 3.97476 6.95674 3.97195 6.94832 3.96073C6.93991 3.95512 6.92588 3.94671 6.91747 3.94671C6.90064 3.9411 6.88381 3.94671 6.86698 3.9411C6.85015 3.93549 6.80527 3.885 6.80527 3.86536C6.78002 3.85695 6.766 3.84011 6.73795 3.84572C6.71831 3.85133 6.70429 3.86817 6.68465 3.87378C6.68465 3.87378 6.68185 3.87658 6.68185 3.87939C6.63135 3.89341 6.61452 3.8317 6.58647 3.80645C6.57245 3.79243 6.5472 3.79243 6.53318 3.76999C6.52196 3.75316 6.53037 3.73633 6.51354 3.7195C6.46586 3.71389 6.4911 3.6662 6.47988 3.62693C6.46586 3.62974 6.44903 3.62132 6.43781 3.62413C6.46305 3.61852 6.39853 3.54558 6.3789 3.54278C6.37609 3.554 6.38451 3.57363 6.37609 3.58485C6.37049 3.59327 6.35365 3.58486 6.34804 3.59047C6.3256 3.60449 6.34243 3.62132 6.33121 3.64376C6.31719 3.6662 6.29194 3.6662 6.28072 3.64937C6.2667 3.63254 6.27231 3.59607 6.2695 3.57644C6.26389 3.57924 6.25548 3.58205 6.24706 3.58766C6.23865 3.59327 6.22743 3.52034 6.22743 3.51192C6.23304 3.49229 6.24426 3.48948 6.25548 3.47265C6.26389 3.45302 6.26109 3.41375 6.25828 3.39131C6.25267 3.3296 6.20499 3.28471 6.19377 3.22581C6.19377 3.21459 6.19657 3.19776 6.19096 3.18934C6.17974 3.17532 6.17413 3.18654 6.16011 3.17532C6.14328 3.16129 6.14608 3.13885 6.14889 3.11922C6.14889 3.10519 6.1545 3.09117 6.14608 3.07995C6.13486 3.06312 6.10681 3.06592 6.1012 3.04629C6.09559 3.02385 6.11803 3.02104 6.12364 3.00701C6.12925 2.99579 6.12925 2.97616 6.12645 2.96494C6.12364 2.93969 6.11523 2.92006 6.09559 2.90323C6.08998 2.89762 6.06754 2.89481 6.06473 2.8864C6.06193 2.86957 6.08437 2.86396 6.0984 2.86396C6.10962 2.81908 6.17413 2.81627 6.2106 2.80786C6.2134 2.79103 6.22743 2.78542 6.23304 2.77139C6.23865 2.77139 6.24426 2.77139 6.24706 2.77139C6.24987 2.81347 6.23584 2.84713 6.23865 2.8892C6.24987 2.89201 6.25828 2.89481 6.2695 2.89762C6.27231 2.91164 6.2695 2.92567 6.27231 2.93689C6.29755 2.93969 6.31158 2.95652 6.3256 2.97335C6.3256 2.97616 6.37048 3.01823 6.37048 3.0014C6.36768 2.97055 6.38451 2.97055 6.40134 2.95933C6.40415 2.95372 6.41256 2.95933 6.41817 2.95652C6.42098 2.95372 6.41817 2.9453 6.42098 2.9425C6.42659 2.93408 6.42659 2.92567 6.43781 2.92006C6.44342 2.91725 6.48269 2.91164 6.48269 2.91164C6.47988 2.88079 6.50513 2.85274 6.53037 2.83871C6.53037 2.85554 6.55281 2.87237 6.56964 2.86676C6.58647 2.86396 6.58367 2.84713 6.59489 2.8303C6.6033 2.81066 6.60611 2.80786 6.62855 2.79944C6.64538 2.79103 6.66221 2.77981 6.67624 2.7742C6.6566 2.75176 6.66782 2.72651 6.65099 2.70407C6.64538 2.69285 6.63135 2.68443 6.62294 2.67321C6.61733 2.66199 6.61172 2.65077 6.60611 2.63675C6.58928 2.6115 6.56123 2.59187 6.55281 2.56382C6.5472 2.52455 6.56403 2.50211 6.58086 2.47686C6.62855 2.39832 6.51074 2.41234 6.46866 2.40673C6.44622 2.40393 6.42659 2.39271 6.40695 2.37588C6.3789 2.35624 6.35927 2.32539 6.35365 2.29734C6.34804 2.26368 6.36207 2.22441 6.34524 2.19355C6.34524 2.19075 6.42378 2.18514 6.42659 2.18514C6.435 2.1627 6.42659 2.1627 6.41817 2.14586C6.39012 2.08976 6.3817 2.02525 6.35646 1.96634C6.35365 1.96634 6.35365 1.96073 6.35365 1.96073C6.36207 1.95232 6.38731 1.92707 6.40134 1.92707C6.41817 1.92146 6.42659 1.93549 6.43781 1.93829C6.45183 1.93829 6.46305 1.93268 6.47427 1.93829C6.50232 1.9439 6.51635 1.95512 6.5472 1.95232C6.57245 1.94951 6.58928 1.94671 6.61733 1.94951C6.61452 1.9411 6.60611 1.91866 6.60611 1.91585C6.60891 1.89341 6.62013 1.90183 6.63416 1.89341C6.66221 1.87658 6.67904 1.85414 6.67624 1.82328C6.67624 1.81206 6.66782 1.80365 6.67063 1.78962C6.67343 1.77279 6.68465 1.76157 6.67904 1.74474C6.67904 1.72791 6.66221 1.70267 6.65099 1.68864C6.67904 1.68584 6.70148 1.67742 6.73234 1.67742C6.74356 1.67742 6.77722 1.68303 6.78563 1.67462C6.79405 1.6634 6.78563 1.63815 6.78844 1.62413C6.79405 1.59888 6.82771 1.57644 6.85295 1.56241C6.881 1.54558 6.91186 1.55119 6.94552 1.54839C6.94552 1.51192 6.94271 1.48387 6.96235 1.45582C6.97357 1.43899 6.97918 1.43338 6.98479 1.41655C6.99321 1.39972 6.9904 1.38009 7.00723 1.37167C7.01004 1.3324 6.99321 1.25386 7.04089 1.24544C7.06333 1.20337 7.03528 1.15007 7.05492 1.1108C7.06333 1.08836 7.09138 1.08836 7.07175 1.0547C7.06333 1.03507 7.04931 1.02665 7.0465 1.00702C7.03809 1.00421 7.02967 0.9986 7.02406 0.995795C7.01284 0.990184 7.00162 0.995795 6.9904 0.990185C6.97077 0.978965 6.95674 0.950914 6.94552 0.934084C6.92027 0.892009 6.90064 0.880787 6.84734 0.892008C6.79685 0.906033 6.7688 0.886398 6.72112 0.872373C6.68746 0.861152 6.63135 0.830297 6.59489 0.830297C6.59769 0.807857 6.58928 0.791026 6.56684 0.785416C6.53879 0.777001 6.52476 0.802246 6.50232 0.802246C6.49391 0.819076 6.49671 0.847128 6.47427 0.855542C6.45744 0.863958 6.41817 0.855542 6.40134 0.852737C6.35646 0.847128 6.29475 0.833102 6.24987 0.844322C6.22462 0.852738 6.20499 0.875178 6.17974 0.880788C6.14889 0.889203 6.12925 0.894813 6.10401 0.911643C6.08998 0.920059 6.08156 0.925668 6.06754 0.931279C6.05632 0.934084 6.03949 0.925668 6.02827 0.931279C6.01705 0.934084 6.01144 0.950914 6.00302 0.956524C5.9918 0.962135 5.97778 0.962134 5.96656 0.964939C5.96656 0.973355 5.96095 0.98177 5.96095 0.990185C5.93009 0.99299 5.89082 0.98177 5.85997 0.98738C5.82911 0.995795 5.83753 1.00982 5.8207 1.03226C5.81228 1.04348 5.80667 1.04629 5.80106 1.04629C5.78984 1.04629 5.78423 1.04068 5.7702 1.03507C5.74215 1.02385 5.74496 1.03226 5.71691 1.04068C5.69727 1.04629 5.67483 1.04348 5.65239 1.04348C5.63276 1.04348 5.61312 1.04348 5.59349 1.04348C5.57946 1.04348 5.543 1.05751 5.53178 1.0547C5.52336 1.0519 5.52055 1.04909 5.51775 1.04348C5.50933 1.02104 5.58788 0.984574 5.60471 0.98177C5.60751 0.964939 5.60471 0.956524 5.59349 0.945304C5.59068 0.939694 5.57946 0.942499 5.57385 0.936889C5.57105 0.934083 5.57105 0.922863 5.56544 0.917253C5.54019 0.892008 5.52056 0.900423 5.48689 0.894813C5.47567 0.894813 5.45884 0.889203 5.45043 0.883593C5.43921 0.875178 5.4364 0.858347 5.42799 0.849932C5.40835 0.835906 5.36347 0.844322 5.33823 0.844322C5.29615 0.844322 5.28493 0.844322 5.25408 0.813467C5.21761 0.777001 5.23164 0.746145 5.22322 0.701265C5.21761 0.678824 5.20639 0.653579 5.18956 0.636749C5.16712 0.611503 5.15029 0.622724 5.11943 0.617113C5.06894 0.605893 5.06614 0.572232 5.0465 0.538572C5.02126 0.496496 4.97077 0.530156 4.9371 0.510521C4.91747 0.502106 4.91186 0.482471 4.90064 0.468446C4.88661 0.45442 4.86698 0.451615 4.85295 0.440395C4.83893 0.423565 4.8249 0.389904 4.81368 0.370269C4.80246 0.345024 4.79685 0.316973 4.78283 0.297338C4.75197 0.255262 4.70148 0.204771 4.63977 0.230016C4.62294 0.238432 4.63135 0.249651 4.61452 0.255262C4.59769 0.263677 4.58367 0.249652 4.57806 0.238432C4.56964 0.213186 4.57806 0.168305 4.57806 0.14306C4.57806 0.100984 4.55842 0.103789 4.51915 0.103789C4.48549 0.103789 4.45744 0.106595 4.42939 0.0925691C4.42659 0.0897642 4.42659 0.0841545 4.41817 0.0813489C4.41256 0.078544 4.39854 0.0813489 4.39293 0.0813489C4.3761 0.0813489 4.35927 0.0785435 4.34524 0.084154C4.30877 0.098179 4.28072 0.12062 4.26389 0.0701287C4.24987 0.0701287 4.24706 0.0561037 4.23584 0.0476883C4.22182 0.0420786 4.19657 0.0476885 4.18255 0.0504934C4.16291 0.0589087 4.16572 0.0785439 4.14889 0.0897641C4.13206 0.0953738 4.12084 0.0813487 4.10962 0.0785439C4.07035 0.0701285 4.05071 0.0897641 4.01985 0.100984C3.98619 0.112204 3.96375 0.12062 3.92729 0.123425C3.92448 0.134645 3.92448 0.14306 3.92168 0.15428C3.87399 0.15989 3.84594 0.14306 3.80106 0.134645C3.7702 0.12623 3.69727 0.106595 3.66922 0.123425C3.70569 0.14306 3.73935 0.115009 3.75057 0.17111C3.76179 0.173916 3.7702 0.179526 3.78142 0.182331C3.78142 0.193551 3.78142 0.204771 3.78142 0.215991C3.76459 0.224407 3.75057 0.224406 3.73374 0.224406C3.7113 0.224406 3.69727 0.232822 3.67764 0.235627C3.63276 0.244042 3.61032 0.221602 3.57385 0.213186C3.53738 0.204771 3.50092 0.215991 3.46445 0.215991C3.44762 0.215991 3.42238 0.210382 3.40835 0.215991C3.39433 0.221602 3.38311 0.246847 3.37189 0.255262C3.37189 0.280507 3.36347 0.294533 3.33542 0.294533C3.32981 0.316973 3.3242 0.339413 3.31859 0.361854C3.29896 0.361854 3.27932 0.361854 3.25969 0.361854C3.2653 0.42637 3.16992 0.417954 3.16712 0.479666C3.16431 0.485276 3.16151 0.485275 3.1587 0.488081C3.13346 0.496496 3.11382 0.46003 3.09419 0.493691C3.08577 0.504911 3.09138 0.521741 3.08858 0.532962C3.08577 0.546987 3.06614 0.563817 3.06614 0.569427C3.06333 0.583452 3.07455 0.580648 3.07736 0.594673C3.08577 0.617113 3.08016 0.633944 3.07736 0.656384C3.07455 0.664799 3.05772 0.670409 3.07175 0.681629C3.07455 0.687239 3.1026 0.681629 3.10821 0.681629C3.0998 0.71529 3.15029 0.701264 3.15029 0.73773C3.17273 0.73773 3.17553 0.70407 3.20639 0.712485C3.20639 0.71529 3.20919 0.718095 3.20919 0.7209C3.23444 0.72651 3.25127 0.701265 3.27932 0.70968C3.28493 0.70968 3.28213 0.7209 3.29054 0.723705C3.29615 0.726511 3.30457 0.723705 3.31018 0.723705C3.3214 0.726511 3.33262 0.723705 3.34664 0.72651C3.34664 0.746145 3.36628 0.757366 3.37189 0.774196C3.3775 0.785416 3.37469 0.805052 3.3803 0.821882C3.39152 0.847128 3.40274 0.830297 3.41957 0.841517C3.4364 0.855542 3.42518 0.880787 3.45323 0.875178C3.46445 0.894813 3.4897 0.880787 3.50653 0.892008C3.51775 0.897618 3.52336 0.911643 3.53458 0.920059C3.5458 0.928474 3.55702 0.928474 3.57105 0.934084C3.61312 0.942499 3.658 0.922864 3.69727 0.948109C3.69727 0.956524 3.69727 0.967744 3.69727 0.976159C3.68605 0.978964 3.68325 0.98738 3.68325 0.9986C3.64117 1.0014 3.63276 1.09678 3.66642 1.1108C3.67764 1.11641 3.69166 1.108 3.70008 1.1108C3.71691 1.11922 3.7141 1.13044 3.72813 1.13885C3.74776 1.15288 3.77301 1.15568 3.78423 1.18093C3.80947 1.18093 3.83753 1.17251 3.84594 1.19776C3.85436 1.2202 3.83753 1.24544 3.83192 1.26227C3.82631 1.2735 3.8207 1.28191 3.81509 1.29313C3.81509 1.30435 3.8207 1.31838 3.81509 1.3296C3.80947 1.33801 3.79264 1.33801 3.78142 1.34643C3.77581 1.35204 3.7702 1.36887 3.7674 1.37448C3.75057 1.37448 3.73374 1.37448 3.71971 1.37448C3.70849 1.37728 3.70288 1.37448 3.69447 1.37728C3.68325 1.38289 3.67764 1.39131 3.67483 1.39411C3.66361 1.39692 3.63276 1.39411 3.62434 1.40533C3.61593 1.41655 3.62434 1.4446 3.62154 1.45582C3.62154 1.47826 3.61593 1.48668 3.60751 1.50631C3.59629 1.53436 3.6019 1.52875 3.57946 1.52875C3.55702 1.52875 3.49531 1.51473 3.48128 1.53156C3.47287 1.53997 3.47567 1.56522 3.47287 1.57644C3.47287 1.59608 3.45043 1.64376 3.47006 1.65218C3.47006 1.68584 3.47006 1.71669 3.48128 1.74755C3.48409 1.74755 3.48689 1.74755 3.4897 1.74755C3.49531 1.80645 3.4925 1.85975 3.50933 1.91024C3.51775 1.93549 3.52897 1.96073 3.52617 1.98878C3.52336 1.9972 3.51495 2.00561 3.51775 2.01964C3.51775 2.02525 3.52616 2.02525 3.52897 2.03366C3.52897 2.04208 3.52897 2.05049 3.52897 2.0561C3.52897 2.08415 3.51214 2.1094 3.51214 2.13464C3.51214 2.14306 3.52336 2.15989 3.52336 2.16831C3.52897 2.18794 3.53178 2.20477 3.53178 2.22441C3.53178 2.23563 3.53458 2.25246 3.53178 2.26648C3.52897 2.2777 3.50933 2.28892 3.50933 2.30014C3.50653 2.31697 3.52056 2.31417 3.52336 2.32819C3.52897 2.34222 3.52336 2.35905 3.52617 2.37307C3.52897 2.37307 3.52897 2.37307 3.53178 2.37307C3.53458 2.39832 3.52897 2.41515 3.52617 2.43759C3.56544 2.43759 3.6019 2.4432 3.59629 2.49089C3.63276 2.49369 3.74496 2.49089 3.75898 2.54418C3.77862 2.54699 3.78142 2.56943 3.79825 2.57784C3.81228 2.58626 3.83191 2.57784 3.84594 2.58626C3.8768 2.60309 3.85436 2.67321 3.91326 2.65919C3.91326 2.65358 3.91607 2.65077 3.91607 2.64516C3.94973 2.64236 3.96936 2.65358 3.99461 2.65919C4.00583 2.66199 4.01705 2.66199 4.03107 2.66199C4.03107 2.65077 4.03107 2.63955 4.03107 2.62833C4.0451 2.61992 4.05632 2.61431 4.07315 2.61711C4.07595 2.64797 4.05351 2.67321 4.05912 2.70126C4.06193 2.70126 4.06193 2.70126 4.06473 2.70126C4.06754 2.7237 4.07315 2.73493 4.06193 2.75737C4.05632 2.76578 4.02266 2.78822 4.05351 2.79383C4.05351 2.81066 4.05071 2.82469 4.06193 2.83591C4.08157 2.80505 4.14047 2.81627 4.17413 2.81627C4.17413 2.8303 4.17974 2.84152 4.18535 2.85274C4.19096 2.85274 4.19657 2.85274 4.19938 2.85274C4.19938 2.85554 4.19938 2.85835 4.19938 2.85835C4.20779 2.86115 4.22182 2.86115 4.23023 2.85835C4.23023 2.84713 4.23584 2.84152 4.24706 2.84152C4.24706 2.83871 4.24706 2.83591 4.24706 2.8331C4.25828 2.8331 4.2695 2.8331 4.28072 2.8331C4.28072 2.85274 4.30316 2.85835 4.30036 2.88079C4.31438 2.88079 4.33683 2.87798 4.34804 2.88079C4.36768 2.8864 4.40695 2.92006 4.40976 2.93689C4.41256 2.96774 4.39573 3.00982 4.39573 3.04068C4.39573 3.06031 4.39012 3.06592 4.3761 3.07995C4.36487 3.08836 4.35085 3.09397 4.34524 3.1108C4.30316 3.1108 4.26389 3.11361 4.22182 3.11361C4.20499 3.11361 4.17413 3.108 4.16011 3.11922C4.14608 3.12763 4.14889 3.15568 4.12645 3.15568C4.12925 3.20617 4.08998 3.18654 4.05632 3.19776C4.03668 3.20337 4.02546 3.21739 4.01424 3.23142C4.00022 3.24825 4.00302 3.25105 3.99741 3.27349C3.989 3.30154 3.97778 3.2763 3.96095 3.29032C3.94692 3.30155 3.97778 3.34643 3.98339 3.35765C3.99741 3.38289 4.00583 3.40814 4.00583 3.43619C3.99741 3.4418 3.989 3.4446 3.98339 3.45021C4.01705 3.44741 4.02266 3.45302 4.02266 3.48668C4.02266 3.49509 4.00022 3.5007 3.99461 3.50631C3.98339 3.51473 3.97217 3.52875 3.96656 3.53997C3.95814 3.5568 3.93009 3.66901 3.96375 3.66901C3.96375 3.67181 3.96375 3.67742 3.96375 3.68023C3.97217 3.68023 3.98058 3.68023 3.989 3.68023C3.989 3.67462 3.9918 3.66901 3.9918 3.6634C4.00583 3.65779 4.02266 3.65779 4.03388 3.6634C4.03388 3.67181 4.03949 3.68864 4.03388 3.69425C4.02546 3.70267 4.01144 3.69425 4.00022 3.69706C3.98619 3.69986 3.9918 3.70547 3.98339 3.71669C3.97497 3.72791 3.97497 3.72511 3.95814 3.73072C3.94692 3.73633 3.94692 3.73352 3.93851 3.74755C3.9329 3.75877 3.93009 3.76438 3.92448 3.76999C3.90765 3.78682 3.89082 3.80365 3.8768 3.82328C3.85997 3.84292 3.84594 3.84011 3.8235 3.85133C3.79264 3.86255 3.80667 3.87658 3.79825 3.90183C3.78984 3.92146 3.7674 3.92146 3.75618 3.93829C3.73935 3.96073 3.73654 3.96634 3.70849 3.96634C3.70849 3.97756 3.70849 3.98878 3.70849 4.00281C3.68886 4.00561 3.68325 4.03647 3.66361 4.03927C3.66361 4.03927 3.66361 4.04208 3.66361 4.04488C3.64398 4.04488 3.59629 4.03927 3.6019 4.07293C3.61593 4.07013 3.62715 4.07854 3.62434 4.09257C3.62434 4.09537 3.59068 4.10098 3.58507 4.10659C3.56263 4.12903 3.58788 4.14867 3.60751 4.15708C3.61032 4.19075 3.60471 4.2188 3.5991 4.24965C3.59629 4.2749 3.5991 4.2777 3.57385 4.29173C3.55422 4.30295 3.53458 4.31136 3.52336 4.331C3.50653 4.35624 3.50372 4.38429 3.47006 4.3871C3.43921 4.3899 3.40835 4.37868 3.3803 4.37868C3.33542 4.37868 3.31018 4.39271 3.27371 4.41234C3.27091 4.47686 3.25127 4.53296 3.22883 4.59748C3.21761 4.63114 3.20919 4.6648 3.19797 4.69846C3.18395 4.73212 3.16712 4.76298 3.14468 4.78542C3.07736 4.84152 3.06894 4.92847 2.99321 4.98177C2.9371 5.02385 2.86978 5.03787 2.81368 5.07995C2.78283 5.10239 2.75758 5.09958 2.72392 5.1108C2.66782 5.13044 2.63696 5.19215 2.61172 5.24264C2.56964 5.25105 2.6005 5.30996 2.59208 5.33801C2.58086 5.36887 2.56123 5.37167 2.53318 5.3885C2.50793 5.40253 2.47708 5.41375 2.46025 5.43899C2.42659 5.48668 2.4322 5.54839 2.38732 5.59046C2.31438 5.65779 2.21621 5.62974 2.12364 5.62974C2.07035 5.62974 2.02266 5.63535 1.97497 5.65498C1.92168 5.67742 1.86838 5.73072 1.80667 5.71669C1.77301 5.70828 1.7141 5.64657 1.70569 5.61291C1.69447 5.56802 1.7141 5.54839 1.68325 5.51753C1.61032 5.45302 1.50653 5.51473 1.45323 5.57363C1.43921 5.58766 1.43921 5.6101 1.42518 5.62413C1.39994 5.65779 1.37469 5.68864 1.34945 5.7223C1.3242 5.75596 1.28493 5.80926 1.25127 5.8345C1.212 5.86536 1.16151 5.8878 1.11943 5.91585C1.05492 5.95793 1.06614 5.98598 1.05211 6.05891C1.0465 6.09257 1.02687 6.10659 1.01845 6.13745C0.9904 6.24685 1.07175 6.24965 1.14187 6.30295C1.1559 6.31417 1.16712 6.32819 1.18114 6.33941C1.19236 6.34783 1.19236 6.35905 1.20919 6.36185C1.22322 6.36466 1.22041 6.34783 1.23163 6.34783C1.2681 6.34222 1.3242 6.35344 1.35225 6.37588C1.39433 6.40393 1.3803 6.45442 1.3803 6.50211C1.3803 6.53016 1.38311 6.54699 1.36908 6.56943C1.35786 6.58906 1.33823 6.59467 1.3242 6.61431C1.31018 6.63955 1.30176 6.71529 1.31579 6.74334C1.3242 6.76298 1.34664 6.76578 1.35225 6.777C1.36067 6.79383 1.35225 6.82469 1.35506 6.84152C1.39433 6.84993 1.37469 6.86676 1.39152 6.88359C1.40274 6.89201 1.42238 6.90042 1.4364 6.90603C1.47567 6.91725 1.51775 6.92286 1.55983 6.92286C1.62995 6.92286 1.62715 6.93408 1.62715 7.0014C1.62715 7.04348 1.63276 7.08275 1.64398 7.12202C1.6552 7.1641 1.67483 7.20337 1.69447 7.23983C1.7113 7.2763 1.74215 7.30155 1.75057 7.34082C1.76179 7.39131 1.78142 7.40253 1.80948 7.44741C1.83192 7.48107 1.89643 7.55119 1.88802 7.59327C1.85997 7.59046 1.8235 7.59607 1.8207 7.62974C1.82631 7.63254 1.82911 7.63535 1.83472 7.63535C1.83472 7.66901 1.81789 7.69986 1.8235 7.73072C1.85155 7.73352 1.8768 7.73072 1.90485 7.73352C1.90485 7.73633 1.90485 7.74194 1.90485 7.74194C1.89924 7.74755 1.89643 7.75035 1.89363 7.75316C1.87399 7.75316 1.85155 7.7784 1.83472 7.79243C1.8207 7.78121 1.80106 7.78401 1.78423 7.78401C1.78423 7.78682 1.78423 7.78962 1.78423 7.78962C1.75337 7.79243 1.73935 7.81767 1.73935 7.84572C1.69727 7.84853 1.64117 7.85414 1.60471 7.84011C1.55422 7.82048 1.58788 7.76718 1.58227 7.7223C1.55141 7.7195 1.51775 7.7195 1.48409 7.7195C1.47006 7.7223 1.44762 7.7223 1.4336 7.72791C1.41677 7.73633 1.40835 7.75035 1.39152 7.75877C1.37469 7.76438 1.36067 7.76438 1.34103 7.76438C1.31579 7.76718 1.31859 7.76718 1.29896 7.78401C1.27932 7.80084 1.25688 7.81487 1.23444 7.8345C1.23164 7.85975 1.15309 7.84853 1.13065 7.84853C1.07736 7.84853 1.05772 7.83731 1.02687 7.79523C1.02126 7.78401 1.00162 7.75596 0.990401 7.75035C0.979181 7.74474 0.94552 7.75035 0.931495 7.75035C0.911859 7.75035 0.897834 7.74474 0.881004 7.74194C0.861368 7.73633 0.852954 7.73352 0.847343 7.76157C0.827708 7.76438 0.824903 7.75316 0.808073 7.74755C0.791243 7.74194 0.794048 7.74194 0.777217 7.74755C0.751972 7.75316 0.726726 7.76438 0.698676 7.75316C0.69026 7.75035 0.676235 7.73072 0.66782 7.72791C0.656601 7.72791 0.648185 7.74194 0.63977 7.74755C0.597694 7.76438 0.597693 7.73633 0.589279 7.70547C0.566838 7.70267 0.550008 7.75035 0.544398 7.76999C0.516347 7.76999 0.524763 7.71389 0.516347 7.69425C0.491102 7.64937 0.491102 7.71669 0.491102 7.73913C0.491102 7.77279 0.482687 7.79523 0.474272 7.82609C0.465856 7.85133 0.468661 7.885 0.454636 7.91024C0.39573 7.91585 0.33402 7.91024 0.272308 7.91024C0.261088 7.91024 0.244258 7.91305 0.233037 7.91024C0.221817 7.90744 0.210597 7.89622 0.202182 7.89622C0.179742 7.89622 0.188157 7.91024 0.176937 7.92146C0.165716 7.92707 0.148886 7.92427 0.137666 7.92427C0.132056 7.93829 0.118031 7.9411 0.11242 7.95512C0.10681 7.97195 0.123641 7.99159 0.104005 8C0.0983955 8.01964 0.0899803 8.03927 0.0843699 8.06171C0.0843699 8.06452 0.0787598 8.06452 0.0675396 8.06452C0.0703445 8.06732 0.0731497 8.07013 0.0731497 8.07574C0.0675392 8.10379 0.0450994 8.1094 0.0703446 8.12623C0.0899802 8.13745 0.137666 8.13745 0.157301 8.13745C0.210597 8.14025 0.193767 8.09537 0.216207 8.06452C0.238648 8.03086 0.283528 8.0561 0.314384 8.04488C0.325604 8.04208 0.350849 8.02525 0.359265 8.01964C0.37329 8.00842 0.381705 7.98317 0.40134 7.98878C0.392925 8.00561 0.392925 8.03086 0.38451 8.04208C0.37329 8.0561 0.353654 8.05049 0.339629 8.0561C0.328409 8.06171 0.317189 8.07854 0.303164 8.08696C0.286333 8.09818 0.289139 8.09818 0.263893 8.10098C0.244258 8.10379 0.241452 8.10098 0.235843 8.1094C0.235843 8.1094 0.233037 8.11501 0.230232 8.12062C0.221817 8.14306 0.224623 8.18794 0.227427 8.21038C0.247063 8.20197 0.266698 8.20758 0.272308 8.23002C0.277919 8.25526 0.263893 8.24124 0.247063 8.26368C0.266698 8.26368 0.291943 8.27209 0.311579 8.28051C0.342435 8.29453 0.291943 8.31697 0.297554 8.34502C0.319994 8.34502 0.319994 8.31136 0.342434 8.31136C0.342434 8.32819 0.342435 8.33941 0.334019 8.35063C0.328409 8.36466 0.308773 8.35905 0.319994 8.37868C0.339629 8.37027 0.359265 8.3338 0.381705 8.34222C0.381705 8.34502 0.381705 8.34783 0.381705 8.35063C0.350849 8.35344 0.36207 8.40112 0.336824 8.39832C0.353654 8.41795 0.364875 8.42637 0.37329 8.45442C0.409756 8.45722 0.446221 8.50772 0.477077 8.52455C0.519152 8.54418 0.550008 8.56101 0.586474 8.59187C0.600499 8.60309 0.620134 8.61711 0.63416 8.63114C0.650989 8.64516 0.665015 8.6676 0.687455 8.67321C0.721116 8.68443 0.777217 8.66199 0.780022 8.71529C0.791243 8.71809 0.805268 8.71809 0.816488 8.71248C0.813683 8.68724 0.886614 8.70687 0.906249 8.70687C0.92869 8.70968 0.95113 8.71809 0.97357 8.71529C0.993206 8.71248 1.00162 8.70126 1.02406 8.70407C1.02406 8.70126 1.02406 8.69565 1.02406 8.69285C1.06053 8.6676 1.10821 8.69004 1.14748 8.67321C1.16992 8.6648 1.16992 8.64236 1.19517 8.63394C1.212 8.62833 1.23725 8.63955 1.25127 8.63394C1.25688 8.63114 1.27932 8.60028 1.2653 8.60028C1.25688 8.60028 1.24286 8.60028 1.23444 8.60028C1.23164 8.58345 1.25408 8.56662 1.27091 8.57504C1.29615 8.58626 1.27932 8.61431 1.31298 8.58906C1.31018 8.54699 1.36067 8.52455 1.39433 8.53016C1.39433 8.56943 1.4336 8.57784 1.45884 8.5554C1.45043 8.56943 1.44482 8.58345 1.4336 8.59748C1.41677 8.6115 1.40835 8.6087 1.39994 8.63114C1.38311 8.6648 1.37189 8.69565 1.36908 8.73773C1.34103 8.74895 1.31859 8.78822 1.29335 8.81066C1.28213 8.81908 1.25969 8.8303 1.25408 8.84432C1.24846 8.85554 1.25127 8.87237 1.24847 8.8864C1.22602 8.8892 1.20358 8.88359 1.18114 8.8864C1.16992 8.8864 1.18114 8.90323 1.16151 8.89481C1.14748 8.89201 1.15029 8.87518 1.13626 8.86957C1.13065 8.86676 1.11382 8.87237 1.10541 8.87237C1.09138 8.87798 1.07736 8.8864 1.06333 8.89481C1.07455 8.89481 1.08577 8.89481 1.0998 8.89481C1.09419 8.92006 1.05211 8.93689 1.04931 8.96494C1.04089 8.96494 1.03528 8.97055 1.02687 8.96774C1.02687 8.97055 1.02406 8.97335 1.02406 8.97616C1.01845 8.97616 1.01284 8.97616 1.00723 8.97616C1.01565 8.93128 0.95674 8.95372 0.942715 8.96774C0.937104 8.97055 0.942715 8.97896 0.937105 8.98457C0.931495 8.98738 0.923079 8.98457 0.920275 8.98738C0.909054 8.99579 0.892224 8.98177 0.897834 9.00701C0.895029 9.00982 0.886614 9.00982 0.883809 9.00982C0.883809 9.00421 0.878199 8.99579 0.878199 8.98738C0.844538 8.98457 0.816488 8.99299 0.782827 8.99299C0.785632 8.99579 0.791242 8.99579 0.794047 8.9986C0.796852 9.00421 0.796852 9.01543 0.794047 9.02104C0.765996 9.02945 0.768802 8.9986 0.749167 8.99579C0.737946 8.99299 0.715506 9.00701 0.704286 9.01262C0.687455 9.01823 0.66782 9.01823 0.65099 9.02384C0.63977 9.02946 0.628549 9.04348 0.617329 9.04909C0.620134 9.02946 0.645379 9.03506 0.63977 9.01262C0.578058 9.01823 0.631355 8.95933 0.64538 8.93128C0.62855 8.9453 0.614524 8.93128 0.594889 8.93408C0.583669 8.93689 0.575253 8.95091 0.558423 8.94811C0.535983 8.9453 0.524762 8.92567 0.544398 8.90884C0.555617 8.89762 0.578059 8.91164 0.578059 8.8892C0.561229 8.8864 0.535983 8.88359 0.524763 8.89481C0.519152 8.90323 0.524762 8.91445 0.521958 8.92006C0.516347 8.93128 0.510737 8.93128 0.507932 8.9425C0.449026 8.96494 0.521958 9.04628 0.538788 9.07434C0.555618 9.09958 0.566839 9.12763 0.580864 9.15007C0.620134 9.20898 0.670625 9.25666 0.715506 9.31557C0.735141 9.34362 0.743556 9.36045 0.774412 9.38009C0.805268 9.40253 0.822098 9.43058 0.847343 9.45302C0.875394 9.47546 0.892224 9.49229 0.911859 9.52314C0.92869 9.54839 0.93991 9.57363 0.970765 9.56802C0.96796 9.57363 0.96796 9.57644 0.96235 9.57924C0.965155 9.64096 1.0437 9.70267 1.08858 9.73913C1.11382 9.76157 1.13346 9.78682 1.16151 9.80926C1.18114 9.82328 1.19236 9.82609 1.20919 9.84572C1.22322 9.85975 1.23444 9.87377 1.24847 9.88499C1.27371 9.91024 1.30737 9.91866 1.33262 9.9411C1.34664 9.95232 1.35786 9.96915 1.37189 9.97756C1.38872 9.98878 1.39433 9.98598 1.41677 9.99159C1.44762 9.9972 1.46165 10.0337 1.49811 10.0309C1.50653 10.0309 1.51214 10.0281 1.51775 10.0224C1.51775 10.0224 1.52055 10.0196 1.52336 10.0196C1.52336 10.0168 1.52617 10.0168 1.52617 10.0168C1.52897 10.0168 1.53178 10.0168 1.53458 10.0168C1.55422 10.014 1.56263 10.0281 1.57946 10.0337C1.6019 10.0224 1.63276 10.0393 1.65239 10.0533C1.66642 10.0337 1.69727 10.0337 1.70569 10.0168C1.73935 10.014 1.7674 10.0196 1.79545 10.0056C1.81228 9.99439 1.81789 9.98037 1.84314 9.97756C1.85716 9.97476 1.87399 9.97756 1.88802 9.97756C1.90204 9.95512 1.91326 9.9411 1.94412 9.93829C1.96375 9.93549 2.00863 9.9411 2.00583 9.91305C1.989 9.91305 1.96656 9.91305 1.95814 9.93549C1.93851 9.90463 2.00583 9.8906 2.02266 9.89341C2.05632 9.89621 2.08717 9.90182 2.11523 9.87938C2.12925 9.85694 2.1545 9.85975 2.17974 9.85694C2.20218 9.85133 2.22182 9.84292 2.24145 9.82889C2.26109 9.81487 2.27792 9.78962 2.30597 9.79243C2.30597 9.78121 2.30597 9.76718 2.30597 9.75596C2.30877 9.75596 2.31158 9.75596 2.31719 9.75596C2.33402 9.70828 2.36207 9.68023 2.39854 9.64657C2.4322 9.61571 2.42098 9.56802 2.42659 9.52314C2.45183 9.51473 2.43781 9.46985 2.435 9.45021C2.435 9.43619 2.43781 9.41936 2.435 9.40533C2.4322 9.39131 2.42098 9.3857 2.42098 9.37728C2.41256 9.35204 2.42098 9.32679 2.435 9.30435C2.44342 9.29032 2.46305 9.27349 2.46586 9.25386C2.47147 9.25105 2.47147 9.24825 2.47988 9.24264C2.46305 9.24544 2.44622 9.24264 2.4322 9.23422C2.45464 9.2202 2.45744 9.20056 2.46305 9.17532C2.4883 9.17251 2.49671 9.19776 2.52196 9.19776C2.55001 9.19776 2.54159 9.17532 2.57245 9.17812C2.57525 9.17251 2.57525 9.16971 2.57245 9.1641C2.55281 9.1641 2.53318 9.1641 2.51354 9.1641C2.51915 9.14727 2.53598 9.14727 2.55001 9.15007C2.55842 9.07995 2.65099 9.15568 2.67343 9.1669C2.70709 9.18654 2.78002 9.17812 2.81929 9.16129C2.8221 9.15849 2.8249 9.15568 2.82771 9.15568C2.8249 9.15849 2.8221 9.15849 2.81929 9.16129C2.80527 9.17251 2.78002 9.20337 2.766 9.21178C2.74356 9.223 2.74356 9.21178 2.72392 9.20617C2.70709 9.20337 2.69026 9.20617 2.67624 9.19495C2.64538 9.17812 2.63977 9.13044 2.60611 9.17812C2.59208 9.19776 2.59769 9.24264 2.57806 9.25105C2.58928 9.25947 2.6033 9.26508 2.6005 9.28191C2.57806 9.28471 2.57806 9.34643 2.58086 9.36606C2.59208 9.36887 2.60611 9.36887 2.62013 9.36606C2.62855 9.34362 2.72112 9.33801 2.74356 9.34923C2.7127 9.36045 2.69026 9.38009 2.6594 9.38289C2.63977 9.38289 2.6005 9.37167 2.58647 9.39692C2.57806 9.41655 2.58647 9.4418 2.58928 9.46143C2.58928 9.48107 2.57245 9.50631 2.57806 9.52314C2.58928 9.52595 2.69026 9.53156 2.69307 9.54558C2.69307 9.54839 2.69307 9.55119 2.69307 9.554C2.6594 9.5568 2.62294 9.55119 2.58928 9.55961C2.59489 9.56241 2.59489 9.56802 2.6033 9.57083C2.6033 9.57924 2.60891 9.58485 2.60891 9.59607C2.63416 9.59607 2.6566 9.59327 2.67904 9.57644C2.69587 9.56241 2.70148 9.54558 2.72953 9.5568C2.72392 9.5568 2.71831 9.5568 2.71551 9.5568C2.7127 9.58205 2.68185 9.59607 2.66782 9.61571C2.6594 9.62974 2.6594 9.63535 2.64538 9.64657C2.63416 9.65779 2.61452 9.65218 2.62294 9.67742C2.62574 9.67742 2.62574 9.67742 2.62855 9.67742C2.63136 9.70267 2.62855 9.71669 2.62013 9.73913C2.61452 9.75035 2.6033 9.74755 2.60891 9.76718C2.60891 9.7784 2.61172 9.78682 2.62294 9.79243C2.61172 9.80365 2.6033 9.82048 2.60891 9.83731C2.62574 9.83731 2.66501 9.8317 2.66782 9.84853C2.65099 9.84853 2.63416 9.86536 2.63135 9.87938C2.65379 9.87938 2.67904 9.87377 2.70429 9.87658C2.70709 9.87938 2.70709 9.88499 2.70429 9.8906C2.68746 9.8878 2.67343 9.89061 2.6566 9.90182C2.67904 9.91305 2.67063 9.93829 2.67343 9.95793C2.69587 9.95793 2.72112 9.94951 2.74356 9.95512C2.73795 9.96354 2.73795 9.97476 2.73795 9.98598C2.71551 9.98878 2.69587 9.9972 2.67343 10.0028C2.67904 10.014 2.68745 10.0421 2.69868 10.0505C2.7127 10.0617 2.72673 10.0561 2.74636 10.0589C2.75197 10.0898 2.72112 10.0813 2.70148 10.0926C2.69868 10.1403 2.70148 10.1823 2.68746 10.23C2.68465 10.2384 2.67904 10.2468 2.67624 10.2553C2.67062 10.2693 2.67343 10.2805 2.66502 10.2917C2.6566 10.3029 2.64538 10.3029 2.63977 10.3114C2.62855 10.3254 2.63696 10.345 2.62855 10.359C2.61452 10.3759 2.58086 10.3647 2.57525 10.3843C2.56964 10.3983 2.59208 10.4123 2.58928 10.432C2.58367 10.4628 2.56403 10.4432 2.55281 10.4684C2.53037 10.5105 2.59208 10.533 2.58647 10.5722C2.57806 10.5582 2.56403 10.5554 2.56403 10.5386C2.55562 10.5358 2.54159 10.5386 2.53318 10.5386C2.51915 10.5554 2.52757 10.5666 2.53598 10.5835C2.53879 10.5835 2.56403 10.6143 2.55842 10.6143C2.55281 10.6171 2.5444 10.6227 2.53598 10.6199C2.53318 10.6508 2.51915 10.6732 2.52476 10.7041C2.56964 10.7013 2.51074 10.8191 2.53037 10.8191C2.54159 10.8219 2.55281 10.8219 2.56403 10.8191C2.56403 10.8079 2.55842 10.777 2.57525 10.7742C2.58367 10.7742 2.60611 10.8051 2.61733 10.8107C2.6005 10.8303 2.55281 10.8247 2.5472 10.8527C2.54159 10.8724 2.55842 10.8752 2.56123 10.8892C2.56403 10.9032 2.56123 10.9229 2.56123 10.9397C2.58647 10.9425 2.61452 10.9397 2.63977 10.9397C2.61733 10.9565 2.56403 10.9397 2.55281 10.9649C2.5472 10.979 2.56123 11.0435 2.56964 11.0491C2.57245 11.0603 2.57245 11.0715 2.56964 11.0828C2.55001 11.0912 2.57245 11.108 2.56684 11.1248C2.55001 11.1304 2.5472 11.1865 2.57525 11.1809C2.58647 11.1585 2.59769 11.1417 2.6033 11.1136C2.62013 11.1136 2.63696 11.1136 2.65379 11.1136C2.6594 11.0968 2.64818 11.0407 2.67343 11.0435C2.67063 11.0631 2.68185 11.0743 2.68465 11.0884C2.68746 11.1024 2.68465 11.1192 2.67904 11.1304C2.67062 11.1332 2.65099 11.1276 2.64257 11.1304C2.62855 11.1389 2.63696 11.1417 2.62855 11.1529C2.61733 11.1641 2.58086 11.195 2.61733 11.2062C2.61452 11.2118 2.62013 11.223 2.61733 11.2286C2.63136 11.2286 2.64257 11.223 2.6566 11.2286C2.66221 11.2314 2.67343 11.2426 2.67904 11.2482C2.66782 11.2595 2.63416 11.2539 2.61452 11.2539C2.61452 11.2511 2.61452 11.2454 2.61452 11.2426C2.56123 11.2342 2.55842 11.3072 2.57806 11.338C2.58086 11.3464 2.59208 11.352 2.59489 11.3576C2.6005 11.3661 2.59769 11.3773 2.6033 11.3885C2.61172 11.4053 2.62294 11.4222 2.63416 11.4362C2.62855 11.439 2.62013 11.4362 2.61452 11.4362C2.61452 11.4334 2.61452 11.4278 2.61452 11.425C2.60891 11.425 2.60611 11.425 2.6005 11.425C2.59208 11.4558 2.59489 11.4895 2.59769 11.5203C2.60611 11.5231 2.61452 11.5288 2.62294 11.5316C2.62294 11.5484 2.62574 11.5652 2.61452 11.5764C2.62574 11.5792 2.63696 11.5792 2.64818 11.5764C2.65099 11.5652 2.66221 11.5568 2.67343 11.5596C2.66782 11.5792 2.67624 11.5933 2.67063 11.6073C2.66782 11.5792 2.62574 11.5877 2.6005 11.5877C2.59489 11.6269 2.62013 11.6213 2.63977 11.6353C2.64538 11.6578 2.62574 11.6802 2.62013 11.6943C2.62574 11.6943 2.63135 11.6999 2.63696 11.6999C2.63977 11.7195 2.64538 11.7728 2.67904 11.7616C2.62574 11.7784 2.66221 11.8345 2.68185 11.8626C2.71551 11.9074 2.69307 11.9495 2.69868 12C2.7127 11.9972 2.72673 12 2.73514 12.0084C2.72673 12.0168 2.7099 12.0196 2.70148 12.0252C2.71551 12.0673 2.74356 12.1431 2.70709 12.1823C2.72112 12.1823 2.73234 12.1823 2.74636 12.1823C2.74917 12.2048 2.73234 12.1964 2.72673 12.2076C2.72392 12.2188 2.72673 12.2384 2.72673 12.2497C2.74356 12.2553 2.76319 12.2581 2.75478 12.2833C2.73795 12.2805 2.73514 12.2973 2.73795 12.3114C2.7688 12.3114 2.74356 12.3675 2.74636 12.3899C2.75478 12.3899 2.76319 12.3955 2.77161 12.3955C2.77441 12.4151 2.75758 12.4151 2.74075 12.4151C2.766 12.4432 2.76039 12.5189 2.76319 12.5582C2.766 12.5778 2.76039 12.6031 2.76039 12.6255C2.76039 12.6536 2.77441 12.676 2.77722 12.7041C2.78283 12.7265 2.77722 12.7518 2.78563 12.7742C2.79685 12.8022 2.79966 12.8191 2.80527 12.8499C2.80527 12.8612 2.80246 12.8864 2.80527 12.8976C2.80807 12.9116 2.8249 12.9173 2.82771 12.9257C2.83051 12.9453 2.80807 12.9565 2.79966 12.9705C2.80246 12.9902 2.81649 12.993 2.83332 13.007C2.84454 13.0154 2.85576 13.0295 2.86698 13.0435C2.88661 13.0743 2.88942 13.1136 2.90625 13.1473C2.92308 13.1781 2.93711 13.2118 2.95113 13.2454C2.95955 13.2707 2.95955 13.2959 2.98199 13.3156C2.99321 13.3212 3.04089 13.338 3.05492 13.3352C3.03809 13.338 2.98479 13.338 3.01284 13.3689C3.02967 13.3857 3.06894 13.3633 3.08297 13.3857C3.06614 13.3857 3.04089 13.3801 3.02406 13.3913C3.05211 13.439 3.08577 13.4839 3.08297 13.5456C3.08016 13.5456 3.07736 13.5456 3.07455 13.5456C3.07175 13.5652 3.09419 13.5764 3.1026 13.5905C3.11382 13.6073 3.12224 13.6241 3.13346 13.6438C3.15029 13.6634 3.14468 13.6802 3.15309 13.6971C3.16151 13.7167 3.18956 13.7195 3.19236 13.7363C3.16992 13.7363 3.11382 13.7223 3.12785 13.7616C3.15029 13.7644 3.14468 13.7812 3.1559 13.7868C3.16712 13.7924 3.18956 13.7812 3.20078 13.7868C3.21481 13.7924 3.21481 13.8121 3.22602 13.8177C3.24005 13.8233 3.25408 13.8093 3.2653 13.8261C3.27371 13.8345 3.2681 13.8597 3.27091 13.871C3.27652 13.885 3.28774 13.885 3.29054 13.9018C3.29615 13.9355 3.29615 13.9607 3.33823 13.9551C3.34384 13.9691 3.3214 13.972 3.3214 13.986C3.31859 13.9972 3.32981 14.014 3.33262 14.0252C3.33823 14.0393 3.34103 14.0449 3.34664 14.0561C3.35506 14.0701 3.36908 14.0645 3.36067 14.0898C3.36067 14.0898 3.35786 14.0898 3.35506 14.0898C3.35506 14.0954 3.35506 14.0982 3.35506 14.1038C3.39433 14.1038 3.36628 14.1823 3.35506 14.1964C3.38311 14.2132 3.42518 14.2637 3.43921 14.2945C3.44482 14.3029 3.44762 14.3198 3.45043 14.331C3.45604 14.3422 3.45884 14.345 3.46165 14.3562C3.46726 14.3787 3.46165 14.4039 3.46445 14.4236C3.48128 14.4236 3.50934 14.4236 3.50372 14.446C3.45323 14.4628 3.4897 14.4853 3.49531 14.5217C3.50372 14.5554 3.50372 14.5835 3.50092 14.6171C3.4925 14.6171 3.45884 14.6311 3.45604 14.6367C3.45323 14.648 3.47567 14.6536 3.48689 14.6592C3.50372 14.6704 3.50092 14.6648 3.50653 14.6872C3.51214 14.7069 3.51775 14.7181 3.52617 14.7349C3.53458 14.7546 3.53739 14.763 3.53739 14.7854C3.53739 14.8022 3.53739 14.8191 3.53739 14.8387C3.53739 14.8527 3.53458 14.8724 3.54019 14.8864C3.55141 14.9032 3.55983 14.8976 3.57666 14.9116C3.5458 14.9313 3.58227 14.9762 3.59349 15.0042C3.60751 15.0463 3.60751 15.0884 3.63276 15.1304C3.6552 15.1669 3.68325 15.2006 3.68886 15.2454C3.69447 15.2847 3.70569 15.3212 3.72252 15.3604C3.73654 15.3941 3.74215 15.4306 3.75898 15.4614C3.7702 15.4755 3.77301 15.4895 3.77581 15.5063C3.77581 15.5203 3.77301 15.54 3.77862 15.5512C3.78703 15.568 3.78703 15.554 3.79264 15.554C3.80106 15.554 3.80667 15.5568 3.81509 15.5596C3.8207 15.5624 3.83472 15.5568 3.83753 15.5624C3.84314 15.568 3.83753 15.5736 3.83192 15.5736C3.83192 15.5792 3.88521 15.6073 3.89363 15.6129C3.88241 15.6129 3.87119 15.6129 3.86277 15.6129C3.85997 15.6269 3.87399 15.6353 3.8796 15.6438C3.89082 15.6606 3.88241 15.6662 3.89924 15.6746C3.91326 15.683 3.92448 15.6886 3.93851 15.6971C3.94692 15.7027 3.95253 15.7083 3.96375 15.7111C3.96936 15.7251 3.98058 15.7335 3.989 15.7447C3.99741 15.756 4.01424 15.7672 4.01985 15.7784C4.02546 15.7952 4.01705 15.8065 4.02827 15.8233C4.03388 15.8317 4.03668 15.8485 4.05071 15.8457C4.05071 15.8485 4.05071 15.8513 4.05071 15.8541C4.0451 15.8541 4.03668 15.8541 4.03107 15.8569C4.03388 15.8682 4.04229 15.871 4.0451 15.885C4.0451 15.8934 4.0451 15.9018 4.0451 15.9102C4.05071 15.9187 4.05632 15.9215 4.06193 15.9243C4.07595 15.9299 4.07315 15.9243 4.08156 15.9327C4.08717 15.9411 4.09559 15.9467 4.1012 15.9551C4.10401 15.9635 4.10401 15.9748 4.10962 15.9804C4.11803 15.986 4.1545 15.9748 4.15169 15.9916C4.14328 15.9916 4.13206 15.9916 4.12084 15.9916C4.11803 16.0028 4.12925 16.0028 4.13206 16.0084C4.13767 16.0168 4.13767 16.0252 4.13767 16.0337C4.13767 16.0533 4.14608 16.0701 4.14889 16.0898C4.14889 16.087 4.15169 16.087 4.1545 16.0842C4.16291 16.0842 4.17413 16.0813 4.18535 16.0813C4.18816 16.0954 4.16291 16.0954 4.16011 16.1094C4.16011 16.1206 4.17413 16.1374 4.17694 16.1487C4.18255 16.1627 4.17974 16.1767 4.18535 16.1907C4.18816 16.2048 4.18816 16.2188 4.19377 16.23C4.19657 16.244 4.20499 16.2581 4.20779 16.2721C4.2134 16.2861 4.2106 16.3001 4.2134 16.3142C4.21621 16.331 4.22743 16.3422 4.23023 16.359C4.23023 16.3731 4.22743 16.3899 4.23304 16.3983C4.23304 16.3899 4.23023 16.3787 4.23584 16.3703C4.23865 16.3703 4.24145 16.3703 4.24145 16.3703C4.24145 16.3619 4.24426 16.3562 4.24706 16.3506C4.24706 16.3534 4.24706 16.3534 4.24987 16.3562C4.25828 16.359 4.26389 16.359 4.2667 16.3675C4.2695 16.3759 4.2667 16.3843 4.25828 16.3871C4.25828 16.3955 4.26109 16.4011 4.2667 16.4067C4.25828 16.4039 4.24706 16.4039 4.23865 16.4039C4.23865 16.4151 4.24426 16.4236 4.24426 16.4348C4.25267 16.4348 4.2695 16.4572 4.27511 16.4656C4.27792 16.4741 4.27511 16.4825 4.28072 16.4909C4.28353 16.4993 4.28914 16.5217 4.30316 16.5189C4.30036 16.5021 4.31719 16.5105 4.3228 16.5161C4.33121 16.5273 4.33402 16.5386 4.34243 16.5498C4.31719 16.5498 4.31438 16.5498 4.31438 16.5245C4.31158 16.5245 4.30597 16.5245 4.30316 16.5245C4.30597 16.5442 4.31999 16.5554 4.3256 16.5722C4.33121 16.5806 4.32841 16.5891 4.33402 16.5975C4.33682 16.6059 4.34243 16.6115 4.34524 16.6171C4.34804 16.6255 4.34804 16.6367 4.34804 16.6452C4.34804 16.6508 4.34804 16.6564 4.34804 16.6592C4.35085 16.6648 4.35646 16.6648 4.35646 16.6704C4.36487 16.6844 4.36768 16.7069 4.36768 16.7237C4.37329 16.7153 4.38732 16.7181 4.39573 16.7181C4.39573 16.7069 4.39293 16.6985 4.39293 16.6872C4.40415 16.6957 4.41537 16.7546 4.42939 16.7518C4.41537 16.7546 4.41256 16.7405 4.40134 16.7405C4.40134 16.7377 4.40134 16.7349 4.40134 16.7321C4.38171 16.7265 4.39293 16.7518 4.39012 16.7602C4.38732 16.7602 4.38451 16.7658 4.38171 16.7658C4.38451 16.7742 4.38732 16.7826 4.39012 16.791C4.39012 16.8107 4.39292 16.8191 4.40695 16.8359C4.41817 16.8471 4.42659 16.864 4.435 16.8752C4.44622 16.8864 4.45744 16.8948 4.46866 16.906C4.47427 16.9201 4.4883 16.9257 4.4911 16.9425C4.49391 16.9565 4.4883 16.9734 4.4883 16.9902C4.4911 17.007 4.50513 17.0126 4.50513 17.0295C4.50793 17.0631 4.50793 17.094 4.51074 17.1276C4.51915 17.1304 4.52757 17.1304 4.53598 17.1304C4.53598 17.1248 4.53879 17.122 4.53879 17.1192C4.55562 17.1304 4.56964 17.1389 4.56684 17.1613C4.5444 17.1613 4.53318 17.1529 4.51354 17.1501C4.49391 17.1473 4.47708 17.1529 4.47708 17.1276C4.47708 17.1108 4.47708 17.0968 4.48269 17.0827C4.48549 17.0715 4.49671 17.0575 4.49391 17.0435C4.4911 17.0266 4.46866 17.0407 4.46305 17.0182C4.46025 17.0014 4.46305 16.9874 4.45744 16.9734C4.45183 16.9565 4.44903 16.9425 4.44622 16.9257C4.44342 16.9116 4.435 16.9032 4.42939 16.892C4.42378 16.8836 4.42098 16.8752 4.41537 16.8696C4.40976 16.864 4.40415 16.864 4.40415 16.8527C4.40415 16.906 4.435 16.9453 4.44061 16.9958C4.44342 17.0238 4.44903 17.0491 4.44903 17.0799C4.44903 17.1024 4.45183 17.1276 4.45464 17.1529C4.45744 17.1725 4.46866 17.1921 4.47427 17.2118C4.48269 17.2342 4.47708 17.2539 4.48269 17.2763C4.4883 17.2959 4.49952 17.3184 4.50793 17.3352C4.51915 17.3548 4.52757 17.3773 4.53598 17.3969C4.5444 17.4166 4.5444 17.4418 4.55281 17.4586C4.55562 17.453 4.55562 17.4446 4.55562 17.4362C4.56964 17.4362 4.58367 17.4446 4.58367 17.4614C4.57245 17.4642 4.56123 17.4642 4.55842 17.4727C4.57525 17.4811 4.56964 17.5035 4.57806 17.5147C4.58367 17.5007 4.59208 17.5119 4.59769 17.5063C4.6033 17.5007 4.59769 17.4895 4.60891 17.4839C4.62294 17.4783 4.64258 17.4979 4.64818 17.5091C4.63696 17.5203 4.61733 17.5175 4.60611 17.5316C4.61172 17.5344 4.61733 17.5428 4.62013 17.5428C4.62013 17.5428 4.6033 17.5456 4.59769 17.5428C4.59769 17.5596 4.61172 17.5764 4.62574 17.5792C4.63135 17.582 4.66502 17.5764 4.66502 17.582C4.66782 17.5877 4.66782 17.5961 4.66782 17.6017C4.6594 17.5989 4.65099 17.5989 4.64257 17.5989C4.63977 17.6269 4.69868 17.6802 4.71551 17.7027C4.74075 17.7419 4.77722 17.7756 4.81088 17.8121C4.82771 17.8317 4.83612 17.8485 4.84173 17.871C4.85295 17.899 4.86417 17.8962 4.88942 17.9074C4.90625 17.9158 4.92308 17.9299 4.93149 17.9439C4.94552 17.9635 4.94832 17.9832 4.96796 18C4.9904 18.014 5.02126 18.0252 5.04931 18.0365C5.08858 18.0505 5.12504 18.0701 5.16712 18.0757C5.18395 18.0785 5.20078 18.0785 5.21761 18.0785C5.22322 18.0785 5.23163 18.0813 5.23725 18.0785C5.24005 18.0757 5.24566 18.0645 5.24566 18.0645C5.24847 18.0645 5.24847 18.0645 5.25127 18.0645C5.25408 18.0533 5.25688 18.0365 5.27091 18.0309C5.28213 18.0281 5.30176 18.0309 5.31298 18.0309C5.33262 18.0309 5.34945 18.0224 5.36628 18.014C5.3775 18.0112 5.38591 18.0056 5.39152 17.9944C5.39994 17.9804 5.40555 17.9607 5.41957 17.9523C5.42799 17.9467 5.44482 17.9439 5.45604 17.9411C5.46165 17.9383 5.47006 17.9411 5.47567 17.9383C5.48409 17.9355 5.4925 17.9271 5.50092 17.9243C5.52056 17.9158 5.53458 17.9102 5.54861 17.8934C5.56544 17.8794 5.57385 17.8597 5.58227 17.8401C5.58507 17.8317 5.58788 17.8177 5.59349 17.8093C5.6019 17.8008 5.60751 17.8008 5.61032 17.7868C5.61032 17.7784 5.61312 17.7588 5.60751 17.7504C5.6019 17.7447 5.58227 17.7419 5.57666 17.7504C5.56544 17.7532 5.55141 17.7532 5.53739 17.7504C5.53739 17.7251 5.58788 17.7363 5.60471 17.7363C5.61032 17.7195 5.60751 17.7083 5.61873 17.6942C5.62715 17.6858 5.63556 17.6718 5.63837 17.6606C5.64678 17.6325 5.63837 17.5961 5.63837 17.568C5.64117 17.554 5.64398 17.5203 5.65239 17.5119C5.658 17.5063 5.66922 17.5091 5.67483 17.5063C5.68325 17.5007 5.68605 17.4951 5.69166 17.4895C5.70849 17.4783 5.72532 17.4839 5.73654 17.4727C5.75057 17.4614 5.75618 17.4418 5.7702 17.4334C5.78423 17.4222 5.80667 17.4222 5.8235 17.4194C5.86277 17.4137 5.90485 17.4081 5.94131 17.3913C5.95534 17.3885 5.96095 17.3857 5.97497 17.3857C5.97497 17.3829 5.97778 17.3773 5.97497 17.3745C5.98619 17.3689 6.00583 17.3633 6.01705 17.3633C6.02266 17.352 6.02266 17.3492 6.03388 17.3464C6.04229 17.3408 6.0479 17.3436 6.05912 17.3408C6.08998 17.3352 6.11803 17.324 6.1545 17.3268C6.17694 17.3296 6.19657 17.3352 6.21901 17.3352C6.24145 17.3352 6.26389 17.3352 6.28353 17.338C6.31158 17.3436 6.34524 17.338 6.37048 17.352C6.38171 17.3604 6.39293 17.3689 6.40415 17.3773C6.40415 17.3773 6.40415 17.3801 6.40695 17.3801C6.40976 17.3745 6.40976 17.3661 6.41256 17.3604C6.40976 17.3576 6.40415 17.3576 6.39854 17.3548C6.37329 17.3408 6.3817 17.324 6.3789 17.2987C6.36207 17.2959 6.36207 17.3072 6.35365 17.3156C6.34524 17.324 6.33121 17.324 6.31719 17.3268C6.30036 17.3268 6.28353 17.3184 6.2667 17.3184C6.25267 17.3184 6.24145 17.3156 6.22743 17.3128C6.22182 17.2959 6.20499 17.2959 6.19377 17.2903C6.17694 17.2791 6.16291 17.2735 6.14608 17.2651C6.08156 17.237 6.11803 17.1417 6.13767 17.0968C6.14889 17.0715 6.18255 17.0547 6.19096 17.0266C6.19938 17.0042 6.20779 16.9846 6.23304 16.9734C6.23584 16.9341 6.27231 16.9144 6.29194 16.8864C6.29755 16.8808 6.30316 16.8696 6.31158 16.864C6.31719 16.8555 6.32841 16.8583 6.33402 16.8527C6.35365 16.8359 6.33121 16.8303 6.31719 16.8303C6.31719 16.8135 6.31719 16.7546 6.33682 16.7574C6.33682 16.7461 6.33682 16.7349 6.34243 16.7237C6.35085 16.7125 6.37048 16.6872 6.38171 16.6816C6.39854 16.6732 6.41537 16.6732 6.4322 16.6732C6.46866 16.6732 6.50793 16.69 6.5472 16.69C6.57245 16.69 6.59489 16.6816 6.62013 16.6872C6.62855 16.69 6.63977 16.6957 6.65099 16.6985C6.6594 16.6985 6.67343 16.6985 6.68185 16.6985C6.67343 16.6816 6.65379 16.676 6.63977 16.6732C6.61733 16.6676 6.58928 16.6592 6.56964 16.6564C6.55842 16.6564 6.5472 16.6564 6.53879 16.6564C6.52757 16.6592 6.51635 16.6592 6.50793 16.6592C6.50232 16.6592 6.49391 16.6592 6.4911 16.6592C6.48549 16.6592 6.47988 16.6648 6.47708 16.6648C6.47147 16.6508 6.49391 16.648 6.50513 16.648C6.51635 16.648 6.53037 16.6452 6.54159 16.648C6.55281 16.648 6.56403 16.6508 6.57525 16.6508C6.58647 16.6508 6.59769 16.6424 6.61172 16.6396C6.62294 16.6396 6.63696 16.648 6.64818 16.6536C6.6594 16.662 6.66221 16.662 6.67343 16.662C6.70148 16.6648 6.69026 16.6872 6.69868 16.7041C6.7127 16.6816 6.7127 16.662 6.7127 16.6396C6.7127 16.6003 6.7099 16.561 6.7099 16.5245C6.70429 16.4488 6.69587 16.3759 6.69307 16.3001C6.69026 16.2384 6.69026 16.1739 6.69026 16.1094C6.69026 16.0785 6.68746 16.0393 6.68185 16.0084C6.67904 16.0028 6.67343 16 6.67343 15.9944C6.66782 15.986 6.67343 15.972 6.67343 15.9635C6.67063 15.9495 6.66502 15.9523 6.6594 15.9439C6.63977 15.9158 6.65099 15.8541 6.6566 15.8233C6.66221 15.8008 6.66502 15.7812 6.66502 15.756C6.66502 15.7363 6.66501 15.7083 6.67063 15.6858C6.67343 15.6662 6.68746 15.6466 6.69307 15.6269C6.69587 15.6129 6.69868 15.5989 6.69868 15.5849C6.70148 15.5764 6.70709 15.5596 6.70429 15.554C6.69868 15.54 6.67343 15.5568 6.67343 15.5428C6.67063 15.5316 6.69307 15.5119 6.70429 15.5147C6.7099 15.5175 6.71831 15.54 6.71551 15.54C6.72673 15.54 6.72953 15.5344 6.73234 15.5259C6.73514 15.5231 6.73234 15.5175 6.73234 15.5147C6.73234 15.5091 6.73795 15.5063 6.73795 15.5007C6.74075 15.4895 6.73795 15.4867 6.74356 15.4755C6.74917 15.4698 6.75758 15.4642 6.76319 15.4586C6.78283 15.439 6.80527 15.4222 6.8249 15.4025C6.83332 15.3913 6.83332 15.3857 6.83612 15.3745C6.84173 15.3633 6.85015 15.3576 6.85856 15.3492C6.86417 15.338 6.86698 15.324 6.86417 15.31C6.85856 15.2987 6.85015 15.2987 6.83612 15.2931C6.83051 15.2903 6.8249 15.2819 6.81929 15.2819C6.8249 15.2819 6.83612 15.2819 6.84173 15.2819C6.84734 15.2847 6.85295 15.2903 6.85856 15.2903C6.89222 15.2959 6.92028 15.2006 6.92869 15.1781C6.9371 15.1473 6.94833 15.1332 6.95113 15.1024C6.95113 15.0771 6.94833 15.0491 6.95113 15.0238C6.95113 14.9734 6.99321 14.9425 6.99601 14.8892C6.99601 14.8471 6.99601 14.8022 6.98479 14.7602C6.97638 14.7265 6.94552 14.7125 6.93991 14.6788C6.9343 14.6564 6.9315 14.6508 6.90344 14.6536C6.89783 14.6311 6.87539 14.6143 6.87539 14.5975C6.91466 14.6003 6.86698 14.533 6.86417 14.5217C6.85856 14.4937 6.86417 14.4544 6.86417 14.4264C6.86978 14.4264 6.87539 14.4264 6.881 14.4264C6.881 14.4797 6.92028 14.5217 6.92869 14.575C6.9315 14.5919 6.9371 14.5975 6.94552 14.6115C6.94832 14.6227 6.94552 14.6367 6.94832 14.648C6.95113 14.6592 6.96516 14.6788 6.97918 14.6676C6.9904 14.6564 6.97077 14.648 6.96796 14.6424C6.95955 14.6227 6.97077 14.5947 6.96796 14.5722C6.95955 14.5302 6.94832 14.4909 6.94271 14.446C6.93991 14.4123 6.94272 14.3843 6.9371 14.3534C6.92588 14.3226 6.92027 14.2945 6.91747 14.2609C6.91466 14.23 6.90064 14.2076 6.89783 14.1795C6.88381 14.1739 6.86978 14.1795 6.86417 14.1935C6.85576 14.1655 6.881 14.1683 6.90064 14.1655C6.90344 14.1459 6.90344 14.1403 6.91466 14.1234C6.92308 14.1094 6.9343 14.1038 6.93991 14.0842C6.94552 14.0533 6.94271 14.0168 6.94271 13.9832C6.94271 13.9691 6.94552 13.9551 6.94271 13.9383C6.9371 13.9046 6.91466 13.871 6.90625 13.8345C6.89503 13.7924 6.881 13.7475 6.87539 13.7027C6.86978 13.6606 6.87259 13.6101 6.88942 13.568C6.89503 13.5568 6.90344 13.5456 6.90905 13.5316C6.92027 13.4839 6.92869 13.4222 6.96796 13.3885C7.00443 13.3604 7.00162 13.3156 7.02406 13.2819C7.03809 13.2595 7.05492 13.2286 7.08016 13.2202C7.09699 13.2174 7.11382 13.223 7.12785 13.2202C7.14468 13.2146 7.1559 13.2006 7.16992 13.195C7.16992 13.1921 7.16992 13.1893 7.16992 13.1865C7.20358 13.1641 7.25127 13.1669 7.29335 13.1725C7.29054 13.1921 7.30176 13.209 7.30457 13.2314C7.30457 13.2482 7.29335 13.2847 7.3214 13.2791C7.3214 13.2623 7.3214 13.2426 7.34103 13.237C7.34384 13.2539 7.33542 13.2651 7.33823 13.2819C7.36908 13.2847 7.36347 13.2286 7.36628 13.209C7.37469 13.223 7.36908 13.2539 7.39713 13.2482C7.39994 13.2539 7.39994 13.2567 7.39994 13.2595C7.40274 13.2595 7.40835 13.2595 7.41396 13.2595C7.41396 13.2511 7.41396 13.2426 7.41396 13.2342C7.41677 13.2454 7.42799 13.2482 7.43921 13.2454C7.41677 13.237 7.42518 13.2006 7.43921 13.1865C7.46726 13.1585 7.50092 13.1501 7.51775 13.1108C7.52336 13.094 7.52055 13.0771 7.52897 13.0631C7.53739 13.0463 7.55702 13.0379 7.56544 13.0238C7.58227 13.0042 7.57946 13.0014 7.58227 12.9762C7.58227 12.9341 7.5991 12.9285 7.63837 12.9257C7.66361 12.9201 7.69166 12.9144 7.71971 12.906C7.71971 12.8836 7.68044 12.8808 7.66361 12.8864C7.63837 12.8948 7.63837 12.9144 7.60471 12.9088C7.61032 12.878 7.68605 12.8836 7.7113 12.8836C7.73374 12.8836 7.75337 12.8836 7.77581 12.8892C7.79825 12.8948 7.81509 12.9116 7.83753 12.9144C7.84033 12.9201 7.84033 12.9257 7.84033 12.9285C7.84314 12.9116 7.84033 12.8976 7.84314 12.8808C7.86277 12.8836 7.85716 12.9144 7.85716 12.9313C7.89082 12.9369 7.93009 12.9201 7.96095 12.906C7.99741 12.892 8.01424 12.8668 8.0451 12.8499C8.07595 12.8359 8.11523 12.8303 8.14328 12.8135C8.1573 12.805 8.16572 12.7994 8.17133 12.7854C8.17694 12.7686 8.16852 12.7461 8.18535 12.7321C8.18535 12.7489 8.18535 12.7658 8.18535 12.7798C8.19096 12.7826 8.19377 12.7826 8.19938 12.7798C8.20779 12.777 8.19657 12.7125 8.19938 12.7041C8.20218 12.6844 8.2106 12.6536 8.21621 12.6339C8.22462 12.6115 8.24145 12.6031 8.23584 12.575C8.23584 12.561 8.2106 12.5358 8.19657 12.533C8.19377 12.5386 8.19657 12.5498 8.19657 12.5582C8.19938 12.5582 8.20218 12.5582 8.20779 12.5582C8.20779 12.5835 8.2134 12.6171 8.19938 12.6396C8.14328 12.6536 8.19096 12.5077 8.20218 12.4909C8.21901 12.4656 8.25267 12.46 8.27511 12.446C8.30597 12.4264 8.32841 12.3983 8.35926 12.3787C8.38451 12.3647 8.40415 12.3534 8.41817 12.331C8.44342 12.2917 8.46586 12.2861 8.50793 12.2665C8.54159 12.2497 8.57806 12.23 8.61733 12.2188C8.64257 12.2132 8.66782 12.2076 8.68746 12.1935C8.70709 12.1823 8.7127 12.1599 8.72673 12.1459C8.74075 12.1318 8.76319 12.1262 8.77161 12.1122C8.78002 12.0954 8.78002 12.0701 8.78844 12.0533C8.81088 12.0168 8.84454 11.9916 8.87259 11.9635C8.91747 11.9158 8.97638 11.8962 9.02967 11.8597C9.0437 11.8485 9.05211 11.8373 9.06614 11.8289C9.08016 11.8177 9.09138 11.8121 9.10821 11.8065C9.13346 11.7924 9.16712 11.784 9.18956 11.7616C9.20639 11.7475 9.2148 11.7195 9.24005 11.7139C9.2681 11.7055 9.25408 11.6578 9.26249 11.6438C9.2681 11.6269 9.28774 11.6241 9.30457 11.6157C9.32701 11.6017 9.35506 11.568 9.3803 11.5652C9.38311 11.554 9.39152 11.5428 9.40274 11.5428C9.41396 11.5175 9.42518 11.4923 9.44201 11.4727C9.45323 11.4586 9.46726 11.4502 9.47567 11.4362C9.48409 11.4222 9.48689 11.4109 9.49531 11.3969C9.50933 11.3773 9.52897 11.3548 9.5458 11.3408C9.56824 11.324 9.59068 11.3072 9.60751 11.2847C9.61873 11.2707 9.61312 11.2511 9.62154 11.237C9.63556 11.2034 9.66922 11.1921 9.68325 11.1641C9.69447 11.1445 9.69727 11.1276 9.7113 11.108C9.72532 11.0884 9.73935 11.0603 9.75898 11.0379C9.77581 11.0182 9.80947 11.0154 9.82911 10.9958C9.85155 10.9762 9.84875 10.9593 9.8768 10.9425C9.90485 10.9285 9.91607 10.9116 9.94412 10.9032C9.94692 10.8976 9.94692 10.8948 9.94412 10.8892C9.9329 10.8892 9.92168 10.8864 9.91326 10.8864C9.90485 10.9032 9.88521 10.8948 9.87119 10.9004C9.87399 10.878 9.90204 10.8724 9.91046 10.8583C9.90204 10.8555 9.89363 10.8527 9.88241 10.8499C9.8768 10.8696 9.85997 10.9004 9.84314 10.9144C9.83753 10.9201 9.82911 10.9229 9.8207 10.9285C9.81509 10.9341 9.80948 10.9369 9.79825 10.9369C9.80387 10.9341 9.81228 10.9285 9.8207 10.9285C9.83472 10.9088 9.82631 10.864 9.83472 10.8443C9.83753 10.8359 9.85997 10.8107 9.86558 10.8022C9.89082 10.7798 9.92448 10.7686 9.94973 10.7518C9.98058 10.7293 10.0283 10.6872 10.0619 10.7349C10.0844 10.763 10.0507 10.791 10.0311 10.8079C10.0255 10.8135 9.94973 10.8527 9.94973 10.8499C9.94973 10.8612 9.94973 10.8752 9.94973 10.8892C9.96936 10.892 9.96656 10.8752 9.98058 10.8668C9.9918 10.8612 10.0086 10.8527 10.0227 10.8499C10.0535 10.8415 10.0788 10.8359 10.1068 10.8247C10.1545 10.8022 10.2078 10.7742 10.2583 10.7518C10.3144 10.7293 10.3761 10.7321 10.4322 10.7041C10.4771 10.6816 10.5304 10.6676 10.55 10.6115C10.5556 10.5863 10.5612 10.5498 10.5921 10.5442C10.5977 10.5077 10.6734 10.4881 10.7043 10.4712C10.7211 10.4628 10.752 10.4516 10.7632 10.4404C10.78 10.4236 10.7772 10.3899 10.7744 10.3675C10.7632 10.3675 10.7548 10.3675 10.7436 10.3675C10.7323 10.3114 10.7969 10.2861 10.8389 10.2609C10.881 10.2328 10.9203 10.1851 10.9371 10.1374C10.9315 10.1374 10.9231 10.1374 10.9175 10.1374C10.9034 10.1403 10.9119 10.1487 10.9034 10.1543C10.8978 10.1571 10.8866 10.1543 10.8838 10.1571C10.8782 10.1599 10.8698 10.1683 10.8642 10.1711C10.8473 10.1795 10.8417 10.1795 10.8249 10.1823C10.8081 10.1879 10.8025 10.1964 10.7912 10.2048C10.7912 10.1459 10.8053 10.1403 10.8614 10.1346C10.9287 10.129 10.881 10.0757 10.8614 10.0421C10.8417 10.0112 10.8249 9.97476 10.8165 9.93829C10.8109 9.91585 10.8053 9.82889 10.8305 9.82328C10.8389 9.79523 10.8614 9.76999 10.8838 9.75035C10.9091 9.73072 10.9287 9.69986 10.9539 9.68303C10.9792 9.66901 11.0185 9.65218 11.0465 9.64376C11.0633 9.64095 11.0802 9.63815 11.0942 9.64096C11.1166 9.64376 11.1391 9.66059 11.1615 9.65498C11.1615 9.65498 11.1896 9.60729 11.198 9.59888C11.226 9.58205 11.2372 9.55961 11.2709 9.55119C11.3074 9.53997 11.341 9.54278 11.3523 9.5007C11.3551 9.48387 11.3466 9.47826 11.3579 9.46424C11.3691 9.45021 11.3887 9.44741 11.3999 9.43058C11.4055 9.41936 11.4112 9.40533 11.4168 9.39692C11.4252 9.3885 11.4336 9.3857 11.442 9.37728C11.4504 9.37167 11.4532 9.35484 11.4645 9.34923C11.4813 9.33801 11.4841 9.35484 11.4953 9.3324C11.5093 9.31557 11.4953 9.31557 11.5149 9.30435C11.5262 9.29874 11.5374 9.29593 11.5486 9.29593C11.5486 9.2763 11.5542 9.24825 11.5486 9.22861C11.5458 9.20617 11.5262 9.20056 11.5206 9.18093C11.5767 9.1641 11.5823 9.23703 11.5767 9.27349C11.5738 9.29874 11.5542 9.30435 11.5486 9.32679C11.543 9.34923 11.5598 9.35765 11.571 9.37728C11.5823 9.39131 11.5851 9.39131 11.5879 9.40814C11.5879 9.41375 11.5823 9.43619 11.5879 9.4418C11.6047 9.45582 11.6243 9.42497 11.6328 9.41375C11.644 9.39692 11.644 9.38289 11.6636 9.37448C11.6917 9.36325 11.7029 9.37728 11.7001 9.40253C11.7085 9.40533 11.7197 9.40533 11.7309 9.40253C11.7337 9.36045 11.7309 9.36326 11.773 9.36045C11.7702 9.34643 11.7646 9.30996 11.7674 9.29593C11.773 9.2763 11.7814 9.26508 11.7842 9.24264C11.8123 9.23983 11.8684 9.25105 11.8656 9.20898C11.8908 9.19495 11.902 9.18934 11.9161 9.16129C11.9245 9.14446 11.9133 9.14446 11.9329 9.13605C11.9413 9.13324 11.9638 9.13605 11.9722 9.13885C11.989 9.14727 12.017 9.17251 12.0311 9.18654C12.0395 9.19495 12.0479 9.20617 12.0563 9.21178C12.0535 9.19215 12.0451 9.17251 12.0311 9.15007C12.003 9.108 11.9918 9.08556 11.9918 9.03506C11.9918 8.98457 11.975 8.95933 11.9581 8.91445C11.9497 8.89201 11.9497 8.87518 11.9469 8.85274C11.9441 8.8331 11.9217 8.81066 11.9469 8.80225C11.9469 8.78542 11.9497 8.76578 11.9469 8.74895C11.9413 8.73212 11.9273 8.72931 11.9217 8.7209C11.9161 8.70968 11.9077 8.70126 11.8964 8.70126C11.9048 8.67041 11.8908 8.60309 11.9273 8.58626C11.9329 8.56943 11.9413 8.54699 11.9638 8.5554C11.9525 8.54699 11.8992 8.53296 11.8824 8.53296C11.8487 8.53296 11.8235 8.58906 11.8067 8.54979C11.7954 8.52455 11.8095 8.47686 11.8123 8.45161C11.8151 8.44039 11.8123 8.43198 11.8179 8.42356C11.8207 8.41234 11.8319 8.41515 11.8347 8.40393C11.8403 8.37588 11.8151 8.37868 11.7954 8.36746C11.7758 8.36185 11.7618 8.34783 11.745 8.33661C11.7422 8.331 11.745 8.32258 11.7365 8.31697C11.7281 8.31417 11.7085 8.31697 11.7029 8.31697C11.7001 8.28051 11.6945 8.24124 11.6973 8.20477C11.6973 8.19355 11.6973 8.1655 11.7085 8.15708C11.7225 8.14867 11.7422 8.16269 11.7562 8.15428C11.7702 8.14306 11.7646 8.13745 11.7702 8.12062C11.7814 8.08696 11.8011 8.06452 11.8039 8.03086C11.8067 8.00561 11.7983 7.96073 11.7842 7.92988C11.773 7.92146 11.7618 7.92146 11.7506 7.91866C11.7393 7.91585 11.7281 7.90744 11.7141 7.90463C11.7001 7.90463 11.6861 7.90463 11.6748 7.90183C11.6917 7.90183 11.7085 7.90183 11.7281 7.90183C11.7422 7.90183 11.7562 7.90463 11.7702 7.91024V7.91305C11.773 7.91305 11.773 7.91304 11.7758 7.91585C11.7674 7.90463 11.7618 7.89621 11.7534 7.89341C11.7337 7.87938 11.7085 7.8878 11.6832 7.88499C11.658 7.88219 11.6468 7.87097 11.6243 7.86255C11.6019 7.85414 11.5739 7.85694 11.5486 7.85414C11.5514 7.82889 11.5262 7.81487 11.5037 7.81206C11.4925 7.79243 11.4532 7.78962 11.4364 7.76438C11.428 7.75316 11.428 7.73633 11.4196 7.72511C11.4112 7.71389 11.3831 7.70267 11.3803 7.69145C11.3691 7.6662 11.3887 7.67181 11.3971 7.65498C11.3999 7.64937 11.3971 7.63815 11.3999 7.62974C11.4055 7.62132 11.414 7.61571 11.4196 7.6073C11.4392 7.57644 11.4308 7.54278 11.4336 7.50631C11.4476 7.50631 11.4953 7.5007 11.5065 7.51192C11.5149 7.52034 11.5037 7.53436 11.5149 7.54278C11.5206 7.55119 11.5402 7.54839 11.5486 7.54839C11.5346 7.53717 11.5234 7.52875 11.529 7.50631C11.543 7.50631 11.5598 7.50631 11.5767 7.50631C11.5767 7.46704 11.5682 7.45582 11.6131 7.45302C11.6159 7.41655 11.5963 7.39692 11.6019 7.35765C11.6243 7.34643 11.6636 7.34923 11.6861 7.34643C11.7197 7.34082 11.7506 7.34643 11.7842 7.34362C11.7898 7.31277 11.8403 7.34643 11.8572 7.33521C11.8684 7.32399 11.888 7.24264 11.8824 7.22581C11.8515 7.2202 11.8656 7.25105 11.8516 7.25947C11.8375 7.26508 11.8123 7.24264 11.8011 7.23142C11.7898 7.21459 11.7898 7.19776 11.7814 7.18093C11.773 7.1641 11.7618 7.15007 11.7562 7.13324C11.7393 7.15007 11.7365 7.1641 11.7085 7.17251C11.6804 7.18093 11.6748 7.17812 11.6496 7.1669C11.6187 7.15288 11.5795 7.13885 11.5682 7.09958C11.5654 7.09117 11.571 7.07995 11.5682 7.07153C11.5626 7.06031 11.5458 7.04909 11.5374 7.04068C11.5262 7.02945 11.5121 7.01823 11.4953 7.00982C11.4785 7.00701 11.4645 7.0014 11.4476 6.99579C11.428 6.99018 11.4112 6.9986 11.3887 6.99579C11.3887 6.95652 11.3747 6.87237 11.4224 6.86115C11.4252 6.84152 11.4112 6.83591 11.4055 6.81908C11.4027 6.79664 11.4112 6.78822 11.4224 6.77139C11.442 6.74334 11.4729 6.74614 11.4953 6.72651C11.5177 6.70968 11.5065 6.68443 11.5262 6.6648C11.5374 6.65077 11.5542 6.64516 11.5767 6.64516C11.5823 6.62833 11.571 6.61431 11.5654 6.59748C11.529 6.59467 11.5234 6.59467 11.5065 6.56101C11.4981 6.54418 11.4897 6.53857 11.4925 6.51613C11.4953 6.50211 11.5037 6.4965 11.5037 6.47686C11.5037 6.47967 11.5065 6.49369 11.5065 6.50491C11.5178 6.50211 11.5234 6.50772 11.5318 6.50772C11.5318 6.53016 11.5767 6.5554 11.5963 6.5526C11.5935 6.56101 11.5991 6.57223 11.5963 6.58345C11.6131 6.58345 11.63 6.58345 11.6468 6.58345C11.6468 6.59467 11.6412 6.60309 11.6384 6.6115C11.658 6.61711 11.6748 6.61711 11.6973 6.61711C11.6973 6.63394 11.7029 6.65638 11.6973 6.67041C11.6945 6.69004 11.6748 6.70407 11.6748 6.7237C11.6917 6.72651 11.7057 6.7209 11.7197 6.7209C11.7197 6.74054 11.7169 6.76859 11.7225 6.78261C11.7253 6.76859 11.7281 6.75176 11.7281 6.73492C11.7506 6.72651 11.7253 6.67602 11.7562 6.67882C11.7618 6.69004 11.7646 6.70407 11.7702 6.71248C11.773 6.70687 11.7702 6.68724 11.773 6.68163C11.7898 6.66199 11.7926 6.67602 11.8067 6.68163C11.8179 6.68724 11.8179 6.69565 11.8375 6.69846C11.8487 6.69846 11.8628 6.69846 11.874 6.69565C11.86 6.67882 11.8515 6.65919 11.8375 6.64236C11.8235 6.62272 11.7954 6.6115 11.8039 6.58345C11.8235 6.57223 11.8459 6.57223 11.8656 6.57504C11.8628 6.60589 11.8964 6.59748 11.9077 6.61431C11.9161 6.62553 11.9189 6.65919 11.9189 6.67041C11.9217 6.69565 11.9217 6.70407 11.9301 6.7237C11.9441 6.74895 11.9525 6.75456 11.975 6.76859C12.0086 6.78542 12.0451 6.81347 12.0816 6.81908C12.0984 6.82188 12.1545 6.8303 12.1685 6.81908C12.1713 6.81347 12.1713 6.79383 12.1741 6.78822C12.1797 6.77981 12.191 6.77139 12.1938 6.76017C12.1938 6.75737 12.191 6.74334 12.1938 6.74053C12.2022 6.7209 12.2106 6.72651 12.2274 6.71248C12.2358 6.70407 12.2358 6.69846 12.2499 6.69004C12.3284 6.64516 12.2919 6.80786 12.3368 6.82469C12.3396 6.85835 12.3284 6.88079 12.3284 6.90884C12.3284 6.92006 12.3284 6.92847 12.3284 6.93969C12.3312 6.93128 12.334 6.92567 12.334 6.91725C12.3368 6.92847 12.334 6.93689 12.3312 6.9453C12.334 6.96213 12.3368 6.97896 12.3396 6.99579C12.3424 7.05751 12.3228 7.15007 12.3565 7.20898C12.3761 7.23983 12.4154 7.2202 12.4434 7.21739C12.4827 7.21459 12.4967 7.23983 12.5332 7.25386C12.5528 7.25947 12.5921 7.26227 12.6061 7.26788C12.637 7.2763 12.6538 7.28471 12.6875 7.28471C12.7351 7.28752 12.7912 7.28471 12.8389 7.2763C12.8922 7.26788 12.9483 7.27069 13.0016 7.27069C13.0241 7.27069 13.0465 7.26508 13.0689 7.26508C13.0914 7.26508 13.111 7.28191 13.1335 7.28191C13.1643 7.28191 13.1868 7.25947 13.2176 7.26508C13.2232 7.28191 13.2905 7.28191 13.3102 7.28191C13.3382 7.28471 13.3887 7.30154 13.3971 7.27069C13.3943 7.2763 13.4364 7.29593 13.4448 7.29593C13.4588 7.29874 13.4729 7.29032 13.4869 7.28471C13.5177 7.27349 13.5486 7.26508 13.5823 7.25947C13.6384 7.24825 13.7197 7.24264 13.7506 7.30435C13.773 7.30715 13.8151 7.29593 13.8347 7.30715C13.8516 7.31837 13.8516 7.35204 13.8516 7.37167C13.8684 7.37448 13.888 7.37167 13.8992 7.38289C13.9077 7.39411 13.9105 7.42497 13.902 7.43338C13.8768 7.47265 13.8039 7.40253 13.7674 7.40533C13.7534 7.4446 13.773 7.44741 13.787 7.47546C13.8067 7.51473 13.7786 7.52314 13.759 7.54278C13.7534 7.55961 13.7534 7.57644 13.7534 7.59327C13.7534 7.62132 13.7534 7.62693 13.7365 7.64657C13.7197 7.6662 13.6861 7.68584 13.6861 7.71669C13.6861 7.70267 13.6328 7.73913 13.6243 7.74474C13.5907 7.76999 13.5963 7.81206 13.5626 7.84011C13.5542 7.8317 13.5458 7.81767 13.5346 7.81206C13.5262 7.80645 13.5177 7.80365 13.5065 7.80084C13.4841 7.80084 13.4897 7.81767 13.4757 7.82889C13.4673 7.8345 13.456 7.84011 13.4476 7.84572C13.442 7.84853 13.4336 7.85133 13.428 7.85694C13.4252 7.85975 13.428 7.86536 13.428 7.86816C13.4196 7.87658 13.4055 7.87938 13.3971 7.88499C13.3663 7.90744 13.3326 7.89341 13.299 7.90183C13.2793 7.90463 13.2765 7.91024 13.2681 7.92707C13.2597 7.93829 13.2429 7.94671 13.24 7.96073C13.2344 7.97756 13.2344 7.99439 13.2316 8.01122C13.2316 8.03366 13.2232 8.0533 13.2148 8.07574C13.2064 8.09257 13.1952 8.10659 13.1896 8.12342C13.1868 8.13464 13.1896 8.14306 13.1896 8.15428C13.1868 8.1655 13.1839 8.1683 13.1811 8.17952C13.1783 8.19635 13.1952 8.22441 13.2064 8.23563C13.2204 8.25526 13.2344 8.27209 13.2457 8.29453C13.2485 8.30295 13.2569 8.31136 13.2597 8.31978C13.2597 8.32819 13.2597 8.33941 13.2597 8.34502C13.2597 8.37307 13.2597 8.39551 13.2681 8.42076C13.2765 8.43759 13.2905 8.45442 13.2933 8.47125C13.2933 8.48808 13.2877 8.50491 13.2905 8.52174C13.2933 8.54418 13.3102 8.56382 13.3158 8.58626C13.3466 8.58626 13.3635 8.58626 13.3607 8.5526C13.3607 8.53296 13.3579 8.51052 13.3523 8.49089C13.3438 8.46564 13.341 8.44039 13.3438 8.41234C13.3438 8.3871 13.3579 8.39551 13.3747 8.40673C13.414 8.42917 13.3915 8.47686 13.4055 8.51333C13.414 8.53296 13.428 8.54699 13.442 8.56101C13.4588 8.57504 13.4673 8.58906 13.4785 8.60589C13.4953 8.63114 13.5009 8.62553 13.5177 8.60309C13.529 8.58906 13.543 8.57784 13.5542 8.56101C13.5654 8.54418 13.5851 8.52735 13.5907 8.51052C13.5991 8.49089 13.5935 8.45442 13.5879 8.43759C13.5823 8.41795 13.5682 8.40393 13.5654 8.38429C13.5626 8.37307 13.5654 8.35905 13.5654 8.34502C13.5654 8.31697 13.5739 8.31417 13.5991 8.31417C13.6271 8.31136 13.6271 8.30575 13.6243 8.28331C13.6215 8.25807 13.6215 8.23563 13.6271 8.21599C13.6328 8.20477 13.6356 8.19074 13.6384 8.17672C13.6384 8.17111 13.6384 8.15708 13.6412 8.15428C13.6468 8.14867 13.6861 8.1627 13.6973 8.15989C13.7029 8.14306 13.7141 8.12342 13.7253 8.1122C13.7365 8.10379 13.7337 8.09818 13.7478 8.10659C13.7534 8.1122 13.7562 8.12062 13.759 8.12903C13.7646 8.09818 13.7954 8.08135 13.8263 8.08415C13.8291 8.09257 13.8291 8.09818 13.8319 8.10659C13.8347 8.12623 13.8375 8.14025 13.8487 8.15989C13.8572 8.17672 13.8544 8.19074 13.8516 8.21038C13.8516 8.22441 13.8487 8.24404 13.8572 8.25807C13.8684 8.2749 13.888 8.28051 13.8908 8.30295C13.8992 8.33661 13.8908 8.37868 13.8908 8.41234C13.8908 8.43198 13.888 8.45161 13.888 8.47125C13.888 8.4965 13.8964 8.51052 13.9048 8.53296C13.9133 8.5526 13.9133 8.57504 13.9245 8.59187C13.9329 8.60309 13.9413 8.6115 13.9469 8.62272C13.9638 8.65077 13.9722 8.67882 13.9862 8.70687C13.989 8.71809 13.9918 8.72931 13.9946 8.74053C14.0002 8.75456 14.0086 8.76578 14.0142 8.77981C14.0199 8.79103 14.0227 8.80225 14.0255 8.81347C14.0311 8.83591 14.0451 8.85274 14.0451 8.87518C14.0451 8.92847 14.0563 8.98457 14.0619 9.03787C14.0619 9.0575 14.0816 9.06873 14.0844 9.09117C14.0844 9.1108 14.0844 9.11922 14.1068 9.11361C14.1321 9.10519 14.1208 9.09117 14.1208 9.06873C14.1208 9.0547 14.1152 9.02384 14.1377 9.02384C14.1489 9.02384 14.1489 9.03226 14.1573 9.04067C14.1629 9.04628 14.1713 9.0519 14.1797 9.05751C14.1966 9.07153 14.205 9.08556 14.2134 9.10519C14.219 9.11922 14.219 9.13885 14.2386 9.14166C14.2527 9.14446 14.2723 9.13885 14.2863 9.13605C14.2919 9.11641 14.2919 9.09397 14.306 9.07434C14.32 9.0575 14.334 9.06873 14.3396 9.04629C14.3396 9.02384 14.334 9.00982 14.348 8.99579C14.3705 8.97335 14.3873 9.00982 14.4069 8.9986C14.4098 8.99579 14.4126 8.98457 14.4126 8.98177C14.4182 8.97616 14.4182 8.97335 14.421 8.96774C14.4294 8.94811 14.4126 8.8864 14.435 8.87798C14.435 8.86396 14.4238 8.85554 14.4182 8.84713C14.4098 8.8331 14.4041 8.82749 14.3929 8.81908C14.3733 8.80225 14.3789 8.7742 14.3761 8.75175C14.3733 8.72651 14.3621 8.70126 14.3677 8.67882C14.3789 8.64797 14.3677 8.61711 14.3705 8.58345C14.3508 8.59187 14.3424 8.59187 14.334 8.57223C14.3284 8.55821 14.3228 8.53016 14.3256 8.51613C14.3424 8.50491 14.3452 8.51613 14.3649 8.51894C14.3789 8.52455 14.3957 8.51613 14.4126 8.51613C14.435 8.51613 14.449 8.51613 14.4546 8.49369C14.4574 8.47405 14.4574 8.45723 14.4715 8.44039C14.4771 8.43198 14.4827 8.42637 14.4855 8.41234C14.4939 8.3871 14.4939 8.35905 14.4967 8.3338C14.4995 8.28612 14.5023 8.23843 14.5023 8.19075C14.5023 8.15147 14.4883 8.11501 14.4743 8.07854C14.4602 8.04769 14.4659 8.01683 14.449 7.98878C14.4378 7.96634 14.4154 7.94671 14.4098 7.92427C14.4069 7.91585 14.4041 7.90183 14.4041 7.8906C14.4013 7.87378 14.4013 7.87378 14.3873 7.85975C14.3761 7.84572 14.3677 7.82328 14.3901 7.81767C14.3985 7.81487 14.4238 7.81767 14.4294 7.82328C14.4406 7.8317 14.4322 7.84572 14.4378 7.85694C14.4518 7.87938 14.4799 7.87377 14.4995 7.87097C14.5276 7.86536 14.5584 7.85975 14.5865 7.86255C14.5893 7.84853 14.6005 7.84011 14.6005 7.82328C14.637 7.8345 14.6818 7.92707 14.7183 7.85133C14.7576 7.85694 14.78 7.88219 14.8277 7.87938C14.8249 7.90744 14.8361 7.92707 14.8614 7.93268C14.8838 7.91305 14.8894 7.88499 14.8866 7.85133C14.8922 7.85133 14.895 7.85133 14.9006 7.84853C14.9062 7.74194 14.9231 7.67462 14.9652 7.58485C14.9736 7.56522 14.9736 7.53717 14.9848 7.51753C14.9988 7.49509 15.0185 7.48668 15.0213 7.45863C15.0213 7.43338 15.0325 7.41936 15.0437 7.40253C15.0577 7.38009 15.0689 7.35765 15.0802 7.33521C15.097 7.30154 15.1363 7.26788 15.1447 7.22861C15.1503 7.20337 15.1419 7.18093 15.1503 7.15849C15.1559 7.14166 15.1615 7.12202 15.1475 7.108C15.1363 7.09678 15.1082 7.09678 15.0914 7.09397C15.0802 7.09397 15.0549 7.09117 15.0465 7.07995C15.0381 7.06873 15.0437 7.0547 15.0465 7.04348C15.0493 7.00982 15.0437 6.97335 15.0549 6.93969C15.0661 6.90884 15.0802 6.90884 15.1082 6.90323C15.1194 6.90042 15.1307 6.89762 15.1391 6.89481C15.1587 6.8864 15.1587 6.85274 15.1811 6.84432C15.1811 6.84152 15.1811 6.83871 15.1839 6.83591C15.1924 6.81908 15.1811 6.79664 15.1811 6.777C15.1811 6.75737 15.1783 6.73492 15.1783 6.71248C15.1811 6.69285 15.1952 6.67882 15.2008 6.65919C15.2064 6.63394 15.2232 6.6115 15.24 6.58906C15.2485 6.57784 15.2597 6.57784 15.2681 6.57223C15.2737 6.56382 15.2737 6.54979 15.2765 6.54138C15.2765 6.53016 15.2765 6.51894 15.2765 6.50772C15.2793 6.49369 15.2849 6.47967 15.2905 6.46845C15.2961 6.446 15.2905 6.42076 15.2877 6.39832C15.2849 6.3871 15.2877 6.36746 15.2765 6.36185C15.2709 6.35905 15.2569 6.36185 15.2513 6.36185C15.2513 6.34783 15.2513 6.33661 15.2457 6.32539C15.2372 6.30575 15.226 6.2777 15.24 6.25526C15.2429 6.24965 15.2485 6.24965 15.2513 6.24404C15.2569 6.23563 15.2597 6.22441 15.2653 6.21599C15.2737 6.19916 15.2877 6.18233 15.3018 6.1683C15.3158 6.15428 15.3298 6.14025 15.3494 6.13464C15.3635 6.13464 15.3831 6.13745 15.3943 6.13184C15.3943 6.09537 15.428 6.07574 15.442 6.04488C15.4504 6.02525 15.4701 6.00842 15.4869 6.00561C15.5037 6.00281 15.5037 6.00281 15.5177 5.9972C15.5262 5.99159 15.5318 5.98878 15.5402 5.98317C15.5739 5.95512 15.5795 5.89902 15.6271 5.89622C15.6608 5.89341 15.6636 5.88219 15.6748 5.85133C15.6889 5.81487 15.7281 5.75596 15.7618 5.73352C15.773 5.72791 15.7898 5.72511 15.8011 5.7195C15.8151 5.71108 15.8375 5.70547 15.8544 5.69986C15.8628 5.69986 15.8768 5.69986 15.8852 5.69986C15.8964 5.69425 15.9048 5.68303 15.9161 5.68023C15.9329 5.67462 15.9581 5.67462 15.975 5.6662C15.9974 5.65779 15.989 5.63535 16.003 5.61852C16.0058 5.62974 16.017 5.64096 16.0283 5.64096C16.0479 5.64657 16.0395 5.63535 16.0535 5.62693C16.0675 5.61852 16.0956 5.61852 16.1068 5.62413C16.1152 5.62974 16.118 5.63815 16.1264 5.64376C16.1349 5.64937 16.1461 5.64937 16.1517 5.65779C16.1657 5.67181 16.1601 5.69425 16.1601 5.71108C16.1938 5.71389 16.2162 5.72791 16.2443 5.74194C16.2555 5.74755 16.2779 5.76438 16.2919 5.76157C16.3032 5.75596 16.3032 5.73633 16.32 5.73072C16.3172 5.70828 16.2863 5.68023 16.2723 5.6634C16.2639 5.65218 16.2555 5.64657 16.2499 5.63254C16.2443 5.62974 16.2218 5.6101 16.2218 5.6101C16.219 5.60168 16.2078 5.59608 16.2022 5.58766C16.1994 5.57924 16.1994 5.57363 16.191 5.56802C16.1882 5.56241 16.1685 5.56241 16.1685 5.55961C16.1573 5.53717 16.1236 5.42216 16.1657 5.42497C16.1741 5.41094 16.1854 5.38289 16.2022 5.38289C16.2162 5.35204 16.2835 5.32118 16.2779 5.27349C16.2919 5.26508 16.3032 5.25386 16.3256 5.25105C16.3452 5.25105 16.3649 5.25666 16.3817 5.25386C16.3845 5.23142 16.3761 5.19495 16.3873 5.17532C16.3677 5.18373 16.3705 5.18373 16.3733 5.18373Z" fill="#C18948"/>
</g>
</svg>
