<svg width="53" height="47" viewBox="0 0 53 47" fill="none" xmlns="http://www.w3.org/2000/svg">
<mask id="mask0_1_103309" style="mask-type:luminance" maskUnits="userSpaceOnUse" x="0" y="0" width="53" height="47">
<path d="M0.458496 0.723999H52.3908V46.6615H0.458496V0.723999Z" fill="white"/>
</mask>
<g mask="url(#mask0_1_103309)">
<path fill-rule="evenodd" clip-rule="evenodd" d="M27.5729 32.8126V35.5938L29.9375 36.4584V33.6772L27.5729 32.8126ZM27.5729 27.3803V30.1615L29.9375 31.0261V28.2449L27.5729 27.3803ZM39.3646 24.1459L34.1771 27.5157V41.4272C35.9427 41.6303 37.6719 41.8959 39.3646 42.2345V24.1459ZM27.5729 21.948V24.7292L29.9375 25.5938V22.8126L27.5729 21.948ZM12.8542 21.1667L7.66667 24.5417V43.8334C9.32292 43.3022 11.0573 42.8386 12.8542 42.4584V21.1667ZM32.2708 18.2397V21.0209L34.6302 21.8855V19.1095L32.2708 18.2397ZM27.5729 16.5157V19.3022L29.9375 20.1667V17.3855L27.5729 16.5157ZM32.2708 12.8074V15.5938L34.6302 16.4532V13.6772L32.2708 12.8074ZM27.5729 11.0834V13.8699L29.9375 14.7345V11.948L27.5729 11.0834ZM32.2708 7.37508V10.1615L34.6302 11.0261V8.24487L32.2708 7.37508ZM27.5729 5.65112V8.43758L29.9375 9.30217V6.51571L27.5729 5.65112ZM24.4427 2.98446L19.25 6.35425V41.4115C20.9635 41.2292 22.6979 41.1095 24.4427 41.0574V2.98446ZM25.526 0.979248L36.6458 5.05737V22.2501L31.4948 25.6042V41.198C32.026 41.224 32.5573 41.2657 33.0885 41.3126V26.922L40.4531 22.1407L46.7292 26.2188V44.1876C48.9323 44.9532 50.9792 45.8334 52.8333 46.8282H0.46875C2.32292 45.8438 4.375 44.9636 6.57292 44.2084V23.948L13.9375 19.1615L18.1615 21.9063V5.77092L25.526 0.979248Z" fill="#C18948"/>
</g>
</svg>
