<svg width="6" height="7" viewBox="0 0 6 7" fill="none" xmlns="http://www.w3.org/2000/svg">
<mask id="mask0_79_312373" style="mask-type:luminance" maskUnits="userSpaceOnUse" x="0" y="0" width="6" height="7">
<path d="M0.0229492 0.754395H5.21506V6.64877H0.0229492V0.754395Z" fill="white"/>
</mask>
<g mask="url(#mask0_79_312373)">
<path d="M2.08422 1.18091C1.68013 0.776819 1.02335 0.776819 0.618109 1.18091C0.212295 1.58557 0.212295 2.24178 0.618109 2.64759C1.0222 3.05341 1.67898 3.05341 2.08422 2.64759C2.49003 2.24178 2.49003 1.58557 2.08422 1.18091ZM1.04177 2.14795C1.03486 2.08118 1.1379 2.07082 1.14308 2.13874C1.15632 2.27401 1.3762 2.34136 1.50226 2.23832C1.53853 2.21012 1.5604 2.16983 1.5604 2.12723C1.5604 1.86359 1.03889 2.07715 1.03889 1.70127C1.03889 1.56082 1.1615 1.46066 1.29792 1.44109V1.34726C1.29792 1.31733 1.32094 1.29545 1.35203 1.29545C1.38138 1.29545 1.40326 1.31906 1.40326 1.34841L1.40096 1.44109C1.53853 1.46066 1.66229 1.56082 1.66229 1.70242C1.66229 1.77092 1.55925 1.77092 1.55925 1.70242C1.55925 1.55967 1.33015 1.48368 1.19891 1.5919C1.1638 1.62011 1.14077 1.65982 1.14077 1.70242C1.14077 1.96663 1.66229 1.7525 1.66229 2.12896C1.66229 2.26883 1.53968 2.36957 1.40211 2.38856L1.40096 2.48296C1.40096 2.54974 1.29792 2.54974 1.29792 2.48296V2.38856C1.17013 2.36841 1.05328 2.27804 1.04177 2.14795ZM4.64516 1.16191C4.22956 0.747462 3.55609 0.747462 3.14164 1.16191C2.72546 1.57751 2.72546 2.25099 3.14164 2.66544C3.55609 3.08046 4.22956 3.08046 4.64516 2.66544C5.05961 2.24984 5.05961 1.57636 4.64516 1.16191ZM3.46226 1.39331C3.28842 1.41288 3.2251 1.6345 3.36153 1.74386C3.49795 1.85208 3.69999 1.74099 3.67984 1.56715C3.66833 1.45778 3.57048 1.38065 3.46226 1.39331ZM3.24985 1.40252C3.41563 1.19415 3.75295 1.29085 3.78288 1.55448C3.81339 1.81985 3.50716 1.98966 3.29878 1.8233C3.16697 1.72084 3.14682 1.53261 3.24985 1.40252ZM4.06724 2.05125C4.23302 1.84287 4.56918 1.94073 4.60027 2.20494C4.61926 2.36957 4.50126 2.5175 4.33605 2.53707C4.07127 2.56643 3.89973 2.26135 4.06724 2.05125ZM4.1484 2.11341C4.14725 2.11457 4.14552 2.11572 4.14437 2.11687C4.07875 2.19573 4.09429 2.32812 4.17546 2.39029C4.32569 2.50484 4.51507 2.38108 4.49608 2.21472C4.47766 2.04376 4.25892 1.97814 4.1484 2.11341ZM3.49277 2.49966C3.47492 2.52153 3.44269 2.52498 3.42081 2.50829C3.39894 2.49045 3.39491 2.45821 3.41333 2.43634L4.29403 1.32769C4.31188 1.30582 4.34411 1.30236 4.36599 1.31906C4.38786 1.3369 4.39189 1.36913 4.37462 1.39101L3.49277 2.49966ZM1.22424 3.38036L0.756834 3.21688C0.699272 3.19616 0.635953 3.22667 0.616958 3.28365L0.044789 4.91497C0.0246422 4.97138 0.0551502 5.0347 0.112137 5.05542L0.579542 5.2189C0.635953 5.23904 0.700423 5.20854 0.719419 5.15155L1.29159 3.52024C1.31058 3.46382 1.28123 3.40051 1.22424 3.38036ZM1.36584 3.61982L0.840875 5.11701L1.09588 5.30236C1.62602 5.82388 1.71122 5.93555 2.22467 6.44958C2.45147 6.67637 2.74388 6.42368 2.65236 6.28725L2.23503 5.88835C2.1861 5.84057 2.25806 5.76689 2.30583 5.81352L2.77727 6.26423C2.77957 6.26653 2.78245 6.26941 2.7836 6.27171L2.87743 6.35575C2.98564 6.45361 3.17099 6.35057 3.22798 6.22911C3.25216 6.17673 3.25101 6.12147 3.20611 6.07485L2.73467 5.62298C2.68574 5.57636 2.75655 5.5021 2.80547 5.5493L3.27691 6.00002C3.43348 6.15198 3.72992 5.84575 3.58026 5.69781C3.58026 5.69609 3.57911 5.69609 3.57911 5.69494L3.10652 5.24307C3.0576 5.19702 3.1284 5.12219 3.17733 5.16824L3.64991 5.62068C3.65106 5.62183 3.65279 5.62183 3.65394 5.62298C3.80591 5.77495 4.08623 5.47102 3.96938 5.35417L3.31548 4.70372C3.1094 4.49764 2.9252 4.4349 2.70244 4.58514C2.39851 4.79121 2.12048 4.77049 1.93916 4.67148C1.8344 4.61507 1.74172 4.51952 1.72158 4.40785C1.70316 4.31747 1.73424 4.23228 1.82576 4.17817L2.39333 3.84086L1.36584 3.61982ZM4.41607 5.07557L3.90606 3.61982C3.59465 3.67623 2.66099 3.80114 2.55565 3.86791L2.54644 3.87597L2.5286 3.88863L1.88102 4.27373C1.7895 4.32783 1.81943 4.42569 1.87584 4.49534C1.90405 4.52988 1.94262 4.56211 1.99039 4.58802C2.14351 4.67148 2.38297 4.68587 2.64833 4.50685C2.91369 4.32668 3.14912 4.39576 3.39146 4.63694L4.035 5.27646L4.41607 5.07557ZM4.51392 3.21688L4.04652 3.38036C3.99011 3.40051 3.95902 3.46382 3.97974 3.52024L4.52659 5.08075C4.54846 5.13658 4.55134 5.18666 4.60775 5.21372C4.63365 5.22523 4.66301 5.22753 4.69179 5.2189L5.15919 5.05542C5.21676 5.0347 5.24669 4.97138 5.22597 4.91497L4.65437 3.28365C4.6348 3.22667 4.57206 3.19731 4.51392 3.21688Z" fill="#C18948"/>
</g>
</svg>
