<svg width="7" height="7" viewBox="0 0 7 7" fill="none" xmlns="http://www.w3.org/2000/svg">
<mask id="mask0_79_348550" style="mask-type:luminance" maskUnits="userSpaceOnUse" x="0" y="0" width="7" height="7">
<path d="M0.692871 0.294434H6.65919V6.29684H0.692871V0.294434Z" fill="white"/>
</mask>
<g mask="url(#mask0_79_348550)">
<path d="M3.76513 2.29693V4.19669C3.76513 4.25042 3.72183 4.29292 3.6681 4.29292C3.61517 4.29292 3.57187 4.25042 3.57187 4.19669V2.29693C3.57187 2.244 3.61517 2.2007 3.6681 2.2007C3.72183 2.2007 3.76513 2.244 3.76513 2.29693ZM3.16208 2.92484C3.23426 2.99701 3.27034 3.09164 3.27034 3.18626C3.27034 3.28089 3.23426 3.37552 3.16208 3.44769C3.08991 3.51986 2.99528 3.55595 2.90066 3.55595C2.80603 3.55595 2.7114 3.51986 2.63923 3.44769C2.56706 3.37552 2.53097 3.28089 2.53097 3.18626C2.53097 3.09164 2.56706 2.99701 2.63923 2.92564C2.7114 2.85347 2.80603 2.81658 2.90066 2.81658C2.99528 2.81658 3.08991 2.85266 3.16208 2.92484ZM3.07628 3.18626C3.07628 3.14136 3.05944 3.09645 3.02496 3.06197C2.99127 3.02748 2.94556 3.01064 2.90066 3.01064C2.85575 3.01064 2.81084 3.02748 2.77636 3.06197C2.74188 3.09645 2.72423 3.14136 2.72423 3.18626C2.72423 3.23117 2.74188 3.27608 2.77636 3.31056C2.81084 3.34504 2.85575 3.36189 2.90066 3.36189C2.94556 3.36189 2.99047 3.34504 3.02496 3.31056C3.05944 3.27608 3.07628 3.23117 3.07628 3.18626ZM4.17491 3.56878C4.10274 3.49661 4.06666 3.40198 4.06666 3.30735C4.06666 3.21273 4.10274 3.1181 4.17491 3.04673V3.04593C4.24709 2.97375 4.34172 2.93767 4.43634 2.93767C4.53017 2.93767 4.62479 2.97375 4.69697 3.04593H4.69777C4.76994 3.1181 4.80603 3.21273 4.80603 3.30735C4.80603 3.40118 4.76994 3.49581 4.69777 3.56798V3.56878L4.69135 3.5744C4.61998 3.64256 4.52856 3.67624 4.43634 3.67624V3.67704C4.34172 3.67704 4.24789 3.64096 4.17572 3.56878H4.17491ZM4.25992 3.30735C4.25992 3.35226 4.27756 3.39717 4.31124 3.43165C4.34572 3.46614 4.39063 3.48378 4.43634 3.48378C4.47884 3.48378 4.52295 3.46774 4.55663 3.43646L4.56064 3.43245C4.59512 3.39797 4.61196 3.35306 4.61196 3.30735C4.61196 3.26245 4.59512 3.21754 4.56064 3.18306C4.52616 3.14857 4.48125 3.13173 4.43634 3.13173C4.39143 3.13173 4.34653 3.14938 4.31204 3.18306C4.27676 3.21754 4.25992 3.26245 4.25992 3.30735ZM6.6705 4.14617L4.52135 6.29533C4.48366 6.33382 4.42191 6.33382 4.38422 6.29533L1.73065 3.64176C1.71541 3.62652 1.70579 3.60808 1.70338 3.58803L1.35294 2.03229C1.34573 1.99781 1.35695 1.96413 1.38021 1.94168L1.56064 1.76205C1.48366 1.69629 1.40587 1.62492 1.32808 1.54713C1.10114 1.32019 0.919903 1.08602 0.811643 0.891156C0.685741 0.665013 0.656872 0.476561 0.753905 0.379528C0.838107 0.295326 0.985661 0.303345 1.16529 0.385943C1.29039 0.44288 1.43714 0.536705 1.59192 0.658597L1.59913 0.664211C1.70499 0.748413 1.81485 0.846248 1.92311 0.954508C1.97123 1.00262 2.02014 1.05475 2.06826 1.10768C2.09151 1.13334 2.11397 1.1598 2.13642 1.18546L2.31766 1.00423C2.34172 0.980169 2.3762 0.971348 2.40747 0.978565L3.96962 1.32981C3.98807 1.33382 4.0041 1.34344 4.01694 1.35547L6.6705 4.00904C6.70819 4.04673 6.70819 4.10848 6.6705 4.14617ZM1.69777 1.62492L1.99929 1.32259C1.97524 1.29452 1.95038 1.26646 1.92471 1.23679C1.88141 1.18867 1.8349 1.13975 1.78598 1.09083C1.57026 0.875117 1.35214 0.705911 1.17331 0.606472L1.12359 0.579207L1.0851 0.560763C1.0017 0.523072 0.939149 0.503826 0.907874 0.508638C0.901459 0.510242 0.895845 0.512647 0.891836 0.516657L0.887024 0.521468C0.866174 0.556753 0.903063 0.658598 0.980047 0.79733C1.07949 0.97616 1.24949 1.19428 1.46521 1.41C1.543 1.48779 1.62079 1.55996 1.69777 1.62492ZM6.46521 4.078L3.89905 1.51185L2.41629 1.17824L2.19817 1.39637C2.19817 1.39717 2.19737 1.39717 2.19737 1.39797L1.84933 1.74521C1.93033 1.80535 2.00731 1.85587 2.07788 1.89517C2.08029 1.89677 2.08269 1.89757 2.0851 1.89917C2.10354 1.85908 2.12921 1.82059 2.16208 1.78771V1.78691C2.21822 1.73077 2.28799 1.69629 2.36016 1.68346C2.36417 1.68105 2.36738 1.67945 2.37058 1.67784C2.39625 1.66742 2.42351 1.66742 2.44677 1.67784C2.53658 1.68185 2.62479 1.71874 2.69376 1.78691C2.76674 1.86068 2.80362 1.95691 2.80362 2.05314C2.80362 2.14938 2.76674 2.24561 2.69376 2.31858C2.61998 2.39236 2.52375 2.42925 2.42832 2.42925C2.33209 2.42925 2.23586 2.39236 2.16208 2.31858L2.15647 2.31217C2.09873 2.25202 2.06505 2.17744 2.05543 2.10046C2.03217 2.08923 2.00892 2.0772 1.98406 2.06357C1.89985 2.01706 1.80763 1.95611 1.7114 1.88314L1.55342 2.04192L1.88702 3.52468L4.45238 6.09003L6.46521 4.078ZM2.29921 1.92403C2.28237 1.94088 2.26954 1.96012 2.26072 1.98017C2.31044 1.99701 2.34492 1.99942 2.35936 1.98498C2.36257 1.98097 2.36417 1.96894 2.36257 1.9497C2.36176 1.93125 2.35775 1.9104 2.35134 1.88795C2.33209 1.89677 2.31445 1.9088 2.29921 1.92403ZM2.2936 2.17664C2.2944 2.17744 2.2944 2.17744 2.2944 2.17824L2.29921 2.18225C2.3345 2.21754 2.38101 2.23518 2.42752 2.23518C2.47483 2.23518 2.52135 2.21754 2.55663 2.18225C2.59192 2.14617 2.61036 2.09966 2.61036 2.05314C2.61036 2.00663 2.59192 1.95932 2.55663 1.92403C2.55583 1.92323 2.55503 1.92243 2.55423 1.92163C2.55503 1.92724 2.55583 1.93205 2.55583 1.93767C2.56064 2.01305 2.54139 2.0756 2.49649 2.12131L2.49408 2.12291C2.44677 2.16942 2.3778 2.18626 2.2936 2.17664ZM4.38021 5.26004C4.4187 5.29853 4.47965 5.29853 4.51734 5.26004L5.63442 4.14376C5.67211 4.10607 5.67211 4.04432 5.63442 4.00663C5.59593 3.96894 5.53498 3.96894 5.49729 4.00663L4.38021 5.12371C4.34252 5.1614 4.34252 5.22235 4.38021 5.26004ZM4.16128 4.93687L5.27836 3.81978C5.31605 3.78209 5.31605 3.72115 5.27836 3.68346C5.24067 3.64577 5.17892 3.64577 5.14123 3.68346L4.02496 4.79974C3.98726 4.83743 3.98726 4.89918 4.02496 4.93687C4.06265 4.97456 4.12359 4.97456 4.16128 4.93687Z" fill="#1B243D"/>
</g>
</svg>
