<svg width="28" height="30" viewBox="0 0 28 30" fill="none" xmlns="http://www.w3.org/2000/svg">
<mask id="mask0_1_108472" style="mask-type:luminance" maskUnits="userSpaceOnUse" x="0" y="0" width="28" height="30">
<path d="M0.171265 0.763245H27.2342V29.7557H0.171265V0.763245Z" fill="white"/>
</mask>
<g mask="url(#mask0_1_108472)">
<path d="M26.7405 15.4736C26.7456 16.8791 26.529 18.2494 26.1007 19.5844C25.6675 20.9194 25.0378 22.1537 24.2116 23.2872C23.3854 24.4257 22.403 25.403 21.2695 26.2242C20.131 27.0504 18.8917 27.6751 17.5567 28.1033L16.9723 26.2998C18.1209 25.932 19.1788 25.393 20.1562 24.6877C21.1285 23.9874 21.9698 23.1461 22.6801 22.1738C23.3854 21.2015 23.9244 20.1436 24.2972 18.995C24.665 17.8514 24.8514 16.6776 24.8463 15.4736C24.8463 9.85139 20.7405 5.17129 15.3703 4.26449V5.05039C15.3703 5.24182 15.2897 5.37784 15.1184 5.46852C14.9521 5.5592 14.7909 5.54913 14.6348 5.44333L11.7884 3.54913C11.7229 3.50882 11.6725 3.44837 11.6373 3.37784C11.597 3.30731 11.5819 3.23678 11.5819 3.15618C11.5819 3.07558 11.597 3.00001 11.6373 2.93452C11.6725 2.86399 11.7229 2.80353 11.7884 2.76323L14.6348 0.863988C14.7909 0.763233 14.9521 0.753156 15.1184 0.843837C15.2897 0.934518 15.3703 1.07054 15.3703 1.26197V2.3451C21.7934 3.26701 26.7405 8.80353 26.7405 15.4736ZM15.1587 27.403L12.3174 25.5038C12.1612 25.403 11.995 25.393 11.8287 25.4836C11.6625 25.5693 11.5819 25.7103 11.5819 25.9018V26.6877C10.9219 26.5819 10.2771 26.4156 9.64735 26.1889C9.01763 25.9673 8.41309 25.6902 7.83375 25.3627C7.2544 25.0353 6.71032 24.6574 6.19647 24.2292C5.68261 23.801 5.20906 23.3375 4.78085 22.8237C4.3476 22.3149 3.96473 21.7708 3.63224 21.1965C3.2947 20.6171 3.01259 20.0176 2.78589 19.3879C2.55919 18.7632 2.3879 18.1184 2.27203 17.4635C2.15616 16.8035 2.10075 16.1436 2.10075 15.4736C2.10075 10.733 5.09319 6.44585 9.53652 4.80353L8.88161 3.0252C3.69269 4.93956 0.206543 9.94207 0.206543 15.4736C0.206543 16.2695 0.272034 17.0554 0.413092 17.8312C0.549113 18.6121 0.755661 19.3728 1.03274 20.1184C1.30982 20.8589 1.64735 21.5693 2.05037 22.2544C2.45339 22.9345 2.91687 23.5743 3.43072 24.1738C3.94962 24.7733 4.51889 25.3174 5.13853 25.8161C5.75314 26.3149 6.40806 26.7481 7.10327 27.131C7.79848 27.5088 8.52392 27.8212 9.27455 28.068C10.0252 28.3199 10.796 28.4962 11.5819 28.6071V29.6902C11.5819 29.8816 11.6625 30.0176 11.8287 30.1083C11.995 30.199 12.1612 30.1889 12.3174 30.0831L15.1587 28.1889C15.2242 28.1436 15.2796 28.0882 15.3149 28.0176C15.3501 27.9471 15.3703 27.8766 15.3703 27.796C15.3703 27.7154 15.3501 27.6398 15.3149 27.5743C15.2796 27.5038 15.2242 27.4433 15.1587 27.403ZM9.20906 13.5794C9.20906 13.2015 9.28463 12.8388 9.42569 12.4912C9.57178 12.1436 9.77833 11.8363 10.0453 11.5693C10.3123 11.3023 10.6196 11.1008 10.9672 10.9547C11.3149 10.8086 11.6776 10.738 12.0554 10.738H12.529V9.31739H14.4232V10.738H16.7909V12.6322H14.4232V14.5265H14.8967C15.2746 14.5265 15.6373 14.602 15.9849 14.7431C16.3325 14.8892 16.6398 15.0957 16.9068 15.3627C17.1738 15.6297 17.3803 15.937 17.5214 16.2846C17.6675 16.6322 17.738 16.995 17.738 17.3728C17.738 17.7506 17.6675 18.1134 17.5214 18.461C17.3803 18.8086 17.1738 19.1159 16.9068 19.3829C16.6398 19.6499 16.3325 19.8514 15.9849 19.9975C15.6373 20.1436 15.2746 20.2141 14.8967 20.2141H14.4232V21.6348H12.529V20.2141H10.1562V18.3199H12.529V16.4257H12.0554C11.6776 16.4207 11.3149 16.3501 10.9672 16.204C10.6196 16.063 10.3123 15.8564 10.0453 15.5894C9.77833 15.3224 9.57178 15.0151 9.42569 14.6675C9.28463 14.3199 9.20906 13.9572 9.20906 13.5794ZM14.4232 18.3199H14.8967C15.1587 18.3199 15.3803 18.2242 15.5667 18.0428C15.7531 17.8564 15.8438 17.6348 15.8438 17.3728C15.8438 17.1108 15.7531 16.8841 15.5667 16.7028C15.3803 16.5164 15.1587 16.4257 14.8967 16.4257H14.4232V18.3199ZM11.1083 13.5794C11.1083 13.8413 11.199 14.063 11.3854 14.2494C11.5667 14.4358 11.7934 14.5265 12.0554 14.5265H12.529V12.6322H12.0554C11.7934 12.6322 11.5667 12.728 11.3854 12.9093C11.199 13.0957 11.1083 13.3174 11.1083 13.5794ZM8.55415 9.10076C8.65491 9.02016 8.71536 8.91437 8.73551 8.78338C8.75062 8.6524 8.71536 8.53653 8.63979 8.43578C8.55919 8.32998 8.45339 8.26953 8.32241 8.25442C8.19143 8.2393 8.07556 8.26953 7.97481 8.35013C7.45088 8.75316 6.97732 9.20656 6.55415 9.71537C6.13098 10.2242 5.76826 10.7733 5.46599 11.3627C5.16372 11.9471 4.93198 12.5617 4.76574 13.2015C4.59949 13.8413 4.50377 14.4912 4.47858 15.1511C4.45339 15.8111 4.50377 16.466 4.62468 17.1159C4.74559 17.7658 4.93199 18.3955 5.19395 19C5.45088 19.6096 5.77329 20.1839 6.15617 20.7179C6.54408 21.2569 6.98236 21.7456 7.47103 22.1839C7.57178 22.2746 7.68261 22.3149 7.8136 22.3048C7.94458 22.2998 8.05541 22.2443 8.14105 22.1486C8.23173 22.0529 8.27203 21.937 8.26196 21.8061C8.25692 21.6751 8.20151 21.5693 8.10579 21.4786C7.66246 21.0857 7.27455 20.6474 6.92695 20.1688C6.58438 19.6851 6.29722 19.1763 6.06549 18.6322C5.83375 18.0882 5.66246 17.5239 5.55667 16.9446C5.44584 16.3602 5.40554 15.7758 5.42569 15.1864C5.44584 14.5919 5.53148 14.0126 5.68261 13.4383C5.82871 12.869 6.0403 12.3199 6.31234 11.7909C6.57934 11.267 6.9068 10.7783 7.28463 10.3249C7.66246 9.86651 8.08564 9.45845 8.55415 9.10076ZM21.5315 15.4736C21.5315 19.9169 17.9194 23.529 13.4761 23.529C12.5542 23.534 11.6574 23.3778 10.7909 23.0705C10.665 23.0252 10.5441 23.0302 10.4181 23.0857C10.2972 23.1411 10.2166 23.2317 10.1713 23.3577C10.1259 23.4836 10.136 23.6045 10.1914 23.7255C10.2519 23.8464 10.3476 23.927 10.4735 23.9673C11.4458 24.3098 12.4433 24.4811 13.4761 24.4811C18.4383 24.4811 22.4786 20.4408 22.4786 15.4736C22.4786 15.3426 22.4332 15.2317 22.3375 15.1411C22.2468 15.0504 22.136 15 22.005 15C21.8741 15 21.7632 15.0504 21.6675 15.1411C21.5768 15.2317 21.5315 15.3426 21.5315 15.4736ZM11.2393 7.73553C11.7078 7.5995 12.1864 7.50883 12.67 7.45845C13.1587 7.41311 13.6473 7.40807 14.131 7.44837C14.6196 7.48867 15.0982 7.57432 15.5718 7.70026C16.0453 7.82621 16.4987 7.99749 16.9421 8.20908C17.3854 8.41563 17.8035 8.66751 18.1965 8.95467C18.5945 9.23678 18.9622 9.5592 19.2997 9.91185C19.6373 10.2645 19.9395 10.6474 20.2116 11.0554C20.4786 11.4635 20.7103 11.8917 20.8967 12.3451C20.9521 12.461 21.0378 12.5466 21.1587 12.5919C21.2796 12.6423 21.4005 12.6423 21.5164 12.5919C21.6373 12.5416 21.7229 12.4559 21.7733 12.335C21.8186 12.2141 21.8186 12.0932 21.7733 11.9723C21.5567 11.4736 21.2997 10.9899 21.0025 10.5365C20.7002 10.0781 20.3627 9.64988 19.9849 9.25694C19.607 8.86399 19.199 8.50631 18.7557 8.18389C18.3123 7.86651 17.8438 7.58439 17.3501 7.35265C16.8564 7.11588 16.3476 6.92948 15.8186 6.78338C15.2897 6.64233 14.7557 6.54661 14.2116 6.50127C13.6675 6.46097 13.1234 6.46097 12.5793 6.51638C12.0353 6.5718 11.5013 6.67255 10.9723 6.82369C10.8514 6.85895 10.7557 6.93452 10.6902 7.05039C10.6297 7.16626 10.6146 7.28716 10.6499 7.41311C10.6851 7.53905 10.7607 7.62973 10.8766 7.69522C10.9924 7.75568 11.1133 7.77079 11.2393 7.73553Z" fill="#C28848"/>
</g>
</svg>
