<svg width="7" height="7" viewBox="0 0 7 7" fill="none" xmlns="http://www.w3.org/2000/svg">
<mask id="mask0_79_312366" style="mask-type:luminance" maskUnits="userSpaceOnUse" x="0" y="0" width="7" height="7">
<path d="M0.910156 0.618408H6.41023V6.14208H0.910156V0.618408Z" fill="white"/>
</mask>
<g mask="url(#mask0_79_312366)">
<path d="M3.48054 0.618896C3.45464 0.618896 3.42931 0.623502 3.40514 0.633863C3.38096 0.643648 3.35966 0.657463 3.34124 0.675883C3.32282 0.694303 3.30901 0.715601 3.29865 0.739777C3.28886 0.763953 3.28368 0.789281 3.28368 0.815184V1.02126C3.12251 1.03392 2.96306 1.06155 2.80706 1.10415C2.6505 1.14674 2.49911 1.20373 2.35405 1.27511C2.20842 1.34706 2.07084 1.43168 1.94133 1.52896C1.81181 1.62681 1.69266 1.7356 1.58444 1.85591C1.47565 1.97621 1.37952 2.1063 1.29548 2.24445C1.21144 2.38318 1.14121 2.52881 1.0848 2.68078C1.02839 2.83274 0.987522 2.98873 0.960468 3.14876C0.933989 3.30878 0.923052 3.46995 0.927082 3.63228C0.931111 3.79403 0.950682 3.95463 0.98522 4.11292C1.01976 4.27122 1.06926 4.42491 1.13315 4.574C1.19705 4.72308 1.27476 4.86469 1.36571 4.99881C1.45665 5.13293 1.55912 5.25726 1.67424 5.37239C1.78879 5.48694 1.91312 5.5894 2.04724 5.68034C2.18136 5.77129 2.32297 5.849 2.47205 5.9129C2.62114 5.97679 2.77483 6.02629 2.93313 6.06083C3.092 6.09537 3.25202 6.11494 3.41435 6.11897C3.5761 6.123 3.73727 6.11206 3.89729 6.08558C4.05732 6.0591 4.21331 6.01766 4.36527 5.96125C4.51724 5.90484 4.66287 5.83461 4.8016 5.75057C4.94032 5.66711 5.06984 5.5704 5.19014 5.46161C5.31045 5.35339 5.41924 5.23424 5.5171 5.10472C5.61495 4.97521 5.69957 4.83763 5.77094 4.692C5.84232 4.54694 5.89931 4.39556 5.9419 4.23956C5.9845 4.08299 6.01213 3.92412 6.02479 3.76237H6.23087C6.25735 3.76237 6.2821 3.75719 6.30627 3.7474C6.33045 3.73704 6.35175 3.72323 6.37017 3.70481C6.38859 3.68639 6.4024 3.66509 6.41276 3.64091C6.42255 3.61674 6.42773 3.59199 6.42773 3.56551C6.42715 3.46938 6.42255 3.37325 6.41276 3.27712C6.40355 3.18099 6.38916 3.08544 6.37017 2.99104C6.35117 2.89663 6.32815 2.80281 6.29994 2.71071C6.27174 2.61803 6.23893 2.52766 6.20209 2.43844C6.16525 2.34922 6.1238 2.2623 6.07833 2.17711C6.03285 2.09191 5.98335 2.0096 5.92982 1.92901C5.87628 1.849 5.81872 1.77187 5.75771 1.69704C5.69611 1.62221 5.63164 1.55083 5.56314 1.48291C5.49522 1.41441 5.42384 1.34994 5.34901 1.28892C5.27476 1.22733 5.19705 1.16977 5.11704 1.11623C5.03645 1.0627 4.95414 1.0132 4.86894 0.967724C4.78375 0.922249 4.69683 0.880805 4.60761 0.843965C4.51839 0.807125 4.42802 0.774315 4.33534 0.746109C4.24324 0.718479 4.14999 0.694879 4.05501 0.675883C3.96061 0.656888 3.86506 0.642497 3.76893 0.633287C3.67338 0.623502 3.57667 0.618896 3.48054 0.618896ZM2.49796 3.36922C2.56761 3.36922 2.63495 3.38073 2.7 3.40491C2.76562 3.42851 2.82433 3.46247 2.87787 3.50737C2.93082 3.55169 2.97457 3.60465 3.00911 3.66451C3.04365 3.72496 3.06667 3.78942 3.07876 3.85792C3.09027 3.92585 3.09027 3.99435 3.07761 4.06285C3.06494 4.13134 3.04134 4.19524 3.00623 4.2551C2.97112 4.31497 2.92679 4.36677 2.87326 4.4111C2.81973 4.45542 2.75986 4.48881 2.69424 4.51183V4.74438H2.30167V4.51183C2.24411 4.49168 2.19172 4.46348 2.1428 4.42664C2.09444 4.39037 2.05242 4.3472 2.01731 4.2977C1.9822 4.2482 1.95572 4.19409 1.93672 4.13653C1.9183 4.07896 1.90909 4.01967 1.90852 3.95866H2.30167C2.30167 3.98456 2.30627 4.00989 2.31663 4.03406C2.32642 4.05766 2.34081 4.07896 2.35923 4.09738C2.37765 4.1158 2.39895 4.13019 2.42312 4.13998C2.44672 4.15034 2.47205 4.15495 2.49796 4.15495C2.52386 4.15495 2.54919 4.15034 2.57336 4.13998C2.59754 4.13019 2.61884 4.1158 2.63726 4.09738C2.65568 4.07896 2.66949 4.05766 2.67985 4.03406C2.68964 4.00989 2.69424 3.98456 2.69424 3.95866C2.69424 3.93275 2.68964 3.90743 2.67985 3.88325C2.66949 3.85965 2.65568 3.83835 2.63726 3.81993C2.61884 3.80151 2.59754 3.78712 2.57336 3.77734C2.54919 3.76698 2.52386 3.76237 2.49796 3.76237C2.42888 3.76237 2.36153 3.75028 2.29591 3.72668C2.23087 3.70308 2.17158 3.66912 2.11862 3.62422C2.06509 3.57932 2.02134 3.52694 1.9868 3.4665C1.95227 3.40664 1.92924 3.34217 1.91715 3.27367C1.90564 3.20517 1.90622 3.13724 1.9183 3.06875C1.93097 3.00025 1.95457 2.93635 1.98968 2.87649C2.02479 2.81662 2.06912 2.76424 2.12323 2.72049C2.17676 2.67617 2.23605 2.64278 2.30167 2.61976V2.38663H2.69424V2.61976C2.7518 2.63991 2.80476 2.66811 2.85311 2.70495C2.90147 2.74122 2.94349 2.78439 2.9786 2.83389C3.01371 2.88339 3.04077 2.93693 3.05919 2.99507C3.07761 3.05263 3.08739 3.11192 3.08739 3.17293H2.69424C2.69424 3.14645 2.68964 3.1217 2.67985 3.09753C2.66949 3.07335 2.65568 3.05205 2.63726 3.03363C2.61884 3.01521 2.59754 3.0014 2.57336 2.99104C2.54919 2.98125 2.52386 2.97607 2.49796 2.97607C2.47205 2.97607 2.44672 2.98125 2.42312 2.99104C2.39895 3.0014 2.37765 3.01521 2.35923 3.03363C2.34081 3.05205 2.32642 3.07335 2.31663 3.09753C2.30627 3.1217 2.30167 3.14645 2.30167 3.17293C2.30167 3.19884 2.30627 3.22416 2.31663 3.24776C2.32642 3.27194 2.34081 3.29324 2.35923 3.31166C2.37765 3.33008 2.39895 3.34447 2.42312 3.35425C2.44672 3.36404 2.47205 3.36922 2.49796 3.36922ZM5.14064 4.947L3.9537 3.76237H5.63164C5.61207 3.97996 5.56027 4.19006 5.4768 4.3921C5.39276 4.59415 5.28109 4.77892 5.14064 4.947ZM3.67683 3.36922V1.01953C3.82764 1.03162 3.97615 1.05637 4.12236 1.09436C4.26799 1.13293 4.41017 1.18358 4.54717 1.2469C4.68417 1.31022 4.81484 1.38505 4.93859 1.47139C5.06293 1.55774 5.17805 1.65444 5.28512 1.76093C5.39161 1.868 5.48831 1.98312 5.57466 2.10746C5.661 2.23121 5.73583 2.36188 5.79915 2.49888C5.86247 2.63645 5.91312 2.77806 5.95169 2.92426C5.98968 3.07047 6.01501 3.21841 6.02652 3.36922H3.67683Z" fill="#C18948"/>
</g>
</svg>
