<svg width="42" height="40" viewBox="0 0 42 40" fill="none" xmlns="http://www.w3.org/2000/svg">
<mask id="mask0_1_100473" style="mask-type:luminance" maskUnits="userSpaceOnUse" x="0" y="0" width="42" height="40">
<path d="M0.707275 0.792023H41.5682V39.3071H0.707275V0.792023Z" fill="white"/>
</mask>
<g mask="url(#mask0_1_100473)">
<path d="M3.72537 38.0689H10.7096V4.27931C11.1885 4.40507 11.6383 4.51631 12.0833 4.63723C14.2888 5.22732 16.4896 5.82224 18.7 6.40749C18.8596 6.45102 18.9225 6.50422 18.9225 6.68318C18.9176 16.4873 18.9176 26.2866 18.9176 36.0858C18.9176 36.1487 18.9128 36.2116 18.908 36.3083H18.7C17.9406 36.3083 17.3263 36.9226 17.3263 37.6771V38.2043H28.6927V10.5478C29.1522 10.6687 29.573 10.7848 29.9986 10.896C32.2042 11.4861 34.4098 12.0762 36.6153 12.6614C36.8378 12.7195 36.9055 12.8065 36.9055 13.0387C36.8959 21.2612 36.9007 29.4788 36.9007 37.7013V38.0447H41.4037V37.5175C41.4037 36.763 40.7895 36.1487 40.0301 36.1487H38.8209V35.8053C38.8209 28.0423 38.8209 20.2793 38.8257 12.5212C38.8257 12.2116 38.8257 11.9069 38.8257 11.6022C38.8257 11.37 38.7774 11.2636 38.5355 11.2007C38.1389 11.0943 37.7423 10.9879 37.3408 10.8767L37.3457 10.2866L37.3505 9.32889C37.2248 9.29987 37.0942 9.26601 36.9684 9.23699C36.7895 9.19346 36.6057 9.14993 36.4267 9.1064C36.4073 9.10156 36.388 9.10156 36.3687 9.09673L35.9672 8.99999L35.3916 9.21281C35.3481 9.22732 35.3046 9.24183 35.3046 9.24667C35.3046 9.24667 35.3046 9.2515 35.3046 9.25634C35.2997 9.61426 35.2997 9.96734 35.2997 10.3301C34.8402 10.2043 34.3807 10.0834 33.9213 9.95283C33.9213 9.94316 33.9213 9.92865 33.9213 9.91897C33.9213 9.78355 33.9213 9.65295 33.9213 9.51752C33.9213 9.45465 33.9213 9.3966 33.9213 9.33373L33.9261 8.37605C33.8003 8.34219 33.6746 8.31317 33.544 8.28415C33.365 8.23578 33.1812 8.19225 33.0023 8.15356C32.9829 8.14872 32.9636 8.14388 32.9442 8.13905L32.5428 8.04231L31.9672 8.25513C31.9285 8.26964 31.8801 8.28415 31.8801 8.28899C31.8801 8.63723 31.8801 8.98064 31.8753 9.32889C31.8753 9.35308 31.8753 9.37726 31.8753 9.40144C31.4207 9.28052 30.9612 9.15477 30.5017 9.02901L30.5065 7.40386C30.1099 7.31196 29.7133 7.21523 29.2925 7.11365C29.2925 7.11849 29.1232 7.0798 29.1232 7.0798L28.5476 7.29261C28.5186 7.30229 28.4944 7.31196 28.4799 7.3168C28.4751 7.32164 28.4654 7.32163 28.4654 7.32163C28.4606 7.66988 28.4606 8.01813 28.4557 8.36154V8.46795C27.9914 8.34703 27.5271 8.21644 27.0627 8.09068C26.8644 8.03748 26.7338 8.08101 26.5597 8.19709C26.3711 8.32284 26.1824 8.4486 25.989 8.56952C25.8294 8.67593 25.6649 8.78234 25.5053 8.88391C25.2683 9.03868 25.0361 9.1983 24.804 9.35307C24.567 9.51269 24.3251 9.6723 24.0881 9.83191C23.8511 9.99153 23.6093 10.1511 23.3723 10.3059C23.1304 10.4655 22.8934 10.6251 22.6516 10.7799C22.4146 10.9395 22.1728 11.0991 21.9309 11.2539C21.7616 11.37 21.6939 11.4812 21.6939 11.6892C21.7036 19.7134 21.6988 27.7376 21.6988 35.7666V36.1149H20.8427V35.8053C20.8427 26.9444 20.8427 18.0834 20.8475 9.21764C20.8475 8.38572 20.8475 7.54896 20.8475 6.71704C20.8475 6.24787 20.8475 5.78355 20.8523 5.31922C20.8523 5.08705 20.7991 4.98064 20.5573 4.91777C20.1607 4.81136 19.7641 4.70495 19.3626 4.59854V4.00845H19.3674V3.05078C19.2369 3.02175 19.1111 2.99274 18.9853 2.95888C18.8015 2.91535 18.6226 2.87665 18.4436 2.83312C18.4243 2.82828 18.4049 2.82345 18.3807 2.81861L17.9841 2.72671L17.4086 2.93953C17.365 2.95404 17.3215 2.96855 17.3215 2.97339C17.3215 2.97339 17.3215 2.97822 17.3215 2.98306C17.3167 3.34098 17.3167 3.69406 17.3167 4.05682C16.8572 3.93107 16.3977 3.81015 15.9382 3.68439V2.10761C15.8124 2.07375 15.6867 2.04473 15.5561 2.01571C15.3771 1.97218 15.1982 1.92865 15.0144 1.88512C14.995 1.88512 14.9757 1.88028 14.9563 1.87061L14.5549 1.77871L13.9793 1.99636C13.9406 2.00604 13.8971 2.02055 13.8971 2.02538C13.8971 2.37363 13.8971 2.72188 13.8922 3.06529C13.8922 3.08947 13.8922 3.11365 13.8922 3.13784C13.4327 3.01692 12.9781 2.896 12.5186 2.77024V1.14993C12.122 1.05319 11.7254 0.961296 11.2997 0.859724V0.864561L11.1353 0.825867L10.5597 1.04352C10.5307 1.04836 10.5065 1.05803 10.4872 1.0677C10.4823 1.0677 10.4775 1.0677 10.4726 1.07254C10.4726 1.42079 10.4726 1.76903 10.4678 2.11244H10.4726L10.4678 2.21885C10.0035 2.0931 9.53915 1.97218 9.07482 1.84642C8.87652 1.79322 8.72657 1.81257 8.55245 1.92865C8.12682 2.20918 7.70118 2.48971 7.27071 2.77024C6.15826 3.50543 5.04097 4.24062 3.92367 4.96613C3.77373 5.06287 3.72053 5.16928 3.72053 5.34824C3.72537 15.6215 3.72537 25.8996 3.72537 36.1729H2.58873C1.82936 36.1729 1.21509 36.7872 1.21509 37.5465V38.0496C2.04701 38.0544 2.8741 38.0592 3.70602 38.0641C3.71086 38.0641 3.72053 38.0641 3.72537 38.0689Z" fill="#C18948"/>
</g>
</svg>
