<svg width="125" height="121" viewBox="0 0 125 121" fill="none" xmlns="http://www.w3.org/2000/svg">
<path d="M117.865 45.2552C117.865 43.4688 116.703 41.9479 115.089 41.4115V34.4219C115.089 33.9219 114.792 33.4688 114.339 33.2656C113.88 33.0625 113.349 33.1511 112.979 33.4844L111.547 34.7865C108.865 37.2136 105.573 38.8698 102.021 39.5677C101.927 39.5833 101.844 39.6146 101.76 39.6511H93.5885C90.6198 39.6511 88.2031 42.0625 88.2031 45.0313V45.4948C88.2031 48.3854 90.4896 50.7448 93.3438 50.875V58.099C93.3438 59.7917 94.7187 61.1667 96.4115 61.1667H96.6146C98.3073 61.1667 99.6823 59.7917 99.6823 58.099V50.8802H101.88C101.922 50.8906 101.969 50.9063 102.016 50.9167C105.568 51.6146 108.859 53.2656 111.542 55.6979L112.974 56.9948C113.208 57.2083 113.516 57.3229 113.823 57.3229C113.995 57.3229 114.172 57.2865 114.333 57.2136C114.786 57.0104 115.083 56.5625 115.083 56.0625L115.089 49.1042C116.703 48.5625 117.865 47.0417 117.865 45.2552ZM90.7292 45.4896V45.0261C90.7292 43.4479 92.0104 42.1615 93.5885 42.1615H101.005V44.9219C101.005 44.9636 101.005 45 101.01 45.0365V45.4271C101.005 45.4636 101.005 45.5 101.005 45.5417V48.3438H93.5885C92.0104 48.3542 90.7292 47.0677 90.7292 45.4896ZM97.1667 58.0938C97.1667 58.3958 96.9219 58.6406 96.6198 58.6406H96.4167C96.1146 58.6406 95.8698 58.3958 95.8698 58.0938V50.8854H97.1667V58.0938ZM103.526 48.6615V41.8125C106.849 41 109.943 39.4323 112.568 37.2396L112.573 42.3281C112.568 42.375 112.563 42.4271 112.563 42.474V48.0365C112.563 48.0886 112.568 48.1302 112.573 48.1771L112.568 53.2292C109.943 51.0365 106.849 49.474 103.526 48.6615ZM115.089 46.0938V45.5417C115.089 45.4896 115.089 45.4427 115.078 45.3906V45.0729C115.089 45.0261 115.089 44.974 115.089 44.9219V44.4115C115.25 44.6511 115.344 44.9427 115.344 45.25C115.344 45.5625 115.25 45.8542 115.089 46.0938Z" fill="#1B243D"/>
<path d="M123.203 43.6562H119.146C118.448 43.6562 117.88 44.2187 117.88 44.9167C117.88 45.6146 118.448 46.1771 119.146 46.1771H123.203C123.901 46.1771 124.464 45.6146 124.464 44.9167C124.464 44.2187 123.901 43.6562 123.203 43.6562Z" fill="#1B243D"/>
<path d="M118.74 43.3646C119.005 43.3646 119.271 43.2812 119.495 43.1094L122.734 40.6562C123.287 40.2396 123.396 39.4479 122.974 38.8906C122.557 38.3385 121.76 38.2291 121.208 38.651L117.974 41.1041C117.422 41.5208 117.307 42.3125 117.734 42.8698C117.979 43.1927 118.359 43.3646 118.74 43.3646Z" fill="#1B243D"/>
<path d="M122.734 49.1771L119.5 46.724C118.943 46.3073 118.156 46.4115 117.734 46.9688C117.318 47.5209 117.422 48.3125 117.979 48.7344L121.214 51.1823C121.443 51.3594 121.708 51.4375 121.974 51.4375C122.354 51.4375 122.729 51.2657 122.979 50.9375C123.396 50.3907 123.287 49.599 122.734 49.1771Z" fill="#1B243D"/>
<path d="M65.3385 103.958H46.2604C45.5677 103.958 45 104.526 45 105.219V119.234C45 119.26 45 119.286 45.0052 119.313C45.0052 119.318 45.0052 119.323 45.0052 119.328C45.0052 119.349 45.0104 119.375 45.0104 119.391C45.0104 119.401 45.0104 119.401 45.0156 119.411C45.0208 119.464 45.0365 119.516 45.0469 119.568V119.573C45.0729 119.656 45.1042 119.734 45.1406 119.813C45.1406 119.813 45.1406 119.813 45.1406 119.818C45.1667 119.87 45.1979 119.911 45.2292 119.958C45.2292 119.964 45.2344 119.969 45.2396 119.974C45.25 119.99 45.2656 120.01 45.2813 120.026C45.2813 120.031 45.2812 120.036 45.2865 120.036C45.3021 120.052 45.3177 120.073 45.3385 120.089C45.3437 120.099 45.3437 120.099 45.3542 120.104C45.3646 120.12 45.3802 120.135 45.3958 120.151C45.3958 120.151 45.4063 120.156 45.4063 120.161C45.4271 120.177 45.4427 120.193 45.4635 120.214C45.4687 120.214 45.4688 120.219 45.474 120.219C45.4896 120.229 45.5104 120.245 45.526 120.255C45.5312 120.26 45.5365 120.266 45.5417 120.266C45.5833 120.297 45.625 120.328 45.6771 120.354H45.6823C45.75 120.396 45.8281 120.422 45.9115 120.448C45.9167 120.448 45.9167 120.448 45.9167 120.448C45.974 120.464 46.026 120.474 46.0781 120.479C46.0833 120.479 46.0885 120.479 46.0938 120.479C46.1146 120.484 46.1354 120.484 46.1563 120.484C46.1667 120.484 46.1719 120.484 46.1771 120.484C46.2031 120.49 46.2292 120.49 46.2552 120.49H65.3333C66.0312 120.49 66.5938 119.927 66.5938 119.229V105.219C66.599 104.526 66.0365 103.958 65.3385 103.958ZM64.0781 106.479V113.177L61.0573 110.995C60.5469 110.625 59.8437 110.693 59.4115 111.146L57.0625 113.609L54.0938 109C53.8698 108.646 53.4844 108.432 53.0625 108.422C52.6458 108.411 52.25 108.609 52.0052 108.953L47.526 115.271V106.479H64.0781ZM52.9844 111.932L55.7656 116.26C55.776 116.281 55.7917 116.302 55.8021 116.323L56.8698 117.974H48.7031L52.9844 111.932ZM64.0781 117.974H59.8698L58.4635 115.792L60.474 113.682L64.0781 116.286V117.974Z" fill="#1B243D"/>
<mask id="mask0_387_280" style="mask-type:luminance" maskUnits="userSpaceOnUse" x="0" y="34" width="24" height="24">
<path d="M0 34H23.5052V58H0V34Z" fill="white"/>
</mask>
<g mask="url(#mask0_387_280)">
<path d="M3.43766 54.1562C4.51058 55.2239 5.76058 56.0677 7.1512 56.6562C8.59391 57.2656 10.12 57.5729 11.6981 57.5729C13.2762 57.5729 14.8075 57.2656 16.245 56.6562C17.6408 56.0677 18.8856 55.2239 19.9585 54.1562C21.0366 53.0833 21.8752 51.8333 22.4637 50.4427C23.0731 49 23.3804 47.4687 23.3804 45.8906C23.3804 44.3177 23.0731 42.7864 22.4637 41.3437C22.0575 40.3802 21.5262 39.4895 20.8856 38.677C21.0314 38.776 21.1929 38.8281 21.3595 38.8281C21.6043 38.8281 21.8439 38.7239 22.0054 38.5208C22.3856 38.0364 22.7814 37.5573 23.1825 37.0937C23.4793 36.75 23.4377 36.2395 23.0991 35.9375C22.7554 35.6458 22.2397 35.6823 21.9429 36.026C21.5262 36.5052 21.1147 37.0052 20.7189 37.5C20.521 37.7448 20.495 38.0729 20.6147 38.3437C20.4064 38.0989 20.1877 37.8593 19.9585 37.6302C18.8908 36.5625 17.6408 35.7187 16.245 35.1302C14.8075 34.5208 13.2762 34.2135 11.6981 34.2135C10.12 34.2135 8.59391 34.5208 7.1512 35.1302C5.76058 35.7187 4.51058 36.5625 3.43766 37.6302C2.36475 38.7031 1.521 39.9531 0.937663 41.3437C0.328288 42.7864 0.0209961 44.3125 0.0209961 45.8906C0.0209961 47.4687 0.328288 49 0.937663 50.4427C1.521 51.8333 2.36475 53.0833 3.43766 54.1562ZM5.21891 39.4218C6.94808 37.6927 9.25016 36.7395 11.6981 36.7395C14.1408 36.7395 16.4429 37.6927 18.172 39.4218C19.9012 41.151 20.8543 43.4479 20.8543 45.8958C20.8543 48.3437 19.9012 50.6458 18.172 52.375C16.4429 54.1041 14.1408 55.0573 11.6981 55.0573C9.25016 55.0573 6.94808 54.1041 5.21891 52.375C3.48975 50.6458 2.53662 48.3437 2.53662 45.8958C2.53662 43.4479 3.48975 41.151 5.21891 39.4218Z" fill="#1B243D"/>
</g>
<path d="M7.13542 52.5781C7.32813 52.6927 7.54688 52.75 7.76042 52.75C7.97917 52.75 8.19792 52.6927 8.39063 52.5781L18.0781 46.9843C18.4687 46.7604 18.7083 46.3437 18.7083 45.8958C18.7083 45.4479 18.4687 45.026 18.0781 44.8073L8.39063 39.2135C8 38.9895 7.52083 38.9895 7.13021 39.2135C6.73958 39.4375 6.5 39.8541 6.5 40.302V51.4895C6.50521 51.9375 6.74479 52.3541 7.13542 52.5781ZM9.02604 42.4895L14.9323 45.8958L9.02604 49.3073V42.4895Z" fill="#1B243D"/>
<path d="M49.3337 22.6355C49.9483 23.4532 50.4223 24.3542 50.7452 25.3125C51.0733 26.2709 51.2348 27.2709 51.2348 28.2761V28.4063C51.2348 29.1042 51.8025 29.6667 52.4952 29.6667H59.0056C59.7035 29.6667 60.266 29.1042 60.266 28.4063V28.2761C60.266 27.2709 60.4327 26.2709 60.7608 25.3125C61.0837 24.3594 61.5577 23.4584 62.1723 22.6459C63.2192 21.2448 63.7764 19.5782 63.7764 17.823C63.7764 15.6823 62.9483 13.6719 61.4327 12.1563C59.9223 10.6407 57.9119 9.80733 55.7712 9.80212C55.766 9.80212 55.7608 9.80212 55.7556 9.80212C53.6306 9.80212 51.6306 10.6198 50.1202 12.1042C48.6098 13.5938 47.7608 15.5834 47.7296 17.7188C47.7087 19.5052 48.2608 21.2084 49.3337 22.6355ZM50.2504 17.75C50.2712 16.2865 50.8494 14.9167 51.891 13.9011C52.9223 12.8802 54.2973 12.323 55.7556 12.323C55.7608 12.323 55.7608 12.323 55.7712 12.323C57.2348 12.323 58.615 12.8959 59.6514 13.9375C60.6879 14.974 61.2608 16.3542 61.2608 17.823C61.2608 19.0261 60.8806 20.1667 60.1619 21.125C59.3858 22.1563 58.7869 23.2917 58.3754 24.5C58.0837 25.3646 57.8962 26.2448 57.8077 27.1459H53.7035C53.615 26.2448 53.4275 25.3646 53.1306 24.5C52.7244 23.2917 52.1202 22.1563 51.3494 21.125C50.615 20.1459 50.2348 18.9792 50.2504 17.75Z" fill="#1B243D"/>
<path d="M60.2918 31.9427C60.2918 31.2448 59.7293 30.6823 59.0314 30.6823H52.4845C51.7866 30.6823 51.2241 31.2448 51.2241 31.9427C51.2241 32.6406 51.7866 33.2031 52.4845 33.2031H59.0314C59.7241 33.2031 60.2918 32.6406 60.2918 31.9427Z" fill="#1B243D"/>
<path d="M53.2292 34.1198C52.5312 34.1198 51.9688 34.6823 51.9688 35.3802C51.9688 36.0781 52.5312 36.6406 53.2292 36.6406H53.6771C53.75 37.2083 54.6406 37.651 55.724 37.651C56.8125 37.651 57.6979 37.2083 57.776 36.6406H58.2448C58.9427 36.6406 59.5052 36.0781 59.5052 35.3802C59.5052 34.6823 58.9427 34.1198 58.2448 34.1198H53.2292Z" fill="#1B243D"/>
<path d="M66.1719 17.3645C66.1719 18.0625 66.7396 18.625 67.4323 18.625H70.9219C71.6198 18.625 72.1823 18.0625 72.1823 17.3645C72.1823 16.6718 71.6198 16.1041 70.9219 16.1041H67.4323C66.7396 16.1041 66.1719 16.6718 66.1719 17.3645Z" fill="#1B243D"/>
<path d="M40.6823 18.625H44.1719C44.8698 18.625 45.4323 18.0625 45.4323 17.3645C45.4323 16.6718 44.8698 16.1041 44.1719 16.1041H40.6823C39.9844 16.1041 39.4219 16.6718 39.4219 17.3645C39.4219 18.0625 39.9896 18.625 40.6823 18.625Z" fill="#1B243D"/>
<path d="M63.1406 24.7031C62.6458 25.1927 62.6458 25.9896 63.1406 26.4844L65.6042 28.9479C65.849 29.1927 66.1719 29.3177 66.4948 29.3177C66.8177 29.3177 67.1406 29.1927 67.3854 28.9479C67.875 28.4583 67.875 27.6563 67.3854 27.1667L64.9219 24.7031C64.4271 24.2083 63.6302 24.2083 63.1406 24.7031Z" fill="#1B243D"/>
<path d="M46.6875 10.0313C46.9323 10.2761 47.2552 10.4011 47.5781 10.4011C47.8958 10.4011 48.2187 10.2761 48.4687 10.0313C48.9583 9.54171 48.9583 8.74483 48.4687 8.25004L46 5.7865C45.5104 5.29692 44.7083 5.29692 44.2187 5.7865C43.7292 6.27608 43.7292 7.07817 44.2187 7.56775L46.6875 10.0313Z" fill="#1B243D"/>
<mask id="mask1_387_280" style="mask-type:luminance" maskUnits="userSpaceOnUse" x="54" y="0" width="5" height="8">
<path d="M54.1719 0.984375H58.1719V7.33333H54.1719V0.984375Z" fill="white"/>
</mask>
<g mask="url(#mask1_387_280)">
<path d="M55.8019 6.99479C56.4998 6.99479 57.0623 6.43229 57.0623 5.73438V2.24479C57.0623 1.54687 56.4998 0.984375 55.8019 0.984375C55.1092 0.984375 54.5415 1.54687 54.5415 2.24479V5.73438C54.5415 6.43229 55.1092 6.99479 55.8019 6.99479Z" fill="#1B243D"/>
</g>
<path d="M64.0312 10.4011C64.3542 10.4011 64.6771 10.2761 64.9219 10.0313L67.3854 7.56775C67.875 7.07817 67.875 6.27608 67.3854 5.7865C66.8958 5.29692 66.0937 5.29692 65.6042 5.7865L63.1406 8.25004C62.6458 8.74483 62.6458 9.54171 63.1406 10.0313C63.3854 10.2761 63.7031 10.4011 64.0312 10.4011Z" fill="#1B243D"/>
<path d="M45.1147 29.3177C45.4377 29.3177 45.7606 29.1927 46.0054 28.9479L48.4689 26.4844C48.9585 25.9896 48.9585 25.1927 48.4689 24.7031C47.9793 24.2083 47.1772 24.2083 46.6877 24.7031L44.2241 27.1667C43.7293 27.6563 43.7293 28.4583 44.2241 28.9479C44.4689 29.1927 44.7918 29.3177 45.1147 29.3177Z" fill="#1B243D"/>
<path d="M52.5317 19.9167L53.5369 20.5677C53.9535 20.8386 54.4952 20.8386 54.9119 20.5677L55.2296 20.3646L55.5421 20.5677C55.964 20.8386 56.5004 20.8386 56.9223 20.5677L57.2348 20.3646L57.5525 20.5677C57.7608 20.7084 58.0004 20.7761 58.24 20.7761C58.6515 20.7761 59.0525 20.573 59.2973 20.2032C59.6775 19.6198 59.5108 18.8386 58.9275 18.4584L57.9275 17.8021C57.5056 17.5313 56.9692 17.5313 56.5473 17.8021L56.2348 18.0105L55.9171 17.8021C55.5004 17.5313 54.9588 17.5313 54.5421 17.8021L54.2244 18.0105L53.9119 17.8021C53.3285 17.4219 52.5473 17.5886 52.1671 18.1667C51.7869 18.7552 51.9483 19.5365 52.5317 19.9167Z" fill="#1B243D"/>
<path d="M103.526 84.2135H91.4897C90.7918 84.2135 90.2293 84.7812 90.2293 85.4791V94.677C89.6408 94.4427 88.9845 94.3177 88.3075 94.3177C87.1825 94.3177 86.1095 94.6666 85.2866 95.302C84.3856 96.0052 83.8647 97 83.8647 98.0416C83.8647 99.0833 84.3856 100.078 85.2866 100.781C86.1095 101.417 87.1772 101.766 88.3075 101.766C89.4377 101.766 90.5106 101.417 91.3335 100.781C92.2345 100.078 92.7502 99.0833 92.7502 98.0416V90.6458H102.266V94.677C101.672 94.4427 101.016 94.3177 100.344 94.3177C99.2137 94.3177 98.1408 94.6666 97.3179 95.302C96.4168 96.0052 95.9012 97 95.9012 98.0416C95.9012 99.0833 96.4168 100.078 97.3179 100.781C98.1408 101.417 99.2137 101.766 100.344 101.766C101.474 101.766 102.542 101.417 103.365 100.781C104.266 100.078 104.787 99.0833 104.787 98.0416V85.4791C104.787 84.7812 104.224 84.2135 103.526 84.2135ZM88.3075 99.2448C87.1772 99.2448 86.3856 98.6093 86.3856 98.0416C86.3856 97.4687 87.1772 96.8333 88.3075 96.8333C89.4429 96.8333 90.2293 97.4687 90.2293 98.0416C90.2293 98.6093 89.4429 99.2448 88.3075 99.2448ZM92.7502 88.125V86.7343H102.266V88.125H92.7502ZM100.344 99.2448C99.2085 99.2448 98.422 98.6093 98.422 98.0416C98.422 97.4687 99.2085 96.8333 100.344 96.8333C101.474 96.8333 102.266 97.4687 102.266 98.0416C102.266 98.6093 101.474 99.2448 100.344 99.2448Z" fill="#1B243D"/>
<path d="M34.62 63.4271C32.094 62.4271 29.219 63.6719 28.219 66.2031C27.7346 67.4271 27.7607 68.7656 28.2815 69.974C28.8075 71.1823 29.7711 72.1198 30.995 72.6042C31.5784 72.8333 32.1982 72.9479 32.8075 72.9479C33.4742 72.9479 34.1357 72.8125 34.7659 72.5417C35.9742 72.0156 36.9065 71.0521 37.3909 69.8281C38.3909 67.2969 37.1461 64.4271 34.62 63.4271ZM35.0471 68.901C34.8075 69.5 34.3544 69.9687 33.7607 70.224C33.1721 70.4792 32.5159 70.4896 31.9169 70.2552C31.318 70.0208 30.8492 69.5625 30.594 68.9687C30.3388 68.3802 30.3284 67.724 30.5627 67.125C30.9377 66.1823 31.844 65.6042 32.8075 65.6042C33.0992 65.6042 33.3961 65.6615 33.6877 65.776C34.9273 66.2604 35.5315 67.6615 35.0471 68.901Z" fill="#1B243D"/>
<path d="M87.615 62.5625C87.6723 62.4792 87.7192 62.3906 87.7556 62.2969L90.6462 58.1354C91.0421 57.5625 90.9014 56.776 90.3285 56.3802L85.9171 53.3229C85.6462 53.1302 85.3077 53.0573 84.9744 53.1146C84.6462 53.1771 84.3546 53.3594 84.1619 53.6354L81.1046 58.0417L76.2244 65.0729V58.4844C76.2244 58.151 76.0942 57.8281 75.8546 57.5938L66.4796 48.2135C66.4587 48.1927 66.4379 48.1771 66.4223 48.1615C66.4119 48.1563 66.4119 48.151 66.4014 48.1458C66.3858 48.1302 66.365 48.1146 66.3442 48.099C66.3442 48.099 66.3389 48.099 66.3389 48.0938C66.3129 48.0781 66.2973 48.0625 66.2712 48.0469C66.266 48.0469 66.2608 48.0365 66.2556 48.0365C66.2348 48.0208 66.2087 48.0104 66.1931 48C66.1879 47.9948 66.1827 47.9948 66.1827 47.9896C66.1567 47.9792 66.1358 47.9687 66.1098 47.9583C66.1046 47.9531 66.0942 47.9479 66.0837 47.9479C66.0629 47.9375 66.0421 47.9271 66.016 47.9219L66.0108 47.9167C65.9848 47.9063 65.9639 47.901 65.9379 47.8958C65.9275 47.8906 65.9223 47.8906 65.9119 47.8854C65.891 47.8802 65.865 47.875 65.8389 47.8698C65.8389 47.8698 65.8337 47.8698 65.8285 47.8698C65.8025 47.8594 65.7764 47.8594 65.7504 47.8542C65.7452 47.8542 65.7348 47.849 65.7296 47.849C65.7087 47.849 65.6827 47.849 65.6619 47.8438C65.6567 47.8438 65.6514 47.8438 65.6462 47.8438C65.6254 47.8438 65.6046 47.8438 65.5837 47.8438H41.6046C40.9119 47.8438 40.3442 48.4063 40.3442 49.1042V58C39.9848 57.7865 39.5317 57.7604 39.1462 57.9531L36.7764 59.125L35.9796 58.8125L35.0577 56.3333C34.8702 55.8385 34.4014 55.5156 33.8754 55.5156C33.865 55.5156 33.8598 55.5156 33.8546 55.5156L31.3442 55.5573C30.8129 55.5677 30.3442 55.9063 30.1723 56.4115L29.3233 58.9167L28.5369 59.2604L26.1306 58.1615C25.6462 57.9375 25.0733 58.0469 24.7035 58.4323L22.9587 60.2344C22.5889 60.6198 22.5004 61.1927 22.7348 61.6719L23.9067 64.0417L23.5942 64.8333L21.1202 65.7604C20.6202 65.9479 20.2921 66.4323 20.3025 66.9635L20.3389 69.474C20.3494 70.0052 20.6931 70.474 21.1983 70.6458L23.7035 71.4896L24.0421 72.276L22.9483 74.6823C22.7244 75.1667 22.8337 75.7396 23.2192 76.1146L25.0212 77.8594C25.4014 78.2292 25.9796 78.3177 26.4587 78.0781L28.8233 76.9063L29.6202 77.224L30.5473 79.6979C30.7296 80.1927 31.2035 80.5156 31.7296 80.5156C31.7348 80.5156 31.74 80.5156 31.7504 80.5156L34.2556 80.4792C34.7921 80.4688 35.2556 80.125 35.4327 79.6198L36.2764 77.1146L37.0629 76.776L39.4692 77.8698C39.7556 78 40.0629 78.0156 40.3494 77.9323V90.9375C40.3494 91.6354 40.9119 92.1979 41.6098 92.1979H74.9639C75.6619 92.1979 76.2244 91.6354 76.2244 90.9375V78.9688L87.615 62.5625ZM70.9431 79.0469L71.4952 79.4271L70.9327 79.6458L70.9431 79.0469ZM73.8389 77.9844L71.4744 76.3438L82.4587 60.5156L84.8233 62.1615L73.8389 77.9844ZM85.516 56.1146L87.8494 57.7344L86.2296 60.0677L83.8962 58.4479L85.516 56.1146ZM71.4483 56.8177H66.8442V52.1719L71.4483 56.8177ZM39.1879 72.6094L40.2139 74.6823L39.7087 75.2083L37.6046 74.25C37.2764 74.1042 36.9067 74.099 36.5785 74.2396L34.766 75.026C34.4379 75.1667 34.1827 75.4427 34.0681 75.776L33.3285 77.974L32.5994 77.9844L31.7921 75.8177C31.6671 75.4844 31.4067 75.2188 31.0733 75.0885L29.2348 74.3594C28.9067 74.2292 28.5317 74.2448 28.2139 74.401L26.141 75.4323L25.6202 74.9219L26.5785 72.8177C26.7244 72.4948 26.7296 72.1198 26.5889 71.7917L25.8025 69.9792C25.6619 69.651 25.3858 69.401 25.0473 69.2865L22.8546 68.5469L22.8442 67.8125L25.0108 67.0052C25.3442 66.8802 25.6098 66.6198 25.74 66.2865L26.4639 64.4531C26.5994 64.1198 26.5785 63.75 26.4223 63.4323L25.3962 61.3594L25.9014 60.8333L28.0108 61.7917C28.3337 61.9427 28.7035 61.9427 29.0317 61.8021L30.8494 61.0156C31.1775 60.875 31.4275 60.599 31.5421 60.2656L32.2817 58.0729L33.0108 58.0573L33.8181 60.224C33.9431 60.5573 34.2087 60.8229 34.5369 60.9531L36.3754 61.6823C36.391 61.6875 36.4067 61.6927 36.4171 61.6979C36.4431 61.7083 36.4639 61.7135 36.49 61.7188C36.5108 61.7292 36.5264 61.7292 36.5473 61.7344C36.5525 61.7344 36.5525 61.7344 36.5525 61.7344C36.5681 61.7396 36.5889 61.7396 36.6046 61.7448C36.6046 61.7448 36.6046 61.7448 36.6098 61.7448C36.6254 61.75 36.6462 61.75 36.6619 61.7552C36.6671 61.7552 36.6671 61.7552 36.6723 61.7552C36.6879 61.7552 36.7035 61.7552 36.7192 61.7604C36.7244 61.7604 36.7296 61.7604 36.7348 61.7604C36.7504 61.7604 36.766 61.7656 36.7817 61.7656C36.7869 61.7656 36.7921 61.7656 36.7973 61.7656C36.8077 61.7656 36.8233 61.7656 36.8389 61.7656C36.8442 61.7656 36.8546 61.7656 36.8598 61.7656C36.8702 61.7656 36.8806 61.7656 36.891 61.7656C36.9014 61.7656 36.9119 61.7656 36.9223 61.7656C36.9327 61.7656 36.9379 61.7656 36.9483 61.7604C36.9587 61.7604 36.9744 61.7552 36.9848 61.7552C36.99 61.7552 36.9952 61.7552 37.0056 61.7552C37.016 61.75 37.0317 61.75 37.0473 61.75L37.0577 61.7448C37.0733 61.7396 37.0942 61.7396 37.1046 61.7344C37.1098 61.7344 37.1098 61.7344 37.115 61.7292C37.1306 61.7292 37.1462 61.724 37.1619 61.7188C37.1671 61.7188 37.1723 61.7135 37.1723 61.7135C37.1879 61.7135 37.2087 61.7031 37.2244 61.6979C37.2244 61.6979 37.2296 61.6927 37.2348 61.6927C37.2504 61.6875 37.266 61.6875 37.2817 61.6771C37.2869 61.6771 37.2973 61.6719 37.3025 61.6719C37.3129 61.6667 37.3285 61.6615 37.3442 61.6563C37.3598 61.651 37.3806 61.6406 37.3962 61.6354L39.4692 60.6042L39.9952 61.1146L39.0317 63.2188C38.8858 63.5417 38.8806 63.9167 39.0212 64.2448L39.8077 66.0573C39.9223 66.3229 40.115 66.526 40.3494 66.6563V69.1563C40.141 69.2969 39.9692 69.5 39.8702 69.7448L39.141 71.5833C39.016 71.9219 39.0317 72.2917 39.1879 72.6094ZM42.8754 89.6771V75.4688C43.0369 75.1302 43.0421 74.7292 42.8754 74.375V50.3698H64.3285V58.0781C64.3285 58.776 64.891 59.3385 65.5889 59.3385H73.7035V68.5729C73.7035 68.6146 73.7087 68.6563 73.7139 68.6979L69.2452 75.1354C69.0994 74.5885 68.6098 74.1875 68.0212 74.1875H48.5577C47.8598 74.1875 47.2973 74.75 47.2973 75.4479C47.2973 76.1458 47.8598 76.7083 48.5577 76.7083H68.0212C68.1775 76.7083 68.3181 76.6823 68.4587 76.6302C68.4587 76.6354 68.4587 76.6406 68.4587 76.6458L68.3858 81.1406C68.2712 81.1042 68.1462 81.0833 68.0212 81.0833H48.5577C47.8598 81.0833 47.2973 81.651 47.2973 82.349C47.2973 83.0417 47.8598 83.6094 48.5577 83.6094H68.0212C68.5994 83.6094 69.0837 83.2187 69.2348 82.6979C69.365 82.7448 69.5004 82.7656 69.641 82.7656C69.7973 82.7656 69.9535 82.7344 70.0994 82.6823L73.7035 81.2708V89.6771H42.8754Z" fill="#1B243D"/>
<path d="M68.8179 22.9584C69.1825 22.9584 69.5106 22.7084 69.6096 22.3438C69.7242 21.9063 69.4637 21.4584 69.021 21.3438C68.4064 21.1823 67.7762 21.0365 67.1617 20.9011C66.7189 20.8073 66.2814 21.0834 66.1877 21.5261C66.0939 21.9688 66.37 22.4011 66.8127 22.5C67.4117 22.6302 68.0158 22.7709 68.6096 22.9271C68.6773 22.948 68.7502 22.9584 68.8179 22.9584Z" fill="#1B243D"/>
<path d="M78.7295 26.9375C79.7711 27.5052 80.8024 28.125 81.7972 28.7708C81.9326 28.8646 82.0888 28.9062 82.2399 28.9062C82.5107 28.9062 82.7711 28.776 82.9274 28.5364C83.1774 28.1562 83.068 27.6458 82.6878 27.401C81.6565 26.7291 80.594 26.0885 79.5107 25.5C79.1149 25.2864 78.6149 25.4323 78.4013 25.8281C78.1826 26.2239 78.3336 26.7239 78.7295 26.9375Z" fill="#1B243D"/>
<path d="M84.7813 30.901C85.7188 31.625 86.6406 32.401 87.5156 33.2031C87.6719 33.3437 87.8698 33.4166 88.0677 33.4166C88.2917 33.4166 88.5104 33.3281 88.6719 33.1458C88.9792 32.8125 88.9531 32.2968 88.6198 31.9895C87.7084 31.1614 86.7552 30.3593 85.7865 29.6041C85.4323 29.3281 84.9167 29.3958 84.6406 29.75C84.3594 30.1093 84.4271 30.6197 84.7813 30.901Z" fill="#1B243D"/>
<path d="M71.6145 22.9583C71.4634 23.3802 71.6926 23.8489 72.1145 24C73.2343 24.3958 74.354 24.8333 75.4426 25.3177C75.5468 25.3646 75.6613 25.3906 75.7707 25.3906C76.0832 25.3906 76.3853 25.2083 76.5207 24.901C76.703 24.4896 76.5155 24.0052 76.104 23.8229C74.979 23.3229 73.8228 22.8646 72.6613 22.4531C72.229 22.3021 71.7655 22.526 71.6145 22.9583Z" fill="#1B243D"/>
<path d="M91.3593 37.1562C91.5155 37.3489 91.7447 37.4427 91.9791 37.4427C92.1718 37.4427 92.3593 37.375 92.5155 37.2447C92.8593 36.9531 92.8957 36.4322 92.5989 36.0885C92.1874 35.6093 91.7551 35.125 91.3228 34.6614C91.0155 34.3333 90.4999 34.3125 90.1666 34.625C89.8385 34.9322 89.8228 35.4479 90.1301 35.776C90.5468 36.2291 90.9582 36.6927 91.3593 37.1562Z" fill="#1B243D"/>
<path d="M25.1617 34.599C25.37 34.599 25.5784 34.5208 25.7346 34.3646C26.5992 33.5156 27.5106 32.6927 28.4429 31.9167C28.7867 31.625 28.8336 31.1094 28.5471 30.7604C28.2554 30.4167 27.7398 30.3698 27.3909 30.6563C26.4325 31.4635 25.4898 32.3177 24.5888 33.1927C24.2711 33.5104 24.2606 34.0313 24.5784 34.3542C24.7398 34.5156 24.9481 34.599 25.1617 34.599Z" fill="#1B243D"/>
<path d="M30.9377 29.7865C31.1044 29.7865 31.2659 29.7396 31.4117 29.6354C32.4013 28.9375 33.4325 28.2761 34.4794 27.6563C34.87 27.4271 35.0002 26.9271 34.7711 26.5365C34.5419 26.1511 34.0419 26.0157 33.6513 26.2448C32.5679 26.8802 31.5002 27.5729 30.469 28.2917C30.0992 28.5521 30.0106 29.0625 30.2711 29.4323C30.4273 29.6667 30.6825 29.7865 30.9377 29.7865Z" fill="#1B243D"/>
<path d="M37.4273 25.9792C37.5419 25.9792 37.6669 25.9532 37.7814 25.9011C38.87 25.3751 40.0002 24.8907 41.1304 24.4532C41.5523 24.2865 41.7606 23.8178 41.5992 23.3959C41.4377 22.974 40.9637 22.7657 40.5419 22.9219C39.37 23.3699 38.2033 23.8751 37.0731 24.4219C36.6669 24.6199 36.4898 25.1094 36.6877 25.5157C36.8283 25.8074 37.12 25.9792 37.4273 25.9792Z" fill="#1B243D"/>
<path d="M44.6772 23.2552C45.2658 23.0886 45.8647 22.9271 46.4585 22.7813C46.896 22.6719 47.1668 22.2292 47.0574 21.7917C46.9481 21.3542 46.5106 21.0834 46.0678 21.1927C45.4533 21.3438 44.8283 21.5104 44.2189 21.6875C43.7866 21.8177 43.5366 22.2709 43.6616 22.7031C43.7658 23.0625 44.0939 23.2917 44.4481 23.2917C44.521 23.2917 44.5991 23.2813 44.6772 23.2552Z" fill="#1B243D"/>
<path d="M12.6462 79.9792C12.7555 80.3333 13.0784 80.5625 13.4274 80.5625C13.5055 80.5625 13.5837 80.5521 13.667 80.526C14.0993 80.3958 14.3441 79.9375 14.2139 79.5052C14.0368 78.9167 13.8649 78.3177 13.7139 77.724C13.5993 77.2865 13.1514 77.0208 12.7139 77.1354C12.2764 77.25 12.0159 77.6979 12.1305 78.1354C12.2868 78.75 12.4639 79.3698 12.6462 79.9792Z" fill="#1B243D"/>
<path d="M10.6981 64.2136C10.6616 64.9479 10.646 65.6979 10.646 66.4375C10.646 66.849 10.6564 67.2657 10.6616 67.6771C10.6772 68.125 11.0418 68.474 11.4845 68.474C11.4897 68.474 11.495 68.474 11.5054 68.474C11.9585 68.4584 12.3127 68.0886 12.3022 67.6354C12.2918 67.2396 12.2866 66.8334 12.2866 66.4375C12.2866 65.724 12.3022 65 12.3335 64.2917C12.3543 63.8386 12.0054 63.4584 11.5522 63.4375C11.1043 63.4167 10.7189 63.7657 10.6981 64.2136Z" fill="#1B243D"/>
<path d="M11.3699 74.6562C11.4429 75.052 11.7866 75.3333 12.1772 75.3333C12.2241 75.3333 12.271 75.3281 12.3231 75.3177C12.7658 75.2395 13.0626 74.8176 12.9845 74.3697C12.7918 73.2812 12.6304 72.1614 12.521 71.0572C12.4741 70.6093 12.0731 70.2812 11.6251 70.3281C11.1772 70.3749 10.8491 70.776 10.8908 71.2291C11.0106 72.3749 11.1668 73.526 11.3699 74.6562Z" fill="#1B243D"/>
<path d="M11.8127 61.5886C12.219 61.5886 12.5731 61.2865 12.6252 60.875C12.7033 60.2657 12.7919 59.6511 12.8908 59.0417C12.9638 58.599 12.6617 58.1771 12.2138 58.1042C11.7711 58.0261 11.3492 58.3334 11.2763 58.7761C11.1721 59.4063 11.0783 60.0417 11.0002 60.6719C10.9481 61.1198 11.2658 61.5313 11.7138 61.5886C11.7502 61.5886 11.7815 61.5886 11.8127 61.5886Z" fill="#1B243D"/>
<path d="M43.875 109.375C43.2864 109.188 42.6979 108.995 42.1198 108.787C41.6927 108.635 41.2239 108.854 41.0677 109.281C40.9167 109.708 41.1406 110.177 41.5625 110.328C42.1614 110.542 42.776 110.75 43.3802 110.932C43.4635 110.964 43.5469 110.969 43.625 110.969C43.9739 110.969 44.2969 110.745 44.4062 110.396C44.5469 109.964 44.3073 109.505 43.875 109.375Z" fill="#1B243D"/>
<path d="M31.9222 103.594C30.891 102.891 29.8806 102.135 28.9118 101.349C28.5628 101.063 28.0472 101.115 27.7608 101.464C27.4743 101.818 27.5264 102.333 27.8753 102.62C28.8806 103.432 29.9326 104.214 31.0003 104.948C31.141 105.042 31.3024 105.089 31.4639 105.089C31.7243 105.089 31.9795 104.964 32.141 104.734C32.391 104.354 32.2972 103.844 31.9222 103.594Z" fill="#1B243D"/>
<path d="M38.5472 107.333C37.417 106.813 36.292 106.24 35.2034 105.625C34.8076 105.406 34.3076 105.547 34.0837 105.938C33.8649 106.333 34.0055 106.833 34.3962 107.057C35.5212 107.688 36.693 108.286 37.8701 108.823C37.9795 108.87 38.0941 108.896 38.2087 108.896C38.5212 108.896 38.8128 108.724 38.9534 108.422C39.1357 108.005 38.9587 107.521 38.5472 107.333Z" fill="#1B243D"/>
<mask id="mask2_387_280" style="mask-type:luminance" maskUnits="userSpaceOnUse" x="0" y="80" width="28" height="28">
<path d="M0 80.6666H27.5052V107.333H0V80.6666Z" fill="white"/>
</mask>
<g mask="url(#mask2_387_280)">
<path d="M24.7189 97.4791C24.4741 97.2135 24.0887 97.1562 23.7762 97.302V82.3645C23.7762 81.6666 23.2137 81.1041 22.5158 81.1041H1.32829C0.63037 81.1041 0.0678711 81.6666 0.0678711 82.3645V98.6354C0.0678711 99.3333 0.63037 99.8958 1.32829 99.8958H6.16162V105.38C6.16162 105.901 6.47933 106.365 6.9637 106.552C7.10954 106.615 7.271 106.641 7.42204 106.641C7.771 106.641 8.10433 106.495 8.34912 106.234L14.1772 99.901H22.5158C23.1408 99.901 23.6616 99.4427 23.7606 98.8437C24.1304 99.2239 24.5106 99.6041 24.8856 99.9739C25.047 100.125 25.2502 100.203 25.4585 100.203C25.672 100.203 25.8856 100.115 26.047 99.9531C26.3595 99.6302 26.3491 99.1093 26.0262 98.7916C25.5835 98.3593 25.146 97.9218 24.7189 97.4791ZM21.2554 97.375H13.6252C13.271 97.375 12.9377 97.5208 12.6981 97.776L8.68245 102.146V98.6354C8.68245 97.9375 8.11996 97.375 7.42204 97.375H2.5887V83.625H21.2554V97.375Z" fill="#1B243D"/>
</g>
<path d="M84.6304 102.089C84.1409 102.464 83.6409 102.833 83.1409 103.188C82.7711 103.448 82.6825 103.958 82.9429 104.328C83.1044 104.552 83.3544 104.672 83.6096 104.672C83.7763 104.672 83.9377 104.625 84.0836 104.526C84.6044 104.156 85.12 103.776 85.6252 103.385C85.9794 103.115 86.0523 102.599 85.7763 102.24C85.5002 101.88 84.9898 101.818 84.6304 102.089Z" fill="#1B243D"/>
<path d="M80.495 104.922C79.6148 105.448 78.7137 105.958 77.8023 106.427C77.4012 106.63 77.2398 107.125 77.4481 107.531C77.5939 107.812 77.8804 107.974 78.1773 107.974C78.3023 107.974 78.4325 107.948 78.5471 107.885C79.4898 107.401 80.4273 106.87 81.3387 106.323C81.7242 106.088 81.8492 105.588 81.6148 105.203C81.3856 104.812 80.8804 104.687 80.495 104.922Z" fill="#1B243D"/>
<path d="M74.9429 107.776C74.0054 108.177 73.0367 108.552 72.0732 108.891C71.6461 109.042 71.4221 109.505 71.5679 109.932C71.6877 110.271 72.0002 110.484 72.3388 110.484C72.4273 110.484 72.5211 110.469 72.6096 110.437C73.6096 110.088 74.6148 109.698 75.5888 109.281C76.0054 109.104 76.1982 108.625 76.0159 108.208C75.8388 107.786 75.3596 107.594 74.9429 107.776Z" fill="#1B243D"/>
<path d="M69.0469 109.828C68.4583 109.99 67.8542 110.141 67.2552 110.276C66.8125 110.38 66.5365 110.818 66.6406 111.255C66.724 111.635 67.0625 111.896 67.4375 111.896C67.4948 111.896 67.5573 111.885 67.6198 111.875C68.2448 111.734 68.8698 111.578 69.4792 111.411C69.9167 111.292 70.1771 110.839 70.0573 110.406C69.9323 109.964 69.4844 109.708 69.0469 109.828Z" fill="#1B243D"/>
<path d="M103.183 58.625C103.11 58.1823 102.688 57.8802 102.24 57.9584C101.797 58.0313 101.495 58.4532 101.568 58.9011C101.672 59.5052 101.766 60.1198 101.839 60.7292C101.891 61.1407 102.245 61.4479 102.651 61.4479C102.683 61.4479 102.719 61.4427 102.755 61.4375C103.203 61.3854 103.521 60.974 103.464 60.5261C103.386 59.8959 103.287 59.2552 103.183 58.625Z" fill="#1B243D"/>
<path d="M101.787 77.0573C101.844 77.0729 101.907 77.0781 101.964 77.0781C102.339 77.0781 102.677 76.8177 102.761 76.4323C103.042 75.151 103.271 73.8437 103.438 72.5416C103.5 72.0937 103.183 71.6875 102.735 71.625C102.287 71.5677 101.881 71.8854 101.818 72.3281C101.657 73.5833 101.438 74.8489 101.162 76.0833C101.068 76.526 101.344 76.9583 101.787 77.0573Z" fill="#1B243D"/>
<path d="M102.938 69.2916C102.953 69.2916 102.964 69.2916 102.974 69.2916C103.412 69.2916 103.776 68.9479 103.792 68.5104C103.823 67.8229 103.839 67.125 103.839 66.4375C103.839 65.8125 103.828 65.1823 103.802 64.5625C103.787 64.1094 103.401 63.7552 102.953 63.776C102.5 63.7916 102.151 64.1719 102.167 64.625C102.188 65.2239 102.203 65.8333 102.203 66.4375C102.203 67.0989 102.188 67.776 102.162 68.4375C102.135 68.8906 102.484 69.2708 102.938 69.2916Z" fill="#1B243D"/>
<path d="M100.162 79.8593C99.9795 80.4479 99.7816 81.0364 99.5733 81.6145C99.417 82.0364 99.641 82.5052 100.068 82.6614C100.157 82.6927 100.25 82.7083 100.344 82.7083C100.677 82.7083 100.995 82.4999 101.11 82.1666C101.328 81.5677 101.532 80.9531 101.719 80.3489C101.855 79.9166 101.615 79.4583 101.183 79.3229C100.756 79.1874 100.297 79.427 100.162 79.8593Z" fill="#1B243D"/>
<path d="M5.00014 96.323C5.65639 96.5625 6.38035 96.224 6.61472 95.573L7.10951 94.2084H9.94285L10.4376 95.573C10.6251 96.0834 11.1095 96.4011 11.6251 96.4011C11.7658 96.4011 11.9116 96.3802 12.0522 96.3282C12.6251 96.1198 12.9533 95.5417 12.8699 94.9636C13.4845 95.8959 14.5418 96.5105 15.7449 96.5105C16.2918 96.5105 16.8126 96.3802 17.271 96.1511C17.4793 96.3073 17.7449 96.4011 18.0262 96.4011C18.7241 96.4011 19.2866 95.8386 19.2866 95.1407V86.6094C19.2866 85.9115 18.7241 85.349 18.0262 85.349C17.3283 85.349 16.7658 85.9115 16.7658 86.6094V89.7813C16.4376 89.6771 16.0939 89.625 15.7449 89.625C13.8439 89.625 12.3022 91.1719 12.3022 93.0677C12.3022 93.1615 12.3022 93.2552 12.3126 93.349L9.71368 86.1823C9.53139 85.6823 9.05743 85.349 8.52618 85.349C7.99493 85.349 7.52097 85.6823 7.33868 86.1823L4.24493 94.7084C4.00535 95.3646 4.34389 96.0886 5.00014 96.323ZM15.7449 92.1459C16.2553 92.1459 16.6668 92.5573 16.6668 93.0677C16.6668 93.573 16.2553 93.9844 15.7449 93.9844C15.2397 93.9844 14.8283 93.573 14.8283 93.0677C14.8283 92.5573 15.2397 92.1459 15.7449 92.1459ZM9.03139 91.6875H8.02618L8.53139 90.3073L9.03139 91.6875Z" fill="#1B243D"/>
</svg>
