<svg width="137" height="138" viewBox="0 0 137 138" fill="none" xmlns="http://www.w3.org/2000/svg">
<mask id="mask0_387_107" style="mask-type:luminance" maskUnits="userSpaceOnUse" x="0" y="82" width="114" height="56">
<path d="M0 82.6667H113.786V137.333H0V82.6667Z" fill="white"/>
</mask>
<g mask="url(#mask0_387_107)">
<path d="M111.422 103.849C111.016 103.323 110.542 102.865 110 102.479C109.458 102.089 108.875 101.792 108.245 101.583C107.609 101.37 106.964 101.255 106.297 101.24C105.635 101.224 104.979 101.302 104.339 101.484L79.8802 108.229C79.9583 107.818 79.9896 107.401 79.9844 106.984C79.9844 106.5 79.9427 106.026 79.849 105.552C79.7604 105.078 79.6198 104.615 79.4375 104.167C79.2552 103.724 79.0313 103.297 78.7656 102.896C78.5 102.49 78.1979 102.12 77.8594 101.776C77.5208 101.432 77.151 101.125 76.75 100.854C76.349 100.583 75.9271 100.354 75.4844 100.167C75.0417 99.9791 74.5781 99.8385 74.1094 99.7396C73.6354 99.6458 73.1563 99.5937 72.6719 99.5937H57.224C55.6146 98.0104 53.875 96.5937 52 95.3385C50.125 94.0781 48.151 93.0104 46.0781 92.1198C44 91.2344 41.8646 90.5416 39.6615 90.0521C37.4583 89.5677 35.2292 89.2864 32.974 89.2083H23.8594V88.0469C23.849 87.3333 23.7031 86.6458 23.4219 85.9896C23.1406 85.3333 22.7448 84.7552 22.2344 84.2552C21.7292 83.7552 21.1406 83.3698 20.4792 83.0989C19.8177 82.8281 19.1302 82.6927 18.4167 82.6927H5.44271C5.08333 82.6927 4.72917 82.7239 4.38021 82.7969C4.03125 82.8646 3.6875 82.9687 3.35938 83.1041C3.03125 83.2396 2.71354 83.4114 2.41667 83.6094C2.11979 83.8073 1.84896 84.0312 1.59375 84.2864C1.34375 84.5364 1.11458 84.8125 0.916667 85.1094C0.718751 85.4062 0.552084 85.7187 0.416667 86.0469C0.276043 86.3802 0.177084 86.7187 0.104167 87.0677C0.0364587 87.4219 0 87.776 0 88.1302V127.292C0 127.651 0.0364587 128.005 0.104167 128.354C0.177084 128.703 0.276043 129.042 0.416667 129.375C0.552084 129.703 0.718751 130.016 0.916667 130.312C1.11458 130.609 1.34375 130.885 1.59375 131.141C1.84896 131.391 2.11979 131.615 2.41667 131.818C2.71354 132.016 3.03125 132.182 3.35938 132.318C3.6875 132.453 4.03125 132.557 4.38021 132.625C4.72917 132.698 5.08333 132.734 5.44271 132.734H18.4167C18.776 132.734 19.1302 132.698 19.4792 132.625C19.8281 132.557 20.1719 132.453 20.5 132.318C20.8281 132.182 21.1458 132.016 21.4427 131.818C21.7396 131.615 22.0104 131.391 22.2656 131.141C22.5156 130.885 22.7448 130.609 22.9427 130.312C23.1406 130.016 23.3073 129.703 23.4427 129.375C23.5833 129.042 23.6823 128.703 23.7552 128.354C23.8229 128.005 23.8594 127.651 23.8594 127.292V126.917L49.8333 135.927C51.4479 136.484 53.099 136.87 54.7917 137.089C56.4792 137.307 58.1771 137.354 59.875 137.229C61.5781 137.104 63.25 136.812 64.8906 136.349C66.5313 135.885 68.1094 135.26 69.6198 134.474L109.26 113.88C109.693 113.651 110.099 113.38 110.474 113.068C110.849 112.75 111.188 112.401 111.484 112.01C111.781 111.625 112.031 111.208 112.24 110.766C112.448 110.318 112.604 109.859 112.708 109.38C112.813 108.901 112.87 108.422 112.87 107.932C112.87 107.443 112.813 106.958 112.708 106.479C112.604 106 112.448 105.542 112.24 105.099C112.031 104.651 111.781 104.24 111.484 103.849H111.422ZM108.594 108.479C108.432 109.255 107.995 109.823 107.286 110.182L67.651 130.781C65.0833 132.115 62.3542 132.885 59.4688 133.099C56.5833 133.312 53.776 132.948 51.0365 132.005L23.8594 122.557V93.4896H32.974C42.6927 93.4896 50.3125 98.7812 54.9844 103.224C55.3854 103.604 55.8646 103.792 56.4167 103.786H72.6719C73.0365 103.792 73.3854 103.854 73.724 103.974C74.0625 104.094 74.3698 104.266 74.651 104.49C74.9323 104.719 75.1667 104.984 75.3542 105.286C75.5469 105.594 75.6823 105.917 75.7656 106.271C75.8438 106.62 75.8646 106.974 75.8229 107.333C75.7865 107.687 75.6875 108.031 75.5365 108.354C75.3802 108.677 75.1771 108.969 74.9271 109.224C74.6771 109.484 74.3854 109.693 74.0677 109.849H73.8594C73.4792 110 73.0833 110.078 72.6719 110.078H48.2135C47.9375 110.078 47.6719 110.13 47.4219 110.234C47.1667 110.344 46.9427 110.49 46.7448 110.687C46.5521 110.88 46.401 111.104 46.2969 111.359C46.1927 111.615 46.1406 111.88 46.1406 112.156C46.1406 112.432 46.1927 112.693 46.2969 112.948C46.401 113.203 46.5521 113.427 46.7448 113.625C46.9427 113.818 47.1667 113.969 47.4219 114.073C47.6719 114.177 47.9375 114.229 48.2135 114.229H72.6719C73.6667 114.229 74.625 114.036 75.5417 113.651L105.458 105.344C105.958 105.203 106.448 105.214 106.938 105.38C107.427 105.542 107.828 105.828 108.141 106.24C108.682 106.906 108.833 107.651 108.594 108.479Z" fill="#1B243D"/>
</g>
<mask id="mask1_387_107" style="mask-type:luminance" maskUnits="userSpaceOnUse" x="23" y="0" width="114" height="56">
<path d="M23.1201 0H136.933V56H23.1201V0Z" fill="white"/>
</mask>
<g mask="url(#mask1_387_107)">
<path d="M131.604 4.82813H118.625C118.266 4.82813 117.917 4.85938 117.563 4.9323C117.214 5.00001 116.875 5.10417 116.542 5.23959C116.214 5.375 115.901 5.54167 115.604 5.7448C115.308 5.94271 115.032 6.16667 114.776 6.41667C114.526 6.67188 114.302 6.94792 114.104 7.2448C113.901 7.54167 113.735 7.85417 113.599 8.1823C113.464 8.51563 113.36 8.85417 113.292 9.20313C113.219 9.5573 113.188 9.90626 113.188 10.2656V10.6406L87.2086 1.63021C85.5992 1.07292 83.943 0.687506 82.2555 0.468755C80.5628 0.250006 78.8649 0.20313 77.167 0.32813C75.4638 0.45313 73.7972 0.750006 72.1565 1.21355C70.5159 1.67709 68.9378 2.29688 67.4222 3.08334L27.844 23.6771C27.4378 23.8385 27.0472 24.0365 26.6774 24.2708C26.3076 24.5104 25.9638 24.7813 25.6461 25.0833C25.3336 25.3854 25.0472 25.7188 24.7972 26.0781C24.5472 26.4375 24.3336 26.8177 24.1565 27.224C23.9795 27.625 23.844 28.0417 23.7503 28.4688C23.6565 28.8958 23.6045 29.3281 23.594 29.7708C23.5836 30.2083 23.6201 30.6406 23.693 31.0729C23.7711 31.5052 23.8909 31.9271 24.0472 32.3385C24.2086 32.7448 24.4065 33.1354 24.6409 33.5052C24.8805 33.875 25.1461 34.2188 25.4534 34.5365C25.7555 34.849 26.0888 35.1354 26.4482 35.3854C26.8076 35.6406 27.1878 35.8542 27.5888 36.0313C27.9899 36.2031 28.4065 36.3385 28.8336 36.4375C29.2659 36.5313 29.6982 36.5833 30.1357 36.5938C30.5732 36.599 31.0107 36.5677 31.443 36.4896C31.8753 36.4167 32.2972 36.2969 32.7034 36.1354L57.1617 29.3281C57.0992 29.7396 57.0628 30.1563 57.0628 30.5729C57.0576 31.0573 57.0992 31.5365 57.193 32.0052C57.2867 32.4792 57.4222 32.9427 57.6045 33.3906C57.7867 33.8385 58.0107 34.2604 58.2763 34.6615C58.542 35.0677 58.844 35.4375 59.1826 35.7813C59.5211 36.125 59.8909 36.4323 60.292 36.7031C60.693 36.974 61.1149 37.2031 61.5576 37.3906C62.0055 37.5781 62.4638 37.7188 62.9378 37.8177C63.4065 37.9115 63.8857 37.9635 64.3701 37.9635H79.7972C81.4065 39.5469 83.1461 40.9635 85.0211 42.2188C86.8961 43.4792 88.8701 44.5469 90.9482 45.4375C93.0211 46.3229 95.1617 47.0156 97.3597 47.5052C99.5628 47.9948 101.792 48.276 104.047 48.349H113.167V49.5104C113.167 49.8646 113.198 50.2188 113.271 50.5729C113.339 50.9219 113.443 51.2604 113.578 51.5938C113.714 51.9219 113.88 52.2344 114.084 52.5313C114.282 52.8281 114.505 53.1042 114.755 53.3542C115.011 53.6094 115.287 53.8333 115.584 54.0313C115.88 54.2292 116.193 54.401 116.521 54.5365C116.854 54.6719 117.193 54.776 117.542 54.8438C117.896 54.9167 118.245 54.9479 118.604 54.9479H131.584C131.943 54.9531 132.302 54.9167 132.657 54.849C133.011 54.776 133.354 54.6719 133.688 54.5365C134.026 54.3958 134.339 54.224 134.641 54.0208C134.943 53.8229 135.219 53.5938 135.474 53.3333C135.724 53.0781 135.953 52.7969 136.151 52.4948C136.349 52.1927 136.516 51.875 136.651 51.5365C136.787 51.2031 136.886 50.8594 136.953 50.5C137.016 50.1458 137.047 49.7865 137.042 49.4271V10.2656C137.042 9.90626 137.011 9.5573 136.938 9.20313C136.87 8.85417 136.766 8.51563 136.63 8.1823C136.49 7.85417 136.323 7.54167 136.125 7.2448C135.927 6.94792 135.703 6.67188 135.448 6.41667C135.198 6.16667 134.922 5.94271 134.625 5.7448C134.328 5.54167 134.016 5.375 133.683 5.23959C133.354 5.10417 133.016 5.00001 132.662 4.9323C132.313 4.85938 131.959 4.82813 131.604 4.82813ZM113.188 44.1094H104.068C94.3545 44.1094 86.7295 38.8177 82.0576 34.375C81.6565 33.9948 81.1774 33.8073 80.6253 33.8125H64.3701C63.9482 33.8073 63.542 33.724 63.1513 33.5625C62.7607 33.401 62.417 33.1667 62.1201 32.8698C61.8232 32.5677 61.594 32.224 61.4326 31.8333C61.2711 31.4427 61.193 31.0365 61.193 30.6146C61.1878 30 61.3545 29.4375 61.6774 28.9167C62.0055 28.401 62.443 28.0104 63.0003 27.75C63.0524 27.7604 63.1097 27.7604 63.167 27.75C63.5524 27.599 63.9534 27.5208 64.3701 27.5208H88.8284C89.1045 27.5208 89.3701 27.4688 89.6253 27.3646C89.8805 27.2552 90.1045 27.1094 90.2972 26.9115C90.4899 26.7188 90.6409 26.4948 90.7451 26.2396C90.8545 25.9844 90.9065 25.7188 90.9065 25.4427C90.9065 25.1667 90.8545 24.9063 90.7451 24.651C90.6409 24.3958 90.4899 24.1719 90.2972 23.974C90.1045 23.7813 89.8805 23.6302 89.6253 23.526C89.3701 23.4219 89.1045 23.3698 88.8284 23.3698H64.3701C63.3805 23.3698 62.4326 23.5625 61.5263 23.9479L31.5836 32.2552C31.0888 32.3958 30.594 32.3854 30.1045 32.2188C29.6201 32.0573 29.219 31.7708 28.9065 31.3646C28.6722 31.0677 28.5159 30.7344 28.4326 30.3698C28.3492 30 28.3492 29.6354 28.4326 29.2656C28.5107 28.901 28.667 28.5677 28.8909 28.2708C29.1201 27.974 29.4013 27.7344 29.7347 27.5625L69.3961 6.77605C71.9586 5.43751 74.6878 4.66146 77.5732 4.45313C80.4586 4.23959 83.2711 4.60417 86.0055 5.55209L113.188 15V44.1094Z" fill="#1B243D"/>
</g>
<path d="M68.521 45.4792C67.7606 45.4792 67.0002 45.5209 66.2397 45.5938C65.4793 45.6667 64.7241 45.7813 63.9793 45.9271C63.2293 46.0781 62.4897 46.2656 61.7606 46.4844C61.0314 46.7084 60.3127 46.9636 59.6043 47.2552C58.9012 47.5469 58.2137 47.875 57.5418 48.2344C56.8647 48.5938 56.2137 48.9844 55.5783 49.4063C54.9429 49.8334 54.3335 50.2865 53.7397 50.7709C53.1512 51.2552 52.5887 51.7656 52.047 52.3073C51.5106 52.8438 50.995 53.4115 50.5106 54C50.0262 54.5886 49.5731 55.2031 49.1512 55.8334C48.7293 56.4688 48.3335 57.125 47.9741 57.7969C47.6147 58.4688 47.2918 59.1563 47.0002 59.8646C46.7085 60.5677 46.4481 61.2865 46.2293 62.0156C46.0054 62.7448 45.8231 63.4844 45.672 64.2344C45.521 64.9844 45.4116 65.7344 45.3387 66.4948C45.2606 67.2552 45.2241 68.0156 45.2241 68.7813C45.2241 69.5417 45.2606 70.3021 45.3387 71.0625C45.4116 71.8229 45.521 72.5729 45.672 73.3229C45.8231 74.0729 46.0054 74.8125 46.2293 75.5417C46.4481 76.2709 46.7085 76.9896 47.0002 77.6927C47.2918 78.4011 47.6147 79.0886 47.9741 79.7604C48.3335 80.4323 48.7293 81.0886 49.1512 81.724C49.5731 82.3542 50.0262 82.9688 50.5106 83.5573C50.995 84.1459 51.5106 84.7136 52.047 85.25C52.5887 85.7917 53.1512 86.3021 53.7397 86.7865C54.3335 87.2709 54.9429 87.724 55.5783 88.1511C56.2137 88.5729 56.8647 88.9636 57.5418 89.3229C58.2137 89.6823 58.9012 90.0104 59.6043 90.3021C60.3127 90.5938 61.0314 90.849 61.7606 91.0729C62.4897 91.2969 63.2293 91.4792 63.9793 91.6302C64.7241 91.7761 65.4793 91.8906 66.2397 91.9636C67.0002 92.0365 67.7606 92.0781 68.521 92.0781C69.2866 92.0781 70.047 92.0365 70.8075 91.9636C71.5627 91.8906 72.3179 91.7761 73.0679 91.6302C73.8127 91.4792 74.5522 91.2969 75.2866 91.0729C76.0158 90.849 76.7345 90.5938 77.4377 90.3021C78.1408 90.0104 78.8335 89.6823 79.5054 89.3229C80.1772 88.9636 80.8283 88.5729 81.4637 88.1511C82.0991 87.724 82.7137 87.2709 83.3022 86.7865C83.8908 86.3021 84.4585 85.7917 84.995 85.25C85.5366 84.7136 86.047 84.1459 86.5314 83.5573C87.0158 82.9688 87.4689 82.3542 87.8908 81.724C88.3179 81.0886 88.7085 80.4323 89.0679 79.7604C89.4272 79.0886 89.7554 78.4011 90.047 77.6927C90.3387 76.9896 90.5939 76.2709 90.8179 75.5417C91.0366 74.8125 91.2241 74.0729 91.37 73.3229C91.521 72.5729 91.6304 71.8229 91.7085 71.0625C91.7814 70.3021 91.8179 69.5417 91.8179 68.7813C91.8179 68.0156 91.7814 67.2552 91.7033 66.4948C91.6304 65.7344 91.5158 64.9844 91.37 64.2344C91.2189 63.4896 91.0314 62.75 90.8127 62.0209C90.5887 61.2865 90.3335 60.5729 90.0418 59.8646C89.7502 59.1615 89.422 58.474 89.0627 57.8021C88.7033 57.1302 88.3127 56.474 87.8856 55.8386C87.4637 55.2084 87.0106 54.5938 86.5262 54.0052C86.0418 53.4167 85.5262 52.849 84.9897 52.3125C84.4481 51.7709 83.8856 51.2604 83.297 50.7761C82.7085 50.2917 82.0939 49.8386 81.4585 49.4167C80.8283 48.9896 80.172 48.599 79.5002 48.2396C78.8283 47.8802 78.1408 47.5521 77.4325 47.2604C76.7293 46.9688 76.0106 46.7136 75.2814 46.4896C74.5522 46.2656 73.8127 46.0834 73.0679 45.9323C72.3179 45.7813 71.5627 45.6719 70.8022 45.5938C70.047 45.5209 69.2866 45.4844 68.521 45.4792ZM68.521 66.7031C69.3179 66.7031 70.0887 66.8386 70.8335 67.1146C71.5783 67.3906 72.2554 67.7865 72.8595 68.3021C73.4637 68.8229 73.9585 69.4271 74.3491 70.1198C74.7397 70.8125 74.995 71.5521 75.12 72.3386C75.245 73.1198 75.2293 73.9063 75.0783 74.6823C74.922 75.4636 74.6356 76.1927 74.2241 76.875C73.8075 77.5521 73.2918 78.1354 72.6668 78.6302C72.0418 79.125 71.3543 79.4948 70.5991 79.7396V81.6302C70.5991 81.9063 70.547 82.1719 70.4377 82.4271C70.3335 82.6823 70.1825 82.9063 69.9897 83.099C69.797 83.2969 69.5731 83.4427 69.3179 83.5521C69.0627 83.6563 68.797 83.7084 68.521 83.7084C68.245 83.7084 67.9793 83.6563 67.7293 83.5521C67.4741 83.4427 67.2502 83.2969 67.0522 83.099C66.8595 82.9063 66.7085 82.6823 66.6043 82.4271C66.5002 82.1719 66.4429 81.9063 66.4429 81.6302V79.7396C65.771 79.5261 65.1512 79.2136 64.5783 78.8021C64.0054 78.3906 63.5106 77.9011 63.0939 77.3334C62.672 76.7604 62.3543 76.1406 62.1304 75.474C61.9116 74.8021 61.797 74.1146 61.7918 73.4115C61.7918 73.1354 61.8491 72.8698 61.9533 72.6146C62.0575 72.3594 62.2085 72.1354 62.4012 71.9427C62.5991 71.7448 62.8231 71.5938 63.0783 71.4896C63.3283 71.3854 63.5939 71.3334 63.87 71.3334C64.146 71.3334 64.4116 71.3854 64.6668 71.4896C64.922 71.5938 65.146 71.7448 65.3387 71.9427C65.5314 72.1354 65.6825 72.3594 65.7866 72.6146C65.896 72.8698 65.9481 73.1354 65.9481 73.4115C65.9533 73.7448 66.021 74.0729 66.1564 74.3802C66.2866 74.6927 66.4741 74.9636 66.7137 75.2031C66.9585 75.4375 67.2345 75.625 67.547 75.75C67.8595 75.8802 68.1825 75.9427 68.521 75.9427C68.8387 75.9115 69.1408 75.8281 69.4272 75.6875C69.7137 75.5469 69.9637 75.3594 70.1772 75.1198C70.3908 74.8854 70.5575 74.6198 70.672 74.3229C70.7866 74.0261 70.8439 73.7188 70.8439 73.4011C70.8439 73.0781 70.7866 72.7709 70.672 72.474C70.5575 72.1771 70.3908 71.9115 70.1772 71.6771C69.9637 71.4427 69.7137 71.25 69.4272 71.1094C69.1408 70.9688 68.8387 70.8854 68.521 70.8542C67.7241 70.8646 66.9481 70.7292 66.1981 70.4584C65.4481 70.1875 64.7658 69.7969 64.1564 69.2813C63.547 68.7656 63.047 68.1615 62.6512 67.4636C62.2606 66.7709 62.0002 66.0261 61.8752 65.2396C61.7502 64.4531 61.7658 63.6667 61.922 62.8854C62.0783 62.099 62.3647 61.3698 62.7866 60.6875C63.2033 60.0104 63.7293 59.4271 64.3595 58.9323C64.9897 58.4427 65.6825 58.0781 66.4429 57.8386V55.9479C66.4429 55.6719 66.5002 55.4063 66.6043 55.1511C66.7085 54.8959 66.8595 54.6719 67.0522 54.4792C67.2502 54.2813 67.4741 54.1354 67.7293 54.0261C67.9793 53.9219 68.245 53.8698 68.521 53.8698C68.797 53.8698 69.0627 53.9219 69.3179 54.0261C69.5731 54.1354 69.797 54.2813 69.9897 54.4792C70.1825 54.6719 70.3335 54.8959 70.4377 55.1511C70.547 55.4063 70.5991 55.6719 70.5991 55.9479V57.8386C71.2658 58.0573 71.8804 58.375 72.4429 58.7917C73.0106 59.2031 73.5002 59.6979 73.9116 60.2656C74.3231 60.8334 74.6356 61.4479 74.8543 62.1146C75.0731 62.7813 75.1825 63.4688 75.1877 64.1667C75.1877 64.4427 75.1356 64.7084 75.0314 64.9636C74.922 65.2188 74.771 65.4427 74.5783 65.6354C74.3856 65.8334 74.1616 65.9844 73.9064 66.0886C73.6512 66.1927 73.3856 66.2448 73.1095 66.2448C72.8335 66.2448 72.5679 66.1927 72.3179 66.0886C72.0627 65.9844 71.8387 65.8334 71.6408 65.6354C71.4481 65.4427 71.297 65.2188 71.1929 64.9636C71.0887 64.7084 71.0366 64.4427 71.0366 64.1667C71.0418 63.8334 70.9845 63.5052 70.8595 63.1927C70.7345 62.875 70.5575 62.599 70.3179 62.3594C70.0835 62.1198 69.8075 61.9323 69.495 61.8021C69.1825 61.6771 68.8595 61.6146 68.521 61.6146C68.1825 61.6146 67.8595 61.6823 67.547 61.8073C67.2345 61.9375 66.9637 62.1198 66.7241 62.3594C66.4845 62.599 66.3022 62.875 66.172 63.1875C66.0418 63.4948 65.9793 63.8229 65.9793 64.1563C65.9793 64.4948 66.0418 64.8229 66.172 65.1302C66.3022 65.4427 66.4845 65.7188 66.7241 65.9584C66.9637 66.1979 67.2345 66.3802 67.547 66.5104C67.8595 66.6354 68.1825 66.7031 68.521 66.7031Z" fill="#1B243D"/>
</svg>
