<svg width="27" height="22" viewBox="0 0 27 22" fill="none" xmlns="http://www.w3.org/2000/svg">
<mask id="mask0_509_8270" style="mask-type:luminance" maskUnits="userSpaceOnUse" x="0" y="13" width="27" height="9">
<path d="M0 13.0099H26.9144V21.5316H0V13.0099Z" fill="white"/>
</mask>
<g mask="url(#mask0_509_8270)">
<path d="M26.8808 14.1459C26.8135 13.9524 26.7574 13.7616 26.6003 13.6101C26.3366 13.3521 26.0056 13.282 25.6634 13.2315C25.0715 13.1445 24.519 13.3128 23.9636 13.4727C22.6087 13.8682 21.2483 14.2609 19.8906 14.6536C19.8485 14.6648 19.8065 14.6817 19.7672 14.6929C19.8037 14.85 19.8429 14.9958 19.8682 15.1445C20.0084 15.9047 19.5176 16.7209 18.7293 17.0183C18.317 17.1754 17.885 17.2427 17.4474 17.2595C16.5666 17.2932 15.6943 17.2174 14.8247 17.108C14.087 17.0155 13.3521 16.9229 12.6143 16.8303C12.6031 16.8275 12.5919 16.8247 12.5386 16.8079C12.6648 16.763 12.7574 16.7266 12.8528 16.6985C13.2651 16.5667 13.6915 16.5218 14.1206 16.5134C15.1809 16.4881 16.2413 16.5106 17.2988 16.6087C17.6634 16.6424 18.0309 16.6396 18.3843 16.5106C19.0519 16.2665 19.3689 15.6298 19.1529 14.9706C19.0631 14.6929 18.8752 14.5078 18.6171 14.3843C18.3002 14.2301 17.9579 14.1571 17.6101 14.1235C16.749 14.0393 15.885 13.9664 15.0183 13.9019C13.8261 13.8093 12.6564 13.6017 11.5035 13.2735C11.0379 13.1417 10.5638 13.0519 10.0786 13.0463C9.41096 13.0379 8.81348 13.2399 8.29455 13.6662C7.39413 14.404 6.40114 14.993 5.36608 15.5176C3.67744 16.3731 1.91867 17.0491 0.112223 17.6101C0.0813675 17.6186 0.0533167 17.6298 0.0224609 17.6382C0.0224609 17.655 0.0224609 17.6747 0.0224609 17.6915C0.0477069 17.742 0.0757567 17.7925 0.0953922 17.843C0.392728 18.6003 0.925687 19.1613 1.56243 19.6354C2.55542 20.3703 3.68305 20.8219 4.85276 21.1866C5.13607 21.2763 5.32681 21.2399 5.55963 21.0407C6.52456 20.2216 7.6578 19.7448 8.89764 19.5176C10 19.3156 11.1164 19.2792 12.2356 19.3184C12.8443 19.3381 13.453 19.3465 14.0589 19.3857C14.9481 19.4418 15.8345 19.5008 16.7209 19.5989C17.2903 19.6606 17.7981 19.5793 18.2917 19.2651C20.6536 17.7672 23.1108 16.4376 25.6774 15.3184C25.8934 15.2259 26.1122 15.1333 26.3198 15.0211C26.5751 14.8864 26.777 14.6957 26.8808 14.4152C26.8808 14.3254 26.8808 14.2357 26.8808 14.1459Z" fill="#1B243D"/>
</g>
<path d="M20.0314 3.32121H15.7901C15.6948 3.32121 15.6162 3.24267 15.6162 3.1473C15.6162 3.05193 15.6948 2.97339 15.7901 2.97339H20.0314C20.1267 2.97339 20.2053 3.05193 20.2053 3.1473C20.2053 3.24267 20.1267 3.32121 20.0314 3.32121Z" fill="#1B243D"/>
<path d="M20.0314 3.94109H15.7901C15.6948 3.94109 15.6162 3.86255 15.6162 3.76717C15.6162 3.6718 15.6948 3.59326 15.7901 3.59326H20.0314C20.1267 3.59326 20.2053 3.6718 20.2053 3.76717C20.2053 3.86255 20.1267 3.94109 20.0314 3.94109Z" fill="#1B243D"/>
<mask id="mask1_509_8270" style="mask-type:luminance" maskUnits="userSpaceOnUse" x="14" y="0" width="9" height="3">
<path d="M14.1768 0H22.0758V2.95652H14.1768V0Z" fill="white"/>
</mask>
<g mask="url(#mask1_509_8270)">
<path d="M20.7433 0.103819C20.1683 0.173945 19.5904 0.350663 19.0518 0.575067C17.711 1.12486 18.0673 1.07717 16.833 0.575067C16.359 0.381518 15.8681 0.21041 15.3716 0.0869882C15.0462 0.00564197 14.7012 0.0617426 14.4852 0.373103C14.2748 0.676049 14.3478 1.00424 14.5273 1.27633C14.7854 1.66904 15.0827 2.0365 15.3856 2.39554C15.481 2.50775 15.5932 2.58348 15.7251 2.62556V2.62836C15.7251 2.62836 15.7251 2.62836 15.7279 2.62836C15.7587 2.63958 15.7896 2.648 15.8204 2.65361H15.8232C15.8457 2.65922 15.8709 2.66202 15.8962 2.66483C15.9467 2.67044 16.0028 2.67324 16.056 2.67044C16.0757 2.67044 16.0925 2.67044 16.1093 2.67044C16.373 2.69007 16.7741 2.70971 17.3127 2.69849C18.1683 2.71812 19.1977 2.72093 19.8541 2.65922H19.8569C19.8849 2.65922 19.9158 2.65641 19.9467 2.65361C19.9831 2.6508 20.0224 2.64519 20.0589 2.63678C20.0617 2.63678 20.0617 2.63678 20.0617 2.63678C20.1374 2.61995 20.2075 2.5919 20.2552 2.54702C20.7293 2.11784 21.1612 1.6466 21.3884 1.03229C21.5988 0.46006 21.338 0.028082 20.7433 0.103819Z" fill="#1B243D"/>
</g>
<path d="M18.4019 11.4306V12.2048H17.566V11.4586C16.8648 11.4109 16.2028 11.209 15.7988 10.9285L16.2505 9.91022C16.6852 10.1963 17.2995 10.3899 17.8634 10.3899C18.4384 10.3899 18.66 10.23 18.66 9.99437C18.66 9.21738 15.883 9.78399 15.883 7.96913C15.883 7.20054 16.4328 6.54977 17.566 6.40952V5.64374H18.4019V6.3983C18.9181 6.43757 19.4286 6.57782 19.8185 6.80784L19.3949 7.83449C18.9265 7.58484 18.4664 7.45861 18.0401 7.45861C17.4594 7.45861 17.2491 7.65496 17.2491 7.899C17.2491 8.64515 20.0233 8.08694 20.0233 9.88778C20.0233 10.6283 19.4903 11.2707 18.4019 11.4306ZM22.6095 10.6171C22.0709 10.4684 21.6474 10.244 21.3108 9.92986C20.9714 9.61289 20.7974 9.21738 20.8031 8.75454C20.8115 7.92425 20.8087 7.07712 20.8087 6.25805L20.8059 4.80503C20.6628 4.65917 20.5169 4.51611 20.3627 4.37867C20.2392 4.26646 20.0317 4.20195 19.8606 4.19634C19.2126 4.1767 18.5618 4.19073 17.911 4.19073C17.911 4.18792 17.911 4.18792 17.911 4.18792C17.2603 4.18792 16.6095 4.1739 15.9587 4.19634C15.7792 4.20195 15.566 4.27768 15.4342 4.3955C13.8858 5.7868 12.8479 7.49227 12.3711 9.52593C12.2224 10.1683 12.0625 10.8191 12.1972 11.4811C12.3823 12.3787 12.9629 12.9285 13.7764 13.1501C13.7764 13.1501 13.7764 13.1501 13.7792 13.1529C13.8521 13.1725 13.9279 13.1893 14.0036 13.2034C14.8423 13.3857 17.9279 13.9355 21.7119 13.209C22.6684 13.0238 23.3753 12.5245 23.6137 11.5231C23.6726 11.2819 23.681 11.0435 23.667 10.8078C23.3136 10.777 22.9601 10.7153 22.6095 10.6171Z" fill="#1B243D"/>
<mask id="mask2_509_8270" style="mask-type:luminance" maskUnits="userSpaceOnUse" x="20" y="5" width="7" height="6">
<path d="M20.6396 5.11084H26.9145V10.8556H20.6396V5.11084Z" fill="white"/>
</mask>
<g mask="url(#mask2_509_8270)">
<path d="M24.0364 7.60731C23.9887 7.58207 23.9438 7.55963 23.9018 7.53158C23.7503 7.42779 23.7391 7.23424 23.8737 7.10801C23.927 7.05752 23.9971 7.02667 24.0729 7.01264C24.0813 7.01264 24.0897 7.01264 24.0953 7.01264C24.1149 7.00984 24.1318 7.00703 24.1486 7.00703C24.1682 7.00703 24.1851 7.00984 24.2019 7.01264C24.2103 7.01264 24.2187 7.01264 24.2243 7.01264C24.3001 7.02667 24.373 7.05752 24.4263 7.10801C24.561 7.23424 24.5469 7.42779 24.3955 7.53158C24.3562 7.55963 24.3113 7.58207 24.2636 7.60731C24.3337 7.89623 24.4039 8.18796 24.4768 8.48249H23.8232C23.8934 8.18796 23.9663 7.89623 24.0364 7.60731ZM26.948 6.84995C26.948 6.33662 26.948 5.8233 26.948 5.30998V5.22021H21.3492V5.30998C21.3492 5.8233 21.352 6.33662 21.352 6.84995H21.3548C21.3576 7.48669 21.3548 8.12344 21.3492 8.76019C21.3464 9.07716 21.4614 9.3212 21.683 9.52877C21.9466 9.77561 22.2608 9.9327 22.5974 10.0421C22.5946 10.0421 22.5946 10.0421 22.5946 10.0421C22.6451 10.0589 22.6928 10.0729 22.7433 10.087C22.8639 10.1206 22.9845 10.1487 23.1023 10.1739C23.1388 10.1823 23.1725 10.1852 23.2089 10.1936C23.2875 10.2076 23.3688 10.2216 23.4502 10.2328C23.5147 10.2441 23.582 10.2469 23.6493 10.2553C23.6998 10.2609 23.7503 10.2665 23.798 10.2693C23.8625 10.2749 23.9242 10.2749 23.9887 10.2777C24.042 10.2777 24.0953 10.2833 24.1486 10.2833C24.2019 10.2833 24.258 10.2777 24.3113 10.2777C24.3758 10.2749 24.4375 10.2749 24.502 10.2693C24.5497 10.2665 24.6002 10.2609 24.6507 10.2553C24.7152 10.2469 24.7826 10.2441 24.8499 10.2328C24.9312 10.2216 25.0098 10.2076 25.0911 10.1936C25.1276 10.1852 25.1612 10.1823 25.1949 10.1739C25.3155 10.1487 25.4361 10.1206 25.5539 10.087C25.6044 10.0729 25.6549 10.0589 25.7054 10.0421H25.7026C26.0392 9.9327 26.3506 9.77561 26.6142 9.52877C26.8387 9.3212 26.9509 9.07716 26.948 8.76019C26.9424 8.12344 26.9424 7.48669 26.9424 6.84995C26.9452 6.84995 26.9452 6.84995 26.948 6.84995Z" fill="#1B243D"/>
</g>
<path d="M22.9459 5.02944C22.671 5.02944 22.4102 5.02944 22.1409 5.02944C22.1409 4.99298 22.1409 4.95932 22.1409 4.92846C22.1409 4.41514 22.1381 3.90462 22.1409 3.3941C22.1409 2.65357 22.4887 2.115 23.1199 1.76156C23.9165 1.31836 24.887 1.43056 25.5687 2.03365C25.9417 2.36745 26.1521 2.78821 26.1605 3.29312C26.1718 3.85132 26.1633 4.40672 26.1633 4.96493C26.1633 4.98456 26.1605 5.0042 26.1577 5.02944C25.8912 5.02944 25.6304 5.02944 25.3583 5.02944C25.3583 4.85272 25.3583 4.68162 25.3583 4.51051C25.3583 4.10097 25.3723 3.68863 25.3499 3.2819C25.3302 2.90321 25.1114 2.63393 24.7861 2.46563C24.326 2.22439 23.8604 2.24122 23.42 2.52453C23.1086 2.72369 22.9431 3.01261 22.9459 3.3941C22.9487 3.90742 22.9459 4.42075 22.9459 4.93407C22.9459 4.96493 22.9459 4.99298 22.9459 5.02944Z" fill="#1B243D"/>
</svg>
