<svg width="26" height="25" viewBox="0 0 26 25" fill="none" xmlns="http://www.w3.org/2000/svg">
<mask id="mask0_509_8379" style="mask-type:luminance" maskUnits="userSpaceOnUse" x="0" y="22" width="26" height="3">
<path d="M0.536133 22.5245H25.8349V24.5414H0.536133V22.5245Z" fill="white"/>
</mask>
<g mask="url(#mask0_509_8379)">
<path d="M25.0354 23.209H1.45338C0.94567 23.209 0.536133 23.6213 0.536133 24.129V24.7433H25.9527V24.129C25.9527 23.6213 25.5431 23.209 25.0354 23.209Z" fill="#1B243D"/>
</g>
<path d="M9.18072 4.44882C8.76838 4.35345 8.34481 4.25528 7.90723 4.15149C7.90723 4.91727 7.90723 5.67463 7.90723 6.45163C8.32237 6.53017 8.74313 6.60871 9.18072 6.69006C9.18072 5.94392 9.18072 5.20619 9.18072 4.44882Z" fill="#1B243D"/>
<path d="M9.03808 7.4474C8.69586 7.39972 8.35645 7.3324 8.01704 7.27349C7.98338 7.26788 7.94691 7.27349 7.89923 7.27349C7.89642 7.31556 7.89362 7.35484 7.89362 7.39411C7.89081 8.07012 7.89362 8.74334 7.89081 9.41655C7.88801 9.52033 7.91606 9.5596 8.02265 9.57082C8.36206 9.60729 8.70147 9.65498 9.03808 9.69705C9.08296 9.70266 9.12784 9.70266 9.19235 9.70827C9.19235 9.41374 9.19235 9.14165 9.19235 8.86956C9.19235 8.46002 9.18955 8.04768 9.19516 7.63815C9.19796 7.51753 9.16991 7.46704 9.03808 7.4474Z" fill="#1B243D"/>
<path d="M9.18425 10.5021C8.76069 10.4544 8.33713 10.4095 7.90234 10.3618C7.90234 11.1332 7.90234 11.8906 7.90234 12.6563C8.33152 12.6844 8.75227 12.7096 9.18425 12.7349C9.18425 11.9915 9.18425 11.2566 9.18425 10.5021Z" fill="#1B243D"/>
<path d="M9.18438 13.5231C8.7524 13.5007 8.33725 13.4839 7.90527 13.4642C7.90527 14.2272 7.90527 14.9846 7.90527 15.7503C8.32884 15.7503 8.7524 15.7503 9.18438 15.7503C9.18438 15.0098 9.18438 14.2749 9.18438 13.5231Z" fill="#1B243D"/>
<path d="M9.99975 6.84433C10.3532 6.90324 10.7066 6.97336 11.0769 7.04349C11.0769 6.31418 11.0769 5.6073 11.0769 4.89202C10.6842 4.79945 10.2971 4.70688 9.89035 4.61151C9.88755 4.66481 9.87913 4.70688 9.87913 4.74896C9.87913 5.39693 9.88194 6.04489 9.87913 6.69286C9.87633 6.78542 9.89877 6.8275 9.99975 6.84433Z" fill="#1B243D"/>
<path d="M10.02 9.82047C10.3706 9.85413 10.7157 9.90462 11.0719 9.94951C11.0719 9.23141 11.0719 8.52174 11.0719 7.79803C10.6848 7.73071 10.2977 7.6662 9.89098 7.59607C9.88817 7.64656 9.87976 7.69144 9.87976 7.73352C9.87976 8.37587 9.88256 9.01823 9.87695 9.66339C9.87695 9.77279 9.90781 9.80925 10.02 9.82047Z" fill="#1B243D"/>
<path d="M9.95254 12.7798C10.3228 12.8107 10.6931 12.8303 11.0746 12.8555C11.0774 12.8022 11.0802 12.7686 11.083 12.7321C11.083 12.0982 11.083 11.4642 11.083 10.8303C11.0802 10.7686 11.0998 10.7013 10.9988 10.6928C10.6454 10.6592 10.292 10.6171 9.93851 10.5834C9.92449 10.5806 9.91046 10.5863 9.87961 10.5919C9.87961 10.9285 9.87961 11.2567 9.87961 11.582C9.87961 11.9439 9.8768 12.3029 9.88241 12.6648C9.88522 12.7041 9.92449 12.777 9.95254 12.7798Z" fill="#1B243D"/>
<path d="M11.0687 13.6101C10.6788 13.5932 10.2917 13.5736 9.89062 13.554C9.89062 14.2917 9.89062 15.0126 9.89062 15.7503C10.2861 15.7503 10.6732 15.7503 11.0687 15.7503C11.0687 15.0406 11.0687 14.3338 11.0687 13.6101Z" fill="#1B243D"/>
<path d="M9.19524 16.7742C8.76607 16.7545 8.34812 16.7349 7.91895 16.7153C7.91895 17.481 7.91895 18.2356 7.91895 19.0014C8.34251 19.0014 8.76327 19.0014 9.19524 19.0014C9.19524 18.2637 9.19524 17.5287 9.19524 16.7742Z" fill="#1B243D"/>
<path d="M11.0833 16.8612C10.6934 16.8443 10.3035 16.8247 9.90234 16.8079C9.90234 17.5428 9.90234 18.2665 9.90234 19.0042C10.3007 19.0042 10.685 19.0042 11.0833 19.0042C11.0833 18.2945 11.0833 17.5877 11.0833 16.8612Z" fill="#1B243D"/>
<path d="M19.5483 8.2777C19.1668 8.19355 18.7853 8.10099 18.3926 8.00562C18.3926 8.78542 18.3926 9.53998 18.3926 10.3086C18.8189 10.3871 19.2397 10.4656 19.6773 10.547C19.6801 10.4909 19.6829 10.446 19.6829 10.4011C19.6829 9.75036 19.6801 9.09958 19.6857 8.44601C19.6857 8.33942 19.652 8.30015 19.5483 8.2777Z" fill="#1B243D"/>
<path d="M19.554 14.345C19.1978 14.3142 18.8387 14.2693 18.4825 14.23C18.4572 14.2272 18.4292 14.23 18.3955 14.23C18.3955 14.993 18.3955 15.7447 18.3955 16.5189C18.8163 16.5442 19.237 16.5722 19.6746 16.6003C19.6774 16.5526 19.683 16.5105 19.683 16.4656C19.683 15.8092 19.6802 15.1529 19.6858 14.4993C19.6858 14.3983 19.6662 14.3562 19.554 14.345Z" fill="#1B243D"/>
<path d="M18.5306 13.4334C18.8588 13.467 19.1898 13.5147 19.518 13.5568C19.5685 13.5624 19.6162 13.5624 19.6835 13.5652C19.6835 13.1304 19.6835 12.7153 19.6835 12.3029C19.6835 12.0224 19.6807 11.7447 19.6863 11.467C19.6863 11.3717 19.6639 11.3296 19.5629 11.3156C19.2123 11.2623 18.8644 11.1949 18.5138 11.136C18.4773 11.1276 18.4409 11.1276 18.3876 11.1248C18.3876 11.1781 18.3876 11.2202 18.3876 11.2651C18.3876 11.9355 18.3904 12.6059 18.3848 13.2763C18.3848 13.3885 18.4184 13.4222 18.5306 13.4334Z" fill="#1B243D"/>
<path d="M19.5426 17.3717C19.164 17.3633 18.7853 17.3464 18.3926 17.3296C18.3926 18.0982 18.3926 18.8499 18.3926 19.6101C18.8189 19.6101 19.2397 19.6101 19.6773 19.6101C19.6801 19.5652 19.6829 19.5231 19.6829 19.4783C19.6829 18.8275 19.6801 18.1767 19.6857 17.5259C19.6857 17.4137 19.6549 17.3745 19.5426 17.3717Z" fill="#1B243D"/>
<path d="M20.4909 10.7069C20.8443 10.7658 21.1977 10.8359 21.5596 10.9032C21.5596 10.1879 21.5596 9.47827 21.5596 8.75176C21.1781 8.662 20.791 8.56943 20.3843 8.47406C20.3815 8.53016 20.3759 8.56943 20.3759 8.61151C20.3759 9.25667 20.3759 9.90463 20.373 10.5526C20.373 10.6424 20.3899 10.69 20.4909 10.7069Z" fill="#1B243D"/>
<path d="M21.5596 14.5667C21.1753 14.5246 20.7882 14.4825 20.3843 14.4376C20.3815 14.4937 20.3759 14.533 20.3759 14.5751C20.3759 15.2174 20.3787 15.8598 20.373 16.5021C20.373 16.6143 20.4039 16.6508 20.5161 16.6564C20.8611 16.6704 21.2061 16.6957 21.5596 16.7153C21.5596 15.9972 21.5596 15.2932 21.5596 14.5667Z" fill="#1B243D"/>
<path d="M21.5596 11.6578C21.1669 11.5905 20.7882 11.5259 20.3871 11.4586C20.3815 11.5119 20.3759 11.5596 20.3759 11.6045C20.3759 12.244 20.3787 12.8808 20.373 13.5203C20.373 13.6241 20.3955 13.669 20.5133 13.6802C20.8611 13.7139 21.2061 13.7644 21.5596 13.8092C21.5596 13.0884 21.5596 12.3815 21.5596 11.6578Z" fill="#1B243D"/>
<path d="M20.3877 19.6129C20.7804 19.6129 21.1675 19.6129 21.5602 19.6129C21.5602 18.9004 21.5602 18.1907 21.5602 17.4754C21.1675 17.4558 20.7832 17.4361 20.3877 17.4193C20.3877 18.1542 20.3877 18.8751 20.3877 19.6129Z" fill="#1B243D"/>
<mask id="mask1_509_8379" style="mask-type:luminance" maskUnits="userSpaceOnUse" x="1" y="0" width="24" height="24">
<path d="M1.27051 0.85553H24.9676V23.2426H1.27051V0.85553Z" fill="white"/>
</mask>
<g mask="url(#mask1_509_8379)">
<path d="M3.03785 22.4909H7.09395V2.87799C7.37165 2.95092 7.62972 3.01824 7.88778 3.08837C9.16969 3.43058 10.446 3.7756 11.7279 4.11501C11.8233 4.14026 11.8597 4.17112 11.8597 4.2749C11.8569 9.96354 11.8569 15.6522 11.8569 21.3408C11.8569 21.3773 11.8541 21.4138 11.8513 21.467H11.7279C11.2875 21.467 10.9313 21.8233 10.9313 22.2637V22.5694H17.5287V6.51614C17.798 6.58907 18.0421 6.65358 18.2861 6.72091C19.5652 7.06312 20.8471 7.40534 22.129 7.74475C22.2552 7.77841 22.2945 7.8289 22.2945 7.96354C22.2917 12.7349 22.2945 17.5035 22.2945 22.2777V22.4769H24.906V22.1711C24.906 21.7307 24.5498 21.3745 24.1094 21.3745H23.4081V21.1753C23.4081 16.6704 23.4053 12.1655 23.4109 7.6634C23.4081 7.48388 23.4109 7.30716 23.4109 7.13044C23.4109 6.993 23.3829 6.93409 23.2426 6.89762C23.0098 6.83591 22.7798 6.7714 22.5498 6.70969V6.36747C22.5526 6.36747 22.5526 5.81207 22.5526 5.81207C22.4796 5.79243 22.4067 5.7756 22.331 5.75877C22.2272 5.73353 22.1234 5.70828 22.0168 5.68304C22.0056 5.68023 21.9944 5.67743 21.9832 5.67462L21.7503 5.61852L21.4165 5.74194C21.3913 5.75036 21.366 5.75877 21.366 5.76158C21.366 5.76438 21.366 5.76438 21.366 5.76719C21.3632 5.97476 21.3632 6.18234 21.3632 6.38991C21.0968 6.31698 20.8303 6.24685 20.5638 6.17392C20.5638 6.16831 20.5638 6.1599 20.5638 6.15429C20.5638 6.07574 20.5638 5.9972 20.5638 5.91866C20.5638 5.885 20.5638 5.84854 20.5638 5.81207L20.5666 5.25667C20.4937 5.23703 20.4179 5.2202 20.345 5.20337C20.2412 5.17813 20.1346 5.15288 20.0308 5.12764C20.0196 5.12483 20.0084 5.12203 19.9972 5.11922L19.7644 5.06312L19.4306 5.18935C19.4053 5.19496 19.3801 5.20337 19.3801 5.20618C19.3801 5.40814 19.3801 5.61011 19.3773 5.80926C19.3773 5.82329 19.3773 5.83732 19.3773 5.85134C19.1108 5.78121 18.8443 5.70828 18.5806 5.63535L18.5834 4.69566C18.3534 4.63956 18.1206 4.58346 17.8766 4.52455C17.8766 4.52736 17.7784 4.50492 17.7784 4.50492L17.4446 4.62834C17.4278 4.63395 17.4137 4.63956 17.4053 4.64236C17.4025 4.64517 17.3997 4.64517 17.3969 4.64517C17.3941 4.84994 17.3941 5.0491 17.3913 5.25106V5.31277C17.122 5.23984 16.8527 5.16691 16.5834 5.09398C16.4684 5.06032 16.3927 5.08837 16.2917 5.15288C16.1823 5.22581 16.0701 5.29875 15.9607 5.37168C15.8681 5.43058 15.7728 5.49229 15.6802 5.554C15.5428 5.64377 15.4081 5.73633 15.2735 5.82609C15.1332 5.91866 14.9958 6.01123 14.8555 6.10379C14.7181 6.19356 14.5806 6.28612 14.4404 6.37869C14.3029 6.47126 14.1627 6.56102 14.0252 6.65358C13.885 6.74615 13.7447 6.83872 13.6073 6.92848C13.5063 6.993 13.467 7.06032 13.467 7.18093C13.4726 11.8373 13.4698 16.4965 13.4698 21.1529V21.3577H12.9733V21.1781C12.9733 16.0337 12.9733 10.892 12.9761 5.74755C12.9761 5.26228 12.9761 4.77701 12.9761 4.29454C12.9761 4.02245 12.9761 3.75316 12.9789 3.48388C12.9789 3.34643 12.9481 3.28753 12.8078 3.25106C12.5778 3.18935 12.345 3.12764 12.115 3.06593V2.16831C12.0421 2.15148 11.9691 2.13184 11.8934 2.11501C11.7896 2.08977 11.6858 2.06452 11.5792 2.04208C11.568 2.03647 11.5568 2.03647 11.5456 2.03367L11.3127 1.97757L10.9789 2.10379C10.9537 2.1094 10.9285 2.11782 10.9285 2.12062C10.9285 2.12343 10.9285 2.12623 10.9285 2.12623C10.9285 2.33381 10.9285 2.54138 10.9285 2.74896C10.662 2.67883 10.3927 2.6087 10.129 2.53577V1.61852C10.0533 1.60169 9.98035 1.58206 9.90461 1.56523C9.80082 1.53998 9.69704 1.51473 9.59045 1.49229C9.57923 1.48949 9.56801 1.48668 9.55679 1.48388L9.32397 1.42778L8.99017 1.554C8.96492 1.56242 8.94248 1.57083 8.94248 1.57364C8.94248 1.7728 8.93967 1.97476 8.93967 2.17392C8.93967 2.18795 8.93967 2.20478 8.93967 2.2188C8.6732 2.14868 8.40672 2.07574 8.14024 2.00281V1.06312C7.91303 1.00983 7.68021 0.953725 7.43617 0.894818C7.43617 0.897623 7.43617 0.897623 7.43617 0.897623L7.33799 0.875183L7.00419 1.00141C6.98736 1.00702 6.97334 1.00983 6.96492 1.01544C6.96211 1.01544 6.95931 1.01544 6.95651 1.01824H6.9537C6.9537 1.2202 6.9537 1.42217 6.9537 1.62133V1.68304C6.68442 1.61291 6.41513 1.53998 6.14585 1.46705C6.02803 1.43619 5.94108 1.45022 5.8429 1.51473C5.59325 1.68023 5.34641 1.84012 5.09676 2.00281C4.4516 2.42918 3.80363 2.85555 3.15286 3.27911C3.0659 3.33521 3.03505 3.39692 3.03505 3.4979C3.03785 9.46424 3.03785 15.4278 3.03785 21.3913H2.37867C1.93827 21.3913 1.58203 21.7476 1.58203 22.1879V22.4797C2.0645 22.4825 2.54697 22.4853 3.02944 22.4881C3.03224 22.4881 3.03505 22.4881 3.03785 22.4909Z" fill="#1B243D"/>
</g>
</svg>
