<svg width="149" height="103" viewBox="0 0 149 103" fill="none" xmlns="http://www.w3.org/2000/svg">
<mask id="mask0_387_95" style="mask-type:luminance" maskUnits="userSpaceOnUse" x="0" y="0" width="149" height="103">
<path d="M0 0.541626H148.927V102.495H0V0.541626Z" fill="white"/>
</mask>
<g mask="url(#mask0_387_95)">
<path d="M141.865 0.541626H6.97933C3.146 0.541626 0.00537109 3.68225 0.00537109 7.52079V86.5885C0.00537109 90.427 3.146 93.5677 6.97933 93.5677H60.4689V98.2187H47.6772C46.4012 98.2187 45.3543 99.2656 45.3543 100.542C45.3543 101.823 46.4012 102.87 47.6772 102.87H101.167C102.448 102.87 103.495 101.823 103.495 100.542C103.495 99.2656 102.448 98.2187 101.167 98.2187H88.3752V93.5677H141.865C145.703 93.5677 148.839 90.427 148.839 86.5885V7.52079C148.839 3.68225 145.703 0.541626 141.865 0.541626ZM83.7241 98.2187H65.12V93.5677H83.7241V98.2187ZM60.4689 88.9166H6.97933C5.70329 88.9166 4.65641 87.8698 4.65641 86.5885V7.52079C4.65641 6.23954 5.70329 5.19267 6.97933 5.19267H141.865C143.146 5.19267 144.188 6.23954 144.188 7.52079V63.6823L140.584 60.1927C139.537 59.1458 138.146 58.6823 136.75 58.5677C135.584 58.5677 134.307 58.9166 133.261 59.7291L129.422 55.776C131.401 51.7083 132.563 47.1718 132.563 42.401C132.563 25.6614 119.073 12.1718 102.328 12.1718C85.5835 12.1718 72.0991 25.6614 72.0991 42.401C72.0991 59.1458 85.5835 72.6354 102.328 72.6354C108.375 72.6354 114.073 70.8906 118.724 67.75L121.979 71.125C121.281 72.052 120.932 73.3333 120.932 74.4948C120.932 76.125 121.516 77.5208 122.677 78.6823L133.375 88.9166H60.4689ZM125.235 67.75L122.448 64.9635C124.073 63.4479 125.583 61.8229 126.865 59.9635L129.886 63.0989L125.235 67.75ZM102.328 67.9843C88.2606 67.9843 76.7502 56.4739 76.7502 42.401C76.7502 28.3333 88.2606 16.8229 102.328 16.8229C116.401 16.8229 127.912 28.3333 127.912 42.401C127.912 56.4739 116.401 67.9843 102.328 67.9843ZM141.865 88.9166H140.235C140.235 88.9166 125.818 75.3125 125.818 75.1927C125.354 74.7291 125.469 74.0312 125.932 73.5677L136.281 63.3333C136.63 63.2187 136.979 63.2187 137.328 63.5677L144.188 70.0781V86.5885C144.188 87.8698 143.146 88.9166 141.865 88.9166Z" fill="#1B243D"/>
</g>
<path d="M34.8905 12.1719H25.5832C24.3071 12.1719 23.2603 13.2187 23.2603 14.4948V23.7969C23.2603 25.0781 24.3071 26.125 25.5832 26.125H34.8905C36.1665 26.125 37.2134 25.0781 37.2134 23.7969V14.4948C37.2134 13.2187 36.1665 12.1719 34.8905 12.1719ZM32.5623 21.474H27.9113V16.8229H32.5623V21.474Z" fill="#1B243D"/>
<path d="M25.5832 44.7291H34.8905C36.1665 44.7291 37.2134 43.6823 37.2134 42.401V33.0989C37.2134 31.8229 36.1665 30.776 34.8905 30.776H25.5832C24.3071 30.776 23.2603 31.8229 23.2603 33.0989V42.401C23.2603 43.6823 24.3071 44.7291 25.5832 44.7291ZM27.9113 35.427H32.5623V40.0781H27.9113V35.427Z" fill="#1B243D"/>
<path d="M25.5832 63.3334H34.8905C36.1665 63.3334 37.2134 62.2865 37.2134 61.0105V51.7084C37.2134 50.4271 36.1665 49.3802 34.8905 49.3802H25.5832C24.3071 49.3802 23.2603 50.4271 23.2603 51.7084V61.0105C23.2603 62.2865 24.3071 63.3334 25.5832 63.3334ZM27.9113 54.0313H32.5623V58.6823H27.9113V54.0313Z" fill="#1B243D"/>
<path d="M34.8905 67.9844H25.5832C24.3071 67.9844 23.2603 69.0313 23.2603 70.3125V79.6146C23.2603 80.8906 24.3071 81.9375 25.5832 81.9375H34.8905C36.1665 81.9375 37.2134 80.8906 37.2134 79.6146V70.3125C37.2134 69.0313 36.1665 67.9844 34.8905 67.9844ZM32.5623 77.2865H27.9113V72.6354H32.5623V77.2865Z" fill="#1B243D"/>
<path d="M44.1929 26.125H71.5158C72.3283 24.4948 73.3752 22.9844 74.422 21.474H44.1929C42.9116 21.474 41.8647 22.5209 41.8647 23.7969C41.8647 25.0782 42.9116 26.125 44.1929 26.125Z" fill="#1B243D"/>
<path d="M44.1929 16.8229H78.6095C80.4689 15.0781 82.6772 13.4479 84.8856 12.1719H44.1929C42.9116 12.1719 41.8647 13.2187 41.8647 14.4948C41.8647 15.776 42.9116 16.8229 44.1929 16.8229Z" fill="#1B243D"/>
<path d="M44.1929 35.427H68.146C68.495 33.7968 68.9585 32.2864 69.422 30.776H44.1929C42.9116 30.776 41.8647 31.8229 41.8647 33.0989C41.8647 34.3802 42.9116 35.427 44.1929 35.427Z" fill="#1B243D"/>
<path d="M44.1929 44.7292H67.5627C67.5627 43.9167 67.4481 43.2187 67.4481 42.401C67.4481 41.5885 67.4481 40.8906 67.5627 40.0781H44.1929C42.9116 40.0781 41.8647 41.125 41.8647 42.401C41.8647 43.6823 42.9116 44.7292 44.1929 44.7292Z" fill="#1B243D"/>
<path d="M44.1929 54.0313H69.422C68.8439 52.5209 68.495 51.0105 68.146 49.3802H44.1929C42.9116 49.3802 41.8647 50.4271 41.8647 51.7084C41.8647 52.9844 42.9116 54.0313 44.1929 54.0313Z" fill="#1B243D"/>
<path d="M44.1929 63.3333H74.422C73.3752 61.8229 72.3283 60.3125 71.5158 58.6823H44.1929C42.9116 58.6823 41.8647 59.7291 41.8647 61.0104C41.8647 62.2864 42.9116 63.3333 44.1929 63.3333Z" fill="#1B243D"/>
<path d="M116.63 77.2865H102.448C102.448 77.2865 102.448 77.2865 102.328 77.2865C102.214 77.2865 102.328 77.2865 102.214 77.2865H44.1929C42.9116 77.2865 41.8647 78.3334 41.8647 79.6146C41.8647 80.8907 42.9116 81.9375 44.1929 81.9375H119.307C118.026 80.6615 117.099 79.0313 116.63 77.2865Z" fill="#1B243D"/>
</svg>
