<svg width="29" height="29" viewBox="0 0 29 29" fill="none" xmlns="http://www.w3.org/2000/svg">
<path d="M10.0391 9.40955H10.9731V10.3464H10.0391V9.40955Z" fill="#1B243D"/>
<path d="M10.0391 11.2805H10.9731V12.2146H10.0391V11.2805Z" fill="#1B243D"/>
<path d="M10.0391 13.1487H10.9731V14.0828H10.0391V13.1487Z" fill="#1B243D"/>
<path d="M10.0391 15.0168H10.9731V15.9509H10.0391V15.0168Z" fill="#1B243D"/>
<path d="M11.9082 9.40955H12.8423V10.3464H11.9082V9.40955Z" fill="#1B243D"/>
<path d="M11.9082 11.2805H12.8423V12.2146H11.9082V11.2805Z" fill="#1B243D"/>
<path d="M11.9082 13.1487H12.8423V14.0828H11.9082V13.1487Z" fill="#1B243D"/>
<path d="M11.9082 15.0168H12.8423V15.9509H11.9082V15.0168Z" fill="#1B243D"/>
<path d="M13.7754 9.40955H14.7123V10.3464H13.7754V9.40955Z" fill="#1B243D"/>
<path d="M13.7754 11.2805H14.7123V12.2146H13.7754V11.2805Z" fill="#1B243D"/>
<path d="M13.7754 13.1487H14.7123V14.0828H13.7754V13.1487Z" fill="#1B243D"/>
<path d="M13.7754 15.0168H14.7123V15.9509H13.7754V15.0168Z" fill="#1B243D"/>
<path d="M15.6465 9.40955H16.5806V10.3464H15.6465V9.40955Z" fill="#1B243D"/>
<path d="M11.9082 7.54138H12.8423V8.47546H11.9082V7.54138Z" fill="#1B243D"/>
<path d="M13.7754 7.54138H14.7123V8.47546H13.7754V7.54138Z" fill="#1B243D"/>
<path d="M15.6465 7.54138H16.5806V8.47546H15.6465V7.54138Z" fill="#1B243D"/>
<path d="M15.6465 11.2805H16.5806V12.2146H15.6465V11.2805Z" fill="#1B243D"/>
<path d="M15.6465 13.1487H16.5806V14.0828H15.6465V13.1487Z" fill="#1B243D"/>
<path d="M15.6465 15.0168H16.5806V15.9509H15.6465V15.0168Z" fill="#1B243D"/>
<path d="M17.5146 9.40955H18.4487V10.3464H17.5146V9.40955Z" fill="#1B243D"/>
<path d="M17.5146 11.2805H18.4487V12.2146H17.5146V11.2805Z" fill="#1B243D"/>
<path d="M17.5146 13.1487H18.4487V14.0828H17.5146V13.1487Z" fill="#1B243D"/>
<path d="M17.5146 15.0168H18.4487V15.9509H17.5146V15.0168Z" fill="#1B243D"/>
<mask id="mask0_509_8232" style="mask-type:luminance" maskUnits="userSpaceOnUse" x="0" y="0" width="29" height="29">
<path d="M0.227539 0.065918H28.2191V28.0575H0.227539V0.065918Z" fill="white"/>
</mask>
<g mask="url(#mask0_509_8232)">
<path d="M27.7956 7.07574H20.7857V0.534361C20.7857 0.273492 20.5782 0.065918 20.3173 0.065918H8.17144C7.91337 0.065918 7.70299 0.273492 7.70299 0.534361V7.07574H0.695982C0.435113 7.07574 0.227539 7.28331 0.227539 7.54137V24.3633C0.227539 24.6213 0.435113 24.8289 0.695982 24.8289H1.67214C1.64689 24.9804 1.63006 25.1374 1.63006 25.2973V27.6339C1.63006 27.892 1.83764 28.0996 2.0957 28.0996H26.393C26.6511 28.0996 26.8587 27.892 26.8587 27.6339V25.2973C26.8587 25.1374 26.8447 24.9804 26.8166 24.8289H27.7956C28.0536 24.8289 28.2612 24.6213 28.2612 24.3633V7.54137C28.2612 7.28331 28.0536 7.07574 27.7956 7.07574ZM20.3173 20.1557C20.3173 20.6718 19.8993 21.0926 19.3832 21.0926C18.8699 21.0926 18.4491 20.6718 18.4491 20.1557C18.4491 19.6424 18.8699 19.2216 19.3832 19.2216C19.8993 19.2216 20.3173 19.6424 20.3173 20.1557ZM9.10552 19.2216C9.62165 19.2216 10.0396 19.6424 10.0396 20.1557C10.0396 20.6718 9.62165 21.0926 9.10552 21.0926C8.58939 21.0926 8.17144 20.6718 8.17144 20.1557C8.17144 19.6424 8.58939 19.2216 9.10552 19.2216ZM6.30047 27.1655H2.56414V25.2973C2.56414 24.2651 3.40285 23.4264 4.43231 23.4264C5.46457 23.4264 6.30047 24.2651 6.30047 25.2973V27.1655ZM3.49823 21.5582C3.49823 21.0421 3.91618 20.6241 4.43231 20.6241C4.94844 20.6241 5.36639 21.0421 5.36639 21.5582C5.36639 22.0743 4.94844 22.4923 4.43231 22.4923C3.91618 22.4923 3.49823 22.0743 3.49823 21.5582ZM6.3734 23.2777C6.19668 23.1066 6.00033 22.9607 5.78434 22.8429C6.10412 22.5063 6.30047 22.0575 6.30047 21.5582C6.30047 20.5288 5.46457 19.69 4.43231 19.69C3.40285 19.69 2.56414 20.5288 2.56414 21.5582C2.56414 22.0575 2.7633 22.5063 3.08027 22.8429C2.63427 23.0898 2.264 23.4544 2.00875 23.8948H1.16162V8.00982H7.70299V18.9327C7.41688 19.2609 7.23736 19.6872 7.23736 20.1557C7.23736 20.655 7.43371 21.1038 7.75349 21.4404C7.06344 21.8219 6.55012 22.4867 6.3734 23.2777ZM10.9737 27.1655H7.23736V23.8948C7.23736 22.8654 8.07326 22.0266 9.10552 22.0266C10.135 22.0266 10.9737 22.8654 10.9737 23.8948V27.1655ZM16.581 27.1655H11.9078V23.8948C11.9078 22.6073 12.9569 21.5582 14.2444 21.5582C15.5319 21.5582 16.581 22.6073 16.581 23.8948V27.1655ZM12.8418 19.2216C12.8418 18.4502 13.473 17.8219 14.2444 17.8219C15.0186 17.8219 15.6469 18.4502 15.6469 19.2216C15.6469 19.9958 15.0186 20.6241 14.2444 20.6241C13.473 20.6241 12.8418 19.9958 12.8418 19.2216ZM17.0887 22.2875C16.7773 21.7377 16.3117 21.2861 15.7507 20.9944C16.2528 20.5652 16.581 19.9341 16.581 19.2216C16.581 17.9341 15.5319 16.885 14.2444 16.885C12.9569 16.885 11.9078 17.9341 11.9078 19.2216C11.9078 19.9341 12.236 20.5652 12.7409 20.9944C12.177 21.2861 11.7114 21.7377 11.4 22.2875C11.1532 21.9397 10.8334 21.648 10.4576 21.4404C10.7745 21.1038 10.9737 20.655 10.9737 20.1557C10.9737 19.1262 10.135 18.2875 9.10552 18.2875C8.94283 18.2875 8.78855 18.3156 8.63708 18.3548V0.999999H19.8517V18.3548C19.7002 18.3156 19.5459 18.2875 19.3832 18.2875C18.3538 18.2875 17.5151 19.1262 17.5151 20.1557C17.5151 20.655 17.7142 21.1038 18.0312 21.4404C17.6581 21.648 17.3355 21.9397 17.0887 22.2875ZM21.2542 25.2973V27.1655H17.5151V23.8948C17.5151 22.8654 18.3538 22.0266 19.3832 22.0266C20.4155 22.0266 21.2542 22.8654 21.2542 23.8948V25.2973ZM25.9246 27.1655H22.1883V25.2973C22.1883 24.2651 23.027 23.4264 24.0564 23.4264C25.0859 23.4264 25.9246 24.2651 25.9246 25.2973V27.1655ZM23.1223 21.5582C23.1223 21.0421 23.5403 20.6241 24.0564 20.6241C24.5726 20.6241 24.9905 21.0421 24.9905 21.5582C24.9905 22.0743 24.5726 22.4923 24.0564 22.4923C23.5403 22.4923 23.1223 22.0743 23.1223 21.5582ZM27.3271 23.8948H26.48C26.2247 23.4544 25.8545 23.0898 25.4085 22.8429C25.7254 22.5063 25.9246 22.0575 25.9246 21.5582C25.9246 20.5288 25.0859 19.69 24.0564 19.69C23.027 19.69 22.1883 20.5288 22.1883 21.5582C22.1883 22.0575 22.3874 22.5063 22.7044 22.8429C22.4884 22.9607 22.2921 23.1066 22.1181 23.2777C21.9386 22.4867 21.4281 21.8219 20.7353 21.4404C21.055 21.1038 21.2542 20.655 21.2542 20.1557C21.2542 19.6872 21.0719 19.2609 20.7857 18.9327V8.00982H27.3271V23.8948Z" fill="#1B243D"/>
</g>
<path d="M22.1885 10.812H23.1226V18.2875H22.1885V10.812Z" fill="#1B243D"/>
<path d="M24.9902 10.812H25.9243V18.2875H24.9902V10.812Z" fill="#1B243D"/>
<path d="M2.56445 10.812H3.49853V18.2875H2.56445V10.812Z" fill="#1B243D"/>
<path d="M5.36621 10.812H6.30029V18.2875H5.36621V10.812Z" fill="#1B243D"/>
<path d="M11.4421 6.60729H17.0466C17.3074 6.60729 17.515 6.39691 17.515 6.13885V2.40253C17.515 2.14446 17.3074 1.93408 17.0466 1.93408H11.4421C11.184 1.93408 10.9736 2.14446 10.9736 2.40253V6.13885C10.9736 6.39691 11.184 6.60729 11.4421 6.60729ZM11.9077 2.86816H16.5809V5.67321H11.9077V2.86816Z" fill="#1B243D"/>
</svg>
