<svg width="31" height="32" viewBox="0 0 31 32" fill="none" xmlns="http://www.w3.org/2000/svg">
<g id="Clip path group">
<mask id="mask0_2_233378" style="mask-type:luminance" maskUnits="userSpaceOnUse" x="0" y="0" width="32" height="32">
<g id="a238cab357">
<path id="Vector" d="M0.539307 0.876099H31.0059V31.3427H0.539307V0.876099Z" fill="white"/>
</g>
</mask>
<g mask="url(#mask0_2_233378)">
<g id="Group">
<path id="Vector_2" fill-rule="evenodd" clip-rule="evenodd" d="M15.9158 14.6689C17.5576 14.6689 18.8819 15.9971 18.8819 17.6351C18.8819 19.273 17.8287 21.8132 15.9158 21.8132C14.003 21.8132 12.9497 19.273 12.9497 17.6351C12.9497 15.9971 14.2779 14.6689 15.9158 14.6689ZM6.49859 14.8122C7.83838 14.8122 8.92647 15.8964 8.92647 17.2401C8.92647 18.5799 8.06297 20.6593 6.49859 20.6593C4.93422 20.6593 4.07071 18.5799 4.07071 17.2401C4.07071 15.8964 5.15493 14.8122 6.49859 14.8122ZM25.3369 14.8122C23.9933 14.8122 22.9052 15.8964 22.9052 17.2401C22.9052 18.5799 23.7687 20.6593 25.3369 20.6593C26.9013 20.6593 27.7648 18.5799 27.7648 17.2401C27.7648 15.8964 26.6767 14.8122 25.3369 14.8122ZM15.9158 0.876099C19.2769 0.876099 21.9991 3.59827 21.9991 6.95935C21.9991 10.3204 19.2769 13.0426 15.9158 13.0426C12.5586 13.0426 9.83257 10.3204 9.83257 6.95935C9.83257 3.59827 12.5586 0.876099 15.9158 0.876099ZM13.5499 5.40659C13.5499 4.35335 14.2469 3.54793 15.2382 3.24977V2.43273C15.2382 2.27397 15.366 2.14619 15.5247 2.14619H16.3069C16.4657 2.14619 16.5973 2.27397 16.5973 2.43273L16.6012 3.21879C16.7871 3.26526 16.9691 3.33883 17.1394 3.43176C17.759 3.77639 18.123 4.37658 18.2392 5.06584C18.2546 5.15103 18.2314 5.23234 18.1772 5.29817C18.1191 5.364 18.0417 5.40272 17.9565 5.40272H17.2362C17.1085 5.40272 17 5.31753 16.9613 5.19749C16.6825 4.26816 14.9555 4.17523 14.9555 5.31366C14.9555 5.93321 15.7454 6.16555 16.2179 6.33592C17.3137 6.73864 18.2856 7.15684 18.2856 8.51211C18.2856 9.56535 17.5886 10.3746 16.5973 10.6689V11.486C16.5973 11.6447 16.4657 11.7725 16.3069 11.7725H15.5247C15.366 11.7725 15.2382 11.6447 15.2382 11.486L15.2343 10.6999C15.0446 10.6534 14.8626 10.5799 14.6922 10.4869C14.0765 10.1423 13.7125 9.54212 13.5925 8.85674C13.577 8.76768 13.6002 8.68636 13.6583 8.62053C13.7125 8.55471 13.79 8.51598 13.879 8.51598H14.5954C14.7232 8.51598 14.8355 8.60117 14.8703 8.72121C15.153 9.65054 16.88 9.74347 16.88 8.60504C16.88 7.94677 15.97 7.71443 15.4744 7.53244C14.425 7.14522 13.5499 6.69217 13.5499 5.40659ZM21.7706 22.4908C22.971 23.1336 23.819 24.2836 24.063 25.6815C24.2101 26.5295 24.3999 27.3698 24.5625 28.2178C24.609 28.4424 24.8026 28.605 25.0349 28.605H29.7474C30.2004 28.605 30.5877 28.423 30.8819 28.0784C31.1762 27.7338 31.2885 27.3195 31.215 26.8703C31.0523 25.8906 30.8122 24.8412 30.6728 24.0591C30.5296 23.2304 29.9836 22.576 29.1859 22.2701L27.4938 21.5886C26.4715 21.182 26.1036 22.3049 25.3408 22.2972C24.5625 22.2933 24.1946 21.182 23.1762 21.5886C22.7154 21.7745 22.2469 21.9564 21.7861 22.1423C21.7164 22.1733 21.6738 22.2352 21.6699 22.3127C21.6661 22.3863 21.7009 22.456 21.7706 22.4908ZM10.0649 22.4908C8.86065 23.1336 8.0165 24.2836 7.76868 25.6815C7.62154 26.5295 7.43567 27.3698 7.26916 28.2178C7.22657 28.4424 7.02909 28.605 6.80063 28.605H2.08814C1.63509 28.605 1.244 28.423 0.953579 28.0784C0.65929 27.7338 0.543125 27.3195 0.616696 26.8703C0.77933 25.8906 1.02328 24.8412 1.16268 24.0591C1.30595 23.2304 1.84806 22.576 2.64574 22.2701L4.34177 21.5886C5.36016 21.182 5.73189 22.3049 6.49472 22.2972C7.27304 22.2933 7.63703 21.182 8.65929 21.5886C9.11621 21.7745 9.58475 21.9564 10.0455 22.1423C10.1152 22.1733 10.1617 22.2352 10.1656 22.3127C10.1695 22.3863 10.1307 22.456 10.0649 22.4908ZM20.6206 23.7803C21.5964 24.152 22.2585 24.9535 22.4366 25.9681C22.6031 26.9206 22.9013 28.2023 23.0988 29.4027C23.1917 29.9487 23.0484 30.4521 22.6922 30.8742C22.3321 31.2962 21.8558 31.517 21.3021 31.517H10.5296C9.97585 31.517 9.49956 31.2962 9.14332 30.8742C8.7832 30.4521 8.6438 29.9487 8.73286 29.4027C8.93422 28.2023 9.22851 26.9206 9.39888 25.9681C9.57313 24.9535 10.2392 24.152 11.215 23.7803L13.2827 22.9477C14.5296 22.4482 14.9787 23.819 15.912 23.8151C16.8645 23.8074 17.3098 22.4521 18.5567 22.9477L20.6206 23.7803Z" fill="#C18948"/>
</g>
</g>
</g>
</svg>
