<svg width="29" height="29" viewBox="0 0 29 29" fill="none" xmlns="http://www.w3.org/2000/svg">
<mask id="mask0_509_8271" style="mask-type:luminance" maskUnits="userSpaceOnUse" x="0" y="0" width="29" height="29">
<path d="M0.149414 0.646606H28.0232V28.3324H0.149414V0.646606Z" fill="white"/>
</mask>
<g mask="url(#mask0_509_8271)">
<path d="M13.1621 0.646606C13.0303 0.646606 12.9041 0.671852 12.7835 0.722343C12.6628 0.772834 12.5563 0.84296 12.4637 0.935526C12.3711 1.02809 12.301 1.13468 12.2505 1.2553C12.2 1.37592 12.1748 1.50215 12.1748 1.63398V2.66905C11.3641 2.73076 10.5647 2.8682 9.78206 3.08419C8.99665 3.29738 8.23929 3.58349 7.50717 3.94254C6.77786 4.30159 6.08781 4.72515 5.43985 5.21603C4.78908 5.70692 4.1916 6.2539 3.64742 6.85699C3.10324 7.46007 2.61797 8.11084 2.19721 8.80649C1.77645 9.50215 1.42302 10.2315 1.14251 10.9944C0.859202 11.7574 0.651628 12.54 0.519791 13.3423C0.385149 14.1445 0.329048 14.9524 0.351488 15.7658C0.371124 16.5793 0.4693 17.3843 0.643213 18.1782C0.817126 18.9748 1.06397 19.7462 1.38375 20.4923C1.70633 21.2413 2.09342 21.951 2.55065 22.6242C3.00787 23.2974 3.52119 23.9229 4.09903 24.4979C4.67407 25.073 5.29679 25.5891 5.97 26.0435C6.64321 26.5007 7.3557 26.8906 8.10184 27.2104C8.85079 27.5302 9.62218 27.7798 10.416 27.9538C11.2098 28.1277 12.0149 28.223 12.8283 28.2455C13.6418 28.2651 14.4497 28.209 15.2519 28.0772C16.0542 27.9425 16.8368 27.735 17.5997 27.4517C18.3627 27.1711 19.092 26.8177 19.7877 26.397C20.4833 25.9762 21.1341 25.4937 21.7372 24.9467C22.3431 24.4026 22.8901 23.8051 23.3781 23.1571C23.869 22.5064 24.2926 21.8163 24.6516 21.087C25.0107 20.3549 25.2968 19.5975 25.5128 18.8149C25.726 18.0295 25.8634 17.2301 25.9251 16.4194H26.9602C27.092 16.4194 27.2182 16.3942 27.3389 16.3437C27.4595 16.296 27.5661 16.223 27.6586 16.1305C27.7512 16.0379 27.8213 15.9313 27.8718 15.8107C27.9223 15.6901 27.9476 15.5639 27.9476 15.4348C27.9476 14.9496 27.9223 14.4671 27.8746 13.9846C27.8269 13.505 27.754 13.0253 27.6614 12.5512C27.5661 12.0772 27.4483 11.6059 27.3052 11.1431C27.165 10.6803 27.0023 10.2258 26.8171 9.77704C26.632 9.33104 26.4244 8.89345 26.1972 8.46708C25.9672 8.04072 25.7175 7.62557 25.4511 7.22445C25.1818 6.82052 24.8929 6.43342 24.5843 6.05755C24.2786 5.68447 23.9532 5.32543 23.611 4.98321C23.2687 4.641 22.9097 4.31561 22.5366 4.00986C22.1636 3.70131 21.7736 3.41519 21.3725 3.14591C20.9686 2.87662 20.5535 2.62697 20.1271 2.39976C19.7007 2.16975 19.2631 1.96217 18.8171 1.77704C18.3683 1.59191 17.9139 1.42921 17.4511 1.28896C16.9882 1.14871 16.5198 1.0309 16.0429 0.935526C15.5689 0.840155 15.092 0.767223 14.6096 0.719538C14.1271 0.671852 13.6446 0.649412 13.1621 0.646606ZM8.23087 14.4474C8.5815 14.4474 8.91811 14.5064 9.2463 14.627C9.57449 14.7448 9.86902 14.9159 10.1355 15.1403C10.402 15.3647 10.6236 15.6284 10.7975 15.9313C10.9714 16.2315 11.0864 16.5568 11.1453 16.8991C11.2042 17.2413 11.2014 17.5863 11.1397 17.9285C11.078 18.2707 10.9574 18.5933 10.7807 18.8935C10.6067 19.1936 10.3823 19.4545 10.1131 19.6761C9.84377 19.8977 9.54644 20.066 9.21825 20.181V21.3479H7.2463V20.181C6.96018 20.08 6.6937 19.9369 6.44967 19.7546C6.20843 19.5695 5.99805 19.3535 5.82133 19.1066C5.64462 18.857 5.50997 18.5877 5.41741 18.2988C5.32204 18.0071 5.27715 17.7097 5.27435 17.4068H7.2463C7.2463 17.5358 7.27154 17.662 7.32204 17.7827C7.37253 17.9033 7.44265 18.0099 7.53522 18.1024C7.62779 18.195 7.73438 18.2651 7.85499 18.3156C7.97561 18.3661 8.10184 18.3913 8.23087 18.3913C8.36271 18.3913 8.48894 18.3661 8.60955 18.3156C8.73017 18.2651 8.83676 18.195 8.92933 18.1024C9.0219 18.0099 9.09202 17.9033 9.14251 17.7827C9.193 17.662 9.21825 17.5358 9.21825 17.4068C9.21825 17.2749 9.193 17.1487 9.14251 17.0281C9.09202 16.9075 9.0219 16.8009 8.92933 16.7083C8.83676 16.6158 8.73017 16.5456 8.60955 16.4951C8.48894 16.4446 8.36271 16.4194 8.23087 16.4194C7.88305 16.4194 7.54644 16.3605 7.21825 16.2427C6.89006 16.1221 6.59272 15.951 6.32624 15.7266C6.05976 15.5021 5.84097 15.2413 5.66706 14.9383C5.49314 14.6354 5.37814 14.3128 5.31923 13.9706C5.26032 13.6256 5.26032 13.2834 5.32484 12.9411C5.38655 12.5989 5.50717 12.2763 5.68108 11.9762C5.8578 11.6761 6.0822 11.4152 6.35149 11.1936C6.61797 10.972 6.91811 10.8037 7.2463 10.6859V9.51898H9.21825V10.6859C9.50436 10.7897 9.77084 10.9299 10.0149 11.115C10.2561 11.2974 10.4665 11.5134 10.6432 11.763C10.8199 12.0099 10.9546 12.2791 11.0471 12.5709C11.1397 12.8598 11.1874 13.1571 11.1902 13.4629H9.21825C9.21825 13.331 9.193 13.2048 9.14251 13.0842C9.09202 12.9636 9.0219 12.857 8.92933 12.7644C8.83676 12.6719 8.73017 12.6017 8.60955 12.5512C8.48894 12.5007 8.36271 12.4755 8.23087 12.4755C8.10184 12.4755 7.97561 12.5007 7.85499 12.5512C7.73438 12.6017 7.62779 12.6719 7.53522 12.7644C7.44265 12.857 7.37253 12.9636 7.32204 13.0842C7.27154 13.2048 7.2463 13.331 7.2463 13.4629C7.2463 13.5947 7.27154 13.7181 7.32204 13.8388C7.37253 13.9594 7.44265 14.066 7.53522 14.1585C7.62779 14.2511 7.73438 14.324 7.85499 14.3745C7.97561 14.4222 8.10184 14.4474 8.23087 14.4474ZM21.4903 22.3633L15.5352 16.4194H23.956C23.855 17.5134 23.5969 18.5653 23.1762 19.5807C22.7554 20.5933 22.1944 21.5218 21.4903 22.3633ZM14.1467 14.4474V2.65783C14.9013 2.71954 15.6474 2.84296 16.3795 3.03651C17.1145 3.22725 17.8241 3.48251 18.5142 3.79948C19.2014 4.11645 19.855 4.49233 20.4777 4.92431C21.1004 5.35909 21.6783 5.84436 22.214 6.38013C22.7498 6.91589 23.2351 7.49373 23.6699 8.11645C24.1018 8.73917 24.4777 9.39275 24.7947 10.0828C25.1145 10.77 25.3669 11.4825 25.5605 12.2146C25.7512 12.9467 25.8774 13.6929 25.9363 14.4474H14.1467Z" fill="#1B243D"/>
</g>
<path d="M15.1318 11.4908H19.0757V13.4628H15.1318V11.4908Z" fill="#1B243D"/>
<path d="M15.1318 8.53442H19.0757V10.5064H15.1318V8.53442Z" fill="#1B243D"/>
</svg>
