<svg width="35" height="27" viewBox="0 0 35 27" fill="none" xmlns="http://www.w3.org/2000/svg">
<g id="Clip path group">
<mask id="mask0_2_233429" style="mask-type:luminance" maskUnits="userSpaceOnUse" x="0" y="0" width="35" height="27">
<g id="059fabe5c3">
<path id="Vector" d="M0.709473 0.602173H34.8934V26.3756H0.709473V0.602173Z" fill="white"/>
</g>
</mask>
<g mask="url(#mask0_2_233429)">
<g id="Group">
<path id="Vector_2" d="M33.8054 20.2537H33.0697V10.6932C33.0697 10.4686 32.9574 10.2479 32.7754 10.1046C26.4791 5.38437 26.878 5.67866 26.8199 5.64381C26.6999 5.57798 26.576 5.547 26.452 5.547H17.6931C17.2594 4.95068 16.7521 4.4318 16.1945 3.99037C16.4656 3.68059 16.636 3.27014 16.636 2.82096C16.636 1.84129 15.8422 1.04749 14.8625 1.04749H9.67372C8.69405 1.04749 7.90025 1.84129 7.90025 2.82096C7.90025 3.27014 8.07063 3.67285 8.34168 3.99037C6.48302 5.43083 5.27488 7.81999 5.11225 10.5112L4.6592 18.2092C3.72987 18.3911 3.09095 19.2895 3.26133 20.2537H1.45301C1.04642 20.2537 0.717285 20.5828 0.717285 20.9894C0.717285 23.8277 3.02513 26.1356 5.86346 26.1356H29.3911C32.2294 26.1356 34.5411 23.8277 34.5411 20.9894C34.5411 20.5828 34.2081 20.2537 33.8054 20.2537ZM31.5982 20.2537H29.3911V14.3718C29.3911 13.9652 29.0619 13.6361 28.6592 13.6361H24.2449C23.8422 13.6361 23.5092 13.9652 23.5092 14.3718V20.2537H21.3059V11.061L26.452 7.20044L31.5982 11.061V20.2537ZM27.9235 20.2537H24.9806V15.1075H27.9235V20.2537ZM18.363 20.2537V18.7822H19.8344V20.2537H18.363ZM4.69405 19.9516C4.69405 19.7813 4.82571 19.6496 4.99608 19.6496H5.34846C5.73955 19.6496 6.06094 19.3476 6.08418 18.9604L6.57595 10.6002C6.73084 7.95939 8.06288 5.67091 10.0493 4.63703C10.3707 4.46665 10.5411 4.09105 10.452 3.73868C10.363 3.37856 10.0493 3.12687 9.67372 3.12687C9.50335 3.12687 9.37169 2.99521 9.37169 2.82871C9.37169 2.65833 9.51109 2.52667 9.67372 2.52667H14.8625C15.0329 2.52667 15.1645 2.65833 15.1645 2.82871C15.1645 2.99521 15.0329 3.12687 14.8625 3.12687C14.4946 3.12687 14.1732 3.37856 14.0842 3.73868C13.9951 4.09879 14.1655 4.46665 14.4869 4.63703C14.9438 4.86936 15.362 5.17914 15.7531 5.547H13.2168C12.8141 5.547 12.4811 5.88001 12.4811 6.28272C12.4811 6.68931 12.8141 7.01844 13.2168 7.01844H16.8993C17.2168 7.56055 17.4724 8.15688 17.6505 8.80354C17.7589 9.19463 18.1655 9.42309 18.5566 9.3108C18.9438 9.20237 19.1723 8.79579 19.0638 8.40857C18.9206 7.92454 18.7541 7.45988 18.5488 7.02619H24.2449L20.3262 9.9652H18.363C17.9603 9.9652 17.6273 10.2982 17.6273 10.7009C17.6273 11.1075 17.9603 11.4366 18.363 11.4366H19.8344V17.3185H18.363V13.6438C18.363 13.2372 18.0338 12.9081 17.6273 12.9081C17.2245 12.9081 16.8915 13.2372 16.8915 13.6438V17.3185H10.2739C9.87121 17.3185 9.54207 17.6516 9.54207 18.0543C9.54207 18.4608 9.87121 18.79 10.2739 18.79H16.8915V20.2614H4.99608C4.83345 20.2537 4.69405 20.122 4.69405 19.9516ZM29.3911 24.6641H5.86346C4.09386 24.6641 2.60693 23.4018 2.2623 21.7251C5.48786 21.7251 29.7821 21.7251 32.9961 21.7251C32.6592 23.4018 31.1645 24.6641 29.3911 24.6641Z" fill="#C18948"/>
</g>
</g>
</g>
</svg>
