<svg width="183" height="130" viewBox="0 0 183 130" fill="none" xmlns="http://www.w3.org/2000/svg">
<mask id="mask0_395_315" style="mask-type:luminance" maskUnits="userSpaceOnUse" x="64" y="84" width="61" height="46">
<path d="M64 84H124.505V129.672H64V84Z" fill="white"/>
</mask>
<g mask="url(#mask0_395_315)">
<path d="M120.713 126.229H112.453V115.615C112.453 114.656 111.687 113.891 110.729 113.891C109.776 113.891 109.01 114.656 109.01 115.615V126.229H95.7968V100.198L104.286 87.4791H111.885C116.745 87.4791 120.713 91.4374 120.713 96.3072V126.229ZM68.526 96.3072C68.526 91.4374 72.4791 87.4791 77.3541 87.4791H83.8749L92.3541 100.182V126.229H79.1405V115.615C79.1405 114.656 78.3749 113.891 77.4166 113.891C76.4635 113.891 75.6978 114.656 75.6978 115.615V126.229H68.526V96.3072ZM94.0728 96.5624L88.0208 87.4791H100.141L94.0728 96.5624ZM111.885 84.0364H77.3541C70.5833 84.0364 65.0833 89.5416 65.0833 96.3072V127.953C65.0833 128.906 65.8489 129.672 66.802 129.672H122.437C123.375 129.672 124.156 128.906 124.156 127.953V96.3072C124.156 89.5416 118.641 84.0364 111.885 84.0364Z" fill="#1B243D"/>
</g>
<path d="M84.646 40.3281L94.2762 37.8229C95.396 37.526 96.5782 37.9063 97.3022 38.776L98.9741 40.7813C100.386 42.4896 102.74 43.099 104.813 42.276C105.833 41.8854 106.724 42.7865 106.964 43.0677C112.828 49.651 111.781 56.4583 110.109 60.6927C109.063 56.9427 107.016 54.0469 104.016 52.0417C103.88 51.9479 103.724 51.8802 103.563 51.8281C103.141 51.7083 102.698 51.6406 102.255 51.6406C101.396 51.6406 100.531 51.8802 99.7241 52.3542C94.547 55.4323 88.4532 53.2396 86.0574 52.151C84.7918 51.5885 83.3803 51.4792 82.073 51.8698C81.7762 51.9635 81.521 52.125 81.3074 52.3542C79.3178 54.5052 77.8647 56.875 76.922 59.4583C76.073 54.8698 76.547 50.375 78.3595 46.5573C79.896 43.3281 82.3022 40.9427 84.646 40.3281ZM93.172 75.9271C87.0105 75.9271 81.547 72.1563 79.1668 66.3333C79.2501 62.0156 80.6355 58.3281 83.4741 55.099C83.8751 55.0573 84.2657 55.125 84.6303 55.2865C87.5105 56.6042 94.9116 59.2135 101.49 55.3281C101.662 55.2031 102 55.0417 102.365 55.0833C105.469 57.2917 107.125 60.7865 107.422 65.7396C105.229 71.8333 99.5522 75.9271 93.172 75.9271ZM75.2553 45.0729C72.1564 51.5885 72.3751 59.6563 75.8178 67.276C75.8178 67.2865 75.8178 67.2865 75.8178 67.3021C75.8335 67.3125 75.8439 67.3385 75.8439 67.3698C75.8595 67.3698 75.8595 67.3698 75.8595 67.3802C78.7241 74.6615 85.4897 79.3698 93.172 79.3698C101.016 79.3698 107.984 74.349 110.662 66.8854C111.698 65.4323 120.151 52.6615 109.531 40.7813C107.88 38.9271 105.594 38.2656 103.547 39.0729C102.875 39.3438 102.078 39.1563 101.625 38.5885L99.9428 36.5729C98.3647 34.6875 95.797 33.8698 93.4168 34.4844L83.771 37C80.4324 37.8646 77.2449 40.8906 75.2553 45.0729Z" fill="#1B243D"/>
<path d="M44.1198 33.3855H41.1354C40.1927 33.3855 39.4115 34.1511 39.4115 35.1042C39.4115 35.1302 39.4271 35.1459 39.4271 35.1615V38.0677L35.2813 33.9219C35.1198 33.7448 34.9167 33.6146 34.6875 33.5157C34.5677 33.4636 34.4479 33.4636 34.3385 33.4375C34.2344 33.4219 34.151 33.3855 34.0417 33.3855H23.9271V24.7605H44.1198V33.3855ZM45.8438 21.3177H22.2031C21.25 21.3177 20.4844 22.0834 20.4844 23.0365V35.1042C20.4844 36.0625 21.25 36.8282 22.2031 36.8282H33.3177L39.9375 43.4323C40.2604 43.7709 40.7031 43.9427 41.1458 43.9427C41.375 43.9427 41.5937 43.9063 41.8073 43.8125C42.4531 43.5417 42.8698 42.9063 42.8698 42.224V36.8282H45.8438C46.7969 36.8282 47.5625 36.0625 47.5625 35.1042V23.0365C47.5625 22.0834 46.7969 21.3177 45.8438 21.3177Z" fill="#1B243D"/>
<path d="M48.8853 44.2291C48.8437 44.2135 48.8176 44.2135 48.7916 44.1979C48.6822 44.1458 48.5624 44.1198 48.4374 44.0937C48.3437 44.0677 48.2499 44.0364 48.1458 44.0364C48.0364 44.026 47.9166 44.052 47.8072 44.0677C47.6978 44.0781 47.6041 44.0937 47.4999 44.1198C47.401 44.1614 47.3072 44.2135 47.2135 44.2656C47.1093 44.3333 47.0155 44.3906 46.9166 44.4687C46.9062 44.4843 46.8645 44.4948 46.8541 44.5104C43.4062 47.9114 38.8489 49.7812 34.0312 49.7812C23.953 49.7812 15.7603 41.6041 15.7603 31.5416C15.7603 21.4791 23.953 13.2968 34.0312 13.2968C44.0937 13.2968 52.276 21.4791 52.276 31.5416C52.276 33.5989 51.953 35.5781 51.2916 37.4323C51.2239 37.6198 51.1978 37.8073 51.1978 38.0104V38.026C51.1978 38.3073 51.2655 38.552 51.3853 38.776C51.401 38.8073 51.3853 38.8333 51.401 38.8437L56.578 48.4114L48.8853 44.2291ZM54.7499 37.7968C55.3541 35.7916 55.7187 33.7083 55.7187 31.5416C55.7187 19.5781 45.9895 9.85413 34.0312 9.85413C22.0572 9.85413 12.3176 19.5781 12.3176 31.5416C12.3176 43.5 22.0572 53.2291 34.0312 53.2291C39.3333 53.2291 44.3385 51.3177 48.3072 47.8333L58.9999 53.6458C59.3124 53.8073 59.6458 53.8854 59.9843 53.8854C60.5208 53.8854 61.0468 53.6875 61.4478 53.2812C62.1093 52.625 62.2447 51.6406 61.8124 50.8333L54.7499 37.7968Z" fill="#1B243D"/>
<mask id="mask1_395_315" style="mask-type:luminance" maskUnits="userSpaceOnUse" x="121" y="36" width="62" height="48">
<path d="M121.333 36H182.75V84H121.333V36Z" fill="white"/>
</mask>
<g mask="url(#mask1_395_315)">
<path d="M173.885 73.8906C170.224 77.7813 165.271 80.0156 159.932 80.1875C154.62 80.3646 149.505 78.4531 145.615 74.7969C143.964 73.2448 142.63 71.5 141.635 69.5885C141.568 69.4271 141.448 69.276 141.323 69.1563L141.313 69.1458C141.109 68.9427 140.87 68.8229 140.609 68.7396C140.583 68.7292 140.557 68.6979 140.531 68.6979L128.609 65.5625L138.135 62.401C138.162 62.401 138.177 62.375 138.203 62.3646C138.323 62.3229 138.417 62.2552 138.526 62.1875C138.609 62.1198 138.703 62.0781 138.781 62C138.849 61.9323 138.917 61.8385 138.984 61.7448C139.037 61.651 139.104 61.5677 139.162 61.474C139.198 61.3802 139.214 61.2708 139.24 61.1667C139.266 61.0573 139.292 60.9375 139.292 60.8177C139.292 60.7865 139.307 60.7604 139.307 60.724C139.172 55.4219 141.094 50.375 144.703 46.526C148.359 42.625 153.313 40.3802 158.651 40.2031C164.021 40.0417 169.094 41.9531 172.995 45.599C176.885 49.2604 179.115 54.2083 179.292 59.5521C179.469 64.8906 177.542 69.9896 173.885 73.8906ZM175.349 43.099C170.776 38.8073 164.787 36.5729 158.547 36.7604C152.292 36.9635 146.479 39.599 142.198 44.1719C138.245 48.3698 136.063 53.7813 135.901 59.526L123.245 63.724C122.344 64.0156 121.76 64.8385 121.792 65.7813C121.818 66.724 122.448 67.5156 123.365 67.7604L139.01 71.8594C140.125 73.8385 141.526 75.6823 143.26 77.3125C147.635 81.4115 153.287 83.6458 159.271 83.6458C159.526 83.6458 159.781 83.6458 160.052 83.6354C166.307 83.4323 172.12 80.8073 176.401 76.25C180.677 71.6719 182.938 65.7135 182.734 59.4427C182.537 53.1719 179.912 47.375 175.349 43.099Z" fill="#1B243D"/>
</g>
<path d="M42.8178 112.844C42.7865 112.828 42.7605 112.844 42.724 112.844C42.599 112.812 42.4949 112.828 42.3699 112.828C42.2657 112.844 42.1563 112.828 42.0626 112.854C41.9532 112.88 41.849 112.937 41.7553 112.974C41.6459 113.016 41.5522 113.057 41.4688 113.109C41.3751 113.177 41.3074 113.26 41.2293 113.338C41.1459 113.422 41.0678 113.5 41.0001 113.609C40.9845 113.635 40.9584 113.651 40.948 113.677C38.349 118.24 34.1511 121.521 29.1199 122.948C24.0365 124.37 18.6928 123.74 14.0782 121.172C9.46362 118.588 6.14071 114.365 4.70321 109.276C1.73967 98.7812 7.89071 87.8332 18.3959 84.8697C28.8907 81.9114 39.8282 88.0468 42.7865 98.5416C43.3959 100.693 43.6355 102.859 43.4897 104.984C43.474 105.187 43.5001 105.401 43.5678 105.604V105.62C43.6511 105.875 43.7865 106.088 43.948 106.266C43.974 106.276 43.974 106.302 43.9845 106.318L52.448 115.021L42.8178 112.844ZM46.9167 104.391C46.974 102.13 46.7449 99.8593 46.1095 97.6145C42.6251 85.2864 29.7918 78.0885 17.4532 81.5624C5.13029 85.0312 -2.07804 97.8958 1.39071 110.219C3.073 116.177 6.98967 121.141 12.3959 124.172C15.9063 126.135 19.7813 127.146 23.7136 127.146C25.823 127.146 27.9636 126.849 30.0626 126.255C35.5522 124.708 40.1772 121.25 43.2449 116.474L56.1095 119.38C56.2553 119.422 56.4167 119.432 56.5782 119.432C57.3178 119.432 58.0209 119.042 58.3959 118.359C58.8647 117.552 58.7292 116.542 58.073 115.87L46.9167 104.391Z" fill="#1B243D"/>
<path d="M27.9373 30.3958C28.6769 30.3958 29.2655 29.802 29.2655 29.0781C29.2655 28.3385 28.6769 27.7448 27.9373 27.7448C27.2082 27.7448 26.604 28.3385 26.604 29.0781C26.604 29.802 27.2082 30.3958 27.9373 30.3958Z" fill="#1B243D"/>
<path d="M34.0155 30.3958C34.755 30.3958 35.3488 29.802 35.3488 29.0781C35.3488 28.3385 34.755 27.7448 34.0155 27.7448C33.2915 27.7448 32.6978 28.3385 32.6978 29.0781C32.6978 29.802 33.2915 30.3958 34.0155 30.3958Z" fill="#1B243D"/>
<path d="M40.099 30.3958C40.8385 30.3958 41.4323 29.802 41.4323 29.0781C41.4323 28.3385 40.8385 27.7448 40.099 27.7448C39.3698 27.7448 38.7656 28.3385 38.7656 29.0781C38.7656 29.802 39.3698 30.3958 40.099 30.3958Z" fill="#1B243D"/>
<path d="M170.521 56.4427C169.604 51.4271 164.948 47.6459 159.245 47.6459C153.552 47.6459 148.901 51.4271 147.984 56.4688C146.583 57.0105 145.578 58.3542 145.578 59.9427V65.0261C145.578 67.0834 147.26 68.7657 149.318 68.7657H149.667C151.74 68.7657 153.422 67.0834 153.422 65.0261V59.9427C153.422 58.5157 152.583 57.3334 151.427 56.698C152.224 53.5105 155.464 51.0886 159.245 51.0886C163.135 51.0886 166.333 53.4948 167.089 56.7552C165.974 57.4011 165.193 58.5573 165.193 59.9427V65.0261C165.193 66.5209 166.094 67.7969 167.359 68.3907L167.333 69.3073H162.328C161.37 69.3073 160.604 70.073 160.604 71.0261C160.604 71.9844 161.37 72.75 162.328 72.75H167.333C169.271 72.75 170.828 71.2552 170.828 69.4115V68.4167C172.12 67.823 173.021 66.5313 173.021 65.0261V59.9427C173.021 58.3125 171.974 56.9688 170.521 56.4427Z" fill="#1B243D"/>
<path d="M13.1925 111.562V98.2448L22.6353 106.234C22.9582 106.505 23.3488 106.641 23.7498 106.641C24.1405 106.641 24.5311 106.505 24.854 106.234L34.2967 98.2448V111.562H13.1925ZM31.328 96.2552L23.7498 102.672L16.1769 96.2552H31.328ZM37.6248 93.9531C37.5832 93.8333 37.5155 93.7395 37.4478 93.6302C37.4061 93.5625 37.3957 93.4843 37.3384 93.427C37.328 93.401 37.3019 93.401 37.2863 93.3854C37.203 93.2916 37.0988 93.2239 37.005 93.1614C36.9113 93.0937 36.828 93.026 36.7498 92.9843C36.6561 92.9427 36.5571 92.9323 36.4634 92.901C36.3436 92.8645 36.2238 92.8385 36.0884 92.8229C36.0623 92.8229 36.0467 92.8073 36.0207 92.8073H11.4686C11.4425 92.8073 11.4269 92.8229 11.4009 92.8229C11.2811 92.8385 11.1717 92.8645 11.0519 92.901C10.9425 92.9323 10.8488 92.9427 10.755 92.9843C10.6613 93.026 10.578 93.0937 10.4998 93.1458C10.4061 93.2239 10.2967 93.2916 10.203 93.3854C10.1873 93.401 10.1769 93.401 10.1613 93.427C10.1092 93.4843 10.0832 93.5625 10.0415 93.6302C9.9738 93.7395 9.90609 93.8333 9.86442 93.9531C9.82796 94.0625 9.81234 94.1823 9.80192 94.302C9.7863 94.3854 9.74463 94.4531 9.74463 94.5312V113.286C9.74463 114.229 10.5259 115.01 11.4686 115.01H36.0207C36.979 115.01 37.7446 114.229 37.7446 113.286V94.5312C37.7446 94.4531 37.703 94.3854 37.703 94.302C37.6769 94.1823 37.6613 94.0625 37.6248 93.9531Z" fill="#1B243D"/>
<path d="M134.031 22.0834H136.307V24.3698C136.307 25.323 137.089 26.0938 138.031 26.0938C138.984 26.0938 139.75 25.323 139.75 24.3698V22.0834H142.036C142.995 22.0834 143.76 21.3177 143.76 20.3594C143.76 19.4167 142.995 18.6355 142.036 18.6355H139.75V16.349C139.75 15.4115 138.984 14.6302 138.031 14.6302C137.089 14.6302 136.307 15.4115 136.307 16.349V18.6355H134.031C133.078 18.6355 132.312 19.4167 132.312 20.3594C132.312 21.3177 133.078 22.0834 134.031 22.0834Z" fill="#1B243D"/>
<path d="M127.104 36.8281C128.021 36.8281 128.771 37.5833 128.771 38.4948C128.771 39.4114 128.021 40.1666 127.104 40.1666C126.177 40.1666 125.437 39.4114 125.437 38.4948C125.437 37.5833 126.177 36.8281 127.104 36.8281ZM127.104 43.6093C129.927 43.6093 132.219 41.3229 132.219 38.4948C132.219 35.6823 129.927 33.3854 127.104 33.3854C124.281 33.3854 121.99 35.6823 121.99 38.4948C121.99 41.3229 124.281 43.6093 127.104 43.6093Z" fill="#1B243D"/>
<path d="M146.734 118.844C145.672 118.844 144.807 117.979 144.807 116.917C144.807 115.87 145.672 115.01 146.734 115.01C147.781 115.01 148.646 115.87 148.646 116.917C148.646 117.979 147.781 118.844 146.734 118.844ZM146.734 111.562C143.76 111.562 141.365 113.958 141.365 116.917C141.365 119.88 143.76 122.286 146.734 122.286C149.682 122.286 152.088 119.88 152.088 116.917C152.088 113.958 149.682 111.562 146.734 111.562Z" fill="#1B243D"/>
<path d="M159.406 99.4531C158.021 99.4531 156.891 98.3229 156.891 96.9531C156.891 95.5677 158.021 94.4375 159.406 94.4375C160.792 94.4375 161.912 95.5677 161.912 96.9531C161.912 98.3229 160.792 99.4531 159.406 99.4531ZM159.406 90.9948C156.125 90.9948 153.448 93.6562 153.448 96.9531C153.448 100.234 156.125 102.901 159.406 102.901C162.688 102.901 165.354 100.234 165.354 96.9531C165.354 93.6562 162.688 90.9948 159.406 90.9948Z" fill="#1B243D"/>
<path d="M72.6145 7.57813H74.901V9.86458C74.901 10.8229 75.6822 11.5885 76.6249 11.5885C77.578 11.5885 78.3489 10.8229 78.3489 9.86458V7.57813H80.6353C81.5885 7.57813 82.3541 6.8125 82.3541 5.85938C82.3541 4.90104 81.5885 4.13542 80.6353 4.13542H78.3489V1.84896C78.3489 0.890625 77.578 0.125 76.6249 0.125C75.6822 0.125 74.901 0.890625 74.901 1.84896V4.13542H72.6145C71.6718 4.13542 70.8958 4.90104 70.8958 5.85938C70.8958 6.8125 71.6718 7.57813 72.6145 7.57813Z" fill="#1B243D"/>
<path d="M141.688 95.1354H143.974C144.932 95.1354 145.698 94.3698 145.698 93.4166C145.698 92.4583 144.932 91.6927 143.974 91.6927H141.688V89.4062C141.688 88.4479 140.922 87.6823 139.964 87.6823C139.026 87.6823 138.245 88.4479 138.245 89.4062V91.6927H135.969C135.016 91.6927 134.25 92.4583 134.25 93.4166C134.25 94.3698 135.016 95.1354 135.969 95.1354H138.245V97.4218C138.245 98.3645 139.026 99.1458 139.964 99.1458C140.922 99.1458 141.688 98.3645 141.688 97.4218V95.1354Z" fill="#1B243D"/>
<path d="M66.2916 23.0365C66.2916 21.948 67.1666 21.073 68.2551 21.073C69.3489 21.073 70.2343 21.948 70.2343 23.0365C70.2343 24.125 69.3489 25.0157 68.2551 25.0157C67.1666 25.0157 66.2916 24.125 66.2916 23.0365ZM73.677 23.0365C73.677 20.0521 71.2447 17.6302 68.2551 17.6302C65.2708 17.6302 62.8489 20.0521 62.8489 23.0365C62.8489 26.0261 65.2708 28.4584 68.2551 28.4584C71.2447 28.4584 73.677 26.0261 73.677 23.0365Z" fill="#1B243D"/>
<path d="M96.9009 10.2136C98.3123 10.2136 99.4425 11.3594 99.4425 12.7709C99.4425 14.1719 98.3123 15.3125 96.9009 15.3125C95.4894 15.3125 94.3436 14.1719 94.3436 12.7709C94.3436 11.3594 95.4894 10.2136 96.9009 10.2136ZM96.9009 18.7605C100.208 18.7605 102.885 16.0677 102.885 12.7709C102.885 9.46358 100.208 6.77087 96.9009 6.77087C93.5884 6.77087 90.9009 9.46358 90.9009 12.7709C90.9009 16.0677 93.5884 18.7605 96.9009 18.7605Z" fill="#1B243D"/>
</svg>
