<svg width="800" height="800" viewBox="0 0 800 800" fill="none" xmlns="http://www.w3.org/2000/svg">
<path d="M730.221 194.877L693.489 199.434L631.738 248.643L635.873 270.72L581.055 279.692L558.424 269.32L554.286 245.677L532.067 246.215L537.317 286.985L480.892 288.317L404.064 264.622L337.757 228.243L356.609 191.231L308.873 158.778L304.953 127.489L317.79 135.308L331.572 126.631L315.747 97.0215L345.357 69.9661L351.606 48.08L328.04 39.8553L284.609 47.5046L239.683 6.15381L190.126 9.61842L174.292 29.8153L209.929 56.4184L201.101 65.5292L192.298 67.4277L191.735 109.028L223.15 128.215L135.107 247.8L97.7473 244.225L74.1257 276.329L110.646 336.96L82.535 350L51.3411 344.671L36.2734 358.622L61.7873 385.258L59.335 408.809L102.935 446.24L103.846 445.538L145.692 432.923L151.021 455.071L151.861 520.68L208.357 688.631L222.098 715.058L240.741 776.741L255.673 793.846L282.169 791.812L287.215 775.341L331.726 724.382V719.683L330.815 696.132L331.867 692.769L344.203 651.76L342.944 650.991L343.433 649.8L344.203 651.76L343.713 649.378L337.406 608.511L342.944 590.357L442.76 517.806L460.492 494.255L471.498 476.874L501.778 469.092L527.926 423.32L544.606 413.083L569.07 419.674L547.692 324.345L546.71 288.948L576.92 294.763L581.827 315.163L596.2 322.382L647.157 323.083L642.11 336.258L646.526 359.114L657.532 400.609L675.898 372.778L672.181 348.037L689.984 349.929L702.953 306.538L715.012 272.123L750.618 249.625L763.726 230.135L730.221 194.877Z" fill="white"/>
</svg>
