<svg width="5" height="5" viewBox="0 0 5 5" fill="none" xmlns="http://www.w3.org/2000/svg">
<mask id="mask0_392_282" style="mask-type:luminance" maskUnits="userSpaceOnUse" x="0" y="2" width="5" height="2">
<path d="M0.0107422 2.82837H4.20818V3.12309H0.0107422V2.82837Z" fill="white"/>
</mask>
<g mask="url(#mask0_392_282)">
<path d="M0.0107422 2.9209H4.184V3.05559H0.0107422V2.9209Z" fill="#C18948"/>
</g>
<mask id="mask1_392_282" style="mask-type:luminance" maskUnits="userSpaceOnUse" x="0" y="3" width="5" height="2">
<path d="M0.0107422 3.12305H4.20818V4.89136H0.0107422V3.12305Z" fill="white"/>
</mask>
<g mask="url(#mask1_392_282)">
<path d="M0.461307 3.52995L0.303011 3.58118L0.168316 3.16903L0.0405273 3.21105L0.175223 3.62205C0.18616 3.65658 0.210336 3.68479 0.241995 3.70091C0.273654 3.71703 0.309919 3.72048 0.345032 3.70897L0.503328 3.65774C0.577007 3.79301 0.667956 3.91907 0.775022 4.03304L0.677741 4.16774C0.655868 4.19652 0.647233 4.23221 0.652414 4.26732C0.65817 4.30301 0.677741 4.33467 0.706522 4.35597L1.0329 4.59312C1.06226 4.61442 1.09795 4.62305 1.13363 4.6173C1.16932 4.61154 1.20041 4.59197 1.22113 4.56319L1.31956 4.42907C1.45944 4.49642 1.60795 4.54419 1.75991 4.57298V4.73875C1.75991 4.81301 1.82035 4.87345 1.89461 4.87345H2.29869C2.37237 4.87345 2.43281 4.81301 2.43281 4.73875V4.57298C2.58535 4.54419 2.73329 4.49584 2.87374 4.42849L2.97102 4.56261C2.99174 4.59197 3.02283 4.61097 3.05852 4.6173C3.09478 4.62305 3.13047 4.61442 3.15925 4.59312L3.48563 4.35597C3.51556 4.33467 3.53456 4.30301 3.53974 4.26732C3.54492 4.23163 3.53628 4.19652 3.51556 4.16774L3.41828 4.03189C3.52477 3.91964 3.61629 3.79416 3.68997 3.65716L3.84827 3.70897C3.88223 3.7199 3.9185 3.71703 3.95073 3.70091C3.98354 3.68421 4.00714 3.65658 4.0175 3.62205L4.1522 3.21048L4.02441 3.16846L3.88971 3.58118L3.73142 3.52937C3.67098 3.50923 3.60421 3.53628 3.5714 3.59327C3.50347 3.71875 3.41828 3.83503 3.32042 3.93922C3.27495 3.98699 3.27034 4.05952 3.30891 4.11075L3.40619 4.24545L3.07981 4.4826L2.98138 4.34733C2.94339 4.29553 2.87489 4.27768 2.81445 4.30531C2.68494 4.36748 2.54794 4.4118 2.40864 4.43828C2.34474 4.45037 2.29754 4.50563 2.29754 4.5701V4.73645H1.89403V4.5701C1.89403 4.50563 1.84741 4.44979 1.78294 4.43828C1.64306 4.4118 1.50606 4.36748 1.3754 4.30474C1.31611 4.27768 1.24761 4.29495 1.20904 4.34733L1.11176 4.48203L0.785383 4.24487L0.882087 4.11075C0.921229 4.05894 0.916625 3.98642 0.870575 3.93864C0.772144 3.83445 0.687527 3.7176 0.619028 3.59154C0.586793 3.53513 0.520021 3.50865 0.45958 3.5288L0.461307 3.52995Z" fill="#C18948"/>
</g>
<mask id="mask2_392_282" style="mask-type:luminance" maskUnits="userSpaceOnUse" x="0" y="0" width="4" height="3">
<path d="M0.266602 0.699707H3.95059V2.82836H0.266602V0.699707Z" fill="white"/>
</mask>
<g mask="url(#mask2_392_282)">
<path d="M3.91484 2.78634V1.84404C3.91484 1.80663 3.88491 1.7767 3.84749 1.7767H3.30929V0.767055C3.30929 0.729639 3.27878 0.699707 3.24194 0.699707H2.43434C2.39692 0.699707 2.36699 0.729639 2.36699 0.767055V1.43996H1.82821V1.17057C1.82821 1.15042 1.81958 1.13142 1.80403 1.11876L1.39995 0.782021C1.37519 0.761299 1.33893 0.761299 1.31418 0.782021L0.910092 1.11876C0.89455 1.13142 0.885916 1.15042 0.885916 1.17057V1.70935H0.347133C0.310293 1.70935 0.279785 1.73928 0.279785 1.7767V2.78634H0.414481V1.84404H0.885916V2.78634H1.02061V1.20223L1.35677 0.921897L1.69351 1.20223V2.78634H1.82821V1.57465H2.36699V2.78634H2.50169V0.834403H3.17459V2.78634H3.30929V1.91139H3.78015V2.78634H3.91484Z" fill="#C18948"/>
</g>
<path d="M2.63574 1.03589H2.77044V1.17058H2.63574V1.03589Z" fill="#C18948"/>
<path d="M2.90527 1.03589H3.03997V1.17058H2.90527V1.03589Z" fill="#C18948"/>
<path d="M2.63574 1.37256H2.77044V1.50725H2.63574V1.37256Z" fill="#C18948"/>
<path d="M2.90527 1.37256H3.03997V1.50725H2.90527V1.37256Z" fill="#C18948"/>
<path d="M2.63574 1.70947H2.77044V1.84417H2.63574V1.70947Z" fill="#C18948"/>
<path d="M2.90527 1.70947H3.03997V1.84417H2.90527V1.70947Z" fill="#C18948"/>
<path d="M1.15527 1.30518H1.55878V1.43987H1.15527V1.30518Z" fill="#C18948"/>
<path d="M1.15527 1.64209H1.55878V1.77679H1.15527V1.64209Z" fill="#C18948"/>
</svg>
