<svg width="5" height="9" viewBox="0 0 5 9" fill="none" xmlns="http://www.w3.org/2000/svg">
<path d="M2.34091 4.49875C1.51172 4.49875 0.839711 3.82674 0.839711 2.99755C0.839711 2.16836 1.51172 1.49555 2.34091 1.49555C3.1701 1.49555 3.84292 2.16836 3.84292 2.99755C3.84292 3.82674 3.1701 4.49875 2.34091 4.49875ZM4.37139 1.93661C3.71541 0.815515 2.27516 0.43861 1.15487 1.09378C0.0337765 1.74976 -0.343128 3.19001 0.312044 4.3103L2.34172 7.78023L4.37139 4.3103C4.78358 3.6022 4.81485 2.69442 4.37139 1.93661Z" fill="#1B243D"/>
<mask id="mask0_434_3" style="mask-type:luminance" maskUnits="userSpaceOnUse" x="0" y="6" width="5" height="3">
<path d="M0.51416 6.82666H4.20943V8.43612H0.51416V6.82666Z" fill="white"/>
</mask>
<g mask="url(#mask0_434_3)">
<path d="M2.34103 8.39273C1.88072 8.39273 1.44688 8.32136 1.11809 8.19065C0.753215 8.04711 0.552734 7.84101 0.552734 7.61166C0.552734 7.28287 0.952895 7.01423 1.6233 6.89233L1.66741 7.13211C1.09564 7.23636 0.796519 7.45208 0.796519 7.61166C0.796519 7.73035 0.950489 7.86186 1.20791 7.96371C1.50863 8.08319 1.91119 8.14895 2.34103 8.14895C2.77166 8.14895 3.17423 8.08319 3.47495 7.96371C3.73237 7.86186 3.88553 7.73035 3.88553 7.61166C3.88553 7.45208 3.58722 7.23636 3.01544 7.13211L3.05955 6.89233C3.72996 7.01423 4.13012 7.28287 4.13012 7.61166C4.13012 7.84101 3.92964 8.04711 3.56476 8.19065C3.23597 8.32136 2.80133 8.39273 2.34103 8.39273Z" fill="#231F20"/>
</g>
</svg>
