<svg width="27" height="28" viewBox="0 0 27 28" fill="none" xmlns="http://www.w3.org/2000/svg">
<path d="M26.8741 6.97442C26.8661 6.97028 26.0497 6.55565 26.1377 5.94111C26.1472 5.87575 26.1277 5.8098 26.0844 5.76011C26.0411 5.71043 25.9786 5.68174 25.9125 5.68174H25.5582L25.2882 5.41232C25.2245 5.34904 25.13 5.32833 25.0461 5.36057L24.3382 5.62999C24.1299 5.57084 23.6179 5.48685 23.1468 6.06561L22.2558 6.52844C22.2096 6.5524 22.1731 6.59144 22.1521 6.63875L21.918 7.17316C21.7058 7.30594 21.24 7.56117 20.9224 7.58542C20.8572 7.59044 20.7971 7.62327 20.7579 7.67562L20.4216 8.12337C20.3793 8.17956 20.3656 8.25201 20.3843 8.31974C20.4027 8.38746 20.4519 8.44276 20.5167 8.46968C20.6065 8.50694 20.7046 8.56254 20.7671 8.60897C20.683 8.64357 20.5093 8.69444 20.1632 8.73495L19.8151 8.54539C19.765 8.51818 19.7063 8.51049 19.6509 8.52439L19.2029 8.63618L19.2201 8.32536C19.3134 8.15442 19.5274 7.6975 19.349 7.3855C19.2722 7.25005 19.0983 7.08591 18.6687 7.13885C18.6319 7.14329 18.5967 7.15689 18.5664 7.17818L17.8185 7.70046C17.7489 7.74896 17.7122 7.83236 17.7234 7.91664L17.7984 8.47648C17.8002 8.49067 17.8034 8.50457 17.8079 8.51818L17.8458 8.63115L17.6532 8.89524L17.1468 9.10315L16.0839 8.83137L15.6727 8.58679C15.6419 8.56845 15.6072 8.55781 15.5713 8.55544L15.1038 8.52409L14.7132 8.10503C14.6794 8.06865 14.6347 8.0444 14.5858 8.03583L13.8572 7.90955C13.7004 7.65284 13.1665 7.33966 11.6011 7.17877C11.5694 7.17197 11.5243 7.14831 11.519 7.13175C11.5101 7.10514 11.5306 6.98773 11.7258 6.76858C11.7676 6.72186 11.788 6.66005 11.7824 6.59765C11.7768 6.53525 11.7457 6.47787 11.6965 6.43913C11.6778 6.42464 11.6269 6.3649 11.6319 6.33148C11.6381 6.29274 11.7246 6.19071 12.0097 6.08424C12.1033 6.04935 12.1632 5.95708 12.157 5.85741L12.1196 5.26031C12.1146 5.18401 12.0716 5.11511 12.0052 5.07725L11.2704 4.65848L11.0019 4.22256C10.9741 4.17702 10.9308 4.14272 10.8802 4.12586L10.1634 3.88779C10.1693 3.7692 10.158 3.6163 10.0937 3.46163C10.2786 3.57874 10.4422 3.67574 10.5112 3.69851C10.5347 3.7065 10.5723 3.71241 10.5969 3.71241C10.6674 3.71241 10.8324 3.71241 11.2828 3.16648C11.332 3.10674 11.3462 3.026 11.3225 2.95236C11.2988 2.87873 11.2381 2.82194 11.1634 2.80213C11.1107 2.78823 10.6526 2.64746 10.7347 2.0199C10.7412 1.96933 10.7305 1.91816 10.7044 1.8744L10.3853 1.33999L10.4988 1.02207C10.5216 0.958787 10.5148 0.888696 10.4807 0.830732C10.4467 0.772767 10.3883 0.732842 10.3219 0.721604L9.53135 0.590296L9.28571 0.161474C9.27297 0.139589 9.25697 0.119774 9.238 0.103213C9.21015 0.0789624 9.10496 0 8.91532 0C8.62731 0 8.28833 0.180105 7.90787 0.535288L7.24354 0.882782L6.59285 0.623123C6.56529 0.61218 6.53388 0.598872 6.50662 0.606857C5.94126 0.611589 4.96225 0.677834 4.75306 1.06732C4.71217 1.14362 4.6618 1.29977 4.78506 1.48846C4.79543 1.50443 4.80788 1.51892 4.8221 1.53193C4.86981 1.5754 5.23812 1.90841 5.52524 2.08437L5.4962 2.59068C5.49057 2.69182 5.55221 2.78438 5.64791 2.8178L5.98186 2.93521V3.22208C5.98186 3.28241 6.00586 3.34008 6.04853 3.38267L6.71819 4.05133L6.36528 4.16253C6.32498 4.17525 6.28913 4.19861 6.26157 4.23055L5.55132 5.05152C5.53087 5.07489 5.51576 5.10209 5.50657 5.13167L5.3276 5.69712L4.70061 5.75745C4.63394 5.76366 4.5735 5.79886 4.53557 5.85357C4.49734 5.90857 4.4852 5.97719 4.50238 6.04166L4.63039 6.52342C4.34297 6.66655 3.85524 7.00488 3.88843 7.63717C3.88991 7.66615 3.90058 7.6836 3.91272 7.70992C3.91213 7.71022 3.85731 7.76256 3.62293 7.76256C3.55449 7.76256 3.47715 7.75813 3.39211 7.74926L3.14617 7.35001L2.85727 6.91764C2.8143 6.82714 2.6943 6.62338 2.48066 6.62338C2.19413 6.62338 2.08272 6.97619 2.03619 7.15482L1.68714 7.64279C1.64892 7.69632 1.63558 7.76375 1.65099 7.82763L1.86285 8.70804L1.72566 9.28976C1.70788 9.36636 1.7307 9.4468 1.78641 9.5024L2.49399 10.2086C2.74615 10.4692 2.97609 10.8037 3.00039 10.9382C2.98883 10.9403 2.97253 10.9424 2.9512 10.9435L2.55948 10.6827C2.48659 10.6345 2.39295 10.6315 2.31799 10.6759L1.80833 10.9752L1.55825 10.8004C1.52506 10.7764 1.22727 10.5653 0.923847 10.5653C0.782508 10.5653 0.450344 10.617 0.349006 11.084L0.0361031 11.5699C-0.0228625 11.6616 -0.00834338 11.782 0.0704751 11.8571L0.8554 12.6035C0.897772 12.6437 0.954071 12.6662 1.01244 12.6662H1.53602C1.61603 12.6662 1.6901 12.6242 1.73129 12.5559L1.88922 12.293H2.48096C2.50555 12.3004 2.54022 12.314 2.54614 12.3146C2.54614 12.3146 2.5414 12.3773 2.41458 12.5104H2.13427C2.05664 12.5104 1.98404 12.55 1.94226 12.6153L1.74759 12.9208H0.934811C0.903698 12.9129 0.862215 12.9055 0.814509 12.9055C0.725023 12.9055 0.426639 12.9386 0.34071 13.365C0.334783 13.3946 0.334783 13.4248 0.34071 13.4544L0.415676 13.827C0.430491 13.9 0.479975 13.961 0.548126 13.9908L1.35972 14.3422L1.84596 14.9339C1.86848 14.9612 1.89693 14.9827 1.92893 14.9972L2.68096 15.3329C2.74645 15.3622 2.82112 15.3592 2.88423 15.3243L3.62767 14.9138C3.67894 14.8854 3.71716 14.8387 3.73464 14.7828L3.92161 14.186C3.93406 14.1458 3.93524 14.1029 3.92487 14.0621L3.76664 13.4428C3.81642 13.4138 3.91213 13.3807 4.07421 13.3757L4.49468 13.541V14.0121L4.27067 14.8026C4.25496 14.8582 4.26089 14.9177 4.28756 14.9691L4.46534 15.3113L3.98917 16.2139C3.95599 16.2769 3.95391 16.3514 3.98414 16.4159L4.21259 16.9039L4.04399 17.6104C4.0348 17.6488 4.03569 17.6891 4.04695 17.7272L4.22918 18.345L4.34 19.1562L4.49794 20.0893C4.50416 20.1265 4.51986 20.162 4.54327 20.1916L4.93499 20.6896V21.1708C4.93499 21.2181 4.94981 21.2642 4.97737 21.303L5.12196 21.5047V22.0663C5.12196 22.108 5.13352 22.1491 5.15545 22.1849L5.52287 22.7849C5.48672 23.0508 5.43368 23.8129 5.96082 24.0818L6.43047 24.5818V25.5741C6.43047 25.6199 6.4444 25.6648 6.47047 25.7027L6.85745 26.2646L6.99731 26.8576C7.00798 26.9025 7.03227 26.9433 7.06665 26.9744L7.39525 27.2695C7.48444 27.5292 7.69571 28 8.05662 28C8.30759 28 8.46078 27.7764 8.53931 27.628L8.93073 27.5076C8.99029 27.4893 9.03948 27.4476 9.06733 27.392L9.22378 27.08C9.22912 27.08 9.23475 27.08 9.24037 27.08C9.58202 27.08 9.87507 26.9649 10.0662 26.7561C10.2757 26.5269 10.3625 26.1978 10.3192 25.7503C10.3195 25.721 10.4007 25.5924 10.775 25.4986C10.8052 25.493 11.0728 25.4356 11.1836 25.1659C11.2837 24.9222 11.2135 24.6212 10.9688 24.2474L11.0245 23.7479L11.4058 23.4211C11.5451 23.4178 11.6666 23.3522 11.7409 23.2392C11.8968 23.0023 11.8387 22.5977 11.5525 21.9297L11.4414 21.1587L11.2405 20.2573L11.4784 19.9597H11.78C11.8695 19.9597 11.9504 19.9074 11.9875 19.8264L12.2053 19.3461L12.7756 19.1882C12.8402 19.1704 12.8936 19.1252 12.9214 19.0645L13.1203 18.6345C13.3431 18.4766 14.224 17.8422 14.6785 17.3694L15.2338 17.1413C15.4131 17.126 16.0116 17.0219 16.4191 16.3272C16.5803 16.2846 16.9264 16.1985 17.1862 16.1725C17.2221 16.169 17.2561 16.1571 17.2864 16.1379L18.2212 15.5408C18.3116 15.4831 18.3492 15.3702 18.3116 15.2696L18.0873 14.6728C18.0796 14.6524 18.0683 14.632 18.055 14.6145C17.9969 14.5382 17.8858 14.3339 17.9341 14.2236C17.9726 14.1352 18.1362 14.0704 18.383 14.0455C18.4002 14.0438 18.4251 14.0373 18.4417 14.0316C18.4417 14.0316 18.4627 14.0245 18.4941 14.0245C18.6337 14.0245 18.7626 14.1653 18.8568 14.4205C18.8941 14.5214 18.9955 14.5823 19.1028 14.5669L19.6263 14.4921C19.7383 14.4761 19.8216 14.3803 19.8216 14.2673V13.8577L19.9588 13.4603C19.9763 13.4097 19.9754 13.3544 19.9558 13.3044L19.5843 12.3468L19.7905 11.9937C19.8489 11.894 19.8231 11.7669 19.7306 11.6977L19.1324 11.2499C19.1105 11.2337 19.0862 11.2212 19.0601 11.2135L18.6269 11.0864L18.695 10.7702C18.709 10.7052 18.6933 10.6366 18.6527 10.5839C18.5824 10.4928 18.5167 10.3757 18.4903 10.3006C18.5546 10.3021 18.671 10.3189 18.8527 10.3772L19.6486 10.7424C19.6622 10.7486 19.6761 10.7534 19.6906 10.7569L20.6252 10.9808C20.6726 10.9917 20.7224 10.9876 20.768 10.9687L21.2611 10.7578C21.3378 10.7489 21.566 10.7401 21.6611 10.7522C21.6243 10.7936 21.5645 10.8516 21.4676 10.9287L20.9094 11.1026C20.8166 11.1316 20.7526 11.2159 20.7496 11.3129L20.7123 12.6121C20.7114 12.6508 20.72 12.689 20.7381 12.7233L21.112 13.4408C21.1482 13.5106 21.2181 13.5567 21.2966 13.5626C21.3746 13.5667 21.4507 13.5333 21.4975 13.4703L21.8949 12.9282L22.1014 13.3964C22.1453 13.7075 22.4033 14.2333 23.1195 14.2333C23.2292 14.2333 23.3474 14.2206 23.4707 14.1955C23.5397 14.1913 23.6947 14.1635 23.7996 14.0041C23.9436 13.7853 23.9145 13.4402 23.7071 12.9238L23.8384 12.7609C23.8707 12.7206 23.8885 12.6704 23.8885 12.6186V12.2667L24.2953 12.2167C24.34 12.2114 24.3824 12.1924 24.4165 12.1629L24.9774 11.6776C25.0574 11.6084 25.079 11.4933 25.0295 11.3999L24.7261 10.8279L24.7904 10.2814L25.0429 9.38174C25.1567 9.12977 25.3312 8.87159 25.4106 8.82072C25.4168 8.82486 25.423 8.8287 25.4296 8.83225L25.8408 9.05613C25.9075 9.0925 25.9872 9.09309 26.0545 9.05849L26.5778 8.78848C26.6726 8.73969 26.7206 8.63145 26.693 8.52823C26.6613 8.40935 26.6489 8.20203 26.7004 8.1349C26.7049 8.12898 26.717 8.11361 26.7724 8.11361C26.8981 8.11361 27 8.01187 27 7.88648V7.17759C27 7.09153 26.9514 7.01286 26.8741 6.97442Z" fill="#C18948"/>
</svg>
