<svg width="7" height="8" viewBox="0 0 7 8" fill="none" xmlns="http://www.w3.org/2000/svg">
<mask id="mask0_434_4" style="mask-type:luminance" maskUnits="userSpaceOnUse" x="0" y="0" width="7" height="8">
<path d="M0.43457 0.723389H6.89808V7.1869H0.43457V0.723389Z" fill="white"/>
</mask>
<g mask="url(#mask0_434_4)">
<path fill-rule="evenodd" clip-rule="evenodd" d="M4.18517 7.24945H3.21003C2.98068 7.24945 2.79303 7.0618 2.79303 6.82924V6.44272C2.72807 6.41946 2.66312 6.393 2.59816 6.36252L2.32711 6.63758C2.16272 6.79797 1.89888 6.79797 1.73449 6.63758L1.04644 5.94953C0.882044 5.78514 0.882044 5.5213 1.04644 5.35691L1.3215 5.08185C1.29103 5.0209 1.26376 4.95595 1.24131 4.89019H0.851571C0.622221 4.89019 0.43457 4.70334 0.43457 4.47399V3.49885C0.43457 3.2695 0.622221 3.08185 0.851571 3.08185H1.24131C1.26376 3.01689 1.29103 2.95194 1.3215 2.88698L1.04644 2.61593C0.882044 2.45154 0.882044 2.1877 1.04644 2.02331L1.73449 1.33526C1.89888 1.17086 2.16272 1.17086 2.32711 1.33526L2.59816 1.61032C2.66312 1.57984 2.72807 1.55258 2.79303 1.53012V1.14039C2.79303 0.911039 2.98068 0.723389 3.21003 0.723389H4.18517C4.41452 0.723389 4.60137 0.911039 4.60137 1.14039V1.53012C4.66633 1.55258 4.73208 1.57984 4.79303 1.61032L5.06809 1.33526C5.23249 1.17086 5.49632 1.17086 5.66071 1.33526L6.34876 2.02331C6.50915 2.1877 6.50915 2.45154 6.34876 2.61593L6.0737 2.88698C6.10418 2.95194 6.13064 3.01689 6.1539 3.08185H6.54042C6.77298 3.08185 6.96063 3.2695 6.96063 3.49885V4.47399C6.96063 4.70334 6.77298 4.89019 6.54042 4.89019H6.1539C6.13064 4.95595 6.10418 5.0209 6.0737 5.08185L6.34876 5.35691C6.50915 5.5213 6.50915 5.78514 6.34876 5.94953L5.66071 6.63758C5.49632 6.79797 5.23249 6.79797 5.06809 6.63758L4.79303 6.36252C4.73208 6.393 4.66633 6.41946 4.60137 6.44272V6.82924C4.60137 7.0618 4.41452 7.24945 4.18517 7.24945ZM3.696 6.15242C2.50273 6.15242 1.5316 5.18129 1.5316 3.98482C1.5316 2.79155 2.50273 1.82042 3.696 1.82042C4.89247 1.82042 5.8636 2.79155 5.8636 3.98482C5.8636 5.18129 4.89247 6.15242 3.696 6.15242Z" fill="#1B243D"/>
</g>
<path fill-rule="evenodd" clip-rule="evenodd" d="M3.34796 3.24633C1.65029 3.24633 1.65029 2.57031 3.34796 2.57031C5.04885 2.57031 5.04885 3.24633 3.34796 3.24633Z" fill="#1B243D"/>
<path fill-rule="evenodd" clip-rule="evenodd" d="M4.18527 5.33041C3.96314 5.37612 3.66482 5.40258 3.34806 5.40258C2.87733 5.40258 2.07861 5.33041 2.07861 5.06658V4.86369C2.43387 5.00483 3.21414 5.03209 3.75303 4.95912C3.85247 5.12351 4.00564 5.25343 4.18527 5.33041ZM2.07861 4.70331V4.45872C2.40339 4.58863 3.08423 4.6191 3.61911 4.56938C3.62713 4.65359 3.64638 4.73779 3.68006 4.81397C3.15319 4.87492 2.38415 4.84043 2.07861 4.70331ZM2.07861 4.29432V4.04974C2.41462 4.18687 3.13395 4.21413 3.66883 4.15639C3.63836 4.23659 3.61911 4.3248 3.6151 4.41622C3.09144 4.46594 2.36891 4.42825 2.07861 4.29432ZM2.07861 3.88855V3.60226C2.42264 3.7859 3.35127 3.81237 3.95592 3.74741C3.87172 3.81638 3.80275 3.90058 3.74581 3.992C3.7418 3.992 3.7418 3.99601 3.7378 3.99601C3.21414 4.06497 2.39618 4.0345 2.07861 3.88855ZM2.07861 3.43386V3.16602C2.53731 3.47957 4.16201 3.47957 4.62071 3.16602V3.38414C4.5293 3.43787 4.41863 3.49881 4.3649 3.51405C4.17003 3.57179 3.81398 3.62472 3.32079 3.62472C2.66001 3.62472 2.24301 3.52929 2.13234 3.46032C2.12432 3.45711 2.10508 3.44509 2.07861 3.43386Z" fill="#1B243D"/>
<path fill-rule="evenodd" clip-rule="evenodd" d="M4.54443 5.24613C4.1122 5.24613 3.76416 4.89809 3.76416 4.46987C3.76416 4.04164 4.1122 3.6936 4.54443 3.6936C4.97266 3.6936 5.3207 4.04164 5.3207 4.46987C5.3207 4.89809 4.97266 5.24613 4.54443 5.24613ZM4.54443 4.98951C4.47547 4.98951 4.46424 4.93659 4.46424 4.87885C4.20442 4.86361 4.29985 4.66072 4.40329 4.70724C4.48669 4.74172 4.63585 4.72568 4.63585 4.64228C4.63585 4.52761 4.38004 4.55808 4.31107 4.38566C4.25734 4.24854 4.33754 4.12985 4.46424 4.08414C4.46424 4.06489 4.46825 4.04565 4.46825 4.0264C4.46825 3.92696 4.62062 3.92696 4.62062 4.0264C4.62062 4.03763 4.62062 4.04966 4.62062 4.06489C4.89247 4.08414 4.781 4.27901 4.68236 4.23651C4.57491 4.18679 4.41853 4.2325 4.45221 4.32873C4.48669 4.40892 4.78902 4.40491 4.78902 4.64228C4.78902 4.75295 4.71604 4.82512 4.62062 4.8596C4.62062 4.92456 4.6134 4.98951 4.54443 4.98951Z" fill="#1B243D"/>
</svg>
