<svg width="5" height="5" viewBox="0 0 5 5" fill="none" xmlns="http://www.w3.org/2000/svg">
<mask id="mask0_79_312393" style="mask-type:luminance" maskUnits="userSpaceOnUse" x="0" y="0" width="5" height="5">
<path d="M0.719727 0.547363H4.80665V4.96584H0.719727V0.547363Z" fill="white"/>
</mask>
<g mask="url(#mask0_79_312393)">
<path fill-rule="evenodd" clip-rule="evenodd" d="M0.898745 4.81445H4.49005V4.99347H0.719727V1.76999H0.898745V4.81445ZM1.18022 4.10011L2.02351 3.4721L2.35219 3.74437C2.38097 3.76855 2.42299 3.76624 2.44947 3.74034L2.97674 3.28215L3.48962 3.87561L3.44703 3.97404L3.19433 3.71444C3.16842 3.68393 3.12353 3.6799 3.09302 3.70523L2.40227 4.27049L2.12137 3.8641C2.09834 3.82956 2.05287 3.8192 2.01833 3.8428L1.09618 4.47253C1.0628 4.49556 1.05416 4.54046 1.07719 4.57384C1.09964 4.60723 1.14454 4.61586 1.17792 4.59284L2.04078 4.0034L2.32802 4.41785C2.35219 4.45296 2.40112 4.45987 2.43393 4.43282L3.13331 3.86007L3.41824 4.15306C3.45508 4.19105 3.51783 4.17781 3.53797 4.13004L3.59554 3.99764L4.04452 4.51743C4.071 4.54794 4.11705 4.55139 4.14698 4.52491C4.16425 4.50995 4.17289 4.48865 4.17231 4.46793L4.17404 4.20084L4.30701 4.29121C4.33982 4.31309 4.38414 4.30503 4.40659 4.27279L4.6495 3.9326L4.65123 3.97404C4.65238 4.01376 4.68634 4.04542 4.72606 4.04427C4.76635 4.04254 4.79744 4.00916 4.79628 3.96886L4.78707 3.71386C4.78535 3.66839 4.74218 3.635 4.69785 3.64536L4.44918 3.70523C4.41004 3.71444 4.38644 3.75358 4.39565 3.79272C4.40486 3.83129 4.444 3.85547 4.48257 3.84626L4.54244 3.83187L4.32945 4.13119L4.14468 4.0057C4.13259 3.99707 4.1182 3.99189 4.10208 3.99189C4.06237 3.99189 4.02956 4.02412 4.02956 4.06442L4.0284 4.27625L3.66001 3.85029L3.75038 3.64191L3.98984 3.80424C4.0215 3.82553 4.06467 3.81863 4.08827 3.78869L4.63223 3.08586L4.62763 3.14457C4.62475 3.18487 4.65526 3.2194 4.69498 3.22228C4.73527 3.22516 4.76981 3.19523 4.77268 3.15493L4.7911 2.89993C4.79456 2.85446 4.75542 2.81704 4.70937 2.8228L4.45609 2.85503C4.41637 2.86021 4.38817 2.89648 4.39335 2.9362C4.39853 2.97591 4.43479 3.00412 4.47451 2.99952L4.51941 2.99376L4.01459 3.64594L3.76304 3.47498C3.72563 3.44677 3.67094 3.46059 3.65195 3.50376L3.55409 3.72825L3.03891 3.13191C3.01301 3.10198 2.96696 3.09852 2.93645 3.125L2.39767 3.59298L2.07186 3.32417C2.04711 3.30287 2.0097 3.30114 1.98264 3.32129L1.09388 3.98383C1.06165 4.00743 1.05474 4.0529 1.07834 4.08514C1.10252 4.11737 1.14799 4.12428 1.18022 4.10011ZM4.3237 1.2479H3.37968V1.47757H4.3237C4.35708 1.47757 4.38471 1.44994 4.38471 1.41655V1.30949C4.38471 1.27553 4.35708 1.2479 4.3237 1.2479ZM2.45638 0.725231H2.64749V0.619892C2.64749 0.579598 2.6803 0.547363 2.72059 0.547363C2.76088 0.547363 2.79369 0.579598 2.79369 0.619892V0.725231H2.9848C3.01013 0.725231 3.03085 0.745953 3.03085 0.77128V0.862804H2.41033V0.77128C2.41033 0.745953 2.43105 0.725231 2.45638 0.725231ZM3.15749 1.00844H2.28369C2.24167 1.00844 2.20771 1.04297 2.20771 1.08499V3.24646L2.39536 3.40188L2.45696 3.34777V2.82625C2.45696 2.76063 2.51624 2.7071 2.58935 2.7071H2.85183C2.92494 2.7071 2.98423 2.76063 2.98423 2.82625V2.96152C3.04524 2.96152 3.10626 2.98685 3.14943 3.03693L3.23405 3.13479V1.08499C3.23405 1.04297 3.19951 1.00844 3.15749 1.00844ZM2.65957 2.3151C2.65957 2.34043 2.63885 2.36115 2.61352 2.36115H2.49207C2.46674 2.36115 2.44602 2.34043 2.44602 2.3151V2.19364C2.44602 2.16832 2.46674 2.14817 2.49207 2.14817H2.61352C2.63885 2.14817 2.65957 2.16832 2.65957 2.19364V2.3151ZM2.65957 1.98009C2.65957 2.00484 2.63885 2.02556 2.61352 2.02556H2.49207C2.46674 2.02556 2.44602 2.00484 2.44602 1.98009V1.85806C2.44602 1.8333 2.46674 1.81258 2.49207 1.81258H2.61352C2.63885 1.81258 2.65957 1.8333 2.65957 1.85806V1.98009ZM2.99516 2.3151C2.99516 2.34043 2.97444 2.36115 2.94911 2.36115H2.82766C2.80233 2.36115 2.78161 2.34043 2.78161 2.3151V2.19364C2.78161 2.16832 2.80233 2.14817 2.82766 2.14817H2.94911C2.97444 2.14817 2.99516 2.16832 2.99516 2.19364V2.3151ZM2.99516 1.98009C2.99516 2.00484 2.97444 2.02556 2.94911 2.02556H2.82766C2.80233 2.02556 2.78161 2.00484 2.78161 1.98009V1.85806C2.78161 1.8333 2.80233 1.81258 2.82766 1.81258H2.94911C2.97444 1.81258 2.99516 1.8333 2.99516 1.85806V1.98009ZM3.03315 1.41655C3.03315 1.44994 3.00552 1.47757 2.97214 1.47757H2.46904C2.43566 1.47757 2.40803 1.44994 2.40803 1.41655V1.30949C2.40803 1.27553 2.43566 1.2479 2.46904 1.2479H2.97214C3.00552 1.2479 3.03315 1.27553 3.03315 1.30949V1.41655ZM1.13417 1.5996V3.45311C1.13417 3.49513 1.16814 3.52909 1.21016 3.52966L1.45825 3.53024L1.83125 3.25221H1.70462C1.67929 3.25221 1.65914 3.23149 1.65914 3.20616V3.06686C1.65914 3.04154 1.67929 3.02139 1.70462 3.02139H1.84449C1.86924 3.02139 1.88997 3.04154 1.88997 3.06686V3.20616C1.88997 3.20731 1.88997 3.20789 1.88997 3.20847C1.9412 3.17048 1.99818 3.15378 2.0615 3.16472V1.5996H1.13417ZM1.53653 3.20616C1.53653 3.23149 1.51639 3.25221 1.49106 3.25221H1.35176C1.32643 3.25221 1.30571 3.23149 1.30571 3.20616V3.06686C1.30571 3.04154 1.32643 3.02139 1.35176 3.02139H1.49106C1.51639 3.02139 1.53653 3.04154 1.53653 3.06686V3.20616ZM1.53653 2.85331C1.53653 2.87806 1.51639 2.89878 1.49106 2.89878H1.35176C1.32643 2.89878 1.30571 2.87806 1.30571 2.85331V2.71343C1.30571 2.68868 1.32643 2.66796 1.35176 2.66796H1.49106C1.51639 2.66796 1.53653 2.68868 1.53653 2.71343V2.85331ZM1.53653 2.49987C1.53653 2.5252 1.51639 2.54535 1.49106 2.54535H1.35176C1.32643 2.54535 1.30571 2.5252 1.30571 2.49987V2.36057C1.30571 2.33525 1.32643 2.31452 1.35176 2.31452H1.49106C1.51639 2.31452 1.53653 2.33525 1.53653 2.36057V2.49987ZM1.88997 2.85331C1.88997 2.87806 1.86924 2.89878 1.84449 2.89878H1.70462C1.67929 2.89878 1.65914 2.87806 1.65914 2.85331V2.71343C1.65914 2.68868 1.67929 2.66796 1.70462 2.66796H1.84449C1.86924 2.66796 1.88997 2.68868 1.88997 2.71343V2.85331ZM1.88997 2.49987C1.88997 2.5252 1.86924 2.54535 1.84449 2.54535H1.70462C1.67929 2.54535 1.65914 2.5252 1.65914 2.49987V2.36057C1.65914 2.33525 1.67929 2.31452 1.70462 2.31452H1.84449C1.86924 2.31452 1.88997 2.33525 1.88997 2.36057V2.49987ZM1.91069 1.95016C1.91069 1.98354 1.88306 2.01117 1.8491 2.01117H1.34658C1.31262 2.01117 1.28556 1.98354 1.28556 1.95016V1.84251C1.28556 1.80913 1.31262 1.7815 1.34658 1.7815H1.8491C1.88306 1.7815 1.91069 1.80913 1.91069 1.84251V1.95016ZM2.0615 1.2479H1.11748C1.0841 1.2479 1.05647 1.27553 1.05647 1.30949V1.41655C1.05647 1.44994 1.0841 1.47757 1.11748 1.47757H2.0615V1.2479ZM4.30701 1.5996H3.37968V3.30287L3.51322 3.45771L3.5184 3.44562C3.57424 3.31783 3.73541 3.27466 3.84708 3.35583L3.98351 3.4485L4.28801 3.05477C4.26729 3.02599 4.25347 2.99203 4.24887 2.95462C4.24023 2.88727 4.26383 2.8228 4.30701 2.77675V1.5996ZM3.78204 3.20616C3.78204 3.23149 3.76189 3.25221 3.73656 3.25221H3.59726C3.57194 3.25221 3.55121 3.23149 3.55121 3.20616V3.06686C3.55121 3.04154 3.57194 3.02139 3.59726 3.02139H3.73656C3.76189 3.02139 3.78204 3.04154 3.78204 3.06686V3.20616ZM3.78204 2.85331C3.78204 2.87806 3.76189 2.89878 3.73656 2.89878H3.59726C3.57194 2.89878 3.55121 2.87806 3.55121 2.85331V2.71343C3.55121 2.68868 3.57194 2.66796 3.59726 2.66796H3.73656C3.76189 2.66796 3.78204 2.68868 3.78204 2.71343V2.85331ZM3.78204 2.49987C3.78204 2.5252 3.76189 2.54535 3.73656 2.54535H3.59726C3.57194 2.54535 3.55121 2.5252 3.55121 2.49987V2.36057C3.55121 2.33525 3.57194 2.31452 3.59726 2.31452H3.73656C3.76189 2.31452 3.78204 2.33525 3.78204 2.36057V2.49987ZM4.13547 3.20616C4.13547 3.23149 4.11475 3.25221 4.09 3.25221H3.95012C3.92537 3.25221 3.90465 3.23149 3.90465 3.20616V3.06686C3.90465 3.04154 3.92537 3.02139 3.95012 3.02139H4.09C4.11475 3.02139 4.13547 3.04154 4.13547 3.06686V3.20616ZM4.13547 2.85331C4.13547 2.87806 4.11475 2.89878 4.09 2.89878H3.95012C3.92537 2.89878 3.90465 2.87806 3.90465 2.85331V2.71343C3.90465 2.68868 3.92537 2.66796 3.95012 2.66796H4.09C4.11475 2.66796 4.13547 2.68868 4.13547 2.71343V2.85331ZM4.13547 2.49987C4.13547 2.5252 4.11475 2.54535 4.09 2.54535H3.95012C3.92537 2.54535 3.90465 2.5252 3.90465 2.49987V2.36057C3.90465 2.33525 3.92537 2.31452 3.95012 2.31452H4.09C4.11475 2.31452 4.13547 2.33525 4.13547 2.36057V2.49987ZM4.15619 1.95016C4.15619 1.98354 4.12856 2.01117 4.0946 2.01117H3.59208C3.55812 2.01117 3.53107 1.98354 3.53107 1.95016V1.84251C3.53107 1.80913 3.55812 1.7815 3.59208 1.7815H4.0946C4.12856 1.7815 4.15619 1.80913 4.15619 1.84251V1.95016Z" fill="#C18948"/>
</g>
</svg>
