<svg width="6" height="7" viewBox="0 0 6 7" fill="none" xmlns="http://www.w3.org/2000/svg">
<g id="Clip path group">
<mask id="mask0_79_312378" style="mask-type:luminance" maskUnits="userSpaceOnUse" x="0" y="0" width="6" height="7">
<g id="506b6a1325">
<path id="Vector" d="M0.267578 0.629639H5.79068V6.15274H0.267578V0.629639Z" fill="white"/>
</g>
</mask>
<g mask="url(#mask0_79_312378)">
<g id="Group">
<path id="Vector_2" d="M3.03747 0.729221C4.51222 0.729221 5.70779 1.92479 5.70779 3.39953C5.70779 4.87428 4.51222 6.06985 3.03747 6.06985C1.56273 6.06985 0.367161 4.87428 0.367161 3.39953C0.367161 1.92479 1.56273 0.729221 3.03747 0.729221ZM3.03747 0.629639C1.50747 0.629639 0.267578 1.86953 0.267578 3.39953C0.267578 4.92954 1.50747 6.16943 3.03747 6.16943C4.56748 6.16943 5.80737 4.92954 5.80737 3.39953C5.80737 1.86953 4.56748 0.629639 3.03747 0.629639ZM4.36543 2.16713V3.32585L4.03848 3.1146L3.42141 3.49797L3.31723 3.56243L3.25679 3.60043V1.82406L2.5551 2.25865V3.02308L2.39047 2.91141V2.16713L3.42141 1.52819L4.36543 2.16713ZM0.732105 3.39953C0.732105 2.12626 1.7642 1.09417 3.03747 1.09417C4.31075 1.09417 5.34284 2.12626 5.34284 3.39953C5.34284 3.98782 5.12238 4.5243 4.75974 4.93184V3.70404L4.04136 3.21764L3.25679 3.70404V5.69454C3.18426 5.70145 3.11115 5.7049 3.03747 5.7049C2.96379 5.7049 2.89069 5.70145 2.81816 5.69454V3.31261L2.09978 2.82679L1.31521 3.31261V4.93184C0.952569 4.5243 0.732105 3.98782 0.732105 3.39953ZM1.4407 3.38284L1.97487 3.05186V5.4453C1.77859 5.34341 1.59899 5.2139 1.4407 5.06193V3.38284ZM3.3817 3.77369L3.91587 3.44328V5.53164C3.74722 5.60129 3.5682 5.65137 3.3817 5.67957V3.77369ZM0.500705 3.39953C0.500705 4.8006 1.63641 5.9363 3.03747 5.9363C4.43854 5.9363 5.57424 4.8006 5.57424 3.39953C5.57424 1.99847 4.43854 0.862766 3.03747 0.862766C1.63641 0.862766 0.500705 1.99847 0.500705 3.39953Z" fill="#C18948"/>
</g>
</g>
</g>
</svg>
