<svg width="45" height="37" viewBox="0 0 45 37" fill="none" xmlns="http://www.w3.org/2000/svg">
<mask id="mask0_1_103303" style="mask-type:luminance" maskUnits="userSpaceOnUse" x="0" y="0" width="45" height="37">
<path d="M0.526123 0.723969H44.4688V36.5H0.526123V0.723969Z" fill="white"/>
</mask>
<g mask="url(#mask0_1_103303)">
<path d="M41.7397 30C41.6772 29.6719 41.5574 29.3594 41.3855 29.0729C41.2136 28.7813 41.0001 28.5313 40.7397 28.3177C40.4845 28.1042 40.1928 27.9375 39.8803 27.8281C39.5626 27.7136 39.2397 27.6563 38.9011 27.6563C38.6563 27.6563 38.4167 27.6927 38.1824 27.7552V19.6094C38.4428 19.7969 38.7345 19.9219 39.0522 20C39.3647 20.0729 39.6824 20.0833 40.0053 20.0365C40.323 19.9896 40.6251 19.8802 40.9011 19.7188C41.1824 19.5521 41.422 19.3438 41.6199 19.0886C41.8178 18.8333 41.9584 18.5469 42.0522 18.2396C42.1407 17.9271 42.1667 17.6094 42.1355 17.2865C42.1042 16.9688 42.0105 16.6615 41.8595 16.375C41.7136 16.0886 41.5157 15.8386 41.2657 15.6302L38.1824 13.1198V3.82814C38.1824 3.63022 38.1095 3.45834 37.9688 3.31772C37.8282 3.17709 37.6563 3.10939 37.4584 3.10939H33.1251C32.9272 3.10939 32.7553 3.17709 32.6147 3.31772C32.474 3.45834 32.4063 3.63022 32.4063 3.82814V8.42709L23.9584 1.56772C23.7345 1.3698 23.474 1.21355 23.1928 1.10939C22.9063 1.00001 22.6147 0.947928 22.3074 0.942719C22.0053 0.942719 21.7136 0.994802 21.4272 1.09897C21.1407 1.20314 20.8855 1.35418 20.6511 1.55209L3.30737 15.6458C2.92196 15.9792 2.66675 16.3958 2.53133 16.8906C2.40112 17.3854 2.41675 17.8698 2.57821 18.3542C2.74487 18.8386 3.02612 19.2396 3.43237 19.5521C3.83862 19.8594 4.29696 20.0365 4.80217 20.0677C4.86467 20.0729 4.91675 20.0729 4.97404 20.0729C5.50529 20.0729 5.98446 19.9167 6.41154 19.6094V27.7552C6.198 27.6979 5.98446 27.6667 5.7605 27.6563C5.54175 27.6458 5.323 27.6667 5.10425 27.7083C4.8855 27.75 4.67716 27.8177 4.47925 27.9063C4.27612 28 4.08862 28.1146 3.91154 28.25C3.73967 28.3854 3.57821 28.5365 3.44279 28.7083C3.30216 28.8802 3.18237 29.0677 3.08862 29.2656C2.98967 29.4636 2.91675 29.6719 2.86987 29.8854C2.823 30.1042 2.80216 30.3229 2.80216 30.5417C2.80216 30.5729 2.80216 30.6042 2.80216 30.6354C2.16675 30.7969 1.64591 31.1406 1.24487 31.6615C0.838622 32.1823 0.635498 32.7708 0.635498 33.4323C0.640707 33.974 0.781332 34.474 1.06779 34.9375C0.91154 35.0052 0.796957 35.1146 0.718831 35.2656C0.640707 35.4167 0.619874 35.5781 0.651123 35.7448C0.687582 35.9115 0.770914 36.0469 0.906331 36.1563C1.03654 36.2656 1.18758 36.3177 1.35946 36.3177H43.2345C43.4324 36.3177 43.6042 36.25 43.7449 36.1094C43.8855 35.9636 43.9584 35.7969 43.9584 35.5938C43.9532 35.4271 43.9011 35.2813 43.7917 35.1511C43.6876 35.0208 43.547 34.9375 43.3855 34.9063C43.5261 34.6979 43.6459 34.4792 43.7345 34.2448C43.8282 34.0104 43.8907 33.7708 43.922 33.5208C43.9584 33.2708 43.9636 33.0208 43.9428 32.7708C43.922 32.5208 43.8699 32.2761 43.7865 32.0417C43.7084 31.8021 43.6043 31.5781 43.4688 31.3646C43.3386 31.1511 43.1824 30.9531 43.0053 30.7761C42.8282 30.599 42.6303 30.4479 42.4167 30.3125C42.2032 30.1823 41.9792 30.0781 41.7397 30ZM33.849 4.55209H36.7345V11.9479L33.849 9.59897V4.55209ZM4.89592 18.6302C4.59904 18.6094 4.34904 18.4896 4.15112 18.2604C3.95321 18.0365 3.86467 17.7761 3.8855 17.474C3.90112 17.1875 4.02092 16.9479 4.23446 16.75L21.5834 2.65626C21.7865 2.47397 22.0209 2.39064 22.2917 2.39064C22.573 2.39064 22.8178 2.48439 23.0313 2.67189L40.3386 16.7344C40.5626 16.9271 40.6824 17.1771 40.7032 17.474C40.724 17.7708 40.6355 18.0365 40.4376 18.2604C40.2397 18.4896 39.9845 18.6146 39.6824 18.6302C39.3751 18.6458 39.1147 18.5521 38.8907 18.3438L22.297 4.93751L5.68237 18.3594C5.45841 18.5625 5.198 18.6511 4.89592 18.6302ZM7.85946 18.4636L22.297 6.79168L36.7345 18.4583V28.6511C36.2553 29.1927 36.0157 29.8229 36.0157 30.5417C36.0157 30.5729 36.0157 30.6042 36.0157 30.6354C35.3751 30.7969 34.8542 31.1406 34.4532 31.6615C34.0522 32.1823 33.849 32.7708 33.849 33.4323C33.849 33.9479 33.9845 34.4271 34.2501 34.875H19.4063V22.599C19.4063 22.4011 19.3386 22.2292 19.198 22.0886C19.0574 21.9479 18.8855 21.8802 18.6876 21.8802H11.4688C11.2657 21.8802 11.099 21.9479 10.9584 22.0886C10.8178 22.2292 10.7449 22.4011 10.7449 22.599V34.875H10.1928C10.3334 34.6667 10.448 34.4479 10.5365 34.2136C10.6251 33.9792 10.6824 33.7396 10.7188 33.4948C10.7501 33.2448 10.7553 33 10.7292 32.75C10.7032 32.5 10.6511 32.2604 10.573 32.0208C10.4897 31.7865 10.3855 31.5625 10.2501 31.3542C10.1199 31.1406 9.96362 30.9479 9.78654 30.7708C9.60946 30.5938 9.41675 30.4427 9.20321 30.3125C8.98967 30.1823 8.76571 30.0781 8.52612 30C8.42716 29.4844 8.20321 29.0313 7.85946 28.6406V18.4636ZM7.1355 34.875H3.52612C3.33342 34.875 3.15112 34.8386 2.97404 34.7656C2.79175 34.6979 2.6355 34.5938 2.50008 34.4583C2.36467 34.3229 2.2605 34.1667 2.18758 33.9896C2.10946 33.8177 2.073 33.6302 2.073 33.4375C2.073 33.25 2.10425 33.0625 2.17716 32.8854C2.25008 32.7083 2.35425 32.5521 2.48966 32.4167C2.61987 32.2813 2.77612 32.1719 2.95321 32.099C3.13029 32.0261 3.31258 31.9896 3.50529 31.9844L3.60425 32C3.86987 32.0208 4.07821 31.9271 4.23446 31.7136C4.39592 31.5052 4.42716 31.2761 4.33862 31.0313C4.28133 30.875 4.25008 30.7136 4.24487 30.5417C4.24487 30.349 4.28133 30.1667 4.34904 29.9896C4.42196 29.8125 4.52612 29.6563 4.66154 29.5156C4.79175 29.3802 4.948 29.2761 5.12508 29.1979C5.30216 29.125 5.48446 29.0833 5.67717 29.0833C5.86987 29.0833 6.05216 29.1146 6.22925 29.1875C6.40633 29.2604 6.56258 29.3594 6.70321 29.4948C6.83862 29.6302 6.94279 29.7865 7.02092 29.9583C7.09383 30.1354 7.1355 30.3229 7.1355 30.5104C7.1355 30.5365 7.13029 30.5573 7.13029 30.5781C7.13029 30.7604 7.19279 30.9167 7.30737 31.0521C7.42716 31.1875 7.573 31.2656 7.75008 31.2917C7.97925 31.3229 8.18758 31.3958 8.3855 31.5104C8.58862 31.6198 8.75529 31.7656 8.90112 31.9427C9.04696 32.1198 9.15112 32.3177 9.21883 32.5365C9.28654 32.7552 9.31258 32.974 9.29696 33.2031C9.28133 33.4323 9.22404 33.6458 9.12508 33.8542C9.02612 34.0573 8.89592 34.2396 8.72404 34.3958C8.55737 34.5469 8.36987 34.6667 8.15633 34.75C7.94279 34.8333 7.72404 34.875 7.49487 34.875H7.1355ZM12.1876 34.875V23.3229H17.9636V34.875H12.1876ZM37.4584 34.875H36.7345C36.547 34.875 36.3595 34.8386 36.1824 34.7656C36.0053 34.6979 35.849 34.5938 35.7136 34.4583C35.5782 34.3229 35.4688 34.1667 35.3959 33.9896C35.323 33.8177 35.2865 33.6302 35.2813 33.4375C35.2813 33.25 35.3178 33.0625 35.3907 32.8854C35.4636 32.7083 35.5626 32.5521 35.698 32.4167C35.8334 32.2813 35.9897 32.1719 36.1667 32.099C36.3438 32.0261 36.5261 31.9896 36.7188 31.9844L36.8178 32C37.0782 32.0208 37.2917 31.9271 37.448 31.7136C37.6042 31.5052 37.6407 31.2761 37.5522 31.0313C37.4897 30.875 37.4584 30.7136 37.4584 30.5417C37.4584 30.349 37.4897 30.1667 37.5626 29.9896C37.6355 29.8125 37.7345 29.6563 37.8699 29.5156C38.0053 29.3802 38.1615 29.2761 38.3334 29.1979C38.5105 29.125 38.698 29.0886 38.8855 29.0833C39.0782 29.0833 39.2605 29.1146 39.4428 29.1875C39.6199 29.2604 39.7761 29.3646 39.9115 29.4948C40.047 29.6302 40.1563 29.7865 40.2292 29.9636C40.3074 30.1354 40.3438 30.3229 40.3438 30.5104C40.3438 30.5365 40.3438 30.5573 40.3438 30.5781C40.3438 30.7604 40.4011 30.9167 40.5209 31.0521C40.6355 31.1875 40.7865 31.2656 40.9636 31.2917C41.1876 31.3229 41.4011 31.3958 41.599 31.5104C41.797 31.6198 41.9688 31.7656 42.1147 31.9427C42.2553 32.1198 42.3595 32.3177 42.4324 32.5365C42.5001 32.7552 42.5261 32.974 42.5105 33.2031C42.4897 33.4323 42.4324 33.6458 42.3386 33.8542C42.2397 34.0573 42.1042 34.2396 41.9376 34.3958C41.7709 34.5469 41.5782 34.6667 41.3699 34.75C41.1563 34.8333 40.9376 34.875 40.7084 34.875H37.4584Z" fill="#C18948"/>
</g>
</svg>
