<svg width="22" height="27" viewBox="0 0 22 27" fill="none" xmlns="http://www.w3.org/2000/svg">
<g id="Clip path group">
<mask id="mask0_2_236576" style="mask-type:luminance" maskUnits="userSpaceOnUse" x="0" y="0" width="22" height="27">
<g id="82c8096c9a">
<path id="Vector" d="M0.55127 0.0811768H21.9608V26.3699H0.55127V0.0811768Z" fill="white"/>
</g>
</mask>
<g mask="url(#mask0_2_236576)">
<g id="Group">
<path id="Vector_2" d="M1.6503 17.946V19.1261C1.6503 19.3621 1.9507 19.6067 2.4442 19.8127C3.47841 20.2504 5.05333 20.332 6.28066 20.0874L5.10912 18.6627C3.86892 18.6927 2.53003 18.4781 1.6503 17.946ZM9.37042 17.3753L11.0912 23.6149L12.8121 17.3753H9.37042ZM10.1772 23.4947L8.49069 17.3753H5.15633L10.1772 23.4947ZM13.6875 17.3753L12.001 23.4947L17.0219 17.3753H13.6875ZM15.6444 14.2254L14.1467 16.5299H17.1377L15.6444 14.2254ZM16.0134 13.247L18.2578 16.6972C18.3908 16.8775 18.3736 17.0834 18.2234 17.2508L17.8072 17.7572C19.807 18.0447 21.3304 19.7655 21.3304 21.8254C21.3304 24.0912 19.4937 25.9279 17.2236 25.9279C15.4598 25.9279 13.9235 24.8121 13.3485 23.1857L11.4174 25.5417C11.25 25.7477 10.9325 25.7605 10.7608 25.5502L8.85975 23.2329V23.9281C8.85975 24.5375 8.35766 25.0525 7.5466 25.3958C6.02747 26.0352 3.6329 26.0352 2.11377 25.3958C1.29841 25.0525 0.796327 24.5375 0.796327 23.9281V16.7187C0.796327 16.1136 1.29841 15.5986 2.11377 15.2467C2.92483 14.9034 3.99766 14.7404 5.13916 14.7747L6.13046 13.2169C6.21199 13.0925 6.34932 13.0238 6.48664 13.0238H15.6401C15.8031 13.0195 15.9447 13.1097 16.0134 13.247ZM13.3657 16.1737L14.8676 13.8692H11.8766L13.3657 16.1737ZM8.03152 16.5256L6.53384 14.2168L5.04046 16.5256H8.03152ZM7.31487 13.8692L8.81684 16.1737L10.3059 13.8692H7.31487ZM3.92471 16.6886L4.60703 15.6201C3.75735 15.6416 2.99778 15.796 2.44849 16.0278C1.39282 16.4741 1.39282 16.9504 2.44849 17.3967C2.95916 17.6113 3.64578 17.7572 4.40963 17.8001L3.94617 17.2379C3.80455 17.0877 3.79168 16.856 3.92471 16.6886ZM6.88144 20.8126C5.28507 21.2417 2.95058 21.143 1.6503 20.3491V21.5293C1.6503 21.761 1.9507 22.0099 2.4442 22.2159C3.65436 22.7223 5.60262 22.7523 6.9029 22.3275C7.27625 22.2073 7.57235 22.0614 7.76975 21.8983L6.88144 20.8126ZM14.8333 21.3834L14.0179 22.3747C14.284 23.9238 15.6315 25.0739 17.2279 25.0739C19.0259 25.0739 20.4807 23.6149 20.4807 21.8211C20.4807 20.023 19.0259 18.564 17.2279 18.564C17.1935 18.564 17.1721 18.564 17.1463 18.564L14.8333 21.3834ZM11.0912 14.2254L9.59786 16.5299H12.5889L11.0912 14.2254ZM7.48652 7.8914C7.46506 8.12742 7.25908 8.29907 7.02306 8.27762C6.79132 8.25187 6.61967 8.04588 6.64113 7.81415C6.84282 5.74144 7.89849 3.86183 9.50774 2.55297C6.17766 3.06793 3.32392 5.18785 1.85629 8.19179C2.96774 7.77124 4.23798 7.78411 5.34514 8.20896C5.84723 8.40207 6.30211 8.681 6.67975 9.02002H7.98432C8.36195 8.681 8.81684 8.40636 9.32321 8.20896C10.4518 7.77124 11.7392 7.77124 12.8636 8.20896C13.3657 8.40207 13.8248 8.681 14.2025 9.02002H15.507C15.8847 8.681 16.3353 8.40636 16.8459 8.20896C17.9488 7.77982 19.219 7.77124 20.3348 8.19179C18.8629 5.18785 16.0091 3.06793 12.679 2.55297C14.284 3.86183 15.3483 5.73714 15.5457 7.81415C15.5714 8.04588 15.3997 8.25187 15.1637 8.27762C14.9277 8.29907 14.7217 8.12742 14.7003 7.8914C14.4814 5.6127 13.091 3.62581 11.0955 2.4886C9.08719 3.62581 7.70967 5.60411 7.48652 7.8914ZM10.6621 0.518879C10.6621 0.287146 10.8509 0.0983276 11.087 0.0983276C11.3187 0.0983276 11.5161 0.287146 11.5161 0.518879V1.58313C16.0821 1.75478 20.0687 4.7201 21.5793 8.98998C21.7166 9.38049 21.266 9.74096 20.9055 9.45344C20.6008 9.2303 20.2404 9.05006 19.8542 8.92132C18.5367 8.50077 16.9489 8.77541 15.9619 9.74525C15.8847 9.82679 15.7774 9.86541 15.6658 9.86541H14.0265C13.8978 9.86541 13.7862 9.80962 13.7047 9.7238C13.3828 9.41482 12.9966 9.17021 12.5503 8.99856C12.2284 8.86982 11.8809 8.78399 11.5161 8.74966V11.8094C11.5161 12.0454 11.3273 12.2342 11.087 12.2342C10.8509 12.2342 10.6621 12.0454 10.6621 11.8094V8.75825C9.8253 8.84407 9.02711 9.1788 8.44778 9.75384C8.37054 9.83108 8.25896 9.87399 8.15168 9.87399H6.5081C6.38365 9.87399 6.26778 9.81392 6.19054 9.72809C5.87298 9.41911 5.48247 9.17451 5.03617 9.00285C3.80885 8.52651 2.2983 8.681 1.24692 9.47061C1.0581 9.61651 0.796326 9.5736 0.654713 9.38478C0.568886 9.27321 0.551721 9.12301 0.594634 8.98998C2.10518 4.72439 6.08755 1.75478 10.6664 1.58313V0.518879H10.6621ZM3.46125 12.8393C3.28959 12.6805 3.27672 12.4102 3.43121 12.2385C3.59428 12.0669 3.86034 12.0583 4.032 12.2128L4.83877 12.9552C5.01042 13.114 5.02329 13.3843 4.86451 13.556C4.70144 13.7276 4.43538 13.7362 4.26373 13.5774L3.46125 12.8393ZM18.1419 12.2171C18.3136 12.0583 18.5839 12.0669 18.7427 12.2471C18.9058 12.4188 18.8929 12.6848 18.7212 12.8479L17.9145 13.5903C17.7428 13.7491 17.4725 13.7362 17.3137 13.5645C17.1592 13.3929 17.1635 13.1268 17.3437 12.968L18.1419 12.2171ZM6.98873 10.7966C6.92865 10.5735 7.0531 10.3332 7.27625 10.2731C7.49939 10.2087 7.73971 10.3332 7.80408 10.5563L8.12164 11.6635C8.18601 11.8866 8.06156 12.1184 7.83841 12.187C7.61526 12.2514 7.37495 12.1269 7.31058 11.8952L6.98873 10.7966ZM14.3784 10.5649C14.4428 10.3418 14.6788 10.2087 14.9062 10.2774C15.1294 10.3418 15.2624 10.5735 15.1981 10.8052L14.8762 11.9081C14.8161 12.1312 14.5801 12.2643 14.3527 12.1999C14.1295 12.1312 13.9965 11.9038 14.0651 11.6721L14.3784 10.5649ZM15.7774 22.7695C15.7516 22.5334 15.9233 22.3275 16.1593 22.306C16.391 22.2845 16.597 22.4562 16.6228 22.6879C16.6571 23.0312 17.3137 23.2372 17.6913 22.9282C17.7814 22.8553 17.8415 22.7652 17.8415 22.6622C17.8415 22.3704 17.4982 22.3017 17.1549 22.233C16.4683 22.0957 15.7774 21.9627 15.7774 20.9671C15.7774 20.3663 16.2323 19.9114 16.7987 19.7569V19.5595C16.7987 19.3278 16.9875 19.139 17.2321 19.139C17.4725 19.139 17.6613 19.3321 17.657 19.5681L17.6527 19.7484C18.2192 19.8986 18.6869 20.362 18.6869 20.9628C18.6869 21.1945 18.4981 21.3834 18.2621 21.3834C18.0303 21.3834 17.8415 21.1945 17.8415 20.9628C17.8415 20.6023 17.1592 20.3792 16.7687 20.6925C16.6786 20.7654 16.6228 20.8598 16.6228 20.9628C16.6228 21.2546 16.9661 21.3233 17.3094 21.3919C17.996 21.5293 18.6869 21.658 18.6869 22.6536C18.6869 23.2544 18.2234 23.7178 17.6527 23.868L17.6441 24.0569C17.6441 24.2886 17.4553 24.4774 17.2236 24.4774C16.9875 24.4774 16.7987 24.2886 16.7987 24.0569V23.8766C16.2666 23.735 15.8289 23.323 15.7774 22.7695ZM1.6503 22.7566V23.9367C1.6503 24.1684 1.9507 24.4173 2.4442 24.6233C3.74018 25.1726 5.91589 25.1726 7.22046 24.6233C7.70967 24.4173 8.01436 24.1684 8.01436 23.9367V22.7566C6.42227 23.7221 3.19948 23.7007 1.6503 22.7566Z" fill="#C18948"/>
</g>
</g>
</g>
</svg>
