<svg width="7" height="7" viewBox="0 0 7 7" fill="none" xmlns="http://www.w3.org/2000/svg">
<mask id="mask0_79_348375" style="mask-type:luminance" maskUnits="userSpaceOnUse" x="0" y="0" width="7" height="7">
<path d="M0.656738 0.260742H6.96628V6.87822H0.656738V0.260742Z" fill="white"/>
</mask>
<g mask="url(#mask0_79_348375)">
<path d="M4.67353 3.27281C4.63504 3.25998 4.60135 3.24394 4.57569 3.22068C4.54602 3.19422 4.53079 3.15252 4.53079 3.09478C4.53079 2.99534 4.5797 2.9352 4.67353 2.91034V3.27281ZM4.16832 1.88869C4.28058 1.95284 4.40408 1.98652 4.52116 1.98652C4.55725 1.98652 4.59334 1.98251 4.62862 1.9761V2.20705C4.6615 2.20304 4.69678 2.20144 4.73127 2.20144C4.76655 2.20144 4.80103 2.20304 4.83471 2.20705V1.97449C4.8692 1.98171 4.90528 1.98492 4.94137 1.98492C5.05845 1.98492 5.18275 1.95204 5.29422 1.88708C5.4971 1.77 5.62862 1.56792 5.62942 1.37145C5.63103 1.33456 5.61018 1.29927 5.57649 1.28003C5.40649 1.18219 5.16431 1.19663 4.96222 1.3129C4.91571 1.33937 4.8716 1.37145 4.83311 1.40673V1.34578C4.97345 1.23672 5.06166 1.04185 5.06166 0.83175C5.06166 0.597588 4.9518 0.38187 4.78179 0.283233C4.74971 0.263987 4.70961 0.263987 4.67754 0.283233C4.50833 0.38187 4.39767 0.597588 4.39767 0.83175C4.39767 1.04185 4.48508 1.23672 4.62541 1.34578V1.40673C4.58692 1.37064 4.54442 1.33857 4.4971 1.3129C4.29342 1.19502 4.05204 1.18219 3.88123 1.28003C3.84755 1.29847 3.8283 1.33295 3.8283 1.37145C3.83471 1.56872 3.96623 1.77241 4.16832 1.88869ZM4.95821 3.62966C4.95821 3.57513 4.94538 3.53424 4.92052 3.50456C4.89887 3.4789 4.85797 3.45645 4.79943 3.43881V3.84298C4.90368 3.82293 4.95821 3.75156 4.95821 3.62966ZM3.68475 3.37786C3.68475 2.83175 4.10657 2.38107 4.63985 2.33456C4.66952 2.33215 4.70079 2.33055 4.73287 2.33055C4.76334 2.33055 4.79462 2.33215 4.82509 2.33536C4.83953 2.33536 4.85396 2.33696 4.8692 2.33937C4.94297 2.34979 5.01595 2.36663 5.08572 2.3923C5.38083 2.49815 5.61178 2.7275 5.71844 3.021C5.7441 3.09077 5.76094 3.16294 5.77136 3.23752C5.77778 3.28163 5.78179 3.33055 5.78179 3.37786C5.78179 3.62165 5.69678 3.85902 5.54041 4.04667C5.34634 4.28003 5.06246 4.41796 4.76014 4.42598C4.75452 4.42598 4.7441 4.42598 4.73287 4.42598C4.72405 4.42598 4.71362 4.42598 4.704 4.42598C4.67994 4.42598 4.65508 4.42437 4.63103 4.42197C4.09213 4.37064 3.68475 3.92157 3.68475 3.37786ZM4.67353 3.40914V3.84458C4.63584 3.83416 4.60216 3.82052 4.5781 3.79727C4.50753 3.73151 4.50753 3.6425 4.50753 3.62646C4.51234 3.57273 4.46984 3.53183 4.42734 3.53263C4.38724 3.53424 4.35035 3.57674 4.35677 3.62646C4.3704 3.82373 4.47625 3.936 4.67433 3.96407V4.04827C4.67433 4.08275 4.7032 4.11162 4.73768 4.11162C4.77297 4.11162 4.80103 4.08275 4.80103 4.04827V3.96407C4.89406 3.95525 4.96864 3.92076 5.02397 3.85741C5.08171 3.79085 5.11138 3.71226 5.11138 3.62004C5.11138 3.53263 5.08812 3.46447 5.04161 3.41315C4.99911 3.36503 4.91731 3.32894 4.80103 3.30248V2.91034C4.83471 2.91836 4.86439 2.93119 4.88443 2.95284C4.93095 2.99935 4.93255 3.05869 4.93255 3.06912C4.93495 3.10922 4.96944 3.13809 5.00873 3.13809C5.04722 3.13809 5.08091 3.10761 5.08331 3.06912C5.06647 2.90152 4.97104 2.80849 4.80103 2.78764V2.70585C4.80103 2.67056 4.77297 2.6425 4.73768 2.6425C4.7032 2.6425 4.67433 2.67056 4.67433 2.70585V2.78925C4.58852 2.80047 4.51876 2.83175 4.46583 2.88307C4.40889 2.94001 4.38083 3.01379 4.38083 3.10521C4.38002 3.26319 4.47786 3.36423 4.67353 3.40914ZM1.4105 2.70424H1.83071V3.93199C1.83071 3.98893 1.87722 4.03544 1.93415 4.03544H2.77537C2.83231 4.03544 2.87882 3.98893 2.87882 3.93199V2.70424H3.29743C3.3704 2.70424 3.43536 2.66415 3.46743 2.59999C3.49951 2.53504 3.49149 2.45966 3.44899 2.40112L2.50512 1.14851C2.46904 1.1012 2.4129 1.07393 2.35436 1.07393C2.29342 1.07393 2.23808 1.1012 2.202 1.14851L1.25733 2.40031C1.21322 2.45805 1.20681 2.53424 1.23969 2.59839C1.27257 2.66415 1.33832 2.70424 1.4105 2.70424ZM6.93496 4.34498C6.9101 4.17979 6.72966 4.08837 6.58291 4.16535L5.15548 4.91034C5.12581 4.92558 5.09053 4.93119 5.05845 4.92317L4.98307 4.90633C4.99831 4.95765 5.00312 5.01459 4.9959 5.07233C4.98147 5.18219 4.92373 5.27842 4.83471 5.34338C4.76495 5.3931 4.68475 5.41956 4.60135 5.41956C4.57649 5.41956 4.55244 5.41635 4.52758 5.41315L3.2878 5.18379C3.23167 5.17337 3.19398 5.11884 3.2044 5.0627C3.21643 5.00657 3.26856 4.96808 3.32549 4.98011L4.56607 5.20946C4.619 5.21988 4.67112 5.20705 4.71443 5.17578C4.75853 5.1437 4.7858 5.09719 4.79301 5.04586C4.80585 4.94482 4.7433 4.8534 4.64386 4.83175L4.2044 4.73392H4.2028L2.84354 4.43239C2.67513 4.3947 2.4971 4.41395 2.33993 4.48612L1.56527 4.84298L2.22285 6.27602L2.68235 6.06511C2.80665 6.00817 2.94297 5.98331 3.0785 5.99374L4.71202 6.12445C4.85476 6.13568 4.9959 6.09478 5.11058 6.01058C5.47144 5.74274 6.29422 5.13167 6.74971 4.79326C6.88844 4.68981 6.95901 4.5174 6.93496 4.34498ZM1.33832 4.70665C1.31186 4.64651 1.24049 4.62004 1.18034 4.64731L0.743295 4.84699C0.682349 4.87425 0.656687 4.94482 0.683953 5.00577L1.49229 6.77241C1.51876 6.83255 1.59013 6.85821 1.65027 6.83175L2.08732 6.63207C2.14747 6.6048 2.17393 6.53424 2.14666 6.47329L1.33832 4.70665Z" fill="#1B243D"/>
</g>
</svg>
