<svg width="150" height="103" viewBox="0 0 150 103" fill="none" xmlns="http://www.w3.org/2000/svg">
<mask id="mask0_2_289588" style="mask-type:luminance" maskUnits="userSpaceOnUse" x="0" y="0" width="150" height="103">
<path d="M0.84375 0.541626H149.771V102.495H0.84375V0.541626Z" fill="white"/>
</mask>
<g mask="url(#mask0_2_289588)">
<path d="M142.708 0.541626H7.82308C3.98975 0.541626 0.849121 3.68225 0.849121 7.52079V86.5885C0.849121 90.427 3.98975 93.5677 7.82308 93.5677H61.3127V98.2187H48.521C47.245 98.2187 46.1981 99.2656 46.1981 100.542C46.1981 101.823 47.245 102.87 48.521 102.87H102.011C103.292 102.87 104.339 101.823 104.339 100.542C104.339 99.2656 103.292 98.2187 102.011 98.2187H89.2189V93.5677H142.708C146.547 93.5677 149.682 90.427 149.682 86.5885V7.52079C149.682 3.68225 146.547 0.541626 142.708 0.541626ZM84.5679 98.2187H65.9637V93.5677H84.5679V98.2187ZM61.3127 88.9166H7.82308C6.54704 88.9166 5.50016 87.8698 5.50016 86.5885V7.52079C5.50016 6.23954 6.54704 5.19267 7.82308 5.19267H142.708C143.99 5.19267 145.031 6.23954 145.031 7.52079V63.6823L141.427 60.1927C140.38 59.1458 138.99 58.6823 137.594 58.5677C136.427 58.5677 135.151 58.9166 134.104 59.7291L130.266 55.776C132.245 51.7083 133.406 47.1718 133.406 42.401C133.406 25.6614 119.917 12.1718 103.172 12.1718C86.4272 12.1718 72.9429 25.6614 72.9429 42.401C72.9429 59.1458 86.4272 72.6354 103.172 72.6354C109.219 72.6354 114.917 70.8906 119.568 67.75L122.823 71.125C122.125 72.052 121.776 73.3333 121.776 74.4948C121.776 76.125 122.36 77.5208 123.521 78.6823L134.219 88.9166H61.3127ZM126.078 67.75L123.292 64.9635C124.917 63.4479 126.427 61.8229 127.708 59.9635L130.729 63.0989L126.078 67.75ZM103.172 67.9843C89.1043 67.9843 77.5939 56.4739 77.5939 42.401C77.5939 28.3333 89.1043 16.8229 103.172 16.8229C117.245 16.8229 128.755 28.3333 128.755 42.401C128.755 56.4739 117.245 67.9843 103.172 67.9843ZM142.708 88.9166H141.078C141.078 88.9166 126.662 75.3125 126.662 75.1927C126.198 74.7291 126.313 74.0312 126.776 73.5677L137.125 63.3333C137.474 63.2187 137.823 63.2187 138.172 63.5677L145.031 70.0781V86.5885C145.031 87.8698 143.99 88.9166 142.708 88.9166Z" fill="#1B243D"/>
</g>
</svg>
