<svg width="27" height="26" viewBox="0 0 27 26" fill="none" xmlns="http://www.w3.org/2000/svg">
<g id="Clip path group">
<mask id="mask0_2_283351" style="mask-type:luminance" maskUnits="userSpaceOnUse" x="0" y="0" width="27" height="26">
<g id="c7b75e5f76">
<path id="Vector" d="M0.786621 0.426636H26.0184V25.6552H0.786621V0.426636Z" fill="white"/>
</g>
</mask>
<g mask="url(#mask0_2_283351)">
<g id="Group">
<path id="Vector_2" d="M11.8467 0.426664C11.7056 0.423456 11.5805 0.471572 11.4746 0.561388C11.3688 0.651203 11.3046 0.76668 11.279 0.904611L10.7529 4.14118C10.1242 4.32402 9.52436 4.57101 8.9566 4.87895L6.28779 2.97037C6.17231 2.89018 6.04721 2.85489 5.90607 2.86772C5.76814 2.87735 5.64946 2.93188 5.55002 3.03132L3.42652 5.15481C3.32708 5.25104 3.27255 5.36973 3.25972 5.50766C3.2501 5.6488 3.28218 5.7739 3.36237 5.88617L5.24208 8.57743C4.93093 9.14519 4.68073 9.74824 4.49148 10.3834L1.26774 10.919C1.12981 10.9415 1.01433 11.0057 0.924518 11.1115C0.834703 11.2206 0.789795 11.3425 0.789795 11.4836V14.486C0.789795 14.6239 0.834702 14.7458 0.921311 14.8517C1.01113 14.9575 1.1234 15.0249 1.26133 15.0474L4.48506 15.6183C4.67111 16.2534 4.92452 16.8565 5.23566 17.4275L3.3335 20.0866C3.2501 20.2021 3.21802 20.3272 3.22765 20.4684C3.24048 20.6063 3.29501 20.725 3.39445 20.8244L5.51473 22.9479C5.61417 23.0474 5.73286 23.1019 5.87079 23.1147C6.00872 23.1275 6.13382 23.0923 6.2493 23.0153L8.94056 21.1259C9.50832 21.4371 10.1114 21.6841 10.7433 21.8701L11.279 25.1099C11.3046 25.2478 11.3688 25.3633 11.4746 25.4531C11.5805 25.5429 11.7056 25.5879 11.8435 25.5879H14.8459C14.9871 25.5879 15.109 25.5429 15.2148 25.4563C15.3207 25.3665 15.3848 25.2542 15.4105 25.1163L15.9879 21.8605C16.6166 21.6713 17.2132 21.4211 17.7778 21.1099L20.4915 23.0121C20.6037 23.0923 20.7288 23.1275 20.8668 23.1147C21.0079 23.1019 21.1234 23.0474 21.2228 22.9479L23.3463 20.8244C23.4458 20.725 23.5003 20.6063 23.5099 20.4652C23.5228 20.3272 23.4875 20.1989 23.4041 20.0866L21.4698 17.4018C21.7746 16.8405 22.0216 16.2438 22.2076 15.6215L25.4795 15.0474C25.6142 15.0249 25.7297 14.9575 25.8163 14.8517C25.9061 14.7458 25.951 14.6239 25.951 14.486V11.4836C25.951 11.3425 25.9061 11.2174 25.8163 11.1115C25.7232 11.0057 25.611 10.9415 25.473 10.919L22.2044 10.3834C22.0183 9.76107 21.7746 9.16764 21.4698 8.6063L23.3752 5.88937C23.4554 5.7739 23.4875 5.6488 23.4778 5.51087C23.465 5.37294 23.4105 5.25425 23.311 5.15481L21.1908 3.03452C21.0913 2.93508 20.9694 2.87735 20.8315 2.86772C20.6904 2.85489 20.5653 2.89018 20.4498 2.97358L17.7714 4.8982C17.2068 4.59026 16.6102 4.34006 15.9815 4.15401L15.4105 0.898196C15.388 0.763473 15.3207 0.647996 15.2148 0.55818C15.109 0.471572 14.9871 0.426664 14.8491 0.426664H11.8467ZM12.3311 1.56861H14.368L14.9069 4.6512C14.9518 4.89499 15.0929 5.04896 15.3335 5.1067C16.129 5.30557 16.8764 5.61993 17.5564 6.03372C17.7746 6.16524 17.9831 6.15561 18.1884 6.00806L20.7224 4.18609L22.1627 5.62634L20.3568 8.19892C20.2124 8.401 20.206 8.6095 20.3343 8.82121C20.7449 9.50445 21.0528 10.2454 21.2517 11.0377C21.3126 11.2815 21.4666 11.4227 21.7136 11.4644L24.809 11.968V14.0049L21.7072 14.547C21.4634 14.5919 21.3094 14.733 21.2517 14.9736C21.056 15.7659 20.7449 16.5069 20.3343 17.1901C20.206 17.405 20.2156 17.6135 20.3632 17.8188L22.1916 20.3593L20.7545 21.7996L18.1819 19.9968C17.9799 19.8525 17.7714 19.8461 17.5564 19.9776C16.8796 20.3914 16.129 20.7057 15.3367 20.9078C15.0993 20.9688 14.9582 21.1195 14.9165 21.3601L14.368 24.4459H12.3279L11.8179 21.3761C11.7762 21.1292 11.635 20.9752 11.3912 20.9174C10.5957 20.7186 9.84513 20.4074 9.15868 19.9936C8.94697 19.8653 8.73847 19.8749 8.53639 20.0161L5.98627 21.7996L4.54601 20.3593L6.34553 17.8413C6.49308 17.636 6.50271 17.4275 6.37119 17.2125C5.95419 16.5229 5.63663 15.7723 5.44096 14.9736C5.38001 14.733 5.22925 14.5887 4.98546 14.547L1.93174 14.0049V11.968L4.98226 11.4611C5.22925 11.4194 5.38322 11.2783 5.44417 11.0345C5.64625 10.2326 5.96061 9.482 6.3744 8.79234C6.50271 8.58063 6.49629 8.37534 6.35515 8.17005L4.57488 5.62634L6.01514 4.18288L8.5428 5.98881C8.7481 6.13637 8.9566 6.14278 9.17151 6.01448C9.85475 5.60389 10.6054 5.29274 11.4009 5.09707C11.6479 5.03613 11.789 4.88216 11.8307 4.63516L12.3311 1.56861ZM13.1491 7.37454C10.7722 7.37454 9.46983 8.74743 9.40888 10.6432H11.2854C11.3495 9.66804 12.0135 9.04575 13.0432 9.04575C14.0504 9.04575 14.724 9.64238 14.724 10.4732C14.724 11.2655 14.3872 11.6889 13.396 12.2887C12.2926 12.9367 11.8307 13.6552 11.9013 14.8549L11.9109 15.4002H13.7649V14.9447C13.7649 14.1524 14.06 13.745 15.1058 13.1292C16.1932 12.4812 16.7994 11.6247 16.7994 10.4026C16.7994 8.63516 15.3367 7.37454 13.1491 7.37454ZM12.9245 16.6608C12.1258 16.6608 11.5965 17.1644 11.5965 17.9407C11.5965 18.7073 12.1258 19.2109 12.9245 19.2109C13.7393 19.2109 14.2493 18.7073 14.2493 17.9407C14.2493 17.1644 13.7393 16.6608 12.9245 16.6608Z" fill="#E8C69F"/>
</g>
</g>
</g>
</svg>
